G04 #@! TF.FileFunction,Soldermask,Top*
%FSLAX46Y46*%
G04 Gerber Fmt 4.6, Leading zero omitted, Abs format (unit mm)*
G04 Created by KiCad (PCBNEW 4.0.7) date 03/24/19 02:31:51*
%MOMM*%
%LPD*%
G01*
G04 APERTURE LIST*
%ADD10C,0.100000*%
%ADD11C,3.900000*%
%ADD12R,0.900000X1.000000*%
%ADD13R,1.000000X0.900000*%
%ADD14R,1.150000X1.200000*%
%ADD15C,1.700000*%
%ADD16R,1.200000X1.200000*%
%ADD17R,1.600000X1.300000*%
%ADD18R,2.200000X2.300000*%
%ADD19R,2.300000X2.300000*%
%ADD20R,0.800000X1.750000*%
%ADD21R,2.500000X2.000000*%
%ADD22R,2.350000X2.350000*%
%ADD23C,2.350000*%
%ADD24R,2.100000X2.100000*%
%ADD25O,2.100000X2.100000*%
%ADD26R,1.300000X0.900000*%
%ADD27R,1.650000X1.400000*%
%ADD28R,2.900000X1.300000*%
%ADD29R,1.000000X0.800000*%
%ADD30R,0.800000X1.000000*%
%ADD31R,1.330000X1.710000*%
%ADD32R,3.640000X1.710000*%
%ADD33R,1.950000X1.000000*%
%ADD34R,0.958800X1.670000*%
%ADD35C,2.400000*%
%ADD36R,3.100000X1.600000*%
%ADD37R,1.500000X1.200000*%
%ADD38R,1.900000X1.900000*%
%ADD39R,1.460000X1.050000*%
%ADD40R,1.300000X1.400000*%
%ADD41R,1.300000X0.650000*%
G04 APERTURE END LIST*
D10*
D11*
X80772000Y-81661000D03*
D12*
X78257400Y-71154200D03*
X78257400Y-72254200D03*
D13*
X74380000Y-51435000D03*
X75480000Y-51435000D03*
D12*
X70866000Y-71459000D03*
X70866000Y-72559000D03*
D13*
X84560500Y-54610000D03*
X83460500Y-54610000D03*
X72813000Y-51435000D03*
X71713000Y-51435000D03*
D14*
X100584000Y-68465000D03*
X100584000Y-69965000D03*
D12*
X97409000Y-63923000D03*
X97409000Y-62823000D03*
D15*
X114173000Y-70104000D03*
X114173000Y-72104000D03*
D14*
X100584000Y-75958000D03*
X100584000Y-77458000D03*
D12*
X111379000Y-54822000D03*
X111379000Y-55922000D03*
X100533200Y-48987800D03*
X100533200Y-47887800D03*
X83883500Y-71141500D03*
X83883500Y-72241500D03*
X83769200Y-65929600D03*
X83769200Y-64829600D03*
X92710000Y-72813000D03*
X92710000Y-71713000D03*
D13*
X88223000Y-52832000D03*
X89323000Y-52832000D03*
D16*
X73787000Y-58128000D03*
X73787000Y-59728000D03*
X101219000Y-61379000D03*
X101219000Y-59779000D03*
X71120000Y-58128000D03*
X71120000Y-59728000D03*
X89217600Y-45821600D03*
X90817600Y-45821600D03*
X72352000Y-73355200D03*
X73952000Y-73355200D03*
D17*
X93218000Y-64515000D03*
X93218000Y-61215000D03*
D18*
X69554000Y-46566000D03*
D19*
X72154000Y-46566000D03*
X74554000Y-46566000D03*
D18*
X77154000Y-46566000D03*
D20*
X72054000Y-49242980D03*
X73354000Y-49242980D03*
X72704000Y-49242980D03*
X74004000Y-49242980D03*
X74654000Y-49242980D03*
D21*
X70254000Y-49116000D03*
X76454000Y-49116000D03*
D22*
X116713000Y-66508000D03*
D23*
X116713000Y-61508000D03*
D22*
X116586000Y-80732000D03*
D23*
X116586000Y-75732000D03*
D24*
X94615000Y-82677000D03*
D25*
X97155000Y-82677000D03*
X99695000Y-82677000D03*
D24*
X65786000Y-82804000D03*
D25*
X63246000Y-82804000D03*
X65786000Y-80264000D03*
X63246000Y-80264000D03*
X65786000Y-77724000D03*
X63246000Y-77724000D03*
D26*
X77216000Y-71362000D03*
X77216000Y-69862000D03*
D27*
X93980000Y-57674000D03*
X93980000Y-59674000D03*
D10*
G36*
X92419000Y-53490000D02*
X97319000Y-53490000D01*
X97319000Y-56490000D01*
X92419000Y-56490000D01*
X92419000Y-53490000D01*
X92419000Y-53490000D01*
G37*
G36*
X92419000Y-45490000D02*
X97319000Y-45490000D01*
X97319000Y-48490000D01*
X92419000Y-48490000D01*
X92419000Y-45490000D01*
X92419000Y-45490000D01*
G37*
D28*
X88138000Y-54176000D03*
X88138000Y-57076000D03*
D29*
X73787000Y-55684000D03*
X73787000Y-56584000D03*
X100076000Y-63188000D03*
X100076000Y-62288000D03*
X71120000Y-55684000D03*
X71120000Y-56584000D03*
D30*
X89731000Y-47269400D03*
X88831000Y-47269400D03*
D29*
X98679000Y-58732000D03*
X98679000Y-59632000D03*
D30*
X97732000Y-61341000D03*
X96832000Y-61341000D03*
D29*
X99314000Y-72967000D03*
X99314000Y-72067000D03*
D30*
X96335000Y-73152000D03*
X95435000Y-73152000D03*
X73119400Y-72161400D03*
X72219400Y-72161400D03*
X99118000Y-74295000D03*
X100018000Y-74295000D03*
X98800500Y-79311500D03*
X99700500Y-79311500D03*
X86302000Y-83693000D03*
X85402000Y-83693000D03*
D31*
X79752000Y-52748000D03*
X82042000Y-52748000D03*
X84332000Y-52748000D03*
D32*
X82042000Y-46058000D03*
D33*
X103599000Y-49657000D03*
X103599000Y-50927000D03*
X103599000Y-52197000D03*
X103599000Y-53467000D03*
X108999000Y-53467000D03*
X108999000Y-52197000D03*
X108999000Y-50927000D03*
X108999000Y-49657000D03*
D34*
X95554800Y-59817000D03*
X96520000Y-59817000D03*
X97485200Y-59817000D03*
X97485200Y-57531000D03*
X95554800Y-57531000D03*
D33*
X85565000Y-65405000D03*
X85565000Y-66675000D03*
X85565000Y-67945000D03*
X85565000Y-69215000D03*
X90965000Y-69215000D03*
X90965000Y-67945000D03*
X90965000Y-66675000D03*
X90965000Y-65405000D03*
X85565000Y-71882000D03*
X85565000Y-73152000D03*
X85565000Y-74422000D03*
X85565000Y-75692000D03*
X90965000Y-75692000D03*
X90965000Y-74422000D03*
X90965000Y-73152000D03*
X90965000Y-71882000D03*
X85565000Y-78105000D03*
X85565000Y-79375000D03*
X85565000Y-80645000D03*
X85565000Y-81915000D03*
X90965000Y-81915000D03*
X90965000Y-80645000D03*
X90965000Y-79375000D03*
X90965000Y-78105000D03*
D24*
X89789000Y-59817000D03*
D25*
X87249000Y-59817000D03*
X84709000Y-59817000D03*
X82169000Y-59817000D03*
D11*
X64135000Y-48133000D03*
X117983000Y-48006000D03*
D35*
X65703000Y-53716000D03*
D36*
X68153000Y-53516000D03*
X63253000Y-53416000D03*
X63253000Y-73176000D03*
D37*
X62953000Y-70866000D03*
X62953000Y-69596000D03*
X62953000Y-67056000D03*
X62953000Y-68326000D03*
X62953000Y-65786000D03*
X62953000Y-64516000D03*
X62953000Y-61976000D03*
X62953000Y-63246000D03*
X62953000Y-60706000D03*
X62953000Y-59436000D03*
X62953000Y-56896000D03*
X62953000Y-58166000D03*
X62953000Y-55626000D03*
X68453000Y-55626000D03*
X68453000Y-58166000D03*
X68453000Y-56896000D03*
X68453000Y-59436000D03*
X68453000Y-60706000D03*
X68453000Y-63246000D03*
X68453000Y-61976000D03*
X68453000Y-64516000D03*
X68453000Y-65786000D03*
X68453000Y-68326000D03*
X68453000Y-67056000D03*
X68453000Y-69596000D03*
X68453000Y-70866000D03*
D36*
X68153000Y-73176000D03*
D35*
X65703000Y-72876000D03*
D13*
X76412000Y-61468000D03*
X77512000Y-61468000D03*
X77512000Y-62865000D03*
X76412000Y-62865000D03*
D29*
X79121000Y-62680000D03*
X79121000Y-61780000D03*
D38*
X106299000Y-57404000D03*
X97663000Y-66421000D03*
X80225900Y-66408300D03*
X78613000Y-55499000D03*
D39*
X79078000Y-60005000D03*
X79078000Y-59055000D03*
X79078000Y-58105000D03*
X76878000Y-58105000D03*
X76878000Y-60005000D03*
D13*
X75607000Y-66294000D03*
X74507000Y-66294000D03*
D27*
X95377000Y-63992000D03*
X95377000Y-61992000D03*
D13*
X109262000Y-47879000D03*
X108162000Y-47879000D03*
D40*
X75964000Y-83350000D03*
X75964000Y-81750000D03*
X71864000Y-83350000D03*
X71864000Y-81750000D03*
D29*
X74422000Y-53917000D03*
X74422000Y-53017000D03*
X72898000Y-53917000D03*
X72898000Y-53017000D03*
X112776000Y-50742000D03*
X112776000Y-49842000D03*
X110998000Y-49842000D03*
X110998000Y-50742000D03*
X110871000Y-52128000D03*
X110871000Y-53028000D03*
X110109000Y-54922000D03*
X110109000Y-55822000D03*
D30*
X103055000Y-48006000D03*
X103955000Y-48006000D03*
D29*
X108585000Y-55822000D03*
X108585000Y-54922000D03*
D30*
X82111000Y-57277000D03*
X81211000Y-57277000D03*
X81211000Y-55753000D03*
X82111000Y-55753000D03*
D27*
X101219000Y-51070000D03*
X101219000Y-53070000D03*
X103505000Y-57388000D03*
X103505000Y-55388000D03*
D41*
X94525500Y-75704000D03*
X98884000Y-75712000D03*
X98884000Y-77687000D03*
X98884000Y-77212000D03*
X98884000Y-76712000D03*
X98884000Y-76212000D03*
X94525500Y-76212000D03*
X94525500Y-76712000D03*
X94525500Y-77212000D03*
X94525500Y-77712000D03*
X94525500Y-68592000D03*
X98884000Y-68600000D03*
X98884000Y-70575000D03*
X98884000Y-70100000D03*
X98884000Y-69600000D03*
X98884000Y-69100000D03*
X94525500Y-69100000D03*
X94525500Y-69600000D03*
X94525500Y-70100000D03*
X94525500Y-70600000D03*
D13*
X118787000Y-52832000D03*
X117687000Y-52832000D03*
M02*
