G04 #@! TF.FileFunction,Soldermask,Bot*
%FSLAX46Y46*%
G04 Gerber Fmt 4.6, Leading zero omitted, Abs format (unit mm)*
G04 Created by KiCad (PCBNEW 4.0.7) date 03/18/19 10:08:06*
%MOMM*%
%LPD*%
G01*
G04 APERTURE LIST*
%ADD10C,0.100000*%
%ADD11C,3.900000*%
%ADD12R,0.900000X1.000000*%
%ADD13R,1.200000X1.150000*%
%ADD14R,1.000000X0.900000*%
%ADD15R,1.150000X1.200000*%
%ADD16C,1.700000*%
%ADD17R,1.200000X1.000000*%
%ADD18R,2.350000X2.350000*%
%ADD19C,2.350000*%
%ADD20R,2.100000X2.100000*%
%ADD21O,2.100000X2.100000*%
%ADD22R,1.300000X0.900000*%
%ADD23R,0.908000X1.543000*%
%ADD24R,1.200000X1.300000*%
%ADD25R,0.800000X1.000000*%
%ADD26R,1.000000X0.800000*%
%ADD27R,2.200000X0.900000*%
%ADD28R,0.900000X2.200000*%
%ADD29R,1.200000X0.750000*%
%ADD30R,0.750000X1.200000*%
%ADD31R,2.550000X2.550000*%
%ADD32R,1.460000X1.050000*%
%ADD33R,1.550000X1.800000*%
%ADD34C,2.400000*%
%ADD35R,2.040000X1.800000*%
%ADD36R,2.001520X1.800860*%
%ADD37R,2.305000X1.040000*%
G04 APERTURE END LIST*
D10*
D11*
X80772000Y-81661000D03*
D12*
X71247000Y-82973000D03*
X71247000Y-81873000D03*
D13*
X75426000Y-53975000D03*
X73926000Y-53975000D03*
D14*
X84243000Y-69723000D03*
X83143000Y-69723000D03*
X84243000Y-75311000D03*
X83143000Y-75311000D03*
D12*
X75438000Y-55711000D03*
X75438000Y-56811000D03*
D14*
X66717000Y-58801000D03*
X65617000Y-58801000D03*
D13*
X90817000Y-82677000D03*
X92317000Y-82677000D03*
D15*
X99441000Y-52820000D03*
X99441000Y-51320000D03*
D13*
X94119000Y-67564000D03*
X95619000Y-67564000D03*
D14*
X77639000Y-52197000D03*
X76539000Y-52197000D03*
D15*
X96647000Y-58916000D03*
X96647000Y-57416000D03*
D16*
X113792000Y-70104000D03*
X113792000Y-72104000D03*
D13*
X94627000Y-74295000D03*
X96127000Y-74295000D03*
D12*
X73406000Y-61129000D03*
X73406000Y-60029000D03*
X94361000Y-54568000D03*
X94361000Y-55668000D03*
X85344000Y-81957000D03*
X85344000Y-80857000D03*
D14*
X66379000Y-59817000D03*
X67479000Y-59817000D03*
D12*
X83693000Y-76793000D03*
X83693000Y-77893000D03*
X90805000Y-76285000D03*
X90805000Y-77385000D03*
X92329000Y-66463000D03*
X92329000Y-65363000D03*
D14*
X85378200Y-61302900D03*
X86478200Y-61302900D03*
X83854200Y-50406300D03*
X84954200Y-50406300D03*
D17*
X97155000Y-69508000D03*
X97155000Y-71208000D03*
X97155000Y-75731000D03*
X97155000Y-77431000D03*
D18*
X116713000Y-66381000D03*
D19*
X116713000Y-61381000D03*
D18*
X116586000Y-80732000D03*
D19*
X116586000Y-75732000D03*
D20*
X94615000Y-82677000D03*
D21*
X97155000Y-82677000D03*
X99695000Y-82677000D03*
D20*
X65786000Y-82804000D03*
D21*
X63246000Y-82804000D03*
X65786000Y-80264000D03*
X63246000Y-80264000D03*
X65786000Y-77724000D03*
X63246000Y-77724000D03*
D22*
X73914000Y-57201500D03*
X73914000Y-55701500D03*
D23*
X112903000Y-74422000D03*
X111633000Y-74422000D03*
X110363000Y-74422000D03*
X109093000Y-74422000D03*
X109093000Y-80772000D03*
X110363000Y-80772000D03*
X111633000Y-80772000D03*
X112903000Y-80772000D03*
X111633000Y-64897000D03*
X110363000Y-64897000D03*
X109093000Y-64897000D03*
X107823000Y-64897000D03*
X107823000Y-71247000D03*
X109093000Y-71247000D03*
X110363000Y-71247000D03*
X111633000Y-71247000D03*
X105664000Y-64897000D03*
X104394000Y-64897000D03*
X103124000Y-64897000D03*
X101854000Y-64897000D03*
X101854000Y-71247000D03*
X103124000Y-71247000D03*
X104394000Y-71247000D03*
X105664000Y-71247000D03*
X106934000Y-74422000D03*
X105664000Y-74422000D03*
X104394000Y-74422000D03*
X103124000Y-74422000D03*
X103124000Y-80772000D03*
X104394000Y-80772000D03*
X105664000Y-80772000D03*
X106934000Y-80772000D03*
D24*
X84749600Y-47450500D03*
X86649600Y-47450500D03*
X85699600Y-49450500D03*
D25*
X74745000Y-83185000D03*
X73845000Y-83185000D03*
X73602000Y-81661000D03*
X72702000Y-81661000D03*
D26*
X93141800Y-69857200D03*
X93141800Y-70757200D03*
X75692000Y-81095000D03*
X75692000Y-80195000D03*
D25*
X98800500Y-79311500D03*
X99700500Y-79311500D03*
D26*
X74676000Y-61029000D03*
X74676000Y-60129000D03*
D25*
X96970000Y-52832000D03*
X96070000Y-52832000D03*
D26*
X95885000Y-54668000D03*
X95885000Y-55568000D03*
X86868000Y-80957000D03*
X86868000Y-81857000D03*
D22*
X101219000Y-75299000D03*
X101219000Y-73799000D03*
D27*
X80168000Y-67374000D03*
X80168000Y-68174000D03*
X80168000Y-68974000D03*
X80168000Y-69774000D03*
X80168000Y-70574000D03*
X80168000Y-71374000D03*
X80168000Y-72174000D03*
X80168000Y-72974000D03*
X80168000Y-73774000D03*
X80168000Y-74574000D03*
X80168000Y-75374000D03*
D28*
X78168000Y-77374000D03*
X77368000Y-77374000D03*
X76568000Y-77374000D03*
X75768000Y-77374000D03*
X74968000Y-77374000D03*
X74168000Y-77374000D03*
X73368000Y-77374000D03*
X72568000Y-77374000D03*
X71768000Y-77374000D03*
X70968000Y-77374000D03*
X70168000Y-77374000D03*
D27*
X68168000Y-75374000D03*
X68168000Y-74574000D03*
X68168000Y-73774000D03*
X68168000Y-72974000D03*
X68168000Y-72174000D03*
X68168000Y-71374000D03*
X68168000Y-70574000D03*
X68168000Y-69774000D03*
X68168000Y-68974000D03*
X68168000Y-68174000D03*
X68168000Y-67374000D03*
D28*
X70168000Y-65374000D03*
X70968000Y-65374000D03*
X71768000Y-65374000D03*
X72568000Y-65374000D03*
X73368000Y-65374000D03*
X74168000Y-65374000D03*
X74968000Y-65374000D03*
X75768000Y-65374000D03*
X76568000Y-65374000D03*
X77368000Y-65374000D03*
X78168000Y-65374000D03*
D29*
X68104000Y-58760000D03*
X68104000Y-58110000D03*
X68104000Y-57460000D03*
X68104000Y-56810000D03*
D30*
X69129000Y-55785000D03*
X69779000Y-55785000D03*
X70429000Y-55785000D03*
X71079000Y-55785000D03*
D29*
X72104000Y-56810000D03*
X72104000Y-57460000D03*
X72104000Y-58110000D03*
X72104000Y-58760000D03*
D30*
X71079000Y-59785000D03*
X70429000Y-59785000D03*
X69779000Y-59785000D03*
X69129000Y-59785000D03*
D31*
X70104000Y-57785000D03*
D20*
X89789000Y-59817000D03*
D21*
X87249000Y-59817000D03*
X84709000Y-59817000D03*
X82169000Y-59817000D03*
D32*
X79900600Y-49591000D03*
X79900600Y-48641000D03*
X79900600Y-47691000D03*
X82100600Y-47691000D03*
X82100600Y-49591000D03*
D23*
X119634000Y-52451000D03*
X118364000Y-52451000D03*
X117094000Y-52451000D03*
X115824000Y-52451000D03*
X115824000Y-58801000D03*
X117094000Y-58801000D03*
X118364000Y-58801000D03*
X119634000Y-58801000D03*
D33*
X84328000Y-73574000D03*
X82728000Y-73574000D03*
X82728000Y-71374000D03*
X84328000Y-71374000D03*
D11*
X64135000Y-48133000D03*
X117983000Y-48006000D03*
D34*
X65703000Y-53716000D03*
X65703000Y-72876000D03*
D14*
X92879000Y-51181000D03*
X91779000Y-51181000D03*
X81512500Y-51943000D03*
X80412500Y-51943000D03*
D12*
X78155800Y-57082600D03*
X78155800Y-58182600D03*
X78105000Y-59521000D03*
X78105000Y-60621000D03*
D35*
X114300000Y-62264000D03*
X114300000Y-66294000D03*
D36*
X119380000Y-63878460D03*
X119380000Y-66677540D03*
D26*
X76835000Y-58108000D03*
X76835000Y-57208000D03*
X78816200Y-55441000D03*
X78816200Y-54541000D03*
X79324200Y-57981000D03*
X79324200Y-57081000D03*
X76708000Y-60394000D03*
X76708000Y-59494000D03*
D37*
X92088500Y-53213000D03*
X92088500Y-54483000D03*
X92088500Y-55753000D03*
X92088500Y-57023000D03*
X81393500Y-57023000D03*
X81393500Y-55753000D03*
X81393500Y-54483000D03*
X81393500Y-53213000D03*
D14*
X96605000Y-80835500D03*
X97705000Y-80835500D03*
D25*
X80993400Y-63169800D03*
X80093400Y-63169800D03*
D26*
X93243400Y-76994600D03*
X93243400Y-77894600D03*
M02*
