M48
;DRILL file {KiCad 4.0.7} date 03/24/19 02:32:02
;FORMAT={-:-/ absolute / metric / decimal}
FMAT,2
METRIC,TZ
T1C0.330
T2C0.400
T3C0.700
T4C0.762
T5C1.000
T6C1.300
%
G90
G05
M71
T1
X61.608Y-55.626
X61.849Y-74.295
X62.014Y-56.248
X62.052Y-54.877
X62.23Y-56.896
X62.535Y-71.298
X62.535Y-75.629
X62.865Y-72.009
X63.309Y-74.993
X63.398Y-70.46
X63.817Y-66.129
X64.008Y-56.083
X64.262Y-76.2
X64.364Y-59.436
X64.541Y-79.68
X64.643Y-78.994
X64.897Y-58.293
X65.468Y-59.842
X65.468Y-60.77
X65.468Y-68.961
X65.532Y-56.642
X65.583Y-70.002
X65.913Y-62.039
X65.913Y-67.373
X66.294Y-74.422
X66.319Y-63.246
X66.358Y-71.374
X66.358Y-75.629
X66.408Y-62.547
X66.929Y-68.961
X66.98Y-64.414
X67.005Y-65.824
X67.056Y-66.611
X67.056Y-67.437
X67.183Y-70.485
X67.386Y-58.153
X67.501Y-61.316
X67.513Y-50.724
X67.678Y-81.585
X67.996Y-51.994
X68.275Y-77.978
X68.453Y-64.516
X68.847Y-80.848
X68.872Y-81.559
X69.215Y-79.248
X69.24Y-50.749
X69.342Y-76.581
X69.444Y-80.48
X69.545Y-58.852
X69.545Y-61.252
X69.596Y-83.566
X69.659Y-67.145
X69.698Y-74.193
X69.774Y-54.585
X69.774Y-78.702
X69.825Y-68.91
X69.85Y-51.968
X70.104Y-71.31
X70.167Y-77.406
X70.18Y-62.078
X70.231Y-72.009
X70.307Y-69.761
X70.358Y-75.743
X70.358Y-82.296
X70.51Y-54.572
X70.739Y-60.858
X70.764Y-63.779
X70.764Y-68.428
X70.866Y-66.802
X70.866Y-73.355
X70.866Y-74.13
X70.993Y-79.248
X71.349Y-62.078
X71.425Y-72.619
X71.78Y-68.555
X72.238Y-60.071
X72.403Y-69.71
X72.644Y-79.248
X72.746Y-80.289
X72.987Y-82.436
X73.025Y-80.937
X73.152Y-72.669
X73.343Y-74.867
X73.508Y-62.332
X73.711Y-79.311
X73.863Y-66.891
X74.231Y-80.937
X74.6Y-79.337
X74.803Y-66.802
X74.93Y-67.996
X75.235Y-78.854
X75.26Y-57.328
X75.59Y-62.687
X75.755Y-67.437
X76.314Y-76.01
X76.365Y-69.317
X76.403Y-53.772
X76.784Y-78.842
X76.784Y-80.15
X76.975Y-70.561
X77.191Y-55.829
X77.292Y-61.392
X77.356Y-75.984
X77.445Y-58.903
X77.508Y-67.945
X77.533Y-74.828
X77.597Y-57.023
X78.207Y-58.725
X78.778Y-63.538
X78.803Y-75.438
X79.032Y-76.759
X79.078Y-60.858
X79.172Y-71.349
X79.223Y-50.394
X79.273Y-57.277
X79.438Y-64.541
X79.629Y-51.816
X79.756Y-76.136
X79.87Y-77.559
X80.073Y-62.332
X80.168Y-68.174
X80.168Y-69.774
X80.899Y-77.597
X81.178Y-71.272
X81.534Y-73.876
X81.648Y-68.123
X81.724Y-67.424
X81.953Y-63.259
X82.182Y-68.694
X82.283Y-69.469
X82.309Y-64.084
X82.817Y-76.949
X82.906Y-67.424
X83.134Y-72.365
X83.642Y-76.035
X83.668Y-74.625
X84.226Y-62.522
X84.366Y-79.235
X85.344Y-82.982
X85.827Y-64.325
X86.004Y-75.362
X86.233Y-70.548
X86.589Y-74.384
X86.893Y-72.288
X86.893Y-83.083
X87.084Y-67.793
X87.427Y-83.693
X87.452Y-77.038
X88.011Y-45.923
X93.345Y-68.555
X93.472Y-75.768
X94.234Y-66.218
X95.402Y-65.202
X96.063Y-56.718
X96.088Y-60.884
X96.266Y-63.348
X96.291Y-72.06
X96.342Y-66.269
X96.545Y-79.578
X96.596Y-67.793
X97.257Y-70.333
X97.307Y-76.632
X97.485Y-64.973
X97.968Y-77.699
X98.069Y-70.968
X98.806Y-63.983
X99.924Y-70.688
X101.676Y-46.787
X101.676Y-49.327
X102.489Y-83.185
X102.946Y-46.152
X104.851Y-46.152
X106.756Y-46.152
X108.661Y-46.152
X109.474Y-48.641
X110.566Y-46.152
X110.786Y-55.922
X111.201Y-47.422
X112.471Y-48.692
X114.884Y-50.952
X115.697Y-51.562
X119.431Y-53.543
T2
X72.746Y-55.143
X74.727Y-48.031
X75.603Y-61.036
X76.073Y-55.194
X76.606Y-67.348
X77.622Y-52.959
X78.207Y-50.495
X79.858Y-54.381
X80.81Y-64.541
X81.572Y-51.092
X81.572Y-69.698
X82.969Y-51.13
X84.036Y-53.924
X84.353Y-78.334
X85.7Y-48.374
X86.182Y-54.381
X88.075Y-47.688
X89.789Y-52.832
X90.17Y-45.974
X90.348Y-57.429
X90.373Y-54.534
X90.551Y-47.066
X90.957Y-64.364
X91.313Y-70.612
X91.973Y-77.241
X94.869Y-60.833
X96.774Y-58.801
X98.349Y-55.956
X98.501Y-50.114
X98.501Y-73.685
X99.517Y-57.353
X100.228Y-50.267
X100.965Y-59.055
X100.99Y-57.379
X101.244Y-79.934
X101.6Y-82.804
X101.854Y-54.483
X101.854Y-72.517
X102.26Y-52.095
X102.997Y-82.042
X103.378Y-75.692
X105.283Y-55.118
X106.426Y-55.118
X106.934Y-71.755
X107.569Y-54.737
X108.255Y-80.62
T3
X104.521Y-69.469
X105.029Y-77.851
X105.537Y-61.468
X108.204Y-82.931
X109.347Y-61.468
X110.363Y-69.469
X112.014Y-83.82
X119.38Y-70.485
X119.507Y-61.087
X119.634Y-78.613
X119.634Y-83.185
T4
X114.173Y-70.104
X114.173Y-72.104
T5
X63.246Y-77.724
X63.246Y-80.264
X63.246Y-82.804
X65.786Y-77.724
X65.786Y-80.264
X65.786Y-82.804
X82.169Y-59.817
X84.709Y-59.817
X87.249Y-59.817
X89.789Y-59.817
X94.615Y-82.677
X97.155Y-82.677
X99.695Y-82.677
T6
X116.586Y-75.732
X116.586Y-80.732
X116.713Y-61.508
X116.713Y-66.508
T0
M30
