G04 #@! TF.FileFunction,Copper,L3,Inr,Plane*
%FSLAX46Y46*%
G04 Gerber Fmt 4.6, Leading zero omitted, Abs format (unit mm)*
G04 Created by KiCad (PCBNEW 4.0.7) date 03/24/19 02:31:51*
%MOMM*%
%LPD*%
G01*
G04 APERTURE LIST*
%ADD10C,0.100000*%
%ADD11C,1.200000*%
%ADD12C,1.300000*%
%ADD13R,1.950000X1.950000*%
%ADD14C,1.950000*%
%ADD15R,1.700000X1.700000*%
%ADD16O,1.700000X1.700000*%
%ADD17C,2.000000*%
%ADD18C,0.482600*%
%ADD19C,0.600000*%
%ADD20C,0.180000*%
G04 APERTURE END LIST*
D10*
D11*
X119634000Y-78613000D03*
X119634000Y-83185000D03*
X110363000Y-69469000D03*
X104521000Y-69469000D03*
X105029000Y-77851000D03*
X112014000Y-83820000D03*
X108204000Y-82931000D03*
X119380000Y-70485000D03*
X109347000Y-61468000D03*
X119507000Y-61087000D03*
X105537000Y-61468000D03*
D12*
X114173000Y-70104000D03*
X114173000Y-72104000D03*
D13*
X116713000Y-66508000D03*
D14*
X116713000Y-61508000D03*
D13*
X116586000Y-80732000D03*
D14*
X116586000Y-75732000D03*
D15*
X94615000Y-82677000D03*
D16*
X97155000Y-82677000D03*
X99695000Y-82677000D03*
D15*
X65786000Y-82804000D03*
D16*
X63246000Y-82804000D03*
X65786000Y-80264000D03*
X63246000Y-80264000D03*
X65786000Y-77724000D03*
X63246000Y-77724000D03*
D15*
X89789000Y-59817000D03*
D16*
X87249000Y-59817000D03*
X84709000Y-59817000D03*
X82169000Y-59817000D03*
D17*
X65703000Y-53716000D03*
X65703000Y-72876000D03*
D18*
X80168000Y-69774000D03*
X73710800Y-79311500D03*
X76314300Y-76009500D03*
X76365100Y-69316600D03*
X68275200Y-77978000D03*
X65468500Y-59842400D03*
D19*
X94869000Y-60833000D03*
D18*
X96088200Y-60883800D03*
D19*
X101854000Y-54483000D03*
X96774000Y-58801000D03*
X100965000Y-59055000D03*
X89789000Y-52832000D03*
X90170000Y-45974000D03*
D18*
X109474000Y-48641000D03*
X110786000Y-55922000D03*
D19*
X107569000Y-54737000D03*
X106426000Y-55118000D03*
X105283000Y-55118000D03*
D18*
X70104000Y-71310500D03*
X110566200Y-46151800D03*
X111201200Y-47421800D03*
X112471200Y-48691800D03*
X101676200Y-49326800D03*
X101676200Y-46786800D03*
X108661200Y-46151800D03*
X106756200Y-46151800D03*
X104851200Y-46151800D03*
X102946200Y-46151800D03*
D19*
X100228400Y-50266600D03*
D18*
X97256600Y-70332600D03*
X99923600Y-70688200D03*
D19*
X103378000Y-75692000D03*
D18*
X97307400Y-76631800D03*
X73507600Y-62331600D03*
X80899000Y-77597000D03*
X70866000Y-66802000D03*
X85344000Y-82981800D03*
X81534000Y-73875900D03*
X67005200Y-65824100D03*
X70866000Y-74129900D03*
X66979800Y-64414400D03*
X68453000Y-64516000D03*
X79438500Y-64541400D03*
X67386200Y-58153300D03*
X67500500Y-61315600D03*
X69697600Y-74193400D03*
X70866000Y-73355200D03*
X70764400Y-68427600D03*
X75755500Y-67437000D03*
X69659500Y-67144900D03*
X67056000Y-66611500D03*
X74930000Y-67995800D03*
X73342500Y-74866500D03*
X63309500Y-74993500D03*
X63817500Y-66128900D03*
X73863200Y-66890900D03*
X78778100Y-63538100D03*
D19*
X106934000Y-71755000D03*
X101854000Y-72517000D03*
D18*
X72986900Y-82435700D03*
X70510400Y-54571900D03*
X93345000Y-68554600D03*
D19*
X101244400Y-79933800D03*
X108254800Y-80619600D03*
X98501200Y-73685400D03*
X102997000Y-82042000D03*
D18*
X93472000Y-75768200D03*
X79222600Y-50393600D03*
X114884200Y-50952400D03*
D19*
X101600000Y-82804000D03*
D18*
X86893400Y-83083400D03*
X80168000Y-68174000D03*
X69443600Y-80479900D03*
X69773800Y-78701900D03*
X77533500Y-74828400D03*
X77508100Y-67945000D03*
X81648300Y-68122800D03*
X79870300Y-77558900D03*
X76784200Y-80149700D03*
X72745600Y-80289400D03*
X68846700Y-80848200D03*
X70307200Y-69761100D03*
X72402700Y-69710300D03*
X71348600Y-62077600D03*
X66929000Y-68961000D03*
X65468500Y-68961000D03*
X65468500Y-60769500D03*
X69545200Y-61252100D03*
X67056000Y-67437000D03*
X65913000Y-67373500D03*
X65913000Y-62039500D03*
X70180200Y-62077600D03*
X84366100Y-79235300D03*
X84226400Y-62522100D03*
X80073500Y-62331600D03*
X62865000Y-72009000D03*
X67183000Y-70485000D03*
X73152000Y-72669400D03*
X64363600Y-59436000D03*
X72644000Y-79248000D03*
X64643000Y-78994000D03*
X69545200Y-58851800D03*
X76403200Y-53771800D03*
X75260200Y-57327800D03*
X75590400Y-62687200D03*
X77292200Y-61391800D03*
X72237600Y-60071000D03*
X67513200Y-50723800D03*
X69850000Y-51968400D03*
X67995800Y-51993800D03*
X69240400Y-50749200D03*
X81178400Y-71272400D03*
X79171800Y-71348600D03*
X87452200Y-77038200D03*
X86004400Y-75361800D03*
X86893400Y-72288400D03*
X83667600Y-74625200D03*
X70358000Y-82296000D03*
X115697000Y-51562000D03*
X88011000Y-45923200D03*
X83134200Y-72364600D03*
X74803000Y-66802000D03*
X65532000Y-56642000D03*
X64008000Y-56083200D03*
X78206600Y-58724800D03*
X65582800Y-70002400D03*
X69824600Y-68910200D03*
X71424800Y-72618600D03*
X79629000Y-51816000D03*
X69596000Y-83566000D03*
X102489000Y-83185000D03*
X87426800Y-83693000D03*
X63398400Y-70459600D03*
X62534800Y-71297800D03*
X119430800Y-53543200D03*
D19*
X84035900Y-53924200D03*
X84353400Y-78333600D03*
D18*
X75234800Y-78854300D03*
D19*
X81572100Y-69697600D03*
D18*
X76974700Y-70561200D03*
X86233000Y-70548500D03*
D19*
X76606400Y-67348100D03*
X80810100Y-64541400D03*
X75603100Y-61036200D03*
X82969100Y-51130200D03*
X88074500Y-47688500D03*
X79857600Y-54381400D03*
X76073000Y-55194200D03*
D18*
X96062800Y-56718200D03*
D19*
X91973400Y-77241400D03*
X91313000Y-70612000D03*
X90957400Y-64363600D03*
X90347800Y-57429400D03*
X86182200Y-54381400D03*
X90373200Y-54533800D03*
X98348800Y-55956200D03*
X99517200Y-57353200D03*
X100990400Y-57378600D03*
X90551000Y-47066200D03*
X72745600Y-55143400D03*
X77622400Y-52959000D03*
X81572100Y-51092100D03*
D18*
X96291400Y-72059800D03*
X96266000Y-63347600D03*
X97485200Y-64973200D03*
X98806000Y-63982600D03*
X94234000Y-66217800D03*
X96342200Y-66268600D03*
X96596200Y-67792600D03*
X98069400Y-70967600D03*
X95402400Y-65201800D03*
X97967800Y-77698600D03*
X96545400Y-79578200D03*
D19*
X74726800Y-48031400D03*
X85699600Y-48374300D03*
D18*
X69773800Y-54584600D03*
D19*
X78206600Y-50495200D03*
D18*
X78803500Y-75438000D03*
X70358000Y-75742800D03*
X70231000Y-72009000D03*
X66357500Y-71374000D03*
X66319400Y-63246000D03*
X83642200Y-76034900D03*
X79756000Y-76136500D03*
X77355700Y-75984100D03*
X82816700Y-76949300D03*
X79032100Y-76758800D03*
X76784200Y-78841600D03*
X70739000Y-60858400D03*
X70764400Y-63779400D03*
X82308700Y-64084200D03*
X82181700Y-68694300D03*
X71780400Y-68554600D03*
X70993000Y-79248000D03*
X69215000Y-79248000D03*
X69342000Y-76581000D03*
X64262000Y-76200000D03*
X64897000Y-58293000D03*
X66408300Y-62547500D03*
X70167500Y-77406500D03*
X66357500Y-75628500D03*
X62534800Y-75628500D03*
X62230000Y-56896000D03*
X64541400Y-79679800D03*
X62014100Y-56248300D03*
X62052200Y-54876700D03*
X66294000Y-74422000D03*
X61849000Y-74295000D03*
X61607700Y-55626000D03*
X87083900Y-67792600D03*
X81953100Y-63258700D03*
X85826600Y-64325500D03*
X86588600Y-74383900D03*
X79273400Y-57277000D03*
X77190600Y-55829200D03*
X77597000Y-57023000D03*
X77444600Y-58902600D03*
X79078000Y-60858400D03*
X82905600Y-67424300D03*
X81724500Y-67424300D03*
X67678300Y-81584800D03*
X68872100Y-81559400D03*
X73025000Y-80937100D03*
X74231500Y-80937100D03*
X74599800Y-79336900D03*
X82283300Y-69469000D03*
D19*
X98501200Y-50114200D03*
X102260400Y-52095400D03*
D20*
G36*
X89064511Y-51598309D02*
X85852692Y-51573603D01*
X85817624Y-51580424D01*
X85787972Y-51600351D01*
X85768409Y-51630245D01*
X85762000Y-51663600D01*
X85762000Y-53967208D01*
X85682314Y-54046755D01*
X85592302Y-54263527D01*
X85592098Y-54498243D01*
X85681731Y-54715172D01*
X85762000Y-54795581D01*
X85762000Y-58849633D01*
X85421965Y-58556673D01*
X85096040Y-58421685D01*
X84873000Y-58528898D01*
X84873000Y-59653000D01*
X84893000Y-59653000D01*
X84893000Y-59981000D01*
X84873000Y-59981000D01*
X84873000Y-61105102D01*
X85096040Y-61212315D01*
X85421965Y-61077327D01*
X85762000Y-60784367D01*
X85762000Y-63144400D01*
X85769091Y-63179415D01*
X85784590Y-63204032D01*
X86076690Y-63534232D01*
X86078998Y-63536743D01*
X86345698Y-63816143D01*
X86375004Y-63836575D01*
X86410800Y-63844000D01*
X87794000Y-63844000D01*
X87794000Y-84471000D01*
X82684691Y-84471000D01*
X83601863Y-83555428D01*
X83796363Y-83087018D01*
X84812608Y-83087018D01*
X84893323Y-83282364D01*
X85042650Y-83431952D01*
X85237854Y-83513008D01*
X85449218Y-83513192D01*
X85644564Y-83432477D01*
X85794152Y-83283150D01*
X85833405Y-83188618D01*
X86362008Y-83188618D01*
X86442723Y-83383964D01*
X86592050Y-83533552D01*
X86787254Y-83614608D01*
X86998618Y-83614792D01*
X87193964Y-83534077D01*
X87343552Y-83384750D01*
X87424608Y-83189546D01*
X87424792Y-82978182D01*
X87344077Y-82782836D01*
X87194750Y-82633248D01*
X86999546Y-82552192D01*
X86788182Y-82552008D01*
X86592836Y-82632723D01*
X86443248Y-82782050D01*
X86362192Y-82977254D01*
X86362008Y-83188618D01*
X85833405Y-83188618D01*
X85875208Y-83087946D01*
X85875392Y-82876582D01*
X85794677Y-82681236D01*
X85645350Y-82531648D01*
X85450146Y-82450592D01*
X85238782Y-82450408D01*
X85043436Y-82531123D01*
X84893848Y-82680450D01*
X84812792Y-82875654D01*
X84812608Y-83087018D01*
X83796363Y-83087018D01*
X84111418Y-82328282D01*
X84112578Y-80999548D01*
X83605165Y-79771514D01*
X82666428Y-78831137D01*
X81749615Y-78450443D01*
X83763298Y-78450443D01*
X83852931Y-78667372D01*
X84017673Y-78832402D01*
X83915948Y-78933950D01*
X83834892Y-79129154D01*
X83834708Y-79340518D01*
X83915423Y-79535864D01*
X84064750Y-79685452D01*
X84259954Y-79766508D01*
X84471318Y-79766692D01*
X84666664Y-79685977D01*
X84816252Y-79536650D01*
X84897308Y-79341446D01*
X84897492Y-79130082D01*
X84816777Y-78934736D01*
X84701754Y-78819512D01*
X84853286Y-78668245D01*
X84943298Y-78451473D01*
X84943502Y-78216757D01*
X84853869Y-77999828D01*
X84688045Y-77833714D01*
X84471273Y-77743702D01*
X84236557Y-77743498D01*
X84019628Y-77833131D01*
X83853514Y-77998955D01*
X83763502Y-78215727D01*
X83763298Y-78450443D01*
X81749615Y-78450443D01*
X81439282Y-78321582D01*
X80110548Y-78320422D01*
X78882514Y-78827835D01*
X77942137Y-79766572D01*
X77432582Y-80993718D01*
X77431422Y-82322452D01*
X77938835Y-83550486D01*
X78857744Y-84471000D01*
X61452000Y-84471000D01*
X61452000Y-82804000D01*
X62083666Y-82804000D01*
X62170443Y-83240259D01*
X62417564Y-83610102D01*
X62787407Y-83857223D01*
X63223666Y-83944000D01*
X63268334Y-83944000D01*
X63704593Y-83857223D01*
X64074436Y-83610102D01*
X64321557Y-83240259D01*
X64408334Y-82804000D01*
X64321557Y-82367741D01*
X64074436Y-81997898D01*
X64008738Y-81954000D01*
X64640319Y-81954000D01*
X64640319Y-83654000D01*
X64660540Y-83761467D01*
X64724054Y-83860170D01*
X64820964Y-83926386D01*
X64936000Y-83949681D01*
X66636000Y-83949681D01*
X66743467Y-83929460D01*
X66842170Y-83865946D01*
X66908386Y-83769036D01*
X66931681Y-83654000D01*
X66931681Y-82540918D01*
X72455508Y-82540918D01*
X72536223Y-82736264D01*
X72685550Y-82885852D01*
X72880754Y-82966908D01*
X73092118Y-82967092D01*
X73287464Y-82886377D01*
X73437052Y-82737050D01*
X73518108Y-82541846D01*
X73518292Y-82330482D01*
X73437577Y-82135136D01*
X73288250Y-81985548D01*
X73093046Y-81904492D01*
X72881682Y-81904308D01*
X72686336Y-81985023D01*
X72536748Y-82134350D01*
X72455692Y-82329554D01*
X72455508Y-82540918D01*
X66931681Y-82540918D01*
X66931681Y-81954000D01*
X66911460Y-81846533D01*
X66847946Y-81747830D01*
X66763336Y-81690018D01*
X67146908Y-81690018D01*
X67227623Y-81885364D01*
X67376950Y-82034952D01*
X67572154Y-82116008D01*
X67783518Y-82116192D01*
X67978864Y-82035477D01*
X68128452Y-81886150D01*
X68209508Y-81690946D01*
X68209692Y-81479582D01*
X68128977Y-81284236D01*
X67979650Y-81134648D01*
X67784446Y-81053592D01*
X67573082Y-81053408D01*
X67377736Y-81134123D01*
X67228148Y-81283450D01*
X67147092Y-81478654D01*
X67146908Y-81690018D01*
X66763336Y-81690018D01*
X66751036Y-81681614D01*
X66636000Y-81658319D01*
X64936000Y-81658319D01*
X64828533Y-81678540D01*
X64729830Y-81742054D01*
X64663614Y-81838964D01*
X64640319Y-81954000D01*
X64008738Y-81954000D01*
X63704593Y-81750777D01*
X63268334Y-81664000D01*
X63223666Y-81664000D01*
X62787407Y-81750777D01*
X62417564Y-81997898D01*
X62170443Y-82367741D01*
X62083666Y-82804000D01*
X61452000Y-82804000D01*
X61452000Y-78111040D01*
X61850685Y-78111040D01*
X61985673Y-78436965D01*
X62354450Y-78865000D01*
X62858957Y-79119328D01*
X63081998Y-79013197D01*
X63081998Y-79152179D01*
X62787407Y-79210777D01*
X62417564Y-79457898D01*
X62170443Y-79827741D01*
X62083666Y-80264000D01*
X62170443Y-80700259D01*
X62417564Y-81070102D01*
X62787407Y-81317223D01*
X63223666Y-81404000D01*
X63268334Y-81404000D01*
X63704593Y-81317223D01*
X64074436Y-81070102D01*
X64321557Y-80700259D01*
X64408334Y-80264000D01*
X64394421Y-80194052D01*
X64435254Y-80211008D01*
X64634172Y-80211181D01*
X64623666Y-80264000D01*
X64710443Y-80700259D01*
X64957564Y-81070102D01*
X65327407Y-81317223D01*
X65763666Y-81404000D01*
X65808334Y-81404000D01*
X66244593Y-81317223D01*
X66614436Y-81070102D01*
X66692401Y-80953418D01*
X68315308Y-80953418D01*
X68396023Y-81148764D01*
X68463606Y-81216465D01*
X68421948Y-81258050D01*
X68340892Y-81453254D01*
X68340708Y-81664618D01*
X68421423Y-81859964D01*
X68570750Y-82009552D01*
X68765954Y-82090608D01*
X68977318Y-82090792D01*
X69172664Y-82010077D01*
X69322252Y-81860750D01*
X69403308Y-81665546D01*
X69403492Y-81454182D01*
X69322777Y-81258836D01*
X69255194Y-81191135D01*
X69296852Y-81149550D01*
X69354332Y-81011123D01*
X69548818Y-81011292D01*
X69744164Y-80930577D01*
X69893752Y-80781250D01*
X69974808Y-80586046D01*
X69974992Y-80374682D01*
X69894277Y-80179336D01*
X69744950Y-80029748D01*
X69549746Y-79948692D01*
X69338382Y-79948508D01*
X69143036Y-80029223D01*
X68993448Y-80178550D01*
X68935968Y-80316977D01*
X68741482Y-80316808D01*
X68546136Y-80397523D01*
X68396548Y-80546850D01*
X68315492Y-80742054D01*
X68315308Y-80953418D01*
X66692401Y-80953418D01*
X66861557Y-80700259D01*
X66948334Y-80264000D01*
X66861557Y-79827741D01*
X66614436Y-79457898D01*
X66457772Y-79353218D01*
X68683608Y-79353218D01*
X68764323Y-79548564D01*
X68913650Y-79698152D01*
X69108854Y-79779208D01*
X69320218Y-79779392D01*
X69515564Y-79698677D01*
X69665152Y-79549350D01*
X69746208Y-79354146D01*
X69746208Y-79353218D01*
X70461608Y-79353218D01*
X70542323Y-79548564D01*
X70691650Y-79698152D01*
X70886854Y-79779208D01*
X71098218Y-79779392D01*
X71293564Y-79698677D01*
X71443152Y-79549350D01*
X71524208Y-79354146D01*
X71524208Y-79353218D01*
X72112608Y-79353218D01*
X72193323Y-79548564D01*
X72342650Y-79698152D01*
X72537854Y-79779208D01*
X72588966Y-79779252D01*
X72445036Y-79838723D01*
X72295448Y-79988050D01*
X72214392Y-80183254D01*
X72214208Y-80394618D01*
X72294923Y-80589964D01*
X72444250Y-80739552D01*
X72518878Y-80770540D01*
X72493792Y-80830954D01*
X72493608Y-81042318D01*
X72574323Y-81237664D01*
X72723650Y-81387252D01*
X72918854Y-81468308D01*
X73130218Y-81468492D01*
X73325564Y-81387777D01*
X73475152Y-81238450D01*
X73556208Y-81043246D01*
X73556208Y-81042318D01*
X73700108Y-81042318D01*
X73780823Y-81237664D01*
X73930150Y-81387252D01*
X74125354Y-81468308D01*
X74336718Y-81468492D01*
X74532064Y-81387777D01*
X74681652Y-81238450D01*
X74762708Y-81043246D01*
X74762892Y-80831882D01*
X74682177Y-80636536D01*
X74532850Y-80486948D01*
X74337646Y-80405892D01*
X74126282Y-80405708D01*
X73930936Y-80486423D01*
X73781348Y-80635750D01*
X73700292Y-80830954D01*
X73700108Y-81042318D01*
X73556208Y-81042318D01*
X73556392Y-80831882D01*
X73475677Y-80636536D01*
X73326350Y-80486948D01*
X73251722Y-80455960D01*
X73276808Y-80395546D01*
X73276930Y-80254918D01*
X76252808Y-80254918D01*
X76333523Y-80450264D01*
X76482850Y-80599852D01*
X76678054Y-80680908D01*
X76889418Y-80681092D01*
X77084764Y-80600377D01*
X77234352Y-80451050D01*
X77315408Y-80255846D01*
X77315592Y-80044482D01*
X77234877Y-79849136D01*
X77085550Y-79699548D01*
X76890346Y-79618492D01*
X76678982Y-79618308D01*
X76483636Y-79699023D01*
X76334048Y-79848350D01*
X76252992Y-80043554D01*
X76252808Y-80254918D01*
X73276930Y-80254918D01*
X73276992Y-80184182D01*
X73196277Y-79988836D01*
X73046950Y-79839248D01*
X72851746Y-79758192D01*
X72800634Y-79758148D01*
X72944564Y-79698677D01*
X73094152Y-79549350D01*
X73149225Y-79416718D01*
X73179408Y-79416718D01*
X73260123Y-79612064D01*
X73409450Y-79761652D01*
X73604654Y-79842708D01*
X73816018Y-79842892D01*
X74011364Y-79762177D01*
X74145377Y-79628398D01*
X74149123Y-79637464D01*
X74298450Y-79787052D01*
X74493654Y-79868108D01*
X74705018Y-79868292D01*
X74900364Y-79787577D01*
X75049952Y-79638250D01*
X75131008Y-79443046D01*
X75131058Y-79385510D01*
X75340018Y-79385692D01*
X75535364Y-79304977D01*
X75684952Y-79155650D01*
X75766008Y-78960446D01*
X75766019Y-78946818D01*
X76252808Y-78946818D01*
X76333523Y-79142164D01*
X76482850Y-79291752D01*
X76678054Y-79372808D01*
X76889418Y-79372992D01*
X77084764Y-79292277D01*
X77234352Y-79142950D01*
X77315408Y-78947746D01*
X77315592Y-78736382D01*
X77234877Y-78541036D01*
X77085550Y-78391448D01*
X76890346Y-78310392D01*
X76678982Y-78310208D01*
X76483636Y-78390923D01*
X76334048Y-78540250D01*
X76252992Y-78735454D01*
X76252808Y-78946818D01*
X75766019Y-78946818D01*
X75766192Y-78749082D01*
X75685477Y-78553736D01*
X75536150Y-78404148D01*
X75340946Y-78323092D01*
X75129582Y-78322908D01*
X74934236Y-78403623D01*
X74784648Y-78552950D01*
X74703592Y-78748154D01*
X74703542Y-78805690D01*
X74494582Y-78805508D01*
X74299236Y-78886223D01*
X74165223Y-79020002D01*
X74161477Y-79010936D01*
X74012150Y-78861348D01*
X73816946Y-78780292D01*
X73605582Y-78780108D01*
X73410236Y-78860823D01*
X73260648Y-79010150D01*
X73179592Y-79205354D01*
X73179408Y-79416718D01*
X73149225Y-79416718D01*
X73175208Y-79354146D01*
X73175392Y-79142782D01*
X73094677Y-78947436D01*
X72945350Y-78797848D01*
X72750146Y-78716792D01*
X72538782Y-78716608D01*
X72343436Y-78797323D01*
X72193848Y-78946650D01*
X72112792Y-79141854D01*
X72112608Y-79353218D01*
X71524208Y-79353218D01*
X71524392Y-79142782D01*
X71443677Y-78947436D01*
X71294350Y-78797848D01*
X71099146Y-78716792D01*
X70887782Y-78716608D01*
X70692436Y-78797323D01*
X70542848Y-78946650D01*
X70461792Y-79141854D01*
X70461608Y-79353218D01*
X69746208Y-79353218D01*
X69746313Y-79233176D01*
X69879018Y-79233292D01*
X70074364Y-79152577D01*
X70223952Y-79003250D01*
X70305008Y-78808046D01*
X70305192Y-78596682D01*
X70224477Y-78401336D01*
X70075150Y-78251748D01*
X69879946Y-78170692D01*
X69668582Y-78170508D01*
X69473236Y-78251223D01*
X69323648Y-78400550D01*
X69242592Y-78595754D01*
X69242487Y-78716724D01*
X69109782Y-78716608D01*
X68914436Y-78797323D01*
X68764848Y-78946650D01*
X68683792Y-79141854D01*
X68683608Y-79353218D01*
X66457772Y-79353218D01*
X66244593Y-79210777D01*
X65808334Y-79124000D01*
X65763666Y-79124000D01*
X65327407Y-79210777D01*
X65010080Y-79422808D01*
X64997054Y-79391281D01*
X65093152Y-79295350D01*
X65174208Y-79100146D01*
X65174392Y-78888782D01*
X65093677Y-78693436D01*
X64944350Y-78543848D01*
X64749146Y-78462792D01*
X64537782Y-78462608D01*
X64454635Y-78496964D01*
X64506327Y-78436965D01*
X64641315Y-78111040D01*
X64534103Y-77888002D01*
X64656288Y-77888002D01*
X64710443Y-78160259D01*
X64957564Y-78530102D01*
X65327407Y-78777223D01*
X65763666Y-78864000D01*
X65808334Y-78864000D01*
X66244593Y-78777223D01*
X66614436Y-78530102D01*
X66861557Y-78160259D01*
X66876881Y-78083218D01*
X67743808Y-78083218D01*
X67824523Y-78278564D01*
X67973850Y-78428152D01*
X68169054Y-78509208D01*
X68380418Y-78509392D01*
X68575764Y-78428677D01*
X68725352Y-78279350D01*
X68806408Y-78084146D01*
X68806592Y-77872782D01*
X68725877Y-77677436D01*
X68576550Y-77527848D01*
X68537705Y-77511718D01*
X69636108Y-77511718D01*
X69716823Y-77707064D01*
X69866150Y-77856652D01*
X70061354Y-77937708D01*
X70272718Y-77937892D01*
X70468064Y-77857177D01*
X70617652Y-77707850D01*
X70635811Y-77664118D01*
X79338908Y-77664118D01*
X79419623Y-77859464D01*
X79568950Y-78009052D01*
X79764154Y-78090108D01*
X79975518Y-78090292D01*
X80170864Y-78009577D01*
X80320452Y-77860250D01*
X80376818Y-77724507D01*
X80448323Y-77897564D01*
X80597650Y-78047152D01*
X80792854Y-78128208D01*
X81004218Y-78128392D01*
X81199564Y-78047677D01*
X81349152Y-77898350D01*
X81430208Y-77703146D01*
X81430392Y-77491782D01*
X81349677Y-77296436D01*
X81200350Y-77146848D01*
X81005146Y-77065792D01*
X80793782Y-77065608D01*
X80598436Y-77146323D01*
X80448848Y-77295650D01*
X80392482Y-77431393D01*
X80320977Y-77258336D01*
X80171650Y-77108748D01*
X80041051Y-77054518D01*
X82285308Y-77054518D01*
X82366023Y-77249864D01*
X82515350Y-77399452D01*
X82710554Y-77480508D01*
X82921918Y-77480692D01*
X83117264Y-77399977D01*
X83266852Y-77250650D01*
X83347908Y-77055446D01*
X83348092Y-76844082D01*
X83267377Y-76648736D01*
X83118050Y-76499148D01*
X82922846Y-76418092D01*
X82711482Y-76417908D01*
X82516136Y-76498623D01*
X82366548Y-76647950D01*
X82285492Y-76843154D01*
X82285308Y-77054518D01*
X80041051Y-77054518D01*
X79976446Y-77027692D01*
X79765082Y-77027508D01*
X79569736Y-77108223D01*
X79420148Y-77257550D01*
X79339092Y-77452754D01*
X79338908Y-77664118D01*
X70635811Y-77664118D01*
X70698708Y-77512646D01*
X70698892Y-77301282D01*
X70618177Y-77105936D01*
X70468850Y-76956348D01*
X70273646Y-76875292D01*
X70062282Y-76875108D01*
X69866936Y-76955823D01*
X69717348Y-77105150D01*
X69636292Y-77300354D01*
X69636108Y-77511718D01*
X68537705Y-77511718D01*
X68381346Y-77446792D01*
X68169982Y-77446608D01*
X67974636Y-77527323D01*
X67825048Y-77676650D01*
X67743992Y-77871854D01*
X67743808Y-78083218D01*
X66876881Y-78083218D01*
X66948334Y-77724000D01*
X66861557Y-77287741D01*
X66614436Y-76917898D01*
X66267703Y-76686218D01*
X68810608Y-76686218D01*
X68891323Y-76881564D01*
X69040650Y-77031152D01*
X69235854Y-77112208D01*
X69447218Y-77112392D01*
X69642564Y-77031677D01*
X69792152Y-76882350D01*
X69799764Y-76864018D01*
X78500708Y-76864018D01*
X78581423Y-77059364D01*
X78730750Y-77208952D01*
X78925954Y-77290008D01*
X79137318Y-77290192D01*
X79332664Y-77209477D01*
X79482252Y-77060150D01*
X79563308Y-76864946D01*
X79563492Y-76653582D01*
X79552652Y-76627346D01*
X79649854Y-76667708D01*
X79861218Y-76667892D01*
X80056564Y-76587177D01*
X80206152Y-76437850D01*
X80287208Y-76242646D01*
X80287297Y-76140118D01*
X83110808Y-76140118D01*
X83191523Y-76335464D01*
X83340850Y-76485052D01*
X83536054Y-76566108D01*
X83747418Y-76566292D01*
X83942764Y-76485577D01*
X84092352Y-76336250D01*
X84173408Y-76141046D01*
X84173592Y-75929682D01*
X84092877Y-75734336D01*
X83943550Y-75584748D01*
X83748346Y-75503692D01*
X83536982Y-75503508D01*
X83341636Y-75584223D01*
X83192048Y-75733550D01*
X83110992Y-75928754D01*
X83110808Y-76140118D01*
X80287297Y-76140118D01*
X80287392Y-76031282D01*
X80206677Y-75835936D01*
X80057350Y-75686348D01*
X79862146Y-75605292D01*
X79650782Y-75605108D01*
X79455436Y-75685823D01*
X79305848Y-75835150D01*
X79224792Y-76030354D01*
X79224608Y-76241718D01*
X79235448Y-76267954D01*
X79138246Y-76227592D01*
X78926882Y-76227408D01*
X78731536Y-76308123D01*
X78581948Y-76457450D01*
X78500892Y-76652654D01*
X78500708Y-76864018D01*
X69799764Y-76864018D01*
X69873208Y-76687146D01*
X69873392Y-76475782D01*
X69792677Y-76280436D01*
X69643350Y-76130848D01*
X69448146Y-76049792D01*
X69236782Y-76049608D01*
X69041436Y-76130323D01*
X68891848Y-76279650D01*
X68810792Y-76474854D01*
X68810608Y-76686218D01*
X66267703Y-76686218D01*
X66244593Y-76670777D01*
X65808334Y-76584000D01*
X65763666Y-76584000D01*
X65327407Y-76670777D01*
X64957564Y-76917898D01*
X64710443Y-77287741D01*
X64656288Y-77559998D01*
X64534103Y-77559998D01*
X64641315Y-77336960D01*
X64506327Y-77011035D01*
X64265322Y-76731303D01*
X64367218Y-76731392D01*
X64562564Y-76650677D01*
X64712152Y-76501350D01*
X64793208Y-76306146D01*
X64793392Y-76094782D01*
X64712677Y-75899436D01*
X64563350Y-75749848D01*
X64524505Y-75733718D01*
X65826108Y-75733718D01*
X65906823Y-75929064D01*
X66056150Y-76078652D01*
X66251354Y-76159708D01*
X66462718Y-76159892D01*
X66658064Y-76079177D01*
X66807652Y-75929850D01*
X66841631Y-75848018D01*
X69826608Y-75848018D01*
X69907323Y-76043364D01*
X70056650Y-76192952D01*
X70251854Y-76274008D01*
X70463218Y-76274192D01*
X70658564Y-76193477D01*
X70737460Y-76114718D01*
X75782908Y-76114718D01*
X75863623Y-76310064D01*
X76012950Y-76459652D01*
X76208154Y-76540708D01*
X76419518Y-76540892D01*
X76614864Y-76460177D01*
X76764452Y-76310850D01*
X76840334Y-76128105D01*
X76905023Y-76284664D01*
X77054350Y-76434252D01*
X77249554Y-76515308D01*
X77460918Y-76515492D01*
X77656264Y-76434777D01*
X77805852Y-76285450D01*
X77886908Y-76090246D01*
X77887092Y-75878882D01*
X77806377Y-75683536D01*
X77666304Y-75543218D01*
X78272108Y-75543218D01*
X78352823Y-75738564D01*
X78502150Y-75888152D01*
X78697354Y-75969208D01*
X78908718Y-75969392D01*
X79104064Y-75888677D01*
X79253652Y-75739350D01*
X79334708Y-75544146D01*
X79334892Y-75332782D01*
X79254177Y-75137436D01*
X79104850Y-74987848D01*
X78909646Y-74906792D01*
X78698282Y-74906608D01*
X78502936Y-74987323D01*
X78353348Y-75136650D01*
X78272292Y-75331854D01*
X78272108Y-75543218D01*
X77666304Y-75543218D01*
X77657050Y-75533948D01*
X77461846Y-75452892D01*
X77250482Y-75452708D01*
X77055136Y-75533423D01*
X76905548Y-75682750D01*
X76829666Y-75865495D01*
X76764977Y-75708936D01*
X76615650Y-75559348D01*
X76420446Y-75478292D01*
X76209082Y-75478108D01*
X76013736Y-75558823D01*
X75864148Y-75708150D01*
X75783092Y-75903354D01*
X75782908Y-76114718D01*
X70737460Y-76114718D01*
X70808152Y-76044150D01*
X70889208Y-75848946D01*
X70889392Y-75637582D01*
X70808677Y-75442236D01*
X70659350Y-75292648D01*
X70464146Y-75211592D01*
X70252782Y-75211408D01*
X70057436Y-75292123D01*
X69907848Y-75441450D01*
X69826792Y-75636654D01*
X69826608Y-75848018D01*
X66841631Y-75848018D01*
X66888708Y-75734646D01*
X66888892Y-75523282D01*
X66808177Y-75327936D01*
X66658850Y-75178348D01*
X66463646Y-75097292D01*
X66252282Y-75097108D01*
X66056936Y-75177823D01*
X65907348Y-75327150D01*
X65826292Y-75522354D01*
X65826108Y-75733718D01*
X64524505Y-75733718D01*
X64368146Y-75668792D01*
X64156782Y-75668608D01*
X63961436Y-75749323D01*
X63811848Y-75898650D01*
X63730792Y-76093854D01*
X63730608Y-76305218D01*
X63768517Y-76396966D01*
X63633043Y-76328672D01*
X63410000Y-76434804D01*
X63410000Y-77560000D01*
X63430000Y-77560000D01*
X63430000Y-77888000D01*
X63410000Y-77888000D01*
X63410000Y-77908000D01*
X63082000Y-77908000D01*
X63082000Y-77888000D01*
X61957898Y-77888000D01*
X61850685Y-78111040D01*
X61452000Y-78111040D01*
X61452000Y-77336960D01*
X61850685Y-77336960D01*
X61957898Y-77560000D01*
X63082000Y-77560000D01*
X63082000Y-76434804D01*
X62858957Y-76328672D01*
X62354450Y-76583000D01*
X61985673Y-77011035D01*
X61850685Y-77336960D01*
X61452000Y-77336960D01*
X61452000Y-75733718D01*
X62003408Y-75733718D01*
X62084123Y-75929064D01*
X62233450Y-76078652D01*
X62428654Y-76159708D01*
X62640018Y-76159892D01*
X62835364Y-76079177D01*
X62984952Y-75929850D01*
X63066008Y-75734646D01*
X63066192Y-75523282D01*
X63038496Y-75456253D01*
X63203354Y-75524708D01*
X63414718Y-75524892D01*
X63610064Y-75444177D01*
X63759652Y-75294850D01*
X63840708Y-75099646D01*
X63840819Y-74971718D01*
X72811108Y-74971718D01*
X72891823Y-75167064D01*
X73041150Y-75316652D01*
X73236354Y-75397708D01*
X73447718Y-75397892D01*
X73643064Y-75317177D01*
X73792652Y-75167850D01*
X73873708Y-74972646D01*
X73873741Y-74933618D01*
X77002108Y-74933618D01*
X77082823Y-75128964D01*
X77232150Y-75278552D01*
X77427354Y-75359608D01*
X77638718Y-75359792D01*
X77834064Y-75279077D01*
X77983652Y-75129750D01*
X78064708Y-74934546D01*
X78064892Y-74723182D01*
X77984177Y-74527836D01*
X77945527Y-74489118D01*
X86057208Y-74489118D01*
X86137923Y-74684464D01*
X86287250Y-74834052D01*
X86482454Y-74915108D01*
X86693818Y-74915292D01*
X86889164Y-74834577D01*
X87038752Y-74685250D01*
X87119808Y-74490046D01*
X87119992Y-74278682D01*
X87039277Y-74083336D01*
X86889950Y-73933748D01*
X86694746Y-73852692D01*
X86483382Y-73852508D01*
X86288036Y-73933223D01*
X86138448Y-74082550D01*
X86057392Y-74277754D01*
X86057208Y-74489118D01*
X77945527Y-74489118D01*
X77834850Y-74378248D01*
X77639646Y-74297192D01*
X77428282Y-74297008D01*
X77232936Y-74377723D01*
X77083348Y-74527050D01*
X77002292Y-74722254D01*
X77002108Y-74933618D01*
X73873741Y-74933618D01*
X73873892Y-74761282D01*
X73793177Y-74565936D01*
X73643850Y-74416348D01*
X73448646Y-74335292D01*
X73237282Y-74335108D01*
X73041936Y-74415823D01*
X72892348Y-74565150D01*
X72811292Y-74760354D01*
X72811108Y-74971718D01*
X63840819Y-74971718D01*
X63840892Y-74888282D01*
X63760177Y-74692936D01*
X63610850Y-74543348D01*
X63415646Y-74462292D01*
X63204282Y-74462108D01*
X63008936Y-74542823D01*
X62859348Y-74692150D01*
X62778292Y-74887354D01*
X62778108Y-75098718D01*
X62805804Y-75165747D01*
X62640946Y-75097292D01*
X62429582Y-75097108D01*
X62234236Y-75177823D01*
X62084648Y-75327150D01*
X62003592Y-75522354D01*
X62003408Y-75733718D01*
X61452000Y-75733718D01*
X61452000Y-74649335D01*
X61547650Y-74745152D01*
X61742854Y-74826208D01*
X61954218Y-74826392D01*
X62149564Y-74745677D01*
X62299152Y-74596350D01*
X62380208Y-74401146D01*
X62380392Y-74189782D01*
X62299677Y-73994436D01*
X62150350Y-73844848D01*
X61955146Y-73763792D01*
X61743782Y-73763608D01*
X61548436Y-73844323D01*
X61452000Y-73940591D01*
X61452000Y-73131471D01*
X64412776Y-73131471D01*
X64608753Y-73605772D01*
X64971319Y-73968971D01*
X65445277Y-74165776D01*
X65824972Y-74166107D01*
X65762792Y-74315854D01*
X65762608Y-74527218D01*
X65843323Y-74722564D01*
X65992650Y-74872152D01*
X66187854Y-74953208D01*
X66399218Y-74953392D01*
X66594564Y-74872677D01*
X66744152Y-74723350D01*
X66825208Y-74528146D01*
X66825392Y-74316782D01*
X66817887Y-74298618D01*
X69166208Y-74298618D01*
X69246923Y-74493964D01*
X69396250Y-74643552D01*
X69591454Y-74724608D01*
X69802818Y-74724792D01*
X69998164Y-74644077D01*
X70147752Y-74494750D01*
X70228808Y-74299546D01*
X70228992Y-74088182D01*
X70148277Y-73892836D01*
X69998950Y-73743248D01*
X69803746Y-73662192D01*
X69592382Y-73662008D01*
X69397036Y-73742723D01*
X69247448Y-73892050D01*
X69166392Y-74087254D01*
X69166208Y-74298618D01*
X66817887Y-74298618D01*
X66744677Y-74121436D01*
X66595350Y-73971848D01*
X66479399Y-73923701D01*
X66795971Y-73607681D01*
X66857120Y-73460418D01*
X70334608Y-73460418D01*
X70415323Y-73655764D01*
X70501978Y-73742570D01*
X70415848Y-73828550D01*
X70334792Y-74023754D01*
X70334608Y-74235118D01*
X70415323Y-74430464D01*
X70564650Y-74580052D01*
X70759854Y-74661108D01*
X70971218Y-74661292D01*
X71166564Y-74580577D01*
X71316152Y-74431250D01*
X71397208Y-74236046D01*
X71397392Y-74024682D01*
X71379392Y-73981118D01*
X81002608Y-73981118D01*
X81083323Y-74176464D01*
X81232650Y-74326052D01*
X81427854Y-74407108D01*
X81639218Y-74407292D01*
X81834564Y-74326577D01*
X81984152Y-74177250D01*
X82065208Y-73982046D01*
X82065392Y-73770682D01*
X81984677Y-73575336D01*
X81835350Y-73425748D01*
X81640146Y-73344692D01*
X81428782Y-73344508D01*
X81233436Y-73425223D01*
X81083848Y-73574550D01*
X81002792Y-73769754D01*
X81002608Y-73981118D01*
X71379392Y-73981118D01*
X71316677Y-73829336D01*
X71230022Y-73742530D01*
X71316152Y-73656550D01*
X71397208Y-73461346D01*
X71397392Y-73249982D01*
X71316677Y-73054636D01*
X71167350Y-72905048D01*
X70972146Y-72823992D01*
X70760782Y-72823808D01*
X70565436Y-72904523D01*
X70415848Y-73053850D01*
X70334792Y-73249054D01*
X70334608Y-73460418D01*
X66857120Y-73460418D01*
X66992776Y-73133723D01*
X66993089Y-72774618D01*
X72620608Y-72774618D01*
X72701323Y-72969964D01*
X72850650Y-73119552D01*
X73045854Y-73200608D01*
X73257218Y-73200792D01*
X73452564Y-73120077D01*
X73602152Y-72970750D01*
X73683208Y-72775546D01*
X73683392Y-72564182D01*
X73602677Y-72368836D01*
X73453350Y-72219248D01*
X73258146Y-72138192D01*
X73046782Y-72138008D01*
X72851436Y-72218723D01*
X72701848Y-72368050D01*
X72620792Y-72563254D01*
X72620608Y-72774618D01*
X66993089Y-72774618D01*
X66993224Y-72620529D01*
X66797247Y-72146228D01*
X66529348Y-71877861D01*
X66658064Y-71824677D01*
X66807652Y-71675350D01*
X66888708Y-71480146D01*
X66888764Y-71415718D01*
X69572608Y-71415718D01*
X69653323Y-71611064D01*
X69771710Y-71729658D01*
X69699792Y-71902854D01*
X69699608Y-72114218D01*
X69780323Y-72309564D01*
X69929650Y-72459152D01*
X70124854Y-72540208D01*
X70336218Y-72540392D01*
X70531564Y-72459677D01*
X70681152Y-72310350D01*
X70762208Y-72115146D01*
X70762392Y-71903782D01*
X70681677Y-71708436D01*
X70563290Y-71589842D01*
X70635208Y-71416646D01*
X70635392Y-71205282D01*
X70554677Y-71009936D01*
X70405350Y-70860348D01*
X70210146Y-70779292D01*
X69998782Y-70779108D01*
X69803436Y-70859823D01*
X69653848Y-71009150D01*
X69572792Y-71204354D01*
X69572608Y-71415718D01*
X66888764Y-71415718D01*
X66888892Y-71268782D01*
X66808177Y-71073436D01*
X66658850Y-70923848D01*
X66463646Y-70842792D01*
X66252282Y-70842608D01*
X66056936Y-70923323D01*
X65907348Y-71072650D01*
X65826292Y-71267854D01*
X65826108Y-71479218D01*
X65870289Y-71586145D01*
X65447529Y-71585776D01*
X64973228Y-71781753D01*
X64610029Y-72144319D01*
X64413224Y-72618277D01*
X64412776Y-73131471D01*
X61452000Y-73131471D01*
X61452000Y-71403018D01*
X62003408Y-71403018D01*
X62084123Y-71598364D01*
X62233450Y-71747952D01*
X62373897Y-71806271D01*
X62333792Y-71902854D01*
X62333608Y-72114218D01*
X62414323Y-72309564D01*
X62563650Y-72459152D01*
X62758854Y-72540208D01*
X62970218Y-72540392D01*
X63165564Y-72459677D01*
X63315152Y-72310350D01*
X63396208Y-72115146D01*
X63396392Y-71903782D01*
X63315677Y-71708436D01*
X63166350Y-71558848D01*
X63025903Y-71500529D01*
X63066008Y-71403946D01*
X63066192Y-71192582D01*
X62985477Y-70997236D01*
X62836150Y-70847648D01*
X62640946Y-70766592D01*
X62429582Y-70766408D01*
X62234236Y-70847123D01*
X62084648Y-70996450D01*
X62003592Y-71191654D01*
X62003408Y-71403018D01*
X61452000Y-71403018D01*
X61452000Y-70564818D01*
X62867008Y-70564818D01*
X62947723Y-70760164D01*
X63097050Y-70909752D01*
X63292254Y-70990808D01*
X63503618Y-70990992D01*
X63698964Y-70910277D01*
X63848552Y-70760950D01*
X63919446Y-70590218D01*
X66651608Y-70590218D01*
X66732323Y-70785564D01*
X66881650Y-70935152D01*
X67076854Y-71016208D01*
X67288218Y-71016392D01*
X67483564Y-70935677D01*
X67633152Y-70786350D01*
X67682952Y-70666418D01*
X76443308Y-70666418D01*
X76524023Y-70861764D01*
X76673350Y-71011352D01*
X76868554Y-71092408D01*
X77079918Y-71092592D01*
X77275264Y-71011877D01*
X77424852Y-70862550D01*
X77505908Y-70667346D01*
X77505919Y-70653718D01*
X85701608Y-70653718D01*
X85782323Y-70849064D01*
X85931650Y-70998652D01*
X86126854Y-71079708D01*
X86338218Y-71079892D01*
X86533564Y-70999177D01*
X86683152Y-70849850D01*
X86764208Y-70654646D01*
X86764392Y-70443282D01*
X86683677Y-70247936D01*
X86534350Y-70098348D01*
X86339146Y-70017292D01*
X86127782Y-70017108D01*
X85932436Y-70097823D01*
X85782848Y-70247150D01*
X85701792Y-70442354D01*
X85701608Y-70653718D01*
X77505919Y-70653718D01*
X77506092Y-70455982D01*
X77425377Y-70260636D01*
X77276050Y-70111048D01*
X77080846Y-70029992D01*
X76869482Y-70029808D01*
X76674136Y-70110523D01*
X76524548Y-70259850D01*
X76443492Y-70455054D01*
X76443308Y-70666418D01*
X67682952Y-70666418D01*
X67714208Y-70591146D01*
X67714392Y-70379782D01*
X67633677Y-70184436D01*
X67484350Y-70034848D01*
X67289146Y-69953792D01*
X67077782Y-69953608D01*
X66882436Y-70034323D01*
X66732848Y-70183650D01*
X66651792Y-70378854D01*
X66651608Y-70590218D01*
X63919446Y-70590218D01*
X63929608Y-70565746D01*
X63929792Y-70354382D01*
X63849077Y-70159036D01*
X63699750Y-70009448D01*
X63504546Y-69928392D01*
X63293182Y-69928208D01*
X63097836Y-70008923D01*
X62948248Y-70158250D01*
X62867192Y-70353454D01*
X62867008Y-70564818D01*
X61452000Y-70564818D01*
X61452000Y-69866318D01*
X69775808Y-69866318D01*
X69856523Y-70061664D01*
X70005850Y-70211252D01*
X70201054Y-70292308D01*
X70412418Y-70292492D01*
X70607764Y-70211777D01*
X70757352Y-70062450D01*
X70838408Y-69867246D01*
X70838453Y-69815518D01*
X71871308Y-69815518D01*
X71952023Y-70010864D01*
X72101350Y-70160452D01*
X72296554Y-70241508D01*
X72507918Y-70241692D01*
X72703264Y-70160977D01*
X72852852Y-70011650D01*
X72907842Y-69879218D01*
X79636608Y-69879218D01*
X79717323Y-70074564D01*
X79866650Y-70224152D01*
X80061854Y-70305208D01*
X80273218Y-70305392D01*
X80468564Y-70224677D01*
X80618152Y-70075350D01*
X80699208Y-69880146D01*
X80699265Y-69814443D01*
X80981998Y-69814443D01*
X81071631Y-70031372D01*
X81237455Y-70197486D01*
X81454227Y-70287498D01*
X81688943Y-70287702D01*
X81905872Y-70198069D01*
X82071986Y-70032245D01*
X82098799Y-69967672D01*
X82177154Y-70000208D01*
X82388518Y-70000392D01*
X82583864Y-69919677D01*
X82733452Y-69770350D01*
X82814508Y-69575146D01*
X82814692Y-69363782D01*
X82733977Y-69168436D01*
X82596611Y-69030830D01*
X82631852Y-68995650D01*
X82712908Y-68800446D01*
X82713092Y-68589082D01*
X82632377Y-68393736D01*
X82483050Y-68244148D01*
X82287846Y-68163092D01*
X82179565Y-68162998D01*
X82179692Y-68017582D01*
X82098977Y-67822236D01*
X82088455Y-67811696D01*
X82174652Y-67725650D01*
X82255708Y-67530446D01*
X82255708Y-67529518D01*
X82374208Y-67529518D01*
X82454923Y-67724864D01*
X82604250Y-67874452D01*
X82799454Y-67955508D01*
X83010818Y-67955692D01*
X83150884Y-67897818D01*
X86552508Y-67897818D01*
X86633223Y-68093164D01*
X86782550Y-68242752D01*
X86977754Y-68323808D01*
X87189118Y-68323992D01*
X87384464Y-68243277D01*
X87534052Y-68093950D01*
X87615108Y-67898746D01*
X87615292Y-67687382D01*
X87534577Y-67492036D01*
X87385250Y-67342448D01*
X87190046Y-67261392D01*
X86978682Y-67261208D01*
X86783336Y-67341923D01*
X86633748Y-67491250D01*
X86552692Y-67686454D01*
X86552508Y-67897818D01*
X83150884Y-67897818D01*
X83206164Y-67874977D01*
X83355752Y-67725650D01*
X83436808Y-67530446D01*
X83436992Y-67319082D01*
X83356277Y-67123736D01*
X83206950Y-66974148D01*
X83011746Y-66893092D01*
X82800382Y-66892908D01*
X82605036Y-66973623D01*
X82455448Y-67122950D01*
X82374392Y-67318154D01*
X82374208Y-67529518D01*
X82255708Y-67529518D01*
X82255892Y-67319082D01*
X82175177Y-67123736D01*
X82025850Y-66974148D01*
X81830646Y-66893092D01*
X81619282Y-66892908D01*
X81423936Y-66973623D01*
X81274348Y-67122950D01*
X81193292Y-67318154D01*
X81193108Y-67529518D01*
X81273823Y-67724864D01*
X81284345Y-67735404D01*
X81198148Y-67821450D01*
X81117092Y-68016654D01*
X81116908Y-68228018D01*
X81197623Y-68423364D01*
X81346950Y-68572952D01*
X81542154Y-68654008D01*
X81650435Y-68654102D01*
X81650308Y-68799518D01*
X81731023Y-68994864D01*
X81868389Y-69132470D01*
X81833499Y-69167300D01*
X81689973Y-69107702D01*
X81455257Y-69107498D01*
X81238328Y-69197131D01*
X81072214Y-69362955D01*
X80982202Y-69579727D01*
X80981998Y-69814443D01*
X80699265Y-69814443D01*
X80699392Y-69668782D01*
X80618677Y-69473436D01*
X80469350Y-69323848D01*
X80274146Y-69242792D01*
X80062782Y-69242608D01*
X79867436Y-69323323D01*
X79717848Y-69472650D01*
X79636792Y-69667854D01*
X79636608Y-69879218D01*
X72907842Y-69879218D01*
X72933908Y-69816446D01*
X72934092Y-69605082D01*
X72858370Y-69421818D01*
X75833708Y-69421818D01*
X75914423Y-69617164D01*
X76063750Y-69766752D01*
X76258954Y-69847808D01*
X76470318Y-69847992D01*
X76665664Y-69767277D01*
X76815252Y-69617950D01*
X76896308Y-69422746D01*
X76896492Y-69211382D01*
X76815777Y-69016036D01*
X76666450Y-68866448D01*
X76471246Y-68785392D01*
X76259882Y-68785208D01*
X76064536Y-68865923D01*
X75914948Y-69015250D01*
X75833892Y-69210454D01*
X75833708Y-69421818D01*
X72858370Y-69421818D01*
X72853377Y-69409736D01*
X72704050Y-69260148D01*
X72508846Y-69179092D01*
X72297482Y-69178908D01*
X72102136Y-69259623D01*
X71952548Y-69408950D01*
X71871492Y-69604154D01*
X71871308Y-69815518D01*
X70838453Y-69815518D01*
X70838592Y-69655882D01*
X70757877Y-69460536D01*
X70608550Y-69310948D01*
X70413346Y-69229892D01*
X70201982Y-69229708D01*
X70006636Y-69310423D01*
X69857048Y-69459750D01*
X69775992Y-69654954D01*
X69775808Y-69866318D01*
X61452000Y-69866318D01*
X61452000Y-69066218D01*
X64937108Y-69066218D01*
X65017823Y-69261564D01*
X65167150Y-69411152D01*
X65362354Y-69492208D01*
X65573718Y-69492392D01*
X65769064Y-69411677D01*
X65918652Y-69262350D01*
X65999708Y-69067146D01*
X65999708Y-69066218D01*
X66397608Y-69066218D01*
X66478323Y-69261564D01*
X66627650Y-69411152D01*
X66822854Y-69492208D01*
X67034218Y-69492392D01*
X67229564Y-69411677D01*
X67379152Y-69262350D01*
X67460208Y-69067146D01*
X67460392Y-68855782D01*
X67379677Y-68660436D01*
X67252282Y-68532818D01*
X70233008Y-68532818D01*
X70313723Y-68728164D01*
X70463050Y-68877752D01*
X70658254Y-68958808D01*
X70869618Y-68958992D01*
X71064964Y-68878277D01*
X71214552Y-68728950D01*
X71249020Y-68645942D01*
X71249008Y-68659818D01*
X71329723Y-68855164D01*
X71479050Y-69004752D01*
X71674254Y-69085808D01*
X71885618Y-69085992D01*
X72080964Y-69005277D01*
X72230552Y-68855950D01*
X72311608Y-68660746D01*
X72311792Y-68449382D01*
X72231077Y-68254036D01*
X72081750Y-68104448D01*
X72073490Y-68101018D01*
X74398608Y-68101018D01*
X74479323Y-68296364D01*
X74628650Y-68445952D01*
X74823854Y-68527008D01*
X75035218Y-68527192D01*
X75230564Y-68446477D01*
X75380152Y-68297150D01*
X75461208Y-68101946D01*
X75461392Y-67890582D01*
X75461181Y-67890072D01*
X75649354Y-67968208D01*
X75860718Y-67968392D01*
X76056064Y-67887677D01*
X76183943Y-67760021D01*
X76271755Y-67847986D01*
X76488527Y-67937998D01*
X76723243Y-67938202D01*
X76940172Y-67848569D01*
X76995999Y-67792840D01*
X76976892Y-67838854D01*
X76976708Y-68050218D01*
X77057423Y-68245564D01*
X77206750Y-68395152D01*
X77401954Y-68476208D01*
X77613318Y-68476392D01*
X77808664Y-68395677D01*
X77925326Y-68279218D01*
X79636608Y-68279218D01*
X79717323Y-68474564D01*
X79866650Y-68624152D01*
X80061854Y-68705208D01*
X80273218Y-68705392D01*
X80468564Y-68624677D01*
X80618152Y-68475350D01*
X80699208Y-68280146D01*
X80699392Y-68068782D01*
X80618677Y-67873436D01*
X80469350Y-67723848D01*
X80274146Y-67642792D01*
X80062782Y-67642608D01*
X79867436Y-67723323D01*
X79717848Y-67872650D01*
X79636792Y-68067854D01*
X79636608Y-68279218D01*
X77925326Y-68279218D01*
X77958252Y-68246350D01*
X78039308Y-68051146D01*
X78039492Y-67839782D01*
X77958777Y-67644436D01*
X77809450Y-67494848D01*
X77614246Y-67413792D01*
X77402882Y-67413608D01*
X77207536Y-67494323D01*
X77168235Y-67533555D01*
X77196298Y-67465973D01*
X77196502Y-67231257D01*
X77106869Y-67014328D01*
X76941045Y-66848214D01*
X76724273Y-66758202D01*
X76489557Y-66757998D01*
X76272628Y-66847631D01*
X76106514Y-67013455D01*
X76099727Y-67029800D01*
X76056850Y-66986848D01*
X75861646Y-66905792D01*
X75650282Y-66905608D01*
X75454936Y-66986323D01*
X75305348Y-67135650D01*
X75224292Y-67330854D01*
X75224108Y-67542218D01*
X75224319Y-67542728D01*
X75036146Y-67464592D01*
X74824782Y-67464408D01*
X74629436Y-67545123D01*
X74479848Y-67694450D01*
X74398792Y-67889654D01*
X74398608Y-68101018D01*
X72073490Y-68101018D01*
X71886546Y-68023392D01*
X71675182Y-68023208D01*
X71479836Y-68103923D01*
X71330248Y-68253250D01*
X71295780Y-68336258D01*
X71295792Y-68322382D01*
X71215077Y-68127036D01*
X71065750Y-67977448D01*
X70870546Y-67896392D01*
X70659182Y-67896208D01*
X70463836Y-67976923D01*
X70314248Y-68126250D01*
X70233192Y-68321454D01*
X70233008Y-68532818D01*
X67252282Y-68532818D01*
X67230350Y-68510848D01*
X67035146Y-68429792D01*
X66823782Y-68429608D01*
X66628436Y-68510323D01*
X66478848Y-68659650D01*
X66397792Y-68854854D01*
X66397608Y-69066218D01*
X65999708Y-69066218D01*
X65999892Y-68855782D01*
X65919177Y-68660436D01*
X65769850Y-68510848D01*
X65574646Y-68429792D01*
X65363282Y-68429608D01*
X65167936Y-68510323D01*
X65018348Y-68659650D01*
X64937292Y-68854854D01*
X64937108Y-69066218D01*
X61452000Y-69066218D01*
X61452000Y-67478718D01*
X65381608Y-67478718D01*
X65462323Y-67674064D01*
X65611650Y-67823652D01*
X65806854Y-67904708D01*
X66018218Y-67904892D01*
X66213564Y-67824177D01*
X66363152Y-67674850D01*
X66444208Y-67479646D01*
X66444392Y-67268282D01*
X66363677Y-67072936D01*
X66214350Y-66923348D01*
X66019146Y-66842292D01*
X65807782Y-66842108D01*
X65612436Y-66922823D01*
X65462848Y-67072150D01*
X65381792Y-67267354D01*
X65381608Y-67478718D01*
X61452000Y-67478718D01*
X61452000Y-66234118D01*
X63286108Y-66234118D01*
X63366823Y-66429464D01*
X63516150Y-66579052D01*
X63711354Y-66660108D01*
X63922718Y-66660292D01*
X64118064Y-66579577D01*
X64267652Y-66430250D01*
X64348708Y-66235046D01*
X64348892Y-66023682D01*
X64309902Y-65929318D01*
X66473808Y-65929318D01*
X66554523Y-66124664D01*
X66672884Y-66243231D01*
X66605848Y-66310150D01*
X66524792Y-66505354D01*
X66524608Y-66716718D01*
X66605323Y-66912064D01*
X66717378Y-67024315D01*
X66605848Y-67135650D01*
X66524792Y-67330854D01*
X66524608Y-67542218D01*
X66605323Y-67737564D01*
X66754650Y-67887152D01*
X66949854Y-67968208D01*
X67161218Y-67968392D01*
X67356564Y-67887677D01*
X67506152Y-67738350D01*
X67587208Y-67543146D01*
X67587392Y-67331782D01*
X67553650Y-67250118D01*
X69128108Y-67250118D01*
X69208823Y-67445464D01*
X69358150Y-67595052D01*
X69553354Y-67676108D01*
X69764718Y-67676292D01*
X69960064Y-67595577D01*
X70109652Y-67446250D01*
X70190708Y-67251046D01*
X70190892Y-67039682D01*
X70136160Y-66907218D01*
X70334608Y-66907218D01*
X70415323Y-67102564D01*
X70564650Y-67252152D01*
X70759854Y-67333208D01*
X70971218Y-67333392D01*
X71166564Y-67252677D01*
X71316152Y-67103350D01*
X71360678Y-66996118D01*
X73331808Y-66996118D01*
X73412523Y-67191464D01*
X73561850Y-67341052D01*
X73757054Y-67422108D01*
X73968418Y-67422292D01*
X74163764Y-67341577D01*
X74313352Y-67192250D01*
X74394408Y-66997046D01*
X74394592Y-66785682D01*
X74313877Y-66590336D01*
X74164550Y-66440748D01*
X73969346Y-66359692D01*
X73757982Y-66359508D01*
X73562636Y-66440223D01*
X73413048Y-66589550D01*
X73331992Y-66784754D01*
X73331808Y-66996118D01*
X71360678Y-66996118D01*
X71397208Y-66908146D01*
X71397392Y-66696782D01*
X71316677Y-66501436D01*
X71167350Y-66351848D01*
X70972146Y-66270792D01*
X70760782Y-66270608D01*
X70565436Y-66351323D01*
X70415848Y-66500650D01*
X70334792Y-66695854D01*
X70334608Y-66907218D01*
X70136160Y-66907218D01*
X70110177Y-66844336D01*
X69960850Y-66694748D01*
X69765646Y-66613692D01*
X69554282Y-66613508D01*
X69358936Y-66694223D01*
X69209348Y-66843550D01*
X69128292Y-67038754D01*
X69128108Y-67250118D01*
X67553650Y-67250118D01*
X67506677Y-67136436D01*
X67394622Y-67024185D01*
X67506152Y-66912850D01*
X67587208Y-66717646D01*
X67587392Y-66506282D01*
X67506677Y-66310936D01*
X67388316Y-66192369D01*
X67455352Y-66125450D01*
X67536408Y-65930246D01*
X67536592Y-65718882D01*
X67455877Y-65523536D01*
X67306550Y-65373948D01*
X67111346Y-65292892D01*
X66899982Y-65292708D01*
X66704636Y-65373423D01*
X66555048Y-65522750D01*
X66473992Y-65717954D01*
X66473808Y-65929318D01*
X64309902Y-65929318D01*
X64268177Y-65828336D01*
X64118850Y-65678748D01*
X63923646Y-65597692D01*
X63712282Y-65597508D01*
X63516936Y-65678223D01*
X63367348Y-65827550D01*
X63286292Y-66022754D01*
X63286108Y-66234118D01*
X61452000Y-66234118D01*
X61452000Y-64519618D01*
X66448408Y-64519618D01*
X66529123Y-64714964D01*
X66678450Y-64864552D01*
X66873654Y-64945608D01*
X67085018Y-64945792D01*
X67280364Y-64865077D01*
X67429952Y-64715750D01*
X67469205Y-64621218D01*
X67921608Y-64621218D01*
X68002323Y-64816564D01*
X68151650Y-64966152D01*
X68346854Y-65047208D01*
X68558218Y-65047392D01*
X68753564Y-64966677D01*
X68903152Y-64817350D01*
X68974046Y-64646618D01*
X78907108Y-64646618D01*
X78987823Y-64841964D01*
X79137150Y-64991552D01*
X79332354Y-65072608D01*
X79543718Y-65072792D01*
X79739064Y-64992077D01*
X79888652Y-64842750D01*
X79965266Y-64658243D01*
X80219998Y-64658243D01*
X80309631Y-64875172D01*
X80475455Y-65041286D01*
X80692227Y-65131298D01*
X80926943Y-65131502D01*
X81143872Y-65041869D01*
X81309986Y-64876045D01*
X81399998Y-64659273D01*
X81400202Y-64424557D01*
X81310569Y-64207628D01*
X81144745Y-64041514D01*
X80927973Y-63951502D01*
X80693257Y-63951298D01*
X80476328Y-64040931D01*
X80310214Y-64206755D01*
X80220202Y-64423527D01*
X80219998Y-64658243D01*
X79965266Y-64658243D01*
X79969708Y-64647546D01*
X79969892Y-64436182D01*
X79889177Y-64240836D01*
X79739850Y-64091248D01*
X79544646Y-64010192D01*
X79333282Y-64010008D01*
X79137936Y-64090723D01*
X78988348Y-64240050D01*
X78907292Y-64435254D01*
X78907108Y-64646618D01*
X68974046Y-64646618D01*
X68984208Y-64622146D01*
X68984392Y-64410782D01*
X68903677Y-64215436D01*
X68754350Y-64065848D01*
X68559146Y-63984792D01*
X68347782Y-63984608D01*
X68152436Y-64065323D01*
X68002848Y-64214650D01*
X67921792Y-64409854D01*
X67921608Y-64621218D01*
X67469205Y-64621218D01*
X67511008Y-64520546D01*
X67511192Y-64309182D01*
X67430477Y-64113836D01*
X67281150Y-63964248D01*
X67089381Y-63884618D01*
X70233008Y-63884618D01*
X70313723Y-64079964D01*
X70463050Y-64229552D01*
X70658254Y-64310608D01*
X70869618Y-64310792D01*
X71064964Y-64230077D01*
X71214552Y-64080750D01*
X71295608Y-63885546D01*
X71295792Y-63674182D01*
X71283040Y-63643318D01*
X78246708Y-63643318D01*
X78327423Y-63838664D01*
X78476750Y-63988252D01*
X78671954Y-64069308D01*
X78883318Y-64069492D01*
X79078664Y-63988777D01*
X79228252Y-63839450D01*
X79309308Y-63644246D01*
X79309492Y-63432882D01*
X79280997Y-63363918D01*
X81421708Y-63363918D01*
X81502423Y-63559264D01*
X81651750Y-63708852D01*
X81846954Y-63789908D01*
X81855614Y-63789916D01*
X81777492Y-63978054D01*
X81777308Y-64189418D01*
X81858023Y-64384764D01*
X82007350Y-64534352D01*
X82202554Y-64615408D01*
X82413918Y-64615592D01*
X82609264Y-64534877D01*
X82713605Y-64430718D01*
X85295208Y-64430718D01*
X85375923Y-64626064D01*
X85525250Y-64775652D01*
X85720454Y-64856708D01*
X85931818Y-64856892D01*
X86127164Y-64776177D01*
X86276752Y-64626850D01*
X86357808Y-64431646D01*
X86357992Y-64220282D01*
X86277277Y-64024936D01*
X86127950Y-63875348D01*
X85932746Y-63794292D01*
X85721382Y-63794108D01*
X85526036Y-63874823D01*
X85376448Y-64024150D01*
X85295392Y-64219354D01*
X85295208Y-64430718D01*
X82713605Y-64430718D01*
X82758852Y-64385550D01*
X82839908Y-64190346D01*
X82840092Y-63978982D01*
X82759377Y-63783636D01*
X82610050Y-63634048D01*
X82414846Y-63552992D01*
X82406186Y-63552984D01*
X82484308Y-63364846D01*
X82484492Y-63153482D01*
X82403777Y-62958136D01*
X82254450Y-62808548D01*
X82059246Y-62727492D01*
X81847882Y-62727308D01*
X81652536Y-62808023D01*
X81502948Y-62957350D01*
X81421892Y-63152554D01*
X81421708Y-63363918D01*
X79280997Y-63363918D01*
X79228777Y-63237536D01*
X79079450Y-63087948D01*
X78884246Y-63006892D01*
X78672882Y-63006708D01*
X78477536Y-63087423D01*
X78327948Y-63236750D01*
X78246892Y-63431954D01*
X78246708Y-63643318D01*
X71283040Y-63643318D01*
X71215077Y-63478836D01*
X71065750Y-63329248D01*
X70870546Y-63248192D01*
X70659182Y-63248008D01*
X70463836Y-63328723D01*
X70314248Y-63478050D01*
X70233192Y-63673254D01*
X70233008Y-63884618D01*
X67089381Y-63884618D01*
X67085946Y-63883192D01*
X66874582Y-63883008D01*
X66679236Y-63963723D01*
X66529648Y-64113050D01*
X66448592Y-64308254D01*
X66448408Y-64519618D01*
X61452000Y-64519618D01*
X61452000Y-62144718D01*
X65381608Y-62144718D01*
X65462323Y-62340064D01*
X65611650Y-62489652D01*
X65806854Y-62570708D01*
X65876979Y-62570769D01*
X65876908Y-62652718D01*
X65957623Y-62848064D01*
X65961806Y-62852254D01*
X65869248Y-62944650D01*
X65788192Y-63139854D01*
X65788008Y-63351218D01*
X65868723Y-63546564D01*
X66018050Y-63696152D01*
X66213254Y-63777208D01*
X66424618Y-63777392D01*
X66619964Y-63696677D01*
X66769552Y-63547350D01*
X66850608Y-63352146D01*
X66850792Y-63140782D01*
X66770077Y-62945436D01*
X66765894Y-62941246D01*
X66858452Y-62848850D01*
X66939508Y-62653646D01*
X66939692Y-62442282D01*
X66858977Y-62246936D01*
X66709650Y-62097348D01*
X66514446Y-62016292D01*
X66444321Y-62016231D01*
X66444392Y-61934282D01*
X66363677Y-61738936D01*
X66214350Y-61589348D01*
X66019146Y-61508292D01*
X65807782Y-61508108D01*
X65612436Y-61588823D01*
X65462848Y-61738150D01*
X65381792Y-61933354D01*
X65381608Y-62144718D01*
X61452000Y-62144718D01*
X61452000Y-61420818D01*
X66969108Y-61420818D01*
X67049823Y-61616164D01*
X67199150Y-61765752D01*
X67394354Y-61846808D01*
X67605718Y-61846992D01*
X67801064Y-61766277D01*
X67950652Y-61616950D01*
X68031708Y-61421746D01*
X68031764Y-61357318D01*
X69013808Y-61357318D01*
X69094523Y-61552664D01*
X69243850Y-61702252D01*
X69439054Y-61783308D01*
X69650418Y-61783492D01*
X69773907Y-61732468D01*
X69730048Y-61776250D01*
X69648992Y-61971454D01*
X69648808Y-62182818D01*
X69729523Y-62378164D01*
X69878850Y-62527752D01*
X70074054Y-62608808D01*
X70285418Y-62608992D01*
X70480764Y-62528277D01*
X70630352Y-62378950D01*
X70711408Y-62183746D01*
X70711408Y-62182818D01*
X70817208Y-62182818D01*
X70897923Y-62378164D01*
X71047250Y-62527752D01*
X71242454Y-62608808D01*
X71453818Y-62608992D01*
X71649164Y-62528277D01*
X71740782Y-62436818D01*
X72976208Y-62436818D01*
X73056923Y-62632164D01*
X73206250Y-62781752D01*
X73401454Y-62862808D01*
X73612818Y-62862992D01*
X73808164Y-62782277D01*
X73957752Y-62632950D01*
X74038808Y-62437746D01*
X74038808Y-62436818D01*
X79542108Y-62436818D01*
X79622823Y-62632164D01*
X79772150Y-62781752D01*
X79967354Y-62862808D01*
X80178718Y-62862992D01*
X80374064Y-62782277D01*
X80523652Y-62632950D01*
X80525990Y-62627318D01*
X83695008Y-62627318D01*
X83775723Y-62822664D01*
X83925050Y-62972252D01*
X84120254Y-63053308D01*
X84331618Y-63053492D01*
X84526964Y-62972777D01*
X84676552Y-62823450D01*
X84757608Y-62628246D01*
X84757792Y-62416882D01*
X84677077Y-62221536D01*
X84527750Y-62071948D01*
X84332546Y-61990892D01*
X84121182Y-61990708D01*
X83925836Y-62071423D01*
X83776248Y-62220750D01*
X83695192Y-62415954D01*
X83695008Y-62627318D01*
X80525990Y-62627318D01*
X80604708Y-62437746D01*
X80604892Y-62226382D01*
X80524177Y-62031036D01*
X80374850Y-61881448D01*
X80179646Y-61800392D01*
X79968282Y-61800208D01*
X79772936Y-61880923D01*
X79623348Y-62030250D01*
X79542292Y-62225454D01*
X79542108Y-62436818D01*
X74038808Y-62436818D01*
X74038992Y-62226382D01*
X73958277Y-62031036D01*
X73808950Y-61881448D01*
X73613746Y-61800392D01*
X73402382Y-61800208D01*
X73207036Y-61880923D01*
X73057448Y-62030250D01*
X72976392Y-62225454D01*
X72976208Y-62436818D01*
X71740782Y-62436818D01*
X71798752Y-62378950D01*
X71879808Y-62183746D01*
X71879992Y-61972382D01*
X71799277Y-61777036D01*
X71649950Y-61627448D01*
X71454746Y-61546392D01*
X71243382Y-61546208D01*
X71048036Y-61626923D01*
X70898448Y-61776250D01*
X70817392Y-61971454D01*
X70817208Y-62182818D01*
X70711408Y-62182818D01*
X70711592Y-61972382D01*
X70630877Y-61777036D01*
X70481550Y-61627448D01*
X70286346Y-61546392D01*
X70074982Y-61546208D01*
X69951493Y-61597232D01*
X69995352Y-61553450D01*
X70076408Y-61358246D01*
X70076592Y-61146882D01*
X70000870Y-60963618D01*
X70207608Y-60963618D01*
X70288323Y-61158964D01*
X70437650Y-61308552D01*
X70632854Y-61389608D01*
X70844218Y-61389792D01*
X71039564Y-61309077D01*
X71189152Y-61159750D01*
X71191936Y-61153043D01*
X75012998Y-61153043D01*
X75102631Y-61369972D01*
X75268455Y-61536086D01*
X75485227Y-61626098D01*
X75719943Y-61626302D01*
X75936872Y-61536669D01*
X76102986Y-61370845D01*
X76192998Y-61154073D01*
X76193163Y-60963618D01*
X78546608Y-60963618D01*
X78627323Y-61158964D01*
X78776650Y-61308552D01*
X78971854Y-61389608D01*
X79183218Y-61389792D01*
X79378564Y-61309077D01*
X79528152Y-61159750D01*
X79609208Y-60964546D01*
X79609392Y-60753182D01*
X79528677Y-60557836D01*
X79379350Y-60408248D01*
X79184146Y-60327192D01*
X78972782Y-60327008D01*
X78777436Y-60407723D01*
X78627848Y-60557050D01*
X78546792Y-60752254D01*
X78546608Y-60963618D01*
X76193163Y-60963618D01*
X76193202Y-60919357D01*
X76103569Y-60702428D01*
X75937745Y-60536314D01*
X75720973Y-60446302D01*
X75486257Y-60446098D01*
X75269328Y-60535731D01*
X75103214Y-60701555D01*
X75013202Y-60918327D01*
X75012998Y-61153043D01*
X71191936Y-61153043D01*
X71270208Y-60964546D01*
X71270392Y-60753182D01*
X71189677Y-60557836D01*
X71040350Y-60408248D01*
X70845146Y-60327192D01*
X70633782Y-60327008D01*
X70438436Y-60407723D01*
X70288848Y-60557050D01*
X70207792Y-60752254D01*
X70207608Y-60963618D01*
X70000870Y-60963618D01*
X69995877Y-60951536D01*
X69846550Y-60801948D01*
X69651346Y-60720892D01*
X69439982Y-60720708D01*
X69244636Y-60801423D01*
X69095048Y-60950750D01*
X69013992Y-61145954D01*
X69013808Y-61357318D01*
X68031764Y-61357318D01*
X68031892Y-61210382D01*
X67951177Y-61015036D01*
X67801850Y-60865448D01*
X67606646Y-60784392D01*
X67395282Y-60784208D01*
X67199936Y-60864923D01*
X67050348Y-61014250D01*
X66969292Y-61209454D01*
X66969108Y-61420818D01*
X61452000Y-61420818D01*
X61452000Y-59541218D01*
X63832208Y-59541218D01*
X63912923Y-59736564D01*
X64062250Y-59886152D01*
X64257454Y-59967208D01*
X64468818Y-59967392D01*
X64516674Y-59947618D01*
X64937108Y-59947618D01*
X65017823Y-60142964D01*
X65167150Y-60292552D01*
X65199254Y-60305883D01*
X65167936Y-60318823D01*
X65018348Y-60468150D01*
X64937292Y-60663354D01*
X64937108Y-60874718D01*
X65017823Y-61070064D01*
X65167150Y-61219652D01*
X65362354Y-61300708D01*
X65573718Y-61300892D01*
X65769064Y-61220177D01*
X65918652Y-61070850D01*
X65999708Y-60875646D01*
X65999892Y-60664282D01*
X65919177Y-60468936D01*
X65769850Y-60319348D01*
X65737746Y-60306017D01*
X65769064Y-60293077D01*
X65918652Y-60143750D01*
X65999708Y-59948546D01*
X65999841Y-59794666D01*
X81029000Y-59794666D01*
X81029000Y-59839334D01*
X81115777Y-60275593D01*
X81362898Y-60645436D01*
X81732741Y-60892557D01*
X82169000Y-60979334D01*
X82605259Y-60892557D01*
X82975102Y-60645436D01*
X83222223Y-60275593D01*
X83280821Y-59981002D01*
X83419803Y-59981002D01*
X83313672Y-60204043D01*
X83568000Y-60708550D01*
X83996035Y-61077327D01*
X84321960Y-61212315D01*
X84545000Y-61105102D01*
X84545000Y-59981000D01*
X84525000Y-59981000D01*
X84525000Y-59653000D01*
X84545000Y-59653000D01*
X84545000Y-58528898D01*
X84321960Y-58421685D01*
X83996035Y-58556673D01*
X83568000Y-58925450D01*
X83313672Y-59429957D01*
X83419803Y-59652998D01*
X83280821Y-59652998D01*
X83222223Y-59358407D01*
X82975102Y-58988564D01*
X82605259Y-58741443D01*
X82169000Y-58654666D01*
X81732741Y-58741443D01*
X81362898Y-58988564D01*
X81115777Y-59358407D01*
X81029000Y-59794666D01*
X65999841Y-59794666D01*
X65999892Y-59737182D01*
X65919177Y-59541836D01*
X65769850Y-59392248D01*
X65574646Y-59311192D01*
X65363282Y-59311008D01*
X65167936Y-59391723D01*
X65018348Y-59541050D01*
X64937292Y-59736254D01*
X64937108Y-59947618D01*
X64516674Y-59947618D01*
X64664164Y-59886677D01*
X64813752Y-59737350D01*
X64894808Y-59542146D01*
X64894992Y-59330782D01*
X64814277Y-59135436D01*
X64686882Y-59007818D01*
X76913208Y-59007818D01*
X76993923Y-59203164D01*
X77143250Y-59352752D01*
X77338454Y-59433808D01*
X77549818Y-59433992D01*
X77745164Y-59353277D01*
X77894752Y-59203950D01*
X77975808Y-59008746D01*
X77975992Y-58797382D01*
X77895277Y-58602036D01*
X77745950Y-58452448D01*
X77550746Y-58371392D01*
X77339382Y-58371208D01*
X77144036Y-58451923D01*
X76994448Y-58601250D01*
X76913392Y-58796454D01*
X76913208Y-59007818D01*
X64686882Y-59007818D01*
X64664950Y-58985848D01*
X64469746Y-58904792D01*
X64258382Y-58904608D01*
X64063036Y-58985323D01*
X63913448Y-59134650D01*
X63832392Y-59329854D01*
X63832208Y-59541218D01*
X61452000Y-59541218D01*
X61452000Y-58398218D01*
X64365608Y-58398218D01*
X64446323Y-58593564D01*
X64595650Y-58743152D01*
X64790854Y-58824208D01*
X65002218Y-58824392D01*
X65197564Y-58743677D01*
X65347152Y-58594350D01*
X65428208Y-58399146D01*
X65428330Y-58258518D01*
X66854808Y-58258518D01*
X66935523Y-58453864D01*
X67084850Y-58603452D01*
X67280054Y-58684508D01*
X67491418Y-58684692D01*
X67686764Y-58603977D01*
X67836352Y-58454650D01*
X67917408Y-58259446D01*
X67917592Y-58048082D01*
X67836877Y-57852736D01*
X67687550Y-57703148D01*
X67492346Y-57622092D01*
X67280982Y-57621908D01*
X67085636Y-57702623D01*
X66936048Y-57851950D01*
X66854992Y-58047154D01*
X66854808Y-58258518D01*
X65428330Y-58258518D01*
X65428392Y-58187782D01*
X65347677Y-57992436D01*
X65198350Y-57842848D01*
X65003146Y-57761792D01*
X64791782Y-57761608D01*
X64596436Y-57842323D01*
X64446848Y-57991650D01*
X64365792Y-58186854D01*
X64365608Y-58398218D01*
X61452000Y-58398218D01*
X61452000Y-56136631D01*
X61482886Y-56149456D01*
X61482708Y-56353518D01*
X61563423Y-56548864D01*
X61712750Y-56698452D01*
X61733217Y-56706951D01*
X61698792Y-56789854D01*
X61698608Y-57001218D01*
X61779323Y-57196564D01*
X61928650Y-57346152D01*
X62123854Y-57427208D01*
X62335218Y-57427392D01*
X62530564Y-57346677D01*
X62680152Y-57197350D01*
X62708858Y-57128218D01*
X77065608Y-57128218D01*
X77146323Y-57323564D01*
X77295650Y-57473152D01*
X77490854Y-57554208D01*
X77702218Y-57554392D01*
X77897564Y-57473677D01*
X77989182Y-57382218D01*
X78742008Y-57382218D01*
X78822723Y-57577564D01*
X78972050Y-57727152D01*
X79167254Y-57808208D01*
X79378618Y-57808392D01*
X79573964Y-57727677D01*
X79723552Y-57578350D01*
X79804608Y-57383146D01*
X79804792Y-57171782D01*
X79724077Y-56976436D01*
X79574750Y-56826848D01*
X79379546Y-56745792D01*
X79168182Y-56745608D01*
X78972836Y-56826323D01*
X78823248Y-56975650D01*
X78742192Y-57170854D01*
X78742008Y-57382218D01*
X77989182Y-57382218D01*
X78047152Y-57324350D01*
X78128208Y-57129146D01*
X78128392Y-56917782D01*
X78047677Y-56722436D01*
X77898350Y-56572848D01*
X77703146Y-56491792D01*
X77491782Y-56491608D01*
X77296436Y-56572323D01*
X77146848Y-56721650D01*
X77065792Y-56916854D01*
X77065608Y-57128218D01*
X62708858Y-57128218D01*
X62761208Y-57002146D01*
X62761392Y-56790782D01*
X62680677Y-56595436D01*
X62531350Y-56445848D01*
X62510883Y-56437349D01*
X62545308Y-56354446D01*
X62545492Y-56143082D01*
X62464777Y-55947736D01*
X62451483Y-55934418D01*
X76659208Y-55934418D01*
X76739923Y-56129764D01*
X76889250Y-56279352D01*
X77084454Y-56360408D01*
X77295818Y-56360592D01*
X77491164Y-56279877D01*
X77640752Y-56130550D01*
X77721808Y-55935346D01*
X77721992Y-55723982D01*
X77641277Y-55528636D01*
X77491950Y-55379048D01*
X77296746Y-55297992D01*
X77085382Y-55297808D01*
X76890036Y-55378523D01*
X76740448Y-55527850D01*
X76659392Y-55723054D01*
X76659208Y-55934418D01*
X62451483Y-55934418D01*
X62315450Y-55798148D01*
X62138914Y-55724844D01*
X62139092Y-55520782D01*
X62092506Y-55408035D01*
X62157418Y-55408092D01*
X62352764Y-55327377D01*
X62420015Y-55260243D01*
X72155498Y-55260243D01*
X72245131Y-55477172D01*
X72410955Y-55643286D01*
X72627727Y-55733298D01*
X72862443Y-55733502D01*
X73079372Y-55643869D01*
X73245486Y-55478045D01*
X73314831Y-55311043D01*
X75482898Y-55311043D01*
X75572531Y-55527972D01*
X75738355Y-55694086D01*
X75955127Y-55784098D01*
X76189843Y-55784302D01*
X76406772Y-55694669D01*
X76572886Y-55528845D01*
X76662898Y-55312073D01*
X76663102Y-55077357D01*
X76573469Y-54860428D01*
X76407645Y-54694314D01*
X76190873Y-54604302D01*
X75956157Y-54604098D01*
X75739228Y-54693731D01*
X75573114Y-54859555D01*
X75483102Y-55076327D01*
X75482898Y-55311043D01*
X73314831Y-55311043D01*
X73335498Y-55261273D01*
X73335702Y-55026557D01*
X73246069Y-54809628D01*
X73080245Y-54643514D01*
X72863473Y-54553502D01*
X72628757Y-54553298D01*
X72411828Y-54642931D01*
X72245714Y-54808755D01*
X72155702Y-55025527D01*
X72155498Y-55260243D01*
X62420015Y-55260243D01*
X62502352Y-55178050D01*
X62583408Y-54982846D01*
X62583592Y-54771482D01*
X62502877Y-54576136D01*
X62353550Y-54426548D01*
X62158346Y-54345492D01*
X61946982Y-54345308D01*
X61751636Y-54426023D01*
X61602048Y-54575350D01*
X61520992Y-54770554D01*
X61520808Y-54981918D01*
X61567394Y-55094665D01*
X61502482Y-55094608D01*
X61452000Y-55115467D01*
X61452000Y-53971471D01*
X64412776Y-53971471D01*
X64608753Y-54445772D01*
X64971319Y-54808971D01*
X65445277Y-55005776D01*
X65958471Y-55006224D01*
X66432772Y-54810247D01*
X66553411Y-54689818D01*
X69242408Y-54689818D01*
X69323123Y-54885164D01*
X69472450Y-55034752D01*
X69667654Y-55115808D01*
X69879018Y-55115992D01*
X70074364Y-55035277D01*
X70148437Y-54961333D01*
X70209050Y-55022052D01*
X70404254Y-55103108D01*
X70615618Y-55103292D01*
X70810964Y-55022577D01*
X70960552Y-54873250D01*
X71041608Y-54678046D01*
X71041764Y-54498243D01*
X79267498Y-54498243D01*
X79357131Y-54715172D01*
X79522955Y-54881286D01*
X79739727Y-54971298D01*
X79974443Y-54971502D01*
X80191372Y-54881869D01*
X80357486Y-54716045D01*
X80447498Y-54499273D01*
X80447702Y-54264557D01*
X80358069Y-54047628D01*
X80351496Y-54041043D01*
X83445798Y-54041043D01*
X83535431Y-54257972D01*
X83701255Y-54424086D01*
X83918027Y-54514098D01*
X84152743Y-54514302D01*
X84369672Y-54424669D01*
X84535786Y-54258845D01*
X84625798Y-54042073D01*
X84626002Y-53807357D01*
X84536369Y-53590428D01*
X84370545Y-53424314D01*
X84153773Y-53334302D01*
X83919057Y-53334098D01*
X83702128Y-53423731D01*
X83536014Y-53589555D01*
X83446002Y-53806327D01*
X83445798Y-54041043D01*
X80351496Y-54041043D01*
X80192245Y-53881514D01*
X79975473Y-53791502D01*
X79740757Y-53791298D01*
X79523828Y-53880931D01*
X79357714Y-54046755D01*
X79267702Y-54263527D01*
X79267498Y-54498243D01*
X71041764Y-54498243D01*
X71041792Y-54466682D01*
X70961077Y-54271336D01*
X70811750Y-54121748D01*
X70616546Y-54040692D01*
X70405182Y-54040508D01*
X70209836Y-54121223D01*
X70135763Y-54195167D01*
X70075150Y-54134448D01*
X69879946Y-54053392D01*
X69668582Y-54053208D01*
X69473236Y-54133923D01*
X69323648Y-54283250D01*
X69242592Y-54478454D01*
X69242408Y-54689818D01*
X66553411Y-54689818D01*
X66795971Y-54447681D01*
X66992776Y-53973723D01*
X66993224Y-53460529D01*
X66834276Y-53075843D01*
X77032298Y-53075843D01*
X77121931Y-53292772D01*
X77287755Y-53458886D01*
X77504527Y-53548898D01*
X77739243Y-53549102D01*
X77956172Y-53459469D01*
X78122286Y-53293645D01*
X78212298Y-53076873D01*
X78212502Y-52842157D01*
X78122869Y-52625228D01*
X77957045Y-52459114D01*
X77740273Y-52369102D01*
X77505557Y-52368898D01*
X77288628Y-52458531D01*
X77122514Y-52624355D01*
X77032502Y-52841127D01*
X77032298Y-53075843D01*
X66834276Y-53075843D01*
X66797247Y-52986228D01*
X66434681Y-52623029D01*
X65960723Y-52426224D01*
X65447529Y-52425776D01*
X64973228Y-52621753D01*
X64610029Y-52984319D01*
X64413224Y-53458277D01*
X64412776Y-53971471D01*
X61452000Y-53971471D01*
X61452000Y-50172913D01*
X62240572Y-50962863D01*
X63467718Y-51472418D01*
X64796452Y-51473578D01*
X65436918Y-51208943D01*
X80981998Y-51208943D01*
X81071631Y-51425872D01*
X81237455Y-51591986D01*
X81454227Y-51681998D01*
X81688943Y-51682202D01*
X81905872Y-51592569D01*
X82071986Y-51426745D01*
X82146605Y-51247043D01*
X82378998Y-51247043D01*
X82468631Y-51463972D01*
X82634455Y-51630086D01*
X82851227Y-51720098D01*
X83085943Y-51720302D01*
X83302872Y-51630669D01*
X83468986Y-51464845D01*
X83558998Y-51248073D01*
X83559202Y-51013357D01*
X83469569Y-50796428D01*
X83303745Y-50630314D01*
X83086973Y-50540302D01*
X82852257Y-50540098D01*
X82635328Y-50629731D01*
X82469214Y-50795555D01*
X82379202Y-51012327D01*
X82378998Y-51247043D01*
X82146605Y-51247043D01*
X82161998Y-51209973D01*
X82162202Y-50975257D01*
X82072569Y-50758328D01*
X81906745Y-50592214D01*
X81689973Y-50502202D01*
X81455257Y-50501998D01*
X81238328Y-50591631D01*
X81072214Y-50757455D01*
X80982202Y-50974227D01*
X80981998Y-51208943D01*
X65436918Y-51208943D01*
X66024486Y-50966165D01*
X66379226Y-50612043D01*
X77616498Y-50612043D01*
X77706131Y-50828972D01*
X77871955Y-50995086D01*
X78088727Y-51085098D01*
X78323443Y-51085302D01*
X78540372Y-50995669D01*
X78706486Y-50829845D01*
X78767386Y-50683183D01*
X78771923Y-50694164D01*
X78921250Y-50843752D01*
X79116454Y-50924808D01*
X79327818Y-50924992D01*
X79523164Y-50844277D01*
X79672752Y-50694950D01*
X79753808Y-50499746D01*
X79753992Y-50288382D01*
X79673277Y-50093036D01*
X79523950Y-49943448D01*
X79328746Y-49862392D01*
X79117382Y-49862208D01*
X78922036Y-49942923D01*
X78772448Y-50092250D01*
X78725351Y-50205673D01*
X78707069Y-50161428D01*
X78541245Y-49995314D01*
X78324473Y-49905302D01*
X78089757Y-49905098D01*
X77872828Y-49994731D01*
X77706714Y-50160555D01*
X77616702Y-50377327D01*
X77616498Y-50612043D01*
X66379226Y-50612043D01*
X66964863Y-50027428D01*
X67474418Y-48800282D01*
X67474987Y-48148243D01*
X74136698Y-48148243D01*
X74226331Y-48365172D01*
X74392155Y-48531286D01*
X74608927Y-48621298D01*
X74843643Y-48621502D01*
X75060572Y-48531869D01*
X75101369Y-48491143D01*
X85109498Y-48491143D01*
X85199131Y-48708072D01*
X85364955Y-48874186D01*
X85581727Y-48964198D01*
X85816443Y-48964402D01*
X86033372Y-48874769D01*
X86199486Y-48708945D01*
X86289498Y-48492173D01*
X86289702Y-48257457D01*
X86200069Y-48040528D01*
X86034245Y-47874414D01*
X85867905Y-47805343D01*
X87484398Y-47805343D01*
X87574031Y-48022272D01*
X87739855Y-48188386D01*
X87956627Y-48278398D01*
X88191343Y-48278602D01*
X88408272Y-48188969D01*
X88574386Y-48023145D01*
X88664398Y-47806373D01*
X88664602Y-47571657D01*
X88574969Y-47354728D01*
X88409145Y-47188614D01*
X88192373Y-47098602D01*
X87957657Y-47098398D01*
X87740728Y-47188031D01*
X87574614Y-47353855D01*
X87484602Y-47570627D01*
X87484398Y-47805343D01*
X85867905Y-47805343D01*
X85817473Y-47784402D01*
X85582757Y-47784198D01*
X85365828Y-47873831D01*
X85199714Y-48039655D01*
X85109702Y-48256427D01*
X85109498Y-48491143D01*
X75101369Y-48491143D01*
X75226686Y-48366045D01*
X75316698Y-48149273D01*
X75316902Y-47914557D01*
X75227269Y-47697628D01*
X75061445Y-47531514D01*
X74844673Y-47441502D01*
X74609957Y-47441298D01*
X74393028Y-47530931D01*
X74226914Y-47696755D01*
X74136902Y-47913527D01*
X74136698Y-48148243D01*
X67474987Y-48148243D01*
X67475578Y-47471548D01*
X66968165Y-46243514D01*
X66049256Y-45323000D01*
X89100032Y-45323000D01*
X89064511Y-51598309D01*
X89064511Y-51598309D01*
G37*
X89064511Y-51598309D02*
X85852692Y-51573603D01*
X85817624Y-51580424D01*
X85787972Y-51600351D01*
X85768409Y-51630245D01*
X85762000Y-51663600D01*
X85762000Y-53967208D01*
X85682314Y-54046755D01*
X85592302Y-54263527D01*
X85592098Y-54498243D01*
X85681731Y-54715172D01*
X85762000Y-54795581D01*
X85762000Y-58849633D01*
X85421965Y-58556673D01*
X85096040Y-58421685D01*
X84873000Y-58528898D01*
X84873000Y-59653000D01*
X84893000Y-59653000D01*
X84893000Y-59981000D01*
X84873000Y-59981000D01*
X84873000Y-61105102D01*
X85096040Y-61212315D01*
X85421965Y-61077327D01*
X85762000Y-60784367D01*
X85762000Y-63144400D01*
X85769091Y-63179415D01*
X85784590Y-63204032D01*
X86076690Y-63534232D01*
X86078998Y-63536743D01*
X86345698Y-63816143D01*
X86375004Y-63836575D01*
X86410800Y-63844000D01*
X87794000Y-63844000D01*
X87794000Y-84471000D01*
X82684691Y-84471000D01*
X83601863Y-83555428D01*
X83796363Y-83087018D01*
X84812608Y-83087018D01*
X84893323Y-83282364D01*
X85042650Y-83431952D01*
X85237854Y-83513008D01*
X85449218Y-83513192D01*
X85644564Y-83432477D01*
X85794152Y-83283150D01*
X85833405Y-83188618D01*
X86362008Y-83188618D01*
X86442723Y-83383964D01*
X86592050Y-83533552D01*
X86787254Y-83614608D01*
X86998618Y-83614792D01*
X87193964Y-83534077D01*
X87343552Y-83384750D01*
X87424608Y-83189546D01*
X87424792Y-82978182D01*
X87344077Y-82782836D01*
X87194750Y-82633248D01*
X86999546Y-82552192D01*
X86788182Y-82552008D01*
X86592836Y-82632723D01*
X86443248Y-82782050D01*
X86362192Y-82977254D01*
X86362008Y-83188618D01*
X85833405Y-83188618D01*
X85875208Y-83087946D01*
X85875392Y-82876582D01*
X85794677Y-82681236D01*
X85645350Y-82531648D01*
X85450146Y-82450592D01*
X85238782Y-82450408D01*
X85043436Y-82531123D01*
X84893848Y-82680450D01*
X84812792Y-82875654D01*
X84812608Y-83087018D01*
X83796363Y-83087018D01*
X84111418Y-82328282D01*
X84112578Y-80999548D01*
X83605165Y-79771514D01*
X82666428Y-78831137D01*
X81749615Y-78450443D01*
X83763298Y-78450443D01*
X83852931Y-78667372D01*
X84017673Y-78832402D01*
X83915948Y-78933950D01*
X83834892Y-79129154D01*
X83834708Y-79340518D01*
X83915423Y-79535864D01*
X84064750Y-79685452D01*
X84259954Y-79766508D01*
X84471318Y-79766692D01*
X84666664Y-79685977D01*
X84816252Y-79536650D01*
X84897308Y-79341446D01*
X84897492Y-79130082D01*
X84816777Y-78934736D01*
X84701754Y-78819512D01*
X84853286Y-78668245D01*
X84943298Y-78451473D01*
X84943502Y-78216757D01*
X84853869Y-77999828D01*
X84688045Y-77833714D01*
X84471273Y-77743702D01*
X84236557Y-77743498D01*
X84019628Y-77833131D01*
X83853514Y-77998955D01*
X83763502Y-78215727D01*
X83763298Y-78450443D01*
X81749615Y-78450443D01*
X81439282Y-78321582D01*
X80110548Y-78320422D01*
X78882514Y-78827835D01*
X77942137Y-79766572D01*
X77432582Y-80993718D01*
X77431422Y-82322452D01*
X77938835Y-83550486D01*
X78857744Y-84471000D01*
X61452000Y-84471000D01*
X61452000Y-82804000D01*
X62083666Y-82804000D01*
X62170443Y-83240259D01*
X62417564Y-83610102D01*
X62787407Y-83857223D01*
X63223666Y-83944000D01*
X63268334Y-83944000D01*
X63704593Y-83857223D01*
X64074436Y-83610102D01*
X64321557Y-83240259D01*
X64408334Y-82804000D01*
X64321557Y-82367741D01*
X64074436Y-81997898D01*
X64008738Y-81954000D01*
X64640319Y-81954000D01*
X64640319Y-83654000D01*
X64660540Y-83761467D01*
X64724054Y-83860170D01*
X64820964Y-83926386D01*
X64936000Y-83949681D01*
X66636000Y-83949681D01*
X66743467Y-83929460D01*
X66842170Y-83865946D01*
X66908386Y-83769036D01*
X66931681Y-83654000D01*
X66931681Y-82540918D01*
X72455508Y-82540918D01*
X72536223Y-82736264D01*
X72685550Y-82885852D01*
X72880754Y-82966908D01*
X73092118Y-82967092D01*
X73287464Y-82886377D01*
X73437052Y-82737050D01*
X73518108Y-82541846D01*
X73518292Y-82330482D01*
X73437577Y-82135136D01*
X73288250Y-81985548D01*
X73093046Y-81904492D01*
X72881682Y-81904308D01*
X72686336Y-81985023D01*
X72536748Y-82134350D01*
X72455692Y-82329554D01*
X72455508Y-82540918D01*
X66931681Y-82540918D01*
X66931681Y-81954000D01*
X66911460Y-81846533D01*
X66847946Y-81747830D01*
X66763336Y-81690018D01*
X67146908Y-81690018D01*
X67227623Y-81885364D01*
X67376950Y-82034952D01*
X67572154Y-82116008D01*
X67783518Y-82116192D01*
X67978864Y-82035477D01*
X68128452Y-81886150D01*
X68209508Y-81690946D01*
X68209692Y-81479582D01*
X68128977Y-81284236D01*
X67979650Y-81134648D01*
X67784446Y-81053592D01*
X67573082Y-81053408D01*
X67377736Y-81134123D01*
X67228148Y-81283450D01*
X67147092Y-81478654D01*
X67146908Y-81690018D01*
X66763336Y-81690018D01*
X66751036Y-81681614D01*
X66636000Y-81658319D01*
X64936000Y-81658319D01*
X64828533Y-81678540D01*
X64729830Y-81742054D01*
X64663614Y-81838964D01*
X64640319Y-81954000D01*
X64008738Y-81954000D01*
X63704593Y-81750777D01*
X63268334Y-81664000D01*
X63223666Y-81664000D01*
X62787407Y-81750777D01*
X62417564Y-81997898D01*
X62170443Y-82367741D01*
X62083666Y-82804000D01*
X61452000Y-82804000D01*
X61452000Y-78111040D01*
X61850685Y-78111040D01*
X61985673Y-78436965D01*
X62354450Y-78865000D01*
X62858957Y-79119328D01*
X63081998Y-79013197D01*
X63081998Y-79152179D01*
X62787407Y-79210777D01*
X62417564Y-79457898D01*
X62170443Y-79827741D01*
X62083666Y-80264000D01*
X62170443Y-80700259D01*
X62417564Y-81070102D01*
X62787407Y-81317223D01*
X63223666Y-81404000D01*
X63268334Y-81404000D01*
X63704593Y-81317223D01*
X64074436Y-81070102D01*
X64321557Y-80700259D01*
X64408334Y-80264000D01*
X64394421Y-80194052D01*
X64435254Y-80211008D01*
X64634172Y-80211181D01*
X64623666Y-80264000D01*
X64710443Y-80700259D01*
X64957564Y-81070102D01*
X65327407Y-81317223D01*
X65763666Y-81404000D01*
X65808334Y-81404000D01*
X66244593Y-81317223D01*
X66614436Y-81070102D01*
X66692401Y-80953418D01*
X68315308Y-80953418D01*
X68396023Y-81148764D01*
X68463606Y-81216465D01*
X68421948Y-81258050D01*
X68340892Y-81453254D01*
X68340708Y-81664618D01*
X68421423Y-81859964D01*
X68570750Y-82009552D01*
X68765954Y-82090608D01*
X68977318Y-82090792D01*
X69172664Y-82010077D01*
X69322252Y-81860750D01*
X69403308Y-81665546D01*
X69403492Y-81454182D01*
X69322777Y-81258836D01*
X69255194Y-81191135D01*
X69296852Y-81149550D01*
X69354332Y-81011123D01*
X69548818Y-81011292D01*
X69744164Y-80930577D01*
X69893752Y-80781250D01*
X69974808Y-80586046D01*
X69974992Y-80374682D01*
X69894277Y-80179336D01*
X69744950Y-80029748D01*
X69549746Y-79948692D01*
X69338382Y-79948508D01*
X69143036Y-80029223D01*
X68993448Y-80178550D01*
X68935968Y-80316977D01*
X68741482Y-80316808D01*
X68546136Y-80397523D01*
X68396548Y-80546850D01*
X68315492Y-80742054D01*
X68315308Y-80953418D01*
X66692401Y-80953418D01*
X66861557Y-80700259D01*
X66948334Y-80264000D01*
X66861557Y-79827741D01*
X66614436Y-79457898D01*
X66457772Y-79353218D01*
X68683608Y-79353218D01*
X68764323Y-79548564D01*
X68913650Y-79698152D01*
X69108854Y-79779208D01*
X69320218Y-79779392D01*
X69515564Y-79698677D01*
X69665152Y-79549350D01*
X69746208Y-79354146D01*
X69746208Y-79353218D01*
X70461608Y-79353218D01*
X70542323Y-79548564D01*
X70691650Y-79698152D01*
X70886854Y-79779208D01*
X71098218Y-79779392D01*
X71293564Y-79698677D01*
X71443152Y-79549350D01*
X71524208Y-79354146D01*
X71524208Y-79353218D01*
X72112608Y-79353218D01*
X72193323Y-79548564D01*
X72342650Y-79698152D01*
X72537854Y-79779208D01*
X72588966Y-79779252D01*
X72445036Y-79838723D01*
X72295448Y-79988050D01*
X72214392Y-80183254D01*
X72214208Y-80394618D01*
X72294923Y-80589964D01*
X72444250Y-80739552D01*
X72518878Y-80770540D01*
X72493792Y-80830954D01*
X72493608Y-81042318D01*
X72574323Y-81237664D01*
X72723650Y-81387252D01*
X72918854Y-81468308D01*
X73130218Y-81468492D01*
X73325564Y-81387777D01*
X73475152Y-81238450D01*
X73556208Y-81043246D01*
X73556208Y-81042318D01*
X73700108Y-81042318D01*
X73780823Y-81237664D01*
X73930150Y-81387252D01*
X74125354Y-81468308D01*
X74336718Y-81468492D01*
X74532064Y-81387777D01*
X74681652Y-81238450D01*
X74762708Y-81043246D01*
X74762892Y-80831882D01*
X74682177Y-80636536D01*
X74532850Y-80486948D01*
X74337646Y-80405892D01*
X74126282Y-80405708D01*
X73930936Y-80486423D01*
X73781348Y-80635750D01*
X73700292Y-80830954D01*
X73700108Y-81042318D01*
X73556208Y-81042318D01*
X73556392Y-80831882D01*
X73475677Y-80636536D01*
X73326350Y-80486948D01*
X73251722Y-80455960D01*
X73276808Y-80395546D01*
X73276930Y-80254918D01*
X76252808Y-80254918D01*
X76333523Y-80450264D01*
X76482850Y-80599852D01*
X76678054Y-80680908D01*
X76889418Y-80681092D01*
X77084764Y-80600377D01*
X77234352Y-80451050D01*
X77315408Y-80255846D01*
X77315592Y-80044482D01*
X77234877Y-79849136D01*
X77085550Y-79699548D01*
X76890346Y-79618492D01*
X76678982Y-79618308D01*
X76483636Y-79699023D01*
X76334048Y-79848350D01*
X76252992Y-80043554D01*
X76252808Y-80254918D01*
X73276930Y-80254918D01*
X73276992Y-80184182D01*
X73196277Y-79988836D01*
X73046950Y-79839248D01*
X72851746Y-79758192D01*
X72800634Y-79758148D01*
X72944564Y-79698677D01*
X73094152Y-79549350D01*
X73149225Y-79416718D01*
X73179408Y-79416718D01*
X73260123Y-79612064D01*
X73409450Y-79761652D01*
X73604654Y-79842708D01*
X73816018Y-79842892D01*
X74011364Y-79762177D01*
X74145377Y-79628398D01*
X74149123Y-79637464D01*
X74298450Y-79787052D01*
X74493654Y-79868108D01*
X74705018Y-79868292D01*
X74900364Y-79787577D01*
X75049952Y-79638250D01*
X75131008Y-79443046D01*
X75131058Y-79385510D01*
X75340018Y-79385692D01*
X75535364Y-79304977D01*
X75684952Y-79155650D01*
X75766008Y-78960446D01*
X75766019Y-78946818D01*
X76252808Y-78946818D01*
X76333523Y-79142164D01*
X76482850Y-79291752D01*
X76678054Y-79372808D01*
X76889418Y-79372992D01*
X77084764Y-79292277D01*
X77234352Y-79142950D01*
X77315408Y-78947746D01*
X77315592Y-78736382D01*
X77234877Y-78541036D01*
X77085550Y-78391448D01*
X76890346Y-78310392D01*
X76678982Y-78310208D01*
X76483636Y-78390923D01*
X76334048Y-78540250D01*
X76252992Y-78735454D01*
X76252808Y-78946818D01*
X75766019Y-78946818D01*
X75766192Y-78749082D01*
X75685477Y-78553736D01*
X75536150Y-78404148D01*
X75340946Y-78323092D01*
X75129582Y-78322908D01*
X74934236Y-78403623D01*
X74784648Y-78552950D01*
X74703592Y-78748154D01*
X74703542Y-78805690D01*
X74494582Y-78805508D01*
X74299236Y-78886223D01*
X74165223Y-79020002D01*
X74161477Y-79010936D01*
X74012150Y-78861348D01*
X73816946Y-78780292D01*
X73605582Y-78780108D01*
X73410236Y-78860823D01*
X73260648Y-79010150D01*
X73179592Y-79205354D01*
X73179408Y-79416718D01*
X73149225Y-79416718D01*
X73175208Y-79354146D01*
X73175392Y-79142782D01*
X73094677Y-78947436D01*
X72945350Y-78797848D01*
X72750146Y-78716792D01*
X72538782Y-78716608D01*
X72343436Y-78797323D01*
X72193848Y-78946650D01*
X72112792Y-79141854D01*
X72112608Y-79353218D01*
X71524208Y-79353218D01*
X71524392Y-79142782D01*
X71443677Y-78947436D01*
X71294350Y-78797848D01*
X71099146Y-78716792D01*
X70887782Y-78716608D01*
X70692436Y-78797323D01*
X70542848Y-78946650D01*
X70461792Y-79141854D01*
X70461608Y-79353218D01*
X69746208Y-79353218D01*
X69746313Y-79233176D01*
X69879018Y-79233292D01*
X70074364Y-79152577D01*
X70223952Y-79003250D01*
X70305008Y-78808046D01*
X70305192Y-78596682D01*
X70224477Y-78401336D01*
X70075150Y-78251748D01*
X69879946Y-78170692D01*
X69668582Y-78170508D01*
X69473236Y-78251223D01*
X69323648Y-78400550D01*
X69242592Y-78595754D01*
X69242487Y-78716724D01*
X69109782Y-78716608D01*
X68914436Y-78797323D01*
X68764848Y-78946650D01*
X68683792Y-79141854D01*
X68683608Y-79353218D01*
X66457772Y-79353218D01*
X66244593Y-79210777D01*
X65808334Y-79124000D01*
X65763666Y-79124000D01*
X65327407Y-79210777D01*
X65010080Y-79422808D01*
X64997054Y-79391281D01*
X65093152Y-79295350D01*
X65174208Y-79100146D01*
X65174392Y-78888782D01*
X65093677Y-78693436D01*
X64944350Y-78543848D01*
X64749146Y-78462792D01*
X64537782Y-78462608D01*
X64454635Y-78496964D01*
X64506327Y-78436965D01*
X64641315Y-78111040D01*
X64534103Y-77888002D01*
X64656288Y-77888002D01*
X64710443Y-78160259D01*
X64957564Y-78530102D01*
X65327407Y-78777223D01*
X65763666Y-78864000D01*
X65808334Y-78864000D01*
X66244593Y-78777223D01*
X66614436Y-78530102D01*
X66861557Y-78160259D01*
X66876881Y-78083218D01*
X67743808Y-78083218D01*
X67824523Y-78278564D01*
X67973850Y-78428152D01*
X68169054Y-78509208D01*
X68380418Y-78509392D01*
X68575764Y-78428677D01*
X68725352Y-78279350D01*
X68806408Y-78084146D01*
X68806592Y-77872782D01*
X68725877Y-77677436D01*
X68576550Y-77527848D01*
X68537705Y-77511718D01*
X69636108Y-77511718D01*
X69716823Y-77707064D01*
X69866150Y-77856652D01*
X70061354Y-77937708D01*
X70272718Y-77937892D01*
X70468064Y-77857177D01*
X70617652Y-77707850D01*
X70635811Y-77664118D01*
X79338908Y-77664118D01*
X79419623Y-77859464D01*
X79568950Y-78009052D01*
X79764154Y-78090108D01*
X79975518Y-78090292D01*
X80170864Y-78009577D01*
X80320452Y-77860250D01*
X80376818Y-77724507D01*
X80448323Y-77897564D01*
X80597650Y-78047152D01*
X80792854Y-78128208D01*
X81004218Y-78128392D01*
X81199564Y-78047677D01*
X81349152Y-77898350D01*
X81430208Y-77703146D01*
X81430392Y-77491782D01*
X81349677Y-77296436D01*
X81200350Y-77146848D01*
X81005146Y-77065792D01*
X80793782Y-77065608D01*
X80598436Y-77146323D01*
X80448848Y-77295650D01*
X80392482Y-77431393D01*
X80320977Y-77258336D01*
X80171650Y-77108748D01*
X80041051Y-77054518D01*
X82285308Y-77054518D01*
X82366023Y-77249864D01*
X82515350Y-77399452D01*
X82710554Y-77480508D01*
X82921918Y-77480692D01*
X83117264Y-77399977D01*
X83266852Y-77250650D01*
X83347908Y-77055446D01*
X83348092Y-76844082D01*
X83267377Y-76648736D01*
X83118050Y-76499148D01*
X82922846Y-76418092D01*
X82711482Y-76417908D01*
X82516136Y-76498623D01*
X82366548Y-76647950D01*
X82285492Y-76843154D01*
X82285308Y-77054518D01*
X80041051Y-77054518D01*
X79976446Y-77027692D01*
X79765082Y-77027508D01*
X79569736Y-77108223D01*
X79420148Y-77257550D01*
X79339092Y-77452754D01*
X79338908Y-77664118D01*
X70635811Y-77664118D01*
X70698708Y-77512646D01*
X70698892Y-77301282D01*
X70618177Y-77105936D01*
X70468850Y-76956348D01*
X70273646Y-76875292D01*
X70062282Y-76875108D01*
X69866936Y-76955823D01*
X69717348Y-77105150D01*
X69636292Y-77300354D01*
X69636108Y-77511718D01*
X68537705Y-77511718D01*
X68381346Y-77446792D01*
X68169982Y-77446608D01*
X67974636Y-77527323D01*
X67825048Y-77676650D01*
X67743992Y-77871854D01*
X67743808Y-78083218D01*
X66876881Y-78083218D01*
X66948334Y-77724000D01*
X66861557Y-77287741D01*
X66614436Y-76917898D01*
X66267703Y-76686218D01*
X68810608Y-76686218D01*
X68891323Y-76881564D01*
X69040650Y-77031152D01*
X69235854Y-77112208D01*
X69447218Y-77112392D01*
X69642564Y-77031677D01*
X69792152Y-76882350D01*
X69799764Y-76864018D01*
X78500708Y-76864018D01*
X78581423Y-77059364D01*
X78730750Y-77208952D01*
X78925954Y-77290008D01*
X79137318Y-77290192D01*
X79332664Y-77209477D01*
X79482252Y-77060150D01*
X79563308Y-76864946D01*
X79563492Y-76653582D01*
X79552652Y-76627346D01*
X79649854Y-76667708D01*
X79861218Y-76667892D01*
X80056564Y-76587177D01*
X80206152Y-76437850D01*
X80287208Y-76242646D01*
X80287297Y-76140118D01*
X83110808Y-76140118D01*
X83191523Y-76335464D01*
X83340850Y-76485052D01*
X83536054Y-76566108D01*
X83747418Y-76566292D01*
X83942764Y-76485577D01*
X84092352Y-76336250D01*
X84173408Y-76141046D01*
X84173592Y-75929682D01*
X84092877Y-75734336D01*
X83943550Y-75584748D01*
X83748346Y-75503692D01*
X83536982Y-75503508D01*
X83341636Y-75584223D01*
X83192048Y-75733550D01*
X83110992Y-75928754D01*
X83110808Y-76140118D01*
X80287297Y-76140118D01*
X80287392Y-76031282D01*
X80206677Y-75835936D01*
X80057350Y-75686348D01*
X79862146Y-75605292D01*
X79650782Y-75605108D01*
X79455436Y-75685823D01*
X79305848Y-75835150D01*
X79224792Y-76030354D01*
X79224608Y-76241718D01*
X79235448Y-76267954D01*
X79138246Y-76227592D01*
X78926882Y-76227408D01*
X78731536Y-76308123D01*
X78581948Y-76457450D01*
X78500892Y-76652654D01*
X78500708Y-76864018D01*
X69799764Y-76864018D01*
X69873208Y-76687146D01*
X69873392Y-76475782D01*
X69792677Y-76280436D01*
X69643350Y-76130848D01*
X69448146Y-76049792D01*
X69236782Y-76049608D01*
X69041436Y-76130323D01*
X68891848Y-76279650D01*
X68810792Y-76474854D01*
X68810608Y-76686218D01*
X66267703Y-76686218D01*
X66244593Y-76670777D01*
X65808334Y-76584000D01*
X65763666Y-76584000D01*
X65327407Y-76670777D01*
X64957564Y-76917898D01*
X64710443Y-77287741D01*
X64656288Y-77559998D01*
X64534103Y-77559998D01*
X64641315Y-77336960D01*
X64506327Y-77011035D01*
X64265322Y-76731303D01*
X64367218Y-76731392D01*
X64562564Y-76650677D01*
X64712152Y-76501350D01*
X64793208Y-76306146D01*
X64793392Y-76094782D01*
X64712677Y-75899436D01*
X64563350Y-75749848D01*
X64524505Y-75733718D01*
X65826108Y-75733718D01*
X65906823Y-75929064D01*
X66056150Y-76078652D01*
X66251354Y-76159708D01*
X66462718Y-76159892D01*
X66658064Y-76079177D01*
X66807652Y-75929850D01*
X66841631Y-75848018D01*
X69826608Y-75848018D01*
X69907323Y-76043364D01*
X70056650Y-76192952D01*
X70251854Y-76274008D01*
X70463218Y-76274192D01*
X70658564Y-76193477D01*
X70737460Y-76114718D01*
X75782908Y-76114718D01*
X75863623Y-76310064D01*
X76012950Y-76459652D01*
X76208154Y-76540708D01*
X76419518Y-76540892D01*
X76614864Y-76460177D01*
X76764452Y-76310850D01*
X76840334Y-76128105D01*
X76905023Y-76284664D01*
X77054350Y-76434252D01*
X77249554Y-76515308D01*
X77460918Y-76515492D01*
X77656264Y-76434777D01*
X77805852Y-76285450D01*
X77886908Y-76090246D01*
X77887092Y-75878882D01*
X77806377Y-75683536D01*
X77666304Y-75543218D01*
X78272108Y-75543218D01*
X78352823Y-75738564D01*
X78502150Y-75888152D01*
X78697354Y-75969208D01*
X78908718Y-75969392D01*
X79104064Y-75888677D01*
X79253652Y-75739350D01*
X79334708Y-75544146D01*
X79334892Y-75332782D01*
X79254177Y-75137436D01*
X79104850Y-74987848D01*
X78909646Y-74906792D01*
X78698282Y-74906608D01*
X78502936Y-74987323D01*
X78353348Y-75136650D01*
X78272292Y-75331854D01*
X78272108Y-75543218D01*
X77666304Y-75543218D01*
X77657050Y-75533948D01*
X77461846Y-75452892D01*
X77250482Y-75452708D01*
X77055136Y-75533423D01*
X76905548Y-75682750D01*
X76829666Y-75865495D01*
X76764977Y-75708936D01*
X76615650Y-75559348D01*
X76420446Y-75478292D01*
X76209082Y-75478108D01*
X76013736Y-75558823D01*
X75864148Y-75708150D01*
X75783092Y-75903354D01*
X75782908Y-76114718D01*
X70737460Y-76114718D01*
X70808152Y-76044150D01*
X70889208Y-75848946D01*
X70889392Y-75637582D01*
X70808677Y-75442236D01*
X70659350Y-75292648D01*
X70464146Y-75211592D01*
X70252782Y-75211408D01*
X70057436Y-75292123D01*
X69907848Y-75441450D01*
X69826792Y-75636654D01*
X69826608Y-75848018D01*
X66841631Y-75848018D01*
X66888708Y-75734646D01*
X66888892Y-75523282D01*
X66808177Y-75327936D01*
X66658850Y-75178348D01*
X66463646Y-75097292D01*
X66252282Y-75097108D01*
X66056936Y-75177823D01*
X65907348Y-75327150D01*
X65826292Y-75522354D01*
X65826108Y-75733718D01*
X64524505Y-75733718D01*
X64368146Y-75668792D01*
X64156782Y-75668608D01*
X63961436Y-75749323D01*
X63811848Y-75898650D01*
X63730792Y-76093854D01*
X63730608Y-76305218D01*
X63768517Y-76396966D01*
X63633043Y-76328672D01*
X63410000Y-76434804D01*
X63410000Y-77560000D01*
X63430000Y-77560000D01*
X63430000Y-77888000D01*
X63410000Y-77888000D01*
X63410000Y-77908000D01*
X63082000Y-77908000D01*
X63082000Y-77888000D01*
X61957898Y-77888000D01*
X61850685Y-78111040D01*
X61452000Y-78111040D01*
X61452000Y-77336960D01*
X61850685Y-77336960D01*
X61957898Y-77560000D01*
X63082000Y-77560000D01*
X63082000Y-76434804D01*
X62858957Y-76328672D01*
X62354450Y-76583000D01*
X61985673Y-77011035D01*
X61850685Y-77336960D01*
X61452000Y-77336960D01*
X61452000Y-75733718D01*
X62003408Y-75733718D01*
X62084123Y-75929064D01*
X62233450Y-76078652D01*
X62428654Y-76159708D01*
X62640018Y-76159892D01*
X62835364Y-76079177D01*
X62984952Y-75929850D01*
X63066008Y-75734646D01*
X63066192Y-75523282D01*
X63038496Y-75456253D01*
X63203354Y-75524708D01*
X63414718Y-75524892D01*
X63610064Y-75444177D01*
X63759652Y-75294850D01*
X63840708Y-75099646D01*
X63840819Y-74971718D01*
X72811108Y-74971718D01*
X72891823Y-75167064D01*
X73041150Y-75316652D01*
X73236354Y-75397708D01*
X73447718Y-75397892D01*
X73643064Y-75317177D01*
X73792652Y-75167850D01*
X73873708Y-74972646D01*
X73873741Y-74933618D01*
X77002108Y-74933618D01*
X77082823Y-75128964D01*
X77232150Y-75278552D01*
X77427354Y-75359608D01*
X77638718Y-75359792D01*
X77834064Y-75279077D01*
X77983652Y-75129750D01*
X78064708Y-74934546D01*
X78064892Y-74723182D01*
X77984177Y-74527836D01*
X77945527Y-74489118D01*
X86057208Y-74489118D01*
X86137923Y-74684464D01*
X86287250Y-74834052D01*
X86482454Y-74915108D01*
X86693818Y-74915292D01*
X86889164Y-74834577D01*
X87038752Y-74685250D01*
X87119808Y-74490046D01*
X87119992Y-74278682D01*
X87039277Y-74083336D01*
X86889950Y-73933748D01*
X86694746Y-73852692D01*
X86483382Y-73852508D01*
X86288036Y-73933223D01*
X86138448Y-74082550D01*
X86057392Y-74277754D01*
X86057208Y-74489118D01*
X77945527Y-74489118D01*
X77834850Y-74378248D01*
X77639646Y-74297192D01*
X77428282Y-74297008D01*
X77232936Y-74377723D01*
X77083348Y-74527050D01*
X77002292Y-74722254D01*
X77002108Y-74933618D01*
X73873741Y-74933618D01*
X73873892Y-74761282D01*
X73793177Y-74565936D01*
X73643850Y-74416348D01*
X73448646Y-74335292D01*
X73237282Y-74335108D01*
X73041936Y-74415823D01*
X72892348Y-74565150D01*
X72811292Y-74760354D01*
X72811108Y-74971718D01*
X63840819Y-74971718D01*
X63840892Y-74888282D01*
X63760177Y-74692936D01*
X63610850Y-74543348D01*
X63415646Y-74462292D01*
X63204282Y-74462108D01*
X63008936Y-74542823D01*
X62859348Y-74692150D01*
X62778292Y-74887354D01*
X62778108Y-75098718D01*
X62805804Y-75165747D01*
X62640946Y-75097292D01*
X62429582Y-75097108D01*
X62234236Y-75177823D01*
X62084648Y-75327150D01*
X62003592Y-75522354D01*
X62003408Y-75733718D01*
X61452000Y-75733718D01*
X61452000Y-74649335D01*
X61547650Y-74745152D01*
X61742854Y-74826208D01*
X61954218Y-74826392D01*
X62149564Y-74745677D01*
X62299152Y-74596350D01*
X62380208Y-74401146D01*
X62380392Y-74189782D01*
X62299677Y-73994436D01*
X62150350Y-73844848D01*
X61955146Y-73763792D01*
X61743782Y-73763608D01*
X61548436Y-73844323D01*
X61452000Y-73940591D01*
X61452000Y-73131471D01*
X64412776Y-73131471D01*
X64608753Y-73605772D01*
X64971319Y-73968971D01*
X65445277Y-74165776D01*
X65824972Y-74166107D01*
X65762792Y-74315854D01*
X65762608Y-74527218D01*
X65843323Y-74722564D01*
X65992650Y-74872152D01*
X66187854Y-74953208D01*
X66399218Y-74953392D01*
X66594564Y-74872677D01*
X66744152Y-74723350D01*
X66825208Y-74528146D01*
X66825392Y-74316782D01*
X66817887Y-74298618D01*
X69166208Y-74298618D01*
X69246923Y-74493964D01*
X69396250Y-74643552D01*
X69591454Y-74724608D01*
X69802818Y-74724792D01*
X69998164Y-74644077D01*
X70147752Y-74494750D01*
X70228808Y-74299546D01*
X70228992Y-74088182D01*
X70148277Y-73892836D01*
X69998950Y-73743248D01*
X69803746Y-73662192D01*
X69592382Y-73662008D01*
X69397036Y-73742723D01*
X69247448Y-73892050D01*
X69166392Y-74087254D01*
X69166208Y-74298618D01*
X66817887Y-74298618D01*
X66744677Y-74121436D01*
X66595350Y-73971848D01*
X66479399Y-73923701D01*
X66795971Y-73607681D01*
X66857120Y-73460418D01*
X70334608Y-73460418D01*
X70415323Y-73655764D01*
X70501978Y-73742570D01*
X70415848Y-73828550D01*
X70334792Y-74023754D01*
X70334608Y-74235118D01*
X70415323Y-74430464D01*
X70564650Y-74580052D01*
X70759854Y-74661108D01*
X70971218Y-74661292D01*
X71166564Y-74580577D01*
X71316152Y-74431250D01*
X71397208Y-74236046D01*
X71397392Y-74024682D01*
X71379392Y-73981118D01*
X81002608Y-73981118D01*
X81083323Y-74176464D01*
X81232650Y-74326052D01*
X81427854Y-74407108D01*
X81639218Y-74407292D01*
X81834564Y-74326577D01*
X81984152Y-74177250D01*
X82065208Y-73982046D01*
X82065392Y-73770682D01*
X81984677Y-73575336D01*
X81835350Y-73425748D01*
X81640146Y-73344692D01*
X81428782Y-73344508D01*
X81233436Y-73425223D01*
X81083848Y-73574550D01*
X81002792Y-73769754D01*
X81002608Y-73981118D01*
X71379392Y-73981118D01*
X71316677Y-73829336D01*
X71230022Y-73742530D01*
X71316152Y-73656550D01*
X71397208Y-73461346D01*
X71397392Y-73249982D01*
X71316677Y-73054636D01*
X71167350Y-72905048D01*
X70972146Y-72823992D01*
X70760782Y-72823808D01*
X70565436Y-72904523D01*
X70415848Y-73053850D01*
X70334792Y-73249054D01*
X70334608Y-73460418D01*
X66857120Y-73460418D01*
X66992776Y-73133723D01*
X66993089Y-72774618D01*
X72620608Y-72774618D01*
X72701323Y-72969964D01*
X72850650Y-73119552D01*
X73045854Y-73200608D01*
X73257218Y-73200792D01*
X73452564Y-73120077D01*
X73602152Y-72970750D01*
X73683208Y-72775546D01*
X73683392Y-72564182D01*
X73602677Y-72368836D01*
X73453350Y-72219248D01*
X73258146Y-72138192D01*
X73046782Y-72138008D01*
X72851436Y-72218723D01*
X72701848Y-72368050D01*
X72620792Y-72563254D01*
X72620608Y-72774618D01*
X66993089Y-72774618D01*
X66993224Y-72620529D01*
X66797247Y-72146228D01*
X66529348Y-71877861D01*
X66658064Y-71824677D01*
X66807652Y-71675350D01*
X66888708Y-71480146D01*
X66888764Y-71415718D01*
X69572608Y-71415718D01*
X69653323Y-71611064D01*
X69771710Y-71729658D01*
X69699792Y-71902854D01*
X69699608Y-72114218D01*
X69780323Y-72309564D01*
X69929650Y-72459152D01*
X70124854Y-72540208D01*
X70336218Y-72540392D01*
X70531564Y-72459677D01*
X70681152Y-72310350D01*
X70762208Y-72115146D01*
X70762392Y-71903782D01*
X70681677Y-71708436D01*
X70563290Y-71589842D01*
X70635208Y-71416646D01*
X70635392Y-71205282D01*
X70554677Y-71009936D01*
X70405350Y-70860348D01*
X70210146Y-70779292D01*
X69998782Y-70779108D01*
X69803436Y-70859823D01*
X69653848Y-71009150D01*
X69572792Y-71204354D01*
X69572608Y-71415718D01*
X66888764Y-71415718D01*
X66888892Y-71268782D01*
X66808177Y-71073436D01*
X66658850Y-70923848D01*
X66463646Y-70842792D01*
X66252282Y-70842608D01*
X66056936Y-70923323D01*
X65907348Y-71072650D01*
X65826292Y-71267854D01*
X65826108Y-71479218D01*
X65870289Y-71586145D01*
X65447529Y-71585776D01*
X64973228Y-71781753D01*
X64610029Y-72144319D01*
X64413224Y-72618277D01*
X64412776Y-73131471D01*
X61452000Y-73131471D01*
X61452000Y-71403018D01*
X62003408Y-71403018D01*
X62084123Y-71598364D01*
X62233450Y-71747952D01*
X62373897Y-71806271D01*
X62333792Y-71902854D01*
X62333608Y-72114218D01*
X62414323Y-72309564D01*
X62563650Y-72459152D01*
X62758854Y-72540208D01*
X62970218Y-72540392D01*
X63165564Y-72459677D01*
X63315152Y-72310350D01*
X63396208Y-72115146D01*
X63396392Y-71903782D01*
X63315677Y-71708436D01*
X63166350Y-71558848D01*
X63025903Y-71500529D01*
X63066008Y-71403946D01*
X63066192Y-71192582D01*
X62985477Y-70997236D01*
X62836150Y-70847648D01*
X62640946Y-70766592D01*
X62429582Y-70766408D01*
X62234236Y-70847123D01*
X62084648Y-70996450D01*
X62003592Y-71191654D01*
X62003408Y-71403018D01*
X61452000Y-71403018D01*
X61452000Y-70564818D01*
X62867008Y-70564818D01*
X62947723Y-70760164D01*
X63097050Y-70909752D01*
X63292254Y-70990808D01*
X63503618Y-70990992D01*
X63698964Y-70910277D01*
X63848552Y-70760950D01*
X63919446Y-70590218D01*
X66651608Y-70590218D01*
X66732323Y-70785564D01*
X66881650Y-70935152D01*
X67076854Y-71016208D01*
X67288218Y-71016392D01*
X67483564Y-70935677D01*
X67633152Y-70786350D01*
X67682952Y-70666418D01*
X76443308Y-70666418D01*
X76524023Y-70861764D01*
X76673350Y-71011352D01*
X76868554Y-71092408D01*
X77079918Y-71092592D01*
X77275264Y-71011877D01*
X77424852Y-70862550D01*
X77505908Y-70667346D01*
X77505919Y-70653718D01*
X85701608Y-70653718D01*
X85782323Y-70849064D01*
X85931650Y-70998652D01*
X86126854Y-71079708D01*
X86338218Y-71079892D01*
X86533564Y-70999177D01*
X86683152Y-70849850D01*
X86764208Y-70654646D01*
X86764392Y-70443282D01*
X86683677Y-70247936D01*
X86534350Y-70098348D01*
X86339146Y-70017292D01*
X86127782Y-70017108D01*
X85932436Y-70097823D01*
X85782848Y-70247150D01*
X85701792Y-70442354D01*
X85701608Y-70653718D01*
X77505919Y-70653718D01*
X77506092Y-70455982D01*
X77425377Y-70260636D01*
X77276050Y-70111048D01*
X77080846Y-70029992D01*
X76869482Y-70029808D01*
X76674136Y-70110523D01*
X76524548Y-70259850D01*
X76443492Y-70455054D01*
X76443308Y-70666418D01*
X67682952Y-70666418D01*
X67714208Y-70591146D01*
X67714392Y-70379782D01*
X67633677Y-70184436D01*
X67484350Y-70034848D01*
X67289146Y-69953792D01*
X67077782Y-69953608D01*
X66882436Y-70034323D01*
X66732848Y-70183650D01*
X66651792Y-70378854D01*
X66651608Y-70590218D01*
X63919446Y-70590218D01*
X63929608Y-70565746D01*
X63929792Y-70354382D01*
X63849077Y-70159036D01*
X63699750Y-70009448D01*
X63504546Y-69928392D01*
X63293182Y-69928208D01*
X63097836Y-70008923D01*
X62948248Y-70158250D01*
X62867192Y-70353454D01*
X62867008Y-70564818D01*
X61452000Y-70564818D01*
X61452000Y-69866318D01*
X69775808Y-69866318D01*
X69856523Y-70061664D01*
X70005850Y-70211252D01*
X70201054Y-70292308D01*
X70412418Y-70292492D01*
X70607764Y-70211777D01*
X70757352Y-70062450D01*
X70838408Y-69867246D01*
X70838453Y-69815518D01*
X71871308Y-69815518D01*
X71952023Y-70010864D01*
X72101350Y-70160452D01*
X72296554Y-70241508D01*
X72507918Y-70241692D01*
X72703264Y-70160977D01*
X72852852Y-70011650D01*
X72907842Y-69879218D01*
X79636608Y-69879218D01*
X79717323Y-70074564D01*
X79866650Y-70224152D01*
X80061854Y-70305208D01*
X80273218Y-70305392D01*
X80468564Y-70224677D01*
X80618152Y-70075350D01*
X80699208Y-69880146D01*
X80699265Y-69814443D01*
X80981998Y-69814443D01*
X81071631Y-70031372D01*
X81237455Y-70197486D01*
X81454227Y-70287498D01*
X81688943Y-70287702D01*
X81905872Y-70198069D01*
X82071986Y-70032245D01*
X82098799Y-69967672D01*
X82177154Y-70000208D01*
X82388518Y-70000392D01*
X82583864Y-69919677D01*
X82733452Y-69770350D01*
X82814508Y-69575146D01*
X82814692Y-69363782D01*
X82733977Y-69168436D01*
X82596611Y-69030830D01*
X82631852Y-68995650D01*
X82712908Y-68800446D01*
X82713092Y-68589082D01*
X82632377Y-68393736D01*
X82483050Y-68244148D01*
X82287846Y-68163092D01*
X82179565Y-68162998D01*
X82179692Y-68017582D01*
X82098977Y-67822236D01*
X82088455Y-67811696D01*
X82174652Y-67725650D01*
X82255708Y-67530446D01*
X82255708Y-67529518D01*
X82374208Y-67529518D01*
X82454923Y-67724864D01*
X82604250Y-67874452D01*
X82799454Y-67955508D01*
X83010818Y-67955692D01*
X83150884Y-67897818D01*
X86552508Y-67897818D01*
X86633223Y-68093164D01*
X86782550Y-68242752D01*
X86977754Y-68323808D01*
X87189118Y-68323992D01*
X87384464Y-68243277D01*
X87534052Y-68093950D01*
X87615108Y-67898746D01*
X87615292Y-67687382D01*
X87534577Y-67492036D01*
X87385250Y-67342448D01*
X87190046Y-67261392D01*
X86978682Y-67261208D01*
X86783336Y-67341923D01*
X86633748Y-67491250D01*
X86552692Y-67686454D01*
X86552508Y-67897818D01*
X83150884Y-67897818D01*
X83206164Y-67874977D01*
X83355752Y-67725650D01*
X83436808Y-67530446D01*
X83436992Y-67319082D01*
X83356277Y-67123736D01*
X83206950Y-66974148D01*
X83011746Y-66893092D01*
X82800382Y-66892908D01*
X82605036Y-66973623D01*
X82455448Y-67122950D01*
X82374392Y-67318154D01*
X82374208Y-67529518D01*
X82255708Y-67529518D01*
X82255892Y-67319082D01*
X82175177Y-67123736D01*
X82025850Y-66974148D01*
X81830646Y-66893092D01*
X81619282Y-66892908D01*
X81423936Y-66973623D01*
X81274348Y-67122950D01*
X81193292Y-67318154D01*
X81193108Y-67529518D01*
X81273823Y-67724864D01*
X81284345Y-67735404D01*
X81198148Y-67821450D01*
X81117092Y-68016654D01*
X81116908Y-68228018D01*
X81197623Y-68423364D01*
X81346950Y-68572952D01*
X81542154Y-68654008D01*
X81650435Y-68654102D01*
X81650308Y-68799518D01*
X81731023Y-68994864D01*
X81868389Y-69132470D01*
X81833499Y-69167300D01*
X81689973Y-69107702D01*
X81455257Y-69107498D01*
X81238328Y-69197131D01*
X81072214Y-69362955D01*
X80982202Y-69579727D01*
X80981998Y-69814443D01*
X80699265Y-69814443D01*
X80699392Y-69668782D01*
X80618677Y-69473436D01*
X80469350Y-69323848D01*
X80274146Y-69242792D01*
X80062782Y-69242608D01*
X79867436Y-69323323D01*
X79717848Y-69472650D01*
X79636792Y-69667854D01*
X79636608Y-69879218D01*
X72907842Y-69879218D01*
X72933908Y-69816446D01*
X72934092Y-69605082D01*
X72858370Y-69421818D01*
X75833708Y-69421818D01*
X75914423Y-69617164D01*
X76063750Y-69766752D01*
X76258954Y-69847808D01*
X76470318Y-69847992D01*
X76665664Y-69767277D01*
X76815252Y-69617950D01*
X76896308Y-69422746D01*
X76896492Y-69211382D01*
X76815777Y-69016036D01*
X76666450Y-68866448D01*
X76471246Y-68785392D01*
X76259882Y-68785208D01*
X76064536Y-68865923D01*
X75914948Y-69015250D01*
X75833892Y-69210454D01*
X75833708Y-69421818D01*
X72858370Y-69421818D01*
X72853377Y-69409736D01*
X72704050Y-69260148D01*
X72508846Y-69179092D01*
X72297482Y-69178908D01*
X72102136Y-69259623D01*
X71952548Y-69408950D01*
X71871492Y-69604154D01*
X71871308Y-69815518D01*
X70838453Y-69815518D01*
X70838592Y-69655882D01*
X70757877Y-69460536D01*
X70608550Y-69310948D01*
X70413346Y-69229892D01*
X70201982Y-69229708D01*
X70006636Y-69310423D01*
X69857048Y-69459750D01*
X69775992Y-69654954D01*
X69775808Y-69866318D01*
X61452000Y-69866318D01*
X61452000Y-69066218D01*
X64937108Y-69066218D01*
X65017823Y-69261564D01*
X65167150Y-69411152D01*
X65362354Y-69492208D01*
X65573718Y-69492392D01*
X65769064Y-69411677D01*
X65918652Y-69262350D01*
X65999708Y-69067146D01*
X65999708Y-69066218D01*
X66397608Y-69066218D01*
X66478323Y-69261564D01*
X66627650Y-69411152D01*
X66822854Y-69492208D01*
X67034218Y-69492392D01*
X67229564Y-69411677D01*
X67379152Y-69262350D01*
X67460208Y-69067146D01*
X67460392Y-68855782D01*
X67379677Y-68660436D01*
X67252282Y-68532818D01*
X70233008Y-68532818D01*
X70313723Y-68728164D01*
X70463050Y-68877752D01*
X70658254Y-68958808D01*
X70869618Y-68958992D01*
X71064964Y-68878277D01*
X71214552Y-68728950D01*
X71249020Y-68645942D01*
X71249008Y-68659818D01*
X71329723Y-68855164D01*
X71479050Y-69004752D01*
X71674254Y-69085808D01*
X71885618Y-69085992D01*
X72080964Y-69005277D01*
X72230552Y-68855950D01*
X72311608Y-68660746D01*
X72311792Y-68449382D01*
X72231077Y-68254036D01*
X72081750Y-68104448D01*
X72073490Y-68101018D01*
X74398608Y-68101018D01*
X74479323Y-68296364D01*
X74628650Y-68445952D01*
X74823854Y-68527008D01*
X75035218Y-68527192D01*
X75230564Y-68446477D01*
X75380152Y-68297150D01*
X75461208Y-68101946D01*
X75461392Y-67890582D01*
X75461181Y-67890072D01*
X75649354Y-67968208D01*
X75860718Y-67968392D01*
X76056064Y-67887677D01*
X76183943Y-67760021D01*
X76271755Y-67847986D01*
X76488527Y-67937998D01*
X76723243Y-67938202D01*
X76940172Y-67848569D01*
X76995999Y-67792840D01*
X76976892Y-67838854D01*
X76976708Y-68050218D01*
X77057423Y-68245564D01*
X77206750Y-68395152D01*
X77401954Y-68476208D01*
X77613318Y-68476392D01*
X77808664Y-68395677D01*
X77925326Y-68279218D01*
X79636608Y-68279218D01*
X79717323Y-68474564D01*
X79866650Y-68624152D01*
X80061854Y-68705208D01*
X80273218Y-68705392D01*
X80468564Y-68624677D01*
X80618152Y-68475350D01*
X80699208Y-68280146D01*
X80699392Y-68068782D01*
X80618677Y-67873436D01*
X80469350Y-67723848D01*
X80274146Y-67642792D01*
X80062782Y-67642608D01*
X79867436Y-67723323D01*
X79717848Y-67872650D01*
X79636792Y-68067854D01*
X79636608Y-68279218D01*
X77925326Y-68279218D01*
X77958252Y-68246350D01*
X78039308Y-68051146D01*
X78039492Y-67839782D01*
X77958777Y-67644436D01*
X77809450Y-67494848D01*
X77614246Y-67413792D01*
X77402882Y-67413608D01*
X77207536Y-67494323D01*
X77168235Y-67533555D01*
X77196298Y-67465973D01*
X77196502Y-67231257D01*
X77106869Y-67014328D01*
X76941045Y-66848214D01*
X76724273Y-66758202D01*
X76489557Y-66757998D01*
X76272628Y-66847631D01*
X76106514Y-67013455D01*
X76099727Y-67029800D01*
X76056850Y-66986848D01*
X75861646Y-66905792D01*
X75650282Y-66905608D01*
X75454936Y-66986323D01*
X75305348Y-67135650D01*
X75224292Y-67330854D01*
X75224108Y-67542218D01*
X75224319Y-67542728D01*
X75036146Y-67464592D01*
X74824782Y-67464408D01*
X74629436Y-67545123D01*
X74479848Y-67694450D01*
X74398792Y-67889654D01*
X74398608Y-68101018D01*
X72073490Y-68101018D01*
X71886546Y-68023392D01*
X71675182Y-68023208D01*
X71479836Y-68103923D01*
X71330248Y-68253250D01*
X71295780Y-68336258D01*
X71295792Y-68322382D01*
X71215077Y-68127036D01*
X71065750Y-67977448D01*
X70870546Y-67896392D01*
X70659182Y-67896208D01*
X70463836Y-67976923D01*
X70314248Y-68126250D01*
X70233192Y-68321454D01*
X70233008Y-68532818D01*
X67252282Y-68532818D01*
X67230350Y-68510848D01*
X67035146Y-68429792D01*
X66823782Y-68429608D01*
X66628436Y-68510323D01*
X66478848Y-68659650D01*
X66397792Y-68854854D01*
X66397608Y-69066218D01*
X65999708Y-69066218D01*
X65999892Y-68855782D01*
X65919177Y-68660436D01*
X65769850Y-68510848D01*
X65574646Y-68429792D01*
X65363282Y-68429608D01*
X65167936Y-68510323D01*
X65018348Y-68659650D01*
X64937292Y-68854854D01*
X64937108Y-69066218D01*
X61452000Y-69066218D01*
X61452000Y-67478718D01*
X65381608Y-67478718D01*
X65462323Y-67674064D01*
X65611650Y-67823652D01*
X65806854Y-67904708D01*
X66018218Y-67904892D01*
X66213564Y-67824177D01*
X66363152Y-67674850D01*
X66444208Y-67479646D01*
X66444392Y-67268282D01*
X66363677Y-67072936D01*
X66214350Y-66923348D01*
X66019146Y-66842292D01*
X65807782Y-66842108D01*
X65612436Y-66922823D01*
X65462848Y-67072150D01*
X65381792Y-67267354D01*
X65381608Y-67478718D01*
X61452000Y-67478718D01*
X61452000Y-66234118D01*
X63286108Y-66234118D01*
X63366823Y-66429464D01*
X63516150Y-66579052D01*
X63711354Y-66660108D01*
X63922718Y-66660292D01*
X64118064Y-66579577D01*
X64267652Y-66430250D01*
X64348708Y-66235046D01*
X64348892Y-66023682D01*
X64309902Y-65929318D01*
X66473808Y-65929318D01*
X66554523Y-66124664D01*
X66672884Y-66243231D01*
X66605848Y-66310150D01*
X66524792Y-66505354D01*
X66524608Y-66716718D01*
X66605323Y-66912064D01*
X66717378Y-67024315D01*
X66605848Y-67135650D01*
X66524792Y-67330854D01*
X66524608Y-67542218D01*
X66605323Y-67737564D01*
X66754650Y-67887152D01*
X66949854Y-67968208D01*
X67161218Y-67968392D01*
X67356564Y-67887677D01*
X67506152Y-67738350D01*
X67587208Y-67543146D01*
X67587392Y-67331782D01*
X67553650Y-67250118D01*
X69128108Y-67250118D01*
X69208823Y-67445464D01*
X69358150Y-67595052D01*
X69553354Y-67676108D01*
X69764718Y-67676292D01*
X69960064Y-67595577D01*
X70109652Y-67446250D01*
X70190708Y-67251046D01*
X70190892Y-67039682D01*
X70136160Y-66907218D01*
X70334608Y-66907218D01*
X70415323Y-67102564D01*
X70564650Y-67252152D01*
X70759854Y-67333208D01*
X70971218Y-67333392D01*
X71166564Y-67252677D01*
X71316152Y-67103350D01*
X71360678Y-66996118D01*
X73331808Y-66996118D01*
X73412523Y-67191464D01*
X73561850Y-67341052D01*
X73757054Y-67422108D01*
X73968418Y-67422292D01*
X74163764Y-67341577D01*
X74313352Y-67192250D01*
X74394408Y-66997046D01*
X74394592Y-66785682D01*
X74313877Y-66590336D01*
X74164550Y-66440748D01*
X73969346Y-66359692D01*
X73757982Y-66359508D01*
X73562636Y-66440223D01*
X73413048Y-66589550D01*
X73331992Y-66784754D01*
X73331808Y-66996118D01*
X71360678Y-66996118D01*
X71397208Y-66908146D01*
X71397392Y-66696782D01*
X71316677Y-66501436D01*
X71167350Y-66351848D01*
X70972146Y-66270792D01*
X70760782Y-66270608D01*
X70565436Y-66351323D01*
X70415848Y-66500650D01*
X70334792Y-66695854D01*
X70334608Y-66907218D01*
X70136160Y-66907218D01*
X70110177Y-66844336D01*
X69960850Y-66694748D01*
X69765646Y-66613692D01*
X69554282Y-66613508D01*
X69358936Y-66694223D01*
X69209348Y-66843550D01*
X69128292Y-67038754D01*
X69128108Y-67250118D01*
X67553650Y-67250118D01*
X67506677Y-67136436D01*
X67394622Y-67024185D01*
X67506152Y-66912850D01*
X67587208Y-66717646D01*
X67587392Y-66506282D01*
X67506677Y-66310936D01*
X67388316Y-66192369D01*
X67455352Y-66125450D01*
X67536408Y-65930246D01*
X67536592Y-65718882D01*
X67455877Y-65523536D01*
X67306550Y-65373948D01*
X67111346Y-65292892D01*
X66899982Y-65292708D01*
X66704636Y-65373423D01*
X66555048Y-65522750D01*
X66473992Y-65717954D01*
X66473808Y-65929318D01*
X64309902Y-65929318D01*
X64268177Y-65828336D01*
X64118850Y-65678748D01*
X63923646Y-65597692D01*
X63712282Y-65597508D01*
X63516936Y-65678223D01*
X63367348Y-65827550D01*
X63286292Y-66022754D01*
X63286108Y-66234118D01*
X61452000Y-66234118D01*
X61452000Y-64519618D01*
X66448408Y-64519618D01*
X66529123Y-64714964D01*
X66678450Y-64864552D01*
X66873654Y-64945608D01*
X67085018Y-64945792D01*
X67280364Y-64865077D01*
X67429952Y-64715750D01*
X67469205Y-64621218D01*
X67921608Y-64621218D01*
X68002323Y-64816564D01*
X68151650Y-64966152D01*
X68346854Y-65047208D01*
X68558218Y-65047392D01*
X68753564Y-64966677D01*
X68903152Y-64817350D01*
X68974046Y-64646618D01*
X78907108Y-64646618D01*
X78987823Y-64841964D01*
X79137150Y-64991552D01*
X79332354Y-65072608D01*
X79543718Y-65072792D01*
X79739064Y-64992077D01*
X79888652Y-64842750D01*
X79965266Y-64658243D01*
X80219998Y-64658243D01*
X80309631Y-64875172D01*
X80475455Y-65041286D01*
X80692227Y-65131298D01*
X80926943Y-65131502D01*
X81143872Y-65041869D01*
X81309986Y-64876045D01*
X81399998Y-64659273D01*
X81400202Y-64424557D01*
X81310569Y-64207628D01*
X81144745Y-64041514D01*
X80927973Y-63951502D01*
X80693257Y-63951298D01*
X80476328Y-64040931D01*
X80310214Y-64206755D01*
X80220202Y-64423527D01*
X80219998Y-64658243D01*
X79965266Y-64658243D01*
X79969708Y-64647546D01*
X79969892Y-64436182D01*
X79889177Y-64240836D01*
X79739850Y-64091248D01*
X79544646Y-64010192D01*
X79333282Y-64010008D01*
X79137936Y-64090723D01*
X78988348Y-64240050D01*
X78907292Y-64435254D01*
X78907108Y-64646618D01*
X68974046Y-64646618D01*
X68984208Y-64622146D01*
X68984392Y-64410782D01*
X68903677Y-64215436D01*
X68754350Y-64065848D01*
X68559146Y-63984792D01*
X68347782Y-63984608D01*
X68152436Y-64065323D01*
X68002848Y-64214650D01*
X67921792Y-64409854D01*
X67921608Y-64621218D01*
X67469205Y-64621218D01*
X67511008Y-64520546D01*
X67511192Y-64309182D01*
X67430477Y-64113836D01*
X67281150Y-63964248D01*
X67089381Y-63884618D01*
X70233008Y-63884618D01*
X70313723Y-64079964D01*
X70463050Y-64229552D01*
X70658254Y-64310608D01*
X70869618Y-64310792D01*
X71064964Y-64230077D01*
X71214552Y-64080750D01*
X71295608Y-63885546D01*
X71295792Y-63674182D01*
X71283040Y-63643318D01*
X78246708Y-63643318D01*
X78327423Y-63838664D01*
X78476750Y-63988252D01*
X78671954Y-64069308D01*
X78883318Y-64069492D01*
X79078664Y-63988777D01*
X79228252Y-63839450D01*
X79309308Y-63644246D01*
X79309492Y-63432882D01*
X79280997Y-63363918D01*
X81421708Y-63363918D01*
X81502423Y-63559264D01*
X81651750Y-63708852D01*
X81846954Y-63789908D01*
X81855614Y-63789916D01*
X81777492Y-63978054D01*
X81777308Y-64189418D01*
X81858023Y-64384764D01*
X82007350Y-64534352D01*
X82202554Y-64615408D01*
X82413918Y-64615592D01*
X82609264Y-64534877D01*
X82713605Y-64430718D01*
X85295208Y-64430718D01*
X85375923Y-64626064D01*
X85525250Y-64775652D01*
X85720454Y-64856708D01*
X85931818Y-64856892D01*
X86127164Y-64776177D01*
X86276752Y-64626850D01*
X86357808Y-64431646D01*
X86357992Y-64220282D01*
X86277277Y-64024936D01*
X86127950Y-63875348D01*
X85932746Y-63794292D01*
X85721382Y-63794108D01*
X85526036Y-63874823D01*
X85376448Y-64024150D01*
X85295392Y-64219354D01*
X85295208Y-64430718D01*
X82713605Y-64430718D01*
X82758852Y-64385550D01*
X82839908Y-64190346D01*
X82840092Y-63978982D01*
X82759377Y-63783636D01*
X82610050Y-63634048D01*
X82414846Y-63552992D01*
X82406186Y-63552984D01*
X82484308Y-63364846D01*
X82484492Y-63153482D01*
X82403777Y-62958136D01*
X82254450Y-62808548D01*
X82059246Y-62727492D01*
X81847882Y-62727308D01*
X81652536Y-62808023D01*
X81502948Y-62957350D01*
X81421892Y-63152554D01*
X81421708Y-63363918D01*
X79280997Y-63363918D01*
X79228777Y-63237536D01*
X79079450Y-63087948D01*
X78884246Y-63006892D01*
X78672882Y-63006708D01*
X78477536Y-63087423D01*
X78327948Y-63236750D01*
X78246892Y-63431954D01*
X78246708Y-63643318D01*
X71283040Y-63643318D01*
X71215077Y-63478836D01*
X71065750Y-63329248D01*
X70870546Y-63248192D01*
X70659182Y-63248008D01*
X70463836Y-63328723D01*
X70314248Y-63478050D01*
X70233192Y-63673254D01*
X70233008Y-63884618D01*
X67089381Y-63884618D01*
X67085946Y-63883192D01*
X66874582Y-63883008D01*
X66679236Y-63963723D01*
X66529648Y-64113050D01*
X66448592Y-64308254D01*
X66448408Y-64519618D01*
X61452000Y-64519618D01*
X61452000Y-62144718D01*
X65381608Y-62144718D01*
X65462323Y-62340064D01*
X65611650Y-62489652D01*
X65806854Y-62570708D01*
X65876979Y-62570769D01*
X65876908Y-62652718D01*
X65957623Y-62848064D01*
X65961806Y-62852254D01*
X65869248Y-62944650D01*
X65788192Y-63139854D01*
X65788008Y-63351218D01*
X65868723Y-63546564D01*
X66018050Y-63696152D01*
X66213254Y-63777208D01*
X66424618Y-63777392D01*
X66619964Y-63696677D01*
X66769552Y-63547350D01*
X66850608Y-63352146D01*
X66850792Y-63140782D01*
X66770077Y-62945436D01*
X66765894Y-62941246D01*
X66858452Y-62848850D01*
X66939508Y-62653646D01*
X66939692Y-62442282D01*
X66858977Y-62246936D01*
X66709650Y-62097348D01*
X66514446Y-62016292D01*
X66444321Y-62016231D01*
X66444392Y-61934282D01*
X66363677Y-61738936D01*
X66214350Y-61589348D01*
X66019146Y-61508292D01*
X65807782Y-61508108D01*
X65612436Y-61588823D01*
X65462848Y-61738150D01*
X65381792Y-61933354D01*
X65381608Y-62144718D01*
X61452000Y-62144718D01*
X61452000Y-61420818D01*
X66969108Y-61420818D01*
X67049823Y-61616164D01*
X67199150Y-61765752D01*
X67394354Y-61846808D01*
X67605718Y-61846992D01*
X67801064Y-61766277D01*
X67950652Y-61616950D01*
X68031708Y-61421746D01*
X68031764Y-61357318D01*
X69013808Y-61357318D01*
X69094523Y-61552664D01*
X69243850Y-61702252D01*
X69439054Y-61783308D01*
X69650418Y-61783492D01*
X69773907Y-61732468D01*
X69730048Y-61776250D01*
X69648992Y-61971454D01*
X69648808Y-62182818D01*
X69729523Y-62378164D01*
X69878850Y-62527752D01*
X70074054Y-62608808D01*
X70285418Y-62608992D01*
X70480764Y-62528277D01*
X70630352Y-62378950D01*
X70711408Y-62183746D01*
X70711408Y-62182818D01*
X70817208Y-62182818D01*
X70897923Y-62378164D01*
X71047250Y-62527752D01*
X71242454Y-62608808D01*
X71453818Y-62608992D01*
X71649164Y-62528277D01*
X71740782Y-62436818D01*
X72976208Y-62436818D01*
X73056923Y-62632164D01*
X73206250Y-62781752D01*
X73401454Y-62862808D01*
X73612818Y-62862992D01*
X73808164Y-62782277D01*
X73957752Y-62632950D01*
X74038808Y-62437746D01*
X74038808Y-62436818D01*
X79542108Y-62436818D01*
X79622823Y-62632164D01*
X79772150Y-62781752D01*
X79967354Y-62862808D01*
X80178718Y-62862992D01*
X80374064Y-62782277D01*
X80523652Y-62632950D01*
X80525990Y-62627318D01*
X83695008Y-62627318D01*
X83775723Y-62822664D01*
X83925050Y-62972252D01*
X84120254Y-63053308D01*
X84331618Y-63053492D01*
X84526964Y-62972777D01*
X84676552Y-62823450D01*
X84757608Y-62628246D01*
X84757792Y-62416882D01*
X84677077Y-62221536D01*
X84527750Y-62071948D01*
X84332546Y-61990892D01*
X84121182Y-61990708D01*
X83925836Y-62071423D01*
X83776248Y-62220750D01*
X83695192Y-62415954D01*
X83695008Y-62627318D01*
X80525990Y-62627318D01*
X80604708Y-62437746D01*
X80604892Y-62226382D01*
X80524177Y-62031036D01*
X80374850Y-61881448D01*
X80179646Y-61800392D01*
X79968282Y-61800208D01*
X79772936Y-61880923D01*
X79623348Y-62030250D01*
X79542292Y-62225454D01*
X79542108Y-62436818D01*
X74038808Y-62436818D01*
X74038992Y-62226382D01*
X73958277Y-62031036D01*
X73808950Y-61881448D01*
X73613746Y-61800392D01*
X73402382Y-61800208D01*
X73207036Y-61880923D01*
X73057448Y-62030250D01*
X72976392Y-62225454D01*
X72976208Y-62436818D01*
X71740782Y-62436818D01*
X71798752Y-62378950D01*
X71879808Y-62183746D01*
X71879992Y-61972382D01*
X71799277Y-61777036D01*
X71649950Y-61627448D01*
X71454746Y-61546392D01*
X71243382Y-61546208D01*
X71048036Y-61626923D01*
X70898448Y-61776250D01*
X70817392Y-61971454D01*
X70817208Y-62182818D01*
X70711408Y-62182818D01*
X70711592Y-61972382D01*
X70630877Y-61777036D01*
X70481550Y-61627448D01*
X70286346Y-61546392D01*
X70074982Y-61546208D01*
X69951493Y-61597232D01*
X69995352Y-61553450D01*
X70076408Y-61358246D01*
X70076592Y-61146882D01*
X70000870Y-60963618D01*
X70207608Y-60963618D01*
X70288323Y-61158964D01*
X70437650Y-61308552D01*
X70632854Y-61389608D01*
X70844218Y-61389792D01*
X71039564Y-61309077D01*
X71189152Y-61159750D01*
X71191936Y-61153043D01*
X75012998Y-61153043D01*
X75102631Y-61369972D01*
X75268455Y-61536086D01*
X75485227Y-61626098D01*
X75719943Y-61626302D01*
X75936872Y-61536669D01*
X76102986Y-61370845D01*
X76192998Y-61154073D01*
X76193163Y-60963618D01*
X78546608Y-60963618D01*
X78627323Y-61158964D01*
X78776650Y-61308552D01*
X78971854Y-61389608D01*
X79183218Y-61389792D01*
X79378564Y-61309077D01*
X79528152Y-61159750D01*
X79609208Y-60964546D01*
X79609392Y-60753182D01*
X79528677Y-60557836D01*
X79379350Y-60408248D01*
X79184146Y-60327192D01*
X78972782Y-60327008D01*
X78777436Y-60407723D01*
X78627848Y-60557050D01*
X78546792Y-60752254D01*
X78546608Y-60963618D01*
X76193163Y-60963618D01*
X76193202Y-60919357D01*
X76103569Y-60702428D01*
X75937745Y-60536314D01*
X75720973Y-60446302D01*
X75486257Y-60446098D01*
X75269328Y-60535731D01*
X75103214Y-60701555D01*
X75013202Y-60918327D01*
X75012998Y-61153043D01*
X71191936Y-61153043D01*
X71270208Y-60964546D01*
X71270392Y-60753182D01*
X71189677Y-60557836D01*
X71040350Y-60408248D01*
X70845146Y-60327192D01*
X70633782Y-60327008D01*
X70438436Y-60407723D01*
X70288848Y-60557050D01*
X70207792Y-60752254D01*
X70207608Y-60963618D01*
X70000870Y-60963618D01*
X69995877Y-60951536D01*
X69846550Y-60801948D01*
X69651346Y-60720892D01*
X69439982Y-60720708D01*
X69244636Y-60801423D01*
X69095048Y-60950750D01*
X69013992Y-61145954D01*
X69013808Y-61357318D01*
X68031764Y-61357318D01*
X68031892Y-61210382D01*
X67951177Y-61015036D01*
X67801850Y-60865448D01*
X67606646Y-60784392D01*
X67395282Y-60784208D01*
X67199936Y-60864923D01*
X67050348Y-61014250D01*
X66969292Y-61209454D01*
X66969108Y-61420818D01*
X61452000Y-61420818D01*
X61452000Y-59541218D01*
X63832208Y-59541218D01*
X63912923Y-59736564D01*
X64062250Y-59886152D01*
X64257454Y-59967208D01*
X64468818Y-59967392D01*
X64516674Y-59947618D01*
X64937108Y-59947618D01*
X65017823Y-60142964D01*
X65167150Y-60292552D01*
X65199254Y-60305883D01*
X65167936Y-60318823D01*
X65018348Y-60468150D01*
X64937292Y-60663354D01*
X64937108Y-60874718D01*
X65017823Y-61070064D01*
X65167150Y-61219652D01*
X65362354Y-61300708D01*
X65573718Y-61300892D01*
X65769064Y-61220177D01*
X65918652Y-61070850D01*
X65999708Y-60875646D01*
X65999892Y-60664282D01*
X65919177Y-60468936D01*
X65769850Y-60319348D01*
X65737746Y-60306017D01*
X65769064Y-60293077D01*
X65918652Y-60143750D01*
X65999708Y-59948546D01*
X65999841Y-59794666D01*
X81029000Y-59794666D01*
X81029000Y-59839334D01*
X81115777Y-60275593D01*
X81362898Y-60645436D01*
X81732741Y-60892557D01*
X82169000Y-60979334D01*
X82605259Y-60892557D01*
X82975102Y-60645436D01*
X83222223Y-60275593D01*
X83280821Y-59981002D01*
X83419803Y-59981002D01*
X83313672Y-60204043D01*
X83568000Y-60708550D01*
X83996035Y-61077327D01*
X84321960Y-61212315D01*
X84545000Y-61105102D01*
X84545000Y-59981000D01*
X84525000Y-59981000D01*
X84525000Y-59653000D01*
X84545000Y-59653000D01*
X84545000Y-58528898D01*
X84321960Y-58421685D01*
X83996035Y-58556673D01*
X83568000Y-58925450D01*
X83313672Y-59429957D01*
X83419803Y-59652998D01*
X83280821Y-59652998D01*
X83222223Y-59358407D01*
X82975102Y-58988564D01*
X82605259Y-58741443D01*
X82169000Y-58654666D01*
X81732741Y-58741443D01*
X81362898Y-58988564D01*
X81115777Y-59358407D01*
X81029000Y-59794666D01*
X65999841Y-59794666D01*
X65999892Y-59737182D01*
X65919177Y-59541836D01*
X65769850Y-59392248D01*
X65574646Y-59311192D01*
X65363282Y-59311008D01*
X65167936Y-59391723D01*
X65018348Y-59541050D01*
X64937292Y-59736254D01*
X64937108Y-59947618D01*
X64516674Y-59947618D01*
X64664164Y-59886677D01*
X64813752Y-59737350D01*
X64894808Y-59542146D01*
X64894992Y-59330782D01*
X64814277Y-59135436D01*
X64686882Y-59007818D01*
X76913208Y-59007818D01*
X76993923Y-59203164D01*
X77143250Y-59352752D01*
X77338454Y-59433808D01*
X77549818Y-59433992D01*
X77745164Y-59353277D01*
X77894752Y-59203950D01*
X77975808Y-59008746D01*
X77975992Y-58797382D01*
X77895277Y-58602036D01*
X77745950Y-58452448D01*
X77550746Y-58371392D01*
X77339382Y-58371208D01*
X77144036Y-58451923D01*
X76994448Y-58601250D01*
X76913392Y-58796454D01*
X76913208Y-59007818D01*
X64686882Y-59007818D01*
X64664950Y-58985848D01*
X64469746Y-58904792D01*
X64258382Y-58904608D01*
X64063036Y-58985323D01*
X63913448Y-59134650D01*
X63832392Y-59329854D01*
X63832208Y-59541218D01*
X61452000Y-59541218D01*
X61452000Y-58398218D01*
X64365608Y-58398218D01*
X64446323Y-58593564D01*
X64595650Y-58743152D01*
X64790854Y-58824208D01*
X65002218Y-58824392D01*
X65197564Y-58743677D01*
X65347152Y-58594350D01*
X65428208Y-58399146D01*
X65428330Y-58258518D01*
X66854808Y-58258518D01*
X66935523Y-58453864D01*
X67084850Y-58603452D01*
X67280054Y-58684508D01*
X67491418Y-58684692D01*
X67686764Y-58603977D01*
X67836352Y-58454650D01*
X67917408Y-58259446D01*
X67917592Y-58048082D01*
X67836877Y-57852736D01*
X67687550Y-57703148D01*
X67492346Y-57622092D01*
X67280982Y-57621908D01*
X67085636Y-57702623D01*
X66936048Y-57851950D01*
X66854992Y-58047154D01*
X66854808Y-58258518D01*
X65428330Y-58258518D01*
X65428392Y-58187782D01*
X65347677Y-57992436D01*
X65198350Y-57842848D01*
X65003146Y-57761792D01*
X64791782Y-57761608D01*
X64596436Y-57842323D01*
X64446848Y-57991650D01*
X64365792Y-58186854D01*
X64365608Y-58398218D01*
X61452000Y-58398218D01*
X61452000Y-56136631D01*
X61482886Y-56149456D01*
X61482708Y-56353518D01*
X61563423Y-56548864D01*
X61712750Y-56698452D01*
X61733217Y-56706951D01*
X61698792Y-56789854D01*
X61698608Y-57001218D01*
X61779323Y-57196564D01*
X61928650Y-57346152D01*
X62123854Y-57427208D01*
X62335218Y-57427392D01*
X62530564Y-57346677D01*
X62680152Y-57197350D01*
X62708858Y-57128218D01*
X77065608Y-57128218D01*
X77146323Y-57323564D01*
X77295650Y-57473152D01*
X77490854Y-57554208D01*
X77702218Y-57554392D01*
X77897564Y-57473677D01*
X77989182Y-57382218D01*
X78742008Y-57382218D01*
X78822723Y-57577564D01*
X78972050Y-57727152D01*
X79167254Y-57808208D01*
X79378618Y-57808392D01*
X79573964Y-57727677D01*
X79723552Y-57578350D01*
X79804608Y-57383146D01*
X79804792Y-57171782D01*
X79724077Y-56976436D01*
X79574750Y-56826848D01*
X79379546Y-56745792D01*
X79168182Y-56745608D01*
X78972836Y-56826323D01*
X78823248Y-56975650D01*
X78742192Y-57170854D01*
X78742008Y-57382218D01*
X77989182Y-57382218D01*
X78047152Y-57324350D01*
X78128208Y-57129146D01*
X78128392Y-56917782D01*
X78047677Y-56722436D01*
X77898350Y-56572848D01*
X77703146Y-56491792D01*
X77491782Y-56491608D01*
X77296436Y-56572323D01*
X77146848Y-56721650D01*
X77065792Y-56916854D01*
X77065608Y-57128218D01*
X62708858Y-57128218D01*
X62761208Y-57002146D01*
X62761392Y-56790782D01*
X62680677Y-56595436D01*
X62531350Y-56445848D01*
X62510883Y-56437349D01*
X62545308Y-56354446D01*
X62545492Y-56143082D01*
X62464777Y-55947736D01*
X62451483Y-55934418D01*
X76659208Y-55934418D01*
X76739923Y-56129764D01*
X76889250Y-56279352D01*
X77084454Y-56360408D01*
X77295818Y-56360592D01*
X77491164Y-56279877D01*
X77640752Y-56130550D01*
X77721808Y-55935346D01*
X77721992Y-55723982D01*
X77641277Y-55528636D01*
X77491950Y-55379048D01*
X77296746Y-55297992D01*
X77085382Y-55297808D01*
X76890036Y-55378523D01*
X76740448Y-55527850D01*
X76659392Y-55723054D01*
X76659208Y-55934418D01*
X62451483Y-55934418D01*
X62315450Y-55798148D01*
X62138914Y-55724844D01*
X62139092Y-55520782D01*
X62092506Y-55408035D01*
X62157418Y-55408092D01*
X62352764Y-55327377D01*
X62420015Y-55260243D01*
X72155498Y-55260243D01*
X72245131Y-55477172D01*
X72410955Y-55643286D01*
X72627727Y-55733298D01*
X72862443Y-55733502D01*
X73079372Y-55643869D01*
X73245486Y-55478045D01*
X73314831Y-55311043D01*
X75482898Y-55311043D01*
X75572531Y-55527972D01*
X75738355Y-55694086D01*
X75955127Y-55784098D01*
X76189843Y-55784302D01*
X76406772Y-55694669D01*
X76572886Y-55528845D01*
X76662898Y-55312073D01*
X76663102Y-55077357D01*
X76573469Y-54860428D01*
X76407645Y-54694314D01*
X76190873Y-54604302D01*
X75956157Y-54604098D01*
X75739228Y-54693731D01*
X75573114Y-54859555D01*
X75483102Y-55076327D01*
X75482898Y-55311043D01*
X73314831Y-55311043D01*
X73335498Y-55261273D01*
X73335702Y-55026557D01*
X73246069Y-54809628D01*
X73080245Y-54643514D01*
X72863473Y-54553502D01*
X72628757Y-54553298D01*
X72411828Y-54642931D01*
X72245714Y-54808755D01*
X72155702Y-55025527D01*
X72155498Y-55260243D01*
X62420015Y-55260243D01*
X62502352Y-55178050D01*
X62583408Y-54982846D01*
X62583592Y-54771482D01*
X62502877Y-54576136D01*
X62353550Y-54426548D01*
X62158346Y-54345492D01*
X61946982Y-54345308D01*
X61751636Y-54426023D01*
X61602048Y-54575350D01*
X61520992Y-54770554D01*
X61520808Y-54981918D01*
X61567394Y-55094665D01*
X61502482Y-55094608D01*
X61452000Y-55115467D01*
X61452000Y-53971471D01*
X64412776Y-53971471D01*
X64608753Y-54445772D01*
X64971319Y-54808971D01*
X65445277Y-55005776D01*
X65958471Y-55006224D01*
X66432772Y-54810247D01*
X66553411Y-54689818D01*
X69242408Y-54689818D01*
X69323123Y-54885164D01*
X69472450Y-55034752D01*
X69667654Y-55115808D01*
X69879018Y-55115992D01*
X70074364Y-55035277D01*
X70148437Y-54961333D01*
X70209050Y-55022052D01*
X70404254Y-55103108D01*
X70615618Y-55103292D01*
X70810964Y-55022577D01*
X70960552Y-54873250D01*
X71041608Y-54678046D01*
X71041764Y-54498243D01*
X79267498Y-54498243D01*
X79357131Y-54715172D01*
X79522955Y-54881286D01*
X79739727Y-54971298D01*
X79974443Y-54971502D01*
X80191372Y-54881869D01*
X80357486Y-54716045D01*
X80447498Y-54499273D01*
X80447702Y-54264557D01*
X80358069Y-54047628D01*
X80351496Y-54041043D01*
X83445798Y-54041043D01*
X83535431Y-54257972D01*
X83701255Y-54424086D01*
X83918027Y-54514098D01*
X84152743Y-54514302D01*
X84369672Y-54424669D01*
X84535786Y-54258845D01*
X84625798Y-54042073D01*
X84626002Y-53807357D01*
X84536369Y-53590428D01*
X84370545Y-53424314D01*
X84153773Y-53334302D01*
X83919057Y-53334098D01*
X83702128Y-53423731D01*
X83536014Y-53589555D01*
X83446002Y-53806327D01*
X83445798Y-54041043D01*
X80351496Y-54041043D01*
X80192245Y-53881514D01*
X79975473Y-53791502D01*
X79740757Y-53791298D01*
X79523828Y-53880931D01*
X79357714Y-54046755D01*
X79267702Y-54263527D01*
X79267498Y-54498243D01*
X71041764Y-54498243D01*
X71041792Y-54466682D01*
X70961077Y-54271336D01*
X70811750Y-54121748D01*
X70616546Y-54040692D01*
X70405182Y-54040508D01*
X70209836Y-54121223D01*
X70135763Y-54195167D01*
X70075150Y-54134448D01*
X69879946Y-54053392D01*
X69668582Y-54053208D01*
X69473236Y-54133923D01*
X69323648Y-54283250D01*
X69242592Y-54478454D01*
X69242408Y-54689818D01*
X66553411Y-54689818D01*
X66795971Y-54447681D01*
X66992776Y-53973723D01*
X66993224Y-53460529D01*
X66834276Y-53075843D01*
X77032298Y-53075843D01*
X77121931Y-53292772D01*
X77287755Y-53458886D01*
X77504527Y-53548898D01*
X77739243Y-53549102D01*
X77956172Y-53459469D01*
X78122286Y-53293645D01*
X78212298Y-53076873D01*
X78212502Y-52842157D01*
X78122869Y-52625228D01*
X77957045Y-52459114D01*
X77740273Y-52369102D01*
X77505557Y-52368898D01*
X77288628Y-52458531D01*
X77122514Y-52624355D01*
X77032502Y-52841127D01*
X77032298Y-53075843D01*
X66834276Y-53075843D01*
X66797247Y-52986228D01*
X66434681Y-52623029D01*
X65960723Y-52426224D01*
X65447529Y-52425776D01*
X64973228Y-52621753D01*
X64610029Y-52984319D01*
X64413224Y-53458277D01*
X64412776Y-53971471D01*
X61452000Y-53971471D01*
X61452000Y-50172913D01*
X62240572Y-50962863D01*
X63467718Y-51472418D01*
X64796452Y-51473578D01*
X65436918Y-51208943D01*
X80981998Y-51208943D01*
X81071631Y-51425872D01*
X81237455Y-51591986D01*
X81454227Y-51681998D01*
X81688943Y-51682202D01*
X81905872Y-51592569D01*
X82071986Y-51426745D01*
X82146605Y-51247043D01*
X82378998Y-51247043D01*
X82468631Y-51463972D01*
X82634455Y-51630086D01*
X82851227Y-51720098D01*
X83085943Y-51720302D01*
X83302872Y-51630669D01*
X83468986Y-51464845D01*
X83558998Y-51248073D01*
X83559202Y-51013357D01*
X83469569Y-50796428D01*
X83303745Y-50630314D01*
X83086973Y-50540302D01*
X82852257Y-50540098D01*
X82635328Y-50629731D01*
X82469214Y-50795555D01*
X82379202Y-51012327D01*
X82378998Y-51247043D01*
X82146605Y-51247043D01*
X82161998Y-51209973D01*
X82162202Y-50975257D01*
X82072569Y-50758328D01*
X81906745Y-50592214D01*
X81689973Y-50502202D01*
X81455257Y-50501998D01*
X81238328Y-50591631D01*
X81072214Y-50757455D01*
X80982202Y-50974227D01*
X80981998Y-51208943D01*
X65436918Y-51208943D01*
X66024486Y-50966165D01*
X66379226Y-50612043D01*
X77616498Y-50612043D01*
X77706131Y-50828972D01*
X77871955Y-50995086D01*
X78088727Y-51085098D01*
X78323443Y-51085302D01*
X78540372Y-50995669D01*
X78706486Y-50829845D01*
X78767386Y-50683183D01*
X78771923Y-50694164D01*
X78921250Y-50843752D01*
X79116454Y-50924808D01*
X79327818Y-50924992D01*
X79523164Y-50844277D01*
X79672752Y-50694950D01*
X79753808Y-50499746D01*
X79753992Y-50288382D01*
X79673277Y-50093036D01*
X79523950Y-49943448D01*
X79328746Y-49862392D01*
X79117382Y-49862208D01*
X78922036Y-49942923D01*
X78772448Y-50092250D01*
X78725351Y-50205673D01*
X78707069Y-50161428D01*
X78541245Y-49995314D01*
X78324473Y-49905302D01*
X78089757Y-49905098D01*
X77872828Y-49994731D01*
X77706714Y-50160555D01*
X77616702Y-50377327D01*
X77616498Y-50612043D01*
X66379226Y-50612043D01*
X66964863Y-50027428D01*
X67474418Y-48800282D01*
X67474987Y-48148243D01*
X74136698Y-48148243D01*
X74226331Y-48365172D01*
X74392155Y-48531286D01*
X74608927Y-48621298D01*
X74843643Y-48621502D01*
X75060572Y-48531869D01*
X75101369Y-48491143D01*
X85109498Y-48491143D01*
X85199131Y-48708072D01*
X85364955Y-48874186D01*
X85581727Y-48964198D01*
X85816443Y-48964402D01*
X86033372Y-48874769D01*
X86199486Y-48708945D01*
X86289498Y-48492173D01*
X86289702Y-48257457D01*
X86200069Y-48040528D01*
X86034245Y-47874414D01*
X85867905Y-47805343D01*
X87484398Y-47805343D01*
X87574031Y-48022272D01*
X87739855Y-48188386D01*
X87956627Y-48278398D01*
X88191343Y-48278602D01*
X88408272Y-48188969D01*
X88574386Y-48023145D01*
X88664398Y-47806373D01*
X88664602Y-47571657D01*
X88574969Y-47354728D01*
X88409145Y-47188614D01*
X88192373Y-47098602D01*
X87957657Y-47098398D01*
X87740728Y-47188031D01*
X87574614Y-47353855D01*
X87484602Y-47570627D01*
X87484398Y-47805343D01*
X85867905Y-47805343D01*
X85817473Y-47784402D01*
X85582757Y-47784198D01*
X85365828Y-47873831D01*
X85199714Y-48039655D01*
X85109702Y-48256427D01*
X85109498Y-48491143D01*
X75101369Y-48491143D01*
X75226686Y-48366045D01*
X75316698Y-48149273D01*
X75316902Y-47914557D01*
X75227269Y-47697628D01*
X75061445Y-47531514D01*
X74844673Y-47441502D01*
X74609957Y-47441298D01*
X74393028Y-47530931D01*
X74226914Y-47696755D01*
X74136902Y-47913527D01*
X74136698Y-48148243D01*
X67474987Y-48148243D01*
X67475578Y-47471548D01*
X66968165Y-46243514D01*
X66049256Y-45323000D01*
X89100032Y-45323000D01*
X89064511Y-51598309D01*
G36*
X99732000Y-49928475D02*
X99728514Y-49931955D01*
X99638502Y-50148727D01*
X99638298Y-50383443D01*
X99727931Y-50600372D01*
X99732000Y-50604448D01*
X99732000Y-52070000D01*
X99739091Y-52105015D01*
X99759246Y-52134513D01*
X99789289Y-52153845D01*
X99822000Y-52160000D01*
X101670343Y-52160000D01*
X101670298Y-52212243D01*
X101759931Y-52429172D01*
X101925755Y-52595286D01*
X102142527Y-52685298D01*
X102377243Y-52685502D01*
X102594172Y-52595869D01*
X102760286Y-52430045D01*
X102850298Y-52213273D01*
X102850502Y-51978557D01*
X102760869Y-51761628D01*
X102595045Y-51595514D01*
X102452000Y-51536116D01*
X102452000Y-50446251D01*
X102690885Y-50087923D01*
X102706000Y-50038000D01*
X102706000Y-47562868D01*
X103011603Y-47461000D01*
X109438137Y-47461000D01*
X111797000Y-49695712D01*
X111797000Y-58203000D01*
X101727000Y-58203000D01*
X101691985Y-58210091D01*
X101662487Y-58230246D01*
X101643155Y-58260289D01*
X101637000Y-58293000D01*
X101637000Y-63029000D01*
X100838000Y-63029000D01*
X100802985Y-63036091D01*
X100773487Y-63056246D01*
X100754155Y-63086289D01*
X100748000Y-63119000D01*
X100748000Y-67183000D01*
X100755091Y-67218015D01*
X100770268Y-67242265D01*
X101637000Y-68232816D01*
X101637000Y-71968282D01*
X101520228Y-72016531D01*
X101354114Y-72182355D01*
X101264102Y-72399127D01*
X101263898Y-72633843D01*
X101353531Y-72850772D01*
X101519355Y-73016886D01*
X101637000Y-73065737D01*
X101637000Y-79491970D01*
X101579045Y-79433914D01*
X101362273Y-79343902D01*
X101127557Y-79343698D01*
X100910628Y-79433331D01*
X100744514Y-79599155D01*
X100654502Y-79815927D01*
X100654298Y-80050643D01*
X100743931Y-80267572D01*
X100909755Y-80433686D01*
X101126527Y-80523698D01*
X101361243Y-80523902D01*
X101578172Y-80434269D01*
X101665172Y-80347421D01*
X101935127Y-82304597D01*
X101934645Y-82304114D01*
X101717873Y-82214102D01*
X101483157Y-82213898D01*
X101266228Y-82303531D01*
X101100114Y-82469355D01*
X101081992Y-82512998D01*
X100984197Y-82512998D01*
X101090328Y-82289957D01*
X100836000Y-81785450D01*
X100407965Y-81416673D01*
X100082040Y-81281685D01*
X99859000Y-81388898D01*
X99859000Y-82513000D01*
X99879000Y-82513000D01*
X99879000Y-82841000D01*
X99859000Y-82841000D01*
X99859000Y-83965102D01*
X100082040Y-84072315D01*
X100407965Y-83937327D01*
X100836000Y-83568550D01*
X101078644Y-83087221D01*
X101099531Y-83137772D01*
X101265355Y-83303886D01*
X101482127Y-83393898D01*
X101716843Y-83394102D01*
X101933772Y-83304469D01*
X101957616Y-83280666D01*
X101957608Y-83290218D01*
X102038323Y-83485564D01*
X102107589Y-83554952D01*
X102145000Y-83826178D01*
X102145000Y-84074000D01*
X102152091Y-84109015D01*
X102172246Y-84138513D01*
X102202289Y-84157845D01*
X102235000Y-84164000D01*
X106045000Y-84164000D01*
X106080015Y-84156909D01*
X106109513Y-84136754D01*
X106128845Y-84106711D01*
X106134966Y-84071514D01*
X106126910Y-84036708D01*
X106113575Y-84015712D01*
X103976000Y-81500918D01*
X103976000Y-80227000D01*
X107812970Y-80227000D01*
X107754914Y-80284955D01*
X107664902Y-80501727D01*
X107664698Y-80736443D01*
X107754331Y-80953372D01*
X107920155Y-81119486D01*
X108136927Y-81209498D01*
X108371643Y-81209702D01*
X108588572Y-81120069D01*
X108754686Y-80954245D01*
X108844698Y-80737473D01*
X108844902Y-80502757D01*
X108755269Y-80285828D01*
X108696544Y-80227000D01*
X113194000Y-80227000D01*
X113194000Y-82677000D01*
X113201091Y-82712015D01*
X113221246Y-82741513D01*
X113251289Y-82760845D01*
X113284000Y-82767000D01*
X118110000Y-82767000D01*
X118145015Y-82759909D01*
X118174513Y-82739754D01*
X118193845Y-82709711D01*
X118200000Y-82677000D01*
X118200000Y-72771000D01*
X118192909Y-72735985D01*
X118172754Y-72706487D01*
X118142711Y-72687155D01*
X118110000Y-72681000D01*
X113120000Y-72681000D01*
X113120000Y-71337000D01*
X115443000Y-71337000D01*
X115478015Y-71329909D01*
X115507513Y-71309754D01*
X115526845Y-71279711D01*
X115533000Y-71247000D01*
X115533000Y-64098000D01*
X120666000Y-64098000D01*
X120666000Y-84471000D01*
X90387000Y-84471000D01*
X90387000Y-81827000D01*
X93469319Y-81827000D01*
X93469319Y-83527000D01*
X93489540Y-83634467D01*
X93553054Y-83733170D01*
X93649964Y-83799386D01*
X93765000Y-83822681D01*
X95465000Y-83822681D01*
X95572467Y-83802460D01*
X95671170Y-83738946D01*
X95737386Y-83642036D01*
X95760681Y-83527000D01*
X95760681Y-82654666D01*
X96015000Y-82654666D01*
X96015000Y-82699334D01*
X96101777Y-83135593D01*
X96348898Y-83505436D01*
X96718741Y-83752557D01*
X97155000Y-83839334D01*
X97591259Y-83752557D01*
X97961102Y-83505436D01*
X98208223Y-83135593D01*
X98266821Y-82841002D01*
X98405803Y-82841002D01*
X98299672Y-83064043D01*
X98554000Y-83568550D01*
X98982035Y-83937327D01*
X99307960Y-84072315D01*
X99531000Y-83965102D01*
X99531000Y-82841000D01*
X99511000Y-82841000D01*
X99511000Y-82513000D01*
X99531000Y-82513000D01*
X99531000Y-81388898D01*
X99307960Y-81281685D01*
X98982035Y-81416673D01*
X98554000Y-81785450D01*
X98299672Y-82289957D01*
X98405803Y-82512998D01*
X98266821Y-82512998D01*
X98208223Y-82218407D01*
X97961102Y-81848564D01*
X97591259Y-81601443D01*
X97155000Y-81514666D01*
X96718741Y-81601443D01*
X96348898Y-81848564D01*
X96101777Y-82218407D01*
X96015000Y-82654666D01*
X95760681Y-82654666D01*
X95760681Y-81827000D01*
X95740460Y-81719533D01*
X95676946Y-81620830D01*
X95580036Y-81554614D01*
X95465000Y-81531319D01*
X93765000Y-81531319D01*
X93657533Y-81551540D01*
X93558830Y-81615054D01*
X93492614Y-81711964D01*
X93469319Y-81827000D01*
X90387000Y-81827000D01*
X90387000Y-79683418D01*
X96014008Y-79683418D01*
X96094723Y-79878764D01*
X96244050Y-80028352D01*
X96439254Y-80109408D01*
X96650618Y-80109592D01*
X96845964Y-80028877D01*
X96995552Y-79879550D01*
X97076608Y-79684346D01*
X97076792Y-79472982D01*
X96996077Y-79277636D01*
X96846750Y-79128048D01*
X96651546Y-79046992D01*
X96440182Y-79046808D01*
X96244836Y-79127523D01*
X96095248Y-79276850D01*
X96014192Y-79472054D01*
X96014008Y-79683418D01*
X90387000Y-79683418D01*
X90387000Y-77358243D01*
X91383298Y-77358243D01*
X91472931Y-77575172D01*
X91638755Y-77741286D01*
X91855527Y-77831298D01*
X92090243Y-77831502D01*
X92157243Y-77803818D01*
X97436408Y-77803818D01*
X97517123Y-77999164D01*
X97666450Y-78148752D01*
X97861654Y-78229808D01*
X98073018Y-78229992D01*
X98268364Y-78149277D01*
X98417952Y-77999950D01*
X98499008Y-77804746D01*
X98499192Y-77593382D01*
X98418477Y-77398036D01*
X98269150Y-77248448D01*
X98073946Y-77167392D01*
X97862582Y-77167208D01*
X97667236Y-77247923D01*
X97517648Y-77397250D01*
X97436592Y-77592454D01*
X97436408Y-77803818D01*
X92157243Y-77803818D01*
X92307172Y-77741869D01*
X92473286Y-77576045D01*
X92563298Y-77359273D01*
X92563502Y-77124557D01*
X92473869Y-76907628D01*
X92308045Y-76741514D01*
X92297218Y-76737018D01*
X96776008Y-76737018D01*
X96856723Y-76932364D01*
X97006050Y-77081952D01*
X97201254Y-77163008D01*
X97412618Y-77163192D01*
X97607964Y-77082477D01*
X97757552Y-76933150D01*
X97838608Y-76737946D01*
X97838792Y-76526582D01*
X97758077Y-76331236D01*
X97608750Y-76181648D01*
X97413546Y-76100592D01*
X97202182Y-76100408D01*
X97006836Y-76181123D01*
X96857248Y-76330450D01*
X96776192Y-76525654D01*
X96776008Y-76737018D01*
X92297218Y-76737018D01*
X92091273Y-76651502D01*
X91856557Y-76651298D01*
X91639628Y-76740931D01*
X91473514Y-76906755D01*
X91383502Y-77123527D01*
X91383298Y-77358243D01*
X90387000Y-77358243D01*
X90387000Y-75873418D01*
X92940608Y-75873418D01*
X93021323Y-76068764D01*
X93170650Y-76218352D01*
X93365854Y-76299408D01*
X93577218Y-76299592D01*
X93772564Y-76218877D01*
X93922152Y-76069550D01*
X94003208Y-75874346D01*
X94003392Y-75662982D01*
X93922677Y-75467636D01*
X93773350Y-75318048D01*
X93578146Y-75236992D01*
X93366782Y-75236808D01*
X93171436Y-75317523D01*
X93021848Y-75466850D01*
X92940792Y-75662054D01*
X92940608Y-75873418D01*
X90387000Y-75873418D01*
X90387000Y-73802243D01*
X97911098Y-73802243D01*
X98000731Y-74019172D01*
X98166555Y-74185286D01*
X98383327Y-74275298D01*
X98618043Y-74275502D01*
X98834972Y-74185869D01*
X99001086Y-74020045D01*
X99091098Y-73803273D01*
X99091302Y-73568557D01*
X99001669Y-73351628D01*
X98835845Y-73185514D01*
X98619073Y-73095502D01*
X98384357Y-73095298D01*
X98167428Y-73184931D01*
X98001314Y-73350755D01*
X97911302Y-73567527D01*
X97911098Y-73802243D01*
X90387000Y-73802243D01*
X90387000Y-72165018D01*
X95760008Y-72165018D01*
X95840723Y-72360364D01*
X95990050Y-72509952D01*
X96185254Y-72591008D01*
X96396618Y-72591192D01*
X96591964Y-72510477D01*
X96741552Y-72361150D01*
X96822608Y-72165946D01*
X96822792Y-71954582D01*
X96742077Y-71759236D01*
X96592750Y-71609648D01*
X96397546Y-71528592D01*
X96186182Y-71528408D01*
X95990836Y-71609123D01*
X95841248Y-71758450D01*
X95760192Y-71953654D01*
X95760008Y-72165018D01*
X90387000Y-72165018D01*
X90387000Y-70728843D01*
X90722898Y-70728843D01*
X90812531Y-70945772D01*
X90978355Y-71111886D01*
X91195127Y-71201898D01*
X91429843Y-71202102D01*
X91646772Y-71112469D01*
X91812886Y-70946645D01*
X91902898Y-70729873D01*
X91903102Y-70495157D01*
X91879411Y-70437818D01*
X96725208Y-70437818D01*
X96805923Y-70633164D01*
X96955250Y-70782752D01*
X97150454Y-70863808D01*
X97361818Y-70863992D01*
X97557164Y-70783277D01*
X97580205Y-70760277D01*
X97538192Y-70861454D01*
X97538008Y-71072818D01*
X97618723Y-71268164D01*
X97768050Y-71417752D01*
X97963254Y-71498808D01*
X98174618Y-71498992D01*
X98369964Y-71418277D01*
X98519552Y-71268950D01*
X98600608Y-71073746D01*
X98600792Y-70862382D01*
X98572297Y-70793418D01*
X99392208Y-70793418D01*
X99472923Y-70988764D01*
X99622250Y-71138352D01*
X99817454Y-71219408D01*
X100028818Y-71219592D01*
X100224164Y-71138877D01*
X100373752Y-70989550D01*
X100454808Y-70794346D01*
X100454992Y-70582982D01*
X100374277Y-70387636D01*
X100224950Y-70238048D01*
X100029746Y-70156992D01*
X99818382Y-70156808D01*
X99623036Y-70237523D01*
X99473448Y-70386850D01*
X99392392Y-70582054D01*
X99392208Y-70793418D01*
X98572297Y-70793418D01*
X98520077Y-70667036D01*
X98370750Y-70517448D01*
X98175546Y-70436392D01*
X97964182Y-70436208D01*
X97768836Y-70516923D01*
X97745795Y-70539923D01*
X97787808Y-70438746D01*
X97787992Y-70227382D01*
X97707277Y-70032036D01*
X97557950Y-69882448D01*
X97362746Y-69801392D01*
X97151382Y-69801208D01*
X96956036Y-69881923D01*
X96806448Y-70031250D01*
X96725392Y-70226454D01*
X96725208Y-70437818D01*
X91879411Y-70437818D01*
X91813469Y-70278228D01*
X91647645Y-70112114D01*
X91430873Y-70022102D01*
X91196157Y-70021898D01*
X90979228Y-70111531D01*
X90813114Y-70277355D01*
X90723102Y-70494127D01*
X90722898Y-70728843D01*
X90387000Y-70728843D01*
X90387000Y-68659818D01*
X92813608Y-68659818D01*
X92894323Y-68855164D01*
X93043650Y-69004752D01*
X93238854Y-69085808D01*
X93450218Y-69085992D01*
X93645564Y-69005277D01*
X93795152Y-68855950D01*
X93876208Y-68660746D01*
X93876392Y-68449382D01*
X93795677Y-68254036D01*
X93646350Y-68104448D01*
X93451146Y-68023392D01*
X93239782Y-68023208D01*
X93044436Y-68103923D01*
X92894848Y-68253250D01*
X92813792Y-68448454D01*
X92813608Y-68659818D01*
X90387000Y-68659818D01*
X90387000Y-67897818D01*
X96064808Y-67897818D01*
X96145523Y-68093164D01*
X96294850Y-68242752D01*
X96490054Y-68323808D01*
X96701418Y-68323992D01*
X96896764Y-68243277D01*
X97046352Y-68093950D01*
X97127408Y-67898746D01*
X97127592Y-67687382D01*
X97046877Y-67492036D01*
X96897550Y-67342448D01*
X96702346Y-67261392D01*
X96490982Y-67261208D01*
X96295636Y-67341923D01*
X96146048Y-67491250D01*
X96064992Y-67686454D01*
X96064808Y-67897818D01*
X90387000Y-67897818D01*
X90387000Y-66323018D01*
X93702608Y-66323018D01*
X93783323Y-66518364D01*
X93932650Y-66667952D01*
X94127854Y-66749008D01*
X94339218Y-66749192D01*
X94534564Y-66668477D01*
X94684152Y-66519150D01*
X94744499Y-66373818D01*
X95810808Y-66373818D01*
X95891523Y-66569164D01*
X96040850Y-66718752D01*
X96236054Y-66799808D01*
X96447418Y-66799992D01*
X96642764Y-66719277D01*
X96792352Y-66569950D01*
X96873408Y-66374746D01*
X96873592Y-66163382D01*
X96792877Y-65968036D01*
X96643550Y-65818448D01*
X96448346Y-65737392D01*
X96236982Y-65737208D01*
X96041636Y-65817923D01*
X95892048Y-65967250D01*
X95810992Y-66162454D01*
X95810808Y-66373818D01*
X94744499Y-66373818D01*
X94765208Y-66323946D01*
X94765392Y-66112582D01*
X94684677Y-65917236D01*
X94535350Y-65767648D01*
X94340146Y-65686592D01*
X94128782Y-65686408D01*
X93933436Y-65767123D01*
X93783848Y-65916450D01*
X93702792Y-66111654D01*
X93702608Y-66323018D01*
X90387000Y-66323018D01*
X90387000Y-65307018D01*
X94871008Y-65307018D01*
X94951723Y-65502364D01*
X95101050Y-65651952D01*
X95296254Y-65733008D01*
X95507618Y-65733192D01*
X95702964Y-65652477D01*
X95852552Y-65503150D01*
X95933608Y-65307946D01*
X95933792Y-65096582D01*
X95926287Y-65078418D01*
X96953808Y-65078418D01*
X97034523Y-65273764D01*
X97183850Y-65423352D01*
X97379054Y-65504408D01*
X97590418Y-65504592D01*
X97785764Y-65423877D01*
X97935352Y-65274550D01*
X98016408Y-65079346D01*
X98016592Y-64867982D01*
X97935877Y-64672636D01*
X97786550Y-64523048D01*
X97591346Y-64441992D01*
X97379982Y-64441808D01*
X97184636Y-64522523D01*
X97035048Y-64671850D01*
X96953992Y-64867054D01*
X96953808Y-65078418D01*
X95926287Y-65078418D01*
X95853077Y-64901236D01*
X95703750Y-64751648D01*
X95508546Y-64670592D01*
X95297182Y-64670408D01*
X95101836Y-64751123D01*
X94952248Y-64900450D01*
X94871192Y-65095654D01*
X94871008Y-65307018D01*
X90387000Y-65307018D01*
X90387000Y-64528126D01*
X90456931Y-64697372D01*
X90622755Y-64863486D01*
X90839527Y-64953498D01*
X91074243Y-64953702D01*
X91291172Y-64864069D01*
X91457286Y-64698245D01*
X91547298Y-64481473D01*
X91547502Y-64246757D01*
X91481830Y-64087818D01*
X98274608Y-64087818D01*
X98355323Y-64283164D01*
X98504650Y-64432752D01*
X98699854Y-64513808D01*
X98911218Y-64513992D01*
X99106564Y-64433277D01*
X99256152Y-64283950D01*
X99337208Y-64088746D01*
X99337392Y-63877382D01*
X99256677Y-63682036D01*
X99107350Y-63532448D01*
X98912146Y-63451392D01*
X98700782Y-63451208D01*
X98505436Y-63531923D01*
X98355848Y-63681250D01*
X98274792Y-63876454D01*
X98274608Y-64087818D01*
X91481830Y-64087818D01*
X91457869Y-64029828D01*
X91292045Y-63863714D01*
X91075273Y-63773702D01*
X90840557Y-63773498D01*
X90623628Y-63863131D01*
X90457514Y-64028955D01*
X90387000Y-64198771D01*
X90387000Y-63452818D01*
X95734608Y-63452818D01*
X95815323Y-63648164D01*
X95964650Y-63797752D01*
X96159854Y-63878808D01*
X96371218Y-63878992D01*
X96566564Y-63798277D01*
X96716152Y-63648950D01*
X96797208Y-63453746D01*
X96797392Y-63242382D01*
X96716677Y-63047036D01*
X96567350Y-62897448D01*
X96372146Y-62816392D01*
X96160782Y-62816208D01*
X95965436Y-62896923D01*
X95815848Y-63046250D01*
X95734792Y-63241454D01*
X95734608Y-63452818D01*
X90387000Y-63452818D01*
X90387000Y-61341000D01*
X90379909Y-61305985D01*
X90359754Y-61276487D01*
X90341903Y-61265000D01*
X90757949Y-61265000D01*
X90977740Y-61173960D01*
X91145960Y-61005740D01*
X91237000Y-60785950D01*
X91237000Y-60130500D01*
X91087500Y-59981000D01*
X89953000Y-59981000D01*
X89953000Y-60001000D01*
X89625000Y-60001000D01*
X89625000Y-59981000D01*
X89605000Y-59981000D01*
X89605000Y-59653000D01*
X89625000Y-59653000D01*
X89625000Y-58518500D01*
X89953000Y-58518500D01*
X89953000Y-59653000D01*
X91087500Y-59653000D01*
X91237000Y-59503500D01*
X91237000Y-58848050D01*
X91145960Y-58628260D01*
X90977740Y-58460040D01*
X90757949Y-58369000D01*
X90102500Y-58369000D01*
X89953000Y-58518500D01*
X89625000Y-58518500D01*
X89475500Y-58369000D01*
X88820051Y-58369000D01*
X88600260Y-58460040D01*
X88579356Y-58480944D01*
X88551711Y-58463155D01*
X88519000Y-58457000D01*
X86577000Y-58457000D01*
X86577000Y-57546243D01*
X89757698Y-57546243D01*
X89847331Y-57763172D01*
X90013155Y-57929286D01*
X90229927Y-58019298D01*
X90464643Y-58019502D01*
X90681572Y-57929869D01*
X90847686Y-57764045D01*
X90937698Y-57547273D01*
X90937765Y-57470043D01*
X98927098Y-57470043D01*
X99016731Y-57686972D01*
X99182555Y-57853086D01*
X99399327Y-57943098D01*
X99634043Y-57943302D01*
X99850972Y-57853669D01*
X100017086Y-57687845D01*
X100096978Y-57495443D01*
X100400298Y-57495443D01*
X100489931Y-57712372D01*
X100655755Y-57878486D01*
X100872527Y-57968498D01*
X101107243Y-57968702D01*
X101324172Y-57879069D01*
X101490286Y-57713245D01*
X101580298Y-57496473D01*
X101580502Y-57261757D01*
X101490869Y-57044828D01*
X101325045Y-56878714D01*
X101108273Y-56788702D01*
X100873557Y-56788498D01*
X100656628Y-56878131D01*
X100490514Y-57043955D01*
X100400502Y-57260727D01*
X100400298Y-57495443D01*
X100096978Y-57495443D01*
X100107098Y-57471073D01*
X100107302Y-57236357D01*
X100017669Y-57019428D01*
X99851845Y-56853314D01*
X99635073Y-56763302D01*
X99400357Y-56763098D01*
X99183428Y-56852731D01*
X99017314Y-57018555D01*
X98927302Y-57235327D01*
X98927098Y-57470043D01*
X90937765Y-57470043D01*
X90937902Y-57312557D01*
X90848269Y-57095628D01*
X90682445Y-56929514D01*
X90465673Y-56839502D01*
X90230957Y-56839298D01*
X90014028Y-56928931D01*
X89847914Y-57094755D01*
X89757902Y-57311527D01*
X89757698Y-57546243D01*
X86577000Y-57546243D01*
X86577000Y-56823418D01*
X95531408Y-56823418D01*
X95612123Y-57018764D01*
X95761450Y-57168352D01*
X95956654Y-57249408D01*
X96168018Y-57249592D01*
X96363364Y-57168877D01*
X96512952Y-57019550D01*
X96594008Y-56824346D01*
X96594192Y-56612982D01*
X96513477Y-56417636D01*
X96364150Y-56268048D01*
X96168946Y-56186992D01*
X95957582Y-56186808D01*
X95762236Y-56267523D01*
X95612648Y-56416850D01*
X95531592Y-56612054D01*
X95531408Y-56823418D01*
X86577000Y-56823418D01*
X86577000Y-56073043D01*
X97758698Y-56073043D01*
X97848331Y-56289972D01*
X98014155Y-56456086D01*
X98230927Y-56546098D01*
X98465643Y-56546302D01*
X98682572Y-56456669D01*
X98848686Y-56290845D01*
X98938698Y-56074073D01*
X98938902Y-55839357D01*
X98849269Y-55622428D01*
X98683445Y-55456314D01*
X98466673Y-55366302D01*
X98231957Y-55366098D01*
X98015028Y-55455731D01*
X97848914Y-55621555D01*
X97758902Y-55838327D01*
X97758698Y-56073043D01*
X86577000Y-56073043D01*
X86577000Y-54820948D01*
X86682086Y-54716045D01*
X86709243Y-54650643D01*
X89783098Y-54650643D01*
X89872731Y-54867572D01*
X90038555Y-55033686D01*
X90255327Y-55123698D01*
X90490043Y-55123902D01*
X90706972Y-55034269D01*
X90873086Y-54868445D01*
X90963098Y-54651673D01*
X90963302Y-54416957D01*
X90873669Y-54200028D01*
X90707845Y-54033914D01*
X90491073Y-53943902D01*
X90256357Y-53943698D01*
X90039428Y-54033331D01*
X89873314Y-54199155D01*
X89783302Y-54415927D01*
X89783098Y-54650643D01*
X86709243Y-54650643D01*
X86772098Y-54499273D01*
X86772302Y-54264557D01*
X86682669Y-54047628D01*
X86577000Y-53941774D01*
X86577000Y-52287000D01*
X89789000Y-52287000D01*
X89824015Y-52279909D01*
X89853513Y-52259754D01*
X89872845Y-52229711D01*
X89879000Y-52197000D01*
X89879000Y-50231043D01*
X97911098Y-50231043D01*
X98000731Y-50447972D01*
X98166555Y-50614086D01*
X98383327Y-50704098D01*
X98618043Y-50704302D01*
X98834972Y-50614669D01*
X99001086Y-50448845D01*
X99091098Y-50232073D01*
X99091302Y-49997357D01*
X99001669Y-49780428D01*
X98835845Y-49614314D01*
X98619073Y-49524302D01*
X98384357Y-49524098D01*
X98167428Y-49613731D01*
X98001314Y-49779555D01*
X97911302Y-49996327D01*
X97911098Y-50231043D01*
X89879000Y-50231043D01*
X89879000Y-47183043D01*
X89960898Y-47183043D01*
X90050531Y-47399972D01*
X90216355Y-47566086D01*
X90433127Y-47656098D01*
X90667843Y-47656302D01*
X90884772Y-47566669D01*
X91050886Y-47400845D01*
X91140898Y-47184073D01*
X91141102Y-46949357D01*
X91051469Y-46732428D01*
X90885645Y-46566314D01*
X90668873Y-46476302D01*
X90434157Y-46476098D01*
X90217228Y-46565731D01*
X90051114Y-46731555D01*
X89961102Y-46948327D01*
X89960898Y-47183043D01*
X89879000Y-47183043D01*
X89879000Y-45556000D01*
X99732000Y-45556000D01*
X99732000Y-49928475D01*
X99732000Y-49928475D01*
G37*
X99732000Y-49928475D02*
X99728514Y-49931955D01*
X99638502Y-50148727D01*
X99638298Y-50383443D01*
X99727931Y-50600372D01*
X99732000Y-50604448D01*
X99732000Y-52070000D01*
X99739091Y-52105015D01*
X99759246Y-52134513D01*
X99789289Y-52153845D01*
X99822000Y-52160000D01*
X101670343Y-52160000D01*
X101670298Y-52212243D01*
X101759931Y-52429172D01*
X101925755Y-52595286D01*
X102142527Y-52685298D01*
X102377243Y-52685502D01*
X102594172Y-52595869D01*
X102760286Y-52430045D01*
X102850298Y-52213273D01*
X102850502Y-51978557D01*
X102760869Y-51761628D01*
X102595045Y-51595514D01*
X102452000Y-51536116D01*
X102452000Y-50446251D01*
X102690885Y-50087923D01*
X102706000Y-50038000D01*
X102706000Y-47562868D01*
X103011603Y-47461000D01*
X109438137Y-47461000D01*
X111797000Y-49695712D01*
X111797000Y-58203000D01*
X101727000Y-58203000D01*
X101691985Y-58210091D01*
X101662487Y-58230246D01*
X101643155Y-58260289D01*
X101637000Y-58293000D01*
X101637000Y-63029000D01*
X100838000Y-63029000D01*
X100802985Y-63036091D01*
X100773487Y-63056246D01*
X100754155Y-63086289D01*
X100748000Y-63119000D01*
X100748000Y-67183000D01*
X100755091Y-67218015D01*
X100770268Y-67242265D01*
X101637000Y-68232816D01*
X101637000Y-71968282D01*
X101520228Y-72016531D01*
X101354114Y-72182355D01*
X101264102Y-72399127D01*
X101263898Y-72633843D01*
X101353531Y-72850772D01*
X101519355Y-73016886D01*
X101637000Y-73065737D01*
X101637000Y-79491970D01*
X101579045Y-79433914D01*
X101362273Y-79343902D01*
X101127557Y-79343698D01*
X100910628Y-79433331D01*
X100744514Y-79599155D01*
X100654502Y-79815927D01*
X100654298Y-80050643D01*
X100743931Y-80267572D01*
X100909755Y-80433686D01*
X101126527Y-80523698D01*
X101361243Y-80523902D01*
X101578172Y-80434269D01*
X101665172Y-80347421D01*
X101935127Y-82304597D01*
X101934645Y-82304114D01*
X101717873Y-82214102D01*
X101483157Y-82213898D01*
X101266228Y-82303531D01*
X101100114Y-82469355D01*
X101081992Y-82512998D01*
X100984197Y-82512998D01*
X101090328Y-82289957D01*
X100836000Y-81785450D01*
X100407965Y-81416673D01*
X100082040Y-81281685D01*
X99859000Y-81388898D01*
X99859000Y-82513000D01*
X99879000Y-82513000D01*
X99879000Y-82841000D01*
X99859000Y-82841000D01*
X99859000Y-83965102D01*
X100082040Y-84072315D01*
X100407965Y-83937327D01*
X100836000Y-83568550D01*
X101078644Y-83087221D01*
X101099531Y-83137772D01*
X101265355Y-83303886D01*
X101482127Y-83393898D01*
X101716843Y-83394102D01*
X101933772Y-83304469D01*
X101957616Y-83280666D01*
X101957608Y-83290218D01*
X102038323Y-83485564D01*
X102107589Y-83554952D01*
X102145000Y-83826178D01*
X102145000Y-84074000D01*
X102152091Y-84109015D01*
X102172246Y-84138513D01*
X102202289Y-84157845D01*
X102235000Y-84164000D01*
X106045000Y-84164000D01*
X106080015Y-84156909D01*
X106109513Y-84136754D01*
X106128845Y-84106711D01*
X106134966Y-84071514D01*
X106126910Y-84036708D01*
X106113575Y-84015712D01*
X103976000Y-81500918D01*
X103976000Y-80227000D01*
X107812970Y-80227000D01*
X107754914Y-80284955D01*
X107664902Y-80501727D01*
X107664698Y-80736443D01*
X107754331Y-80953372D01*
X107920155Y-81119486D01*
X108136927Y-81209498D01*
X108371643Y-81209702D01*
X108588572Y-81120069D01*
X108754686Y-80954245D01*
X108844698Y-80737473D01*
X108844902Y-80502757D01*
X108755269Y-80285828D01*
X108696544Y-80227000D01*
X113194000Y-80227000D01*
X113194000Y-82677000D01*
X113201091Y-82712015D01*
X113221246Y-82741513D01*
X113251289Y-82760845D01*
X113284000Y-82767000D01*
X118110000Y-82767000D01*
X118145015Y-82759909D01*
X118174513Y-82739754D01*
X118193845Y-82709711D01*
X118200000Y-82677000D01*
X118200000Y-72771000D01*
X118192909Y-72735985D01*
X118172754Y-72706487D01*
X118142711Y-72687155D01*
X118110000Y-72681000D01*
X113120000Y-72681000D01*
X113120000Y-71337000D01*
X115443000Y-71337000D01*
X115478015Y-71329909D01*
X115507513Y-71309754D01*
X115526845Y-71279711D01*
X115533000Y-71247000D01*
X115533000Y-64098000D01*
X120666000Y-64098000D01*
X120666000Y-84471000D01*
X90387000Y-84471000D01*
X90387000Y-81827000D01*
X93469319Y-81827000D01*
X93469319Y-83527000D01*
X93489540Y-83634467D01*
X93553054Y-83733170D01*
X93649964Y-83799386D01*
X93765000Y-83822681D01*
X95465000Y-83822681D01*
X95572467Y-83802460D01*
X95671170Y-83738946D01*
X95737386Y-83642036D01*
X95760681Y-83527000D01*
X95760681Y-82654666D01*
X96015000Y-82654666D01*
X96015000Y-82699334D01*
X96101777Y-83135593D01*
X96348898Y-83505436D01*
X96718741Y-83752557D01*
X97155000Y-83839334D01*
X97591259Y-83752557D01*
X97961102Y-83505436D01*
X98208223Y-83135593D01*
X98266821Y-82841002D01*
X98405803Y-82841002D01*
X98299672Y-83064043D01*
X98554000Y-83568550D01*
X98982035Y-83937327D01*
X99307960Y-84072315D01*
X99531000Y-83965102D01*
X99531000Y-82841000D01*
X99511000Y-82841000D01*
X99511000Y-82513000D01*
X99531000Y-82513000D01*
X99531000Y-81388898D01*
X99307960Y-81281685D01*
X98982035Y-81416673D01*
X98554000Y-81785450D01*
X98299672Y-82289957D01*
X98405803Y-82512998D01*
X98266821Y-82512998D01*
X98208223Y-82218407D01*
X97961102Y-81848564D01*
X97591259Y-81601443D01*
X97155000Y-81514666D01*
X96718741Y-81601443D01*
X96348898Y-81848564D01*
X96101777Y-82218407D01*
X96015000Y-82654666D01*
X95760681Y-82654666D01*
X95760681Y-81827000D01*
X95740460Y-81719533D01*
X95676946Y-81620830D01*
X95580036Y-81554614D01*
X95465000Y-81531319D01*
X93765000Y-81531319D01*
X93657533Y-81551540D01*
X93558830Y-81615054D01*
X93492614Y-81711964D01*
X93469319Y-81827000D01*
X90387000Y-81827000D01*
X90387000Y-79683418D01*
X96014008Y-79683418D01*
X96094723Y-79878764D01*
X96244050Y-80028352D01*
X96439254Y-80109408D01*
X96650618Y-80109592D01*
X96845964Y-80028877D01*
X96995552Y-79879550D01*
X97076608Y-79684346D01*
X97076792Y-79472982D01*
X96996077Y-79277636D01*
X96846750Y-79128048D01*
X96651546Y-79046992D01*
X96440182Y-79046808D01*
X96244836Y-79127523D01*
X96095248Y-79276850D01*
X96014192Y-79472054D01*
X96014008Y-79683418D01*
X90387000Y-79683418D01*
X90387000Y-77358243D01*
X91383298Y-77358243D01*
X91472931Y-77575172D01*
X91638755Y-77741286D01*
X91855527Y-77831298D01*
X92090243Y-77831502D01*
X92157243Y-77803818D01*
X97436408Y-77803818D01*
X97517123Y-77999164D01*
X97666450Y-78148752D01*
X97861654Y-78229808D01*
X98073018Y-78229992D01*
X98268364Y-78149277D01*
X98417952Y-77999950D01*
X98499008Y-77804746D01*
X98499192Y-77593382D01*
X98418477Y-77398036D01*
X98269150Y-77248448D01*
X98073946Y-77167392D01*
X97862582Y-77167208D01*
X97667236Y-77247923D01*
X97517648Y-77397250D01*
X97436592Y-77592454D01*
X97436408Y-77803818D01*
X92157243Y-77803818D01*
X92307172Y-77741869D01*
X92473286Y-77576045D01*
X92563298Y-77359273D01*
X92563502Y-77124557D01*
X92473869Y-76907628D01*
X92308045Y-76741514D01*
X92297218Y-76737018D01*
X96776008Y-76737018D01*
X96856723Y-76932364D01*
X97006050Y-77081952D01*
X97201254Y-77163008D01*
X97412618Y-77163192D01*
X97607964Y-77082477D01*
X97757552Y-76933150D01*
X97838608Y-76737946D01*
X97838792Y-76526582D01*
X97758077Y-76331236D01*
X97608750Y-76181648D01*
X97413546Y-76100592D01*
X97202182Y-76100408D01*
X97006836Y-76181123D01*
X96857248Y-76330450D01*
X96776192Y-76525654D01*
X96776008Y-76737018D01*
X92297218Y-76737018D01*
X92091273Y-76651502D01*
X91856557Y-76651298D01*
X91639628Y-76740931D01*
X91473514Y-76906755D01*
X91383502Y-77123527D01*
X91383298Y-77358243D01*
X90387000Y-77358243D01*
X90387000Y-75873418D01*
X92940608Y-75873418D01*
X93021323Y-76068764D01*
X93170650Y-76218352D01*
X93365854Y-76299408D01*
X93577218Y-76299592D01*
X93772564Y-76218877D01*
X93922152Y-76069550D01*
X94003208Y-75874346D01*
X94003392Y-75662982D01*
X93922677Y-75467636D01*
X93773350Y-75318048D01*
X93578146Y-75236992D01*
X93366782Y-75236808D01*
X93171436Y-75317523D01*
X93021848Y-75466850D01*
X92940792Y-75662054D01*
X92940608Y-75873418D01*
X90387000Y-75873418D01*
X90387000Y-73802243D01*
X97911098Y-73802243D01*
X98000731Y-74019172D01*
X98166555Y-74185286D01*
X98383327Y-74275298D01*
X98618043Y-74275502D01*
X98834972Y-74185869D01*
X99001086Y-74020045D01*
X99091098Y-73803273D01*
X99091302Y-73568557D01*
X99001669Y-73351628D01*
X98835845Y-73185514D01*
X98619073Y-73095502D01*
X98384357Y-73095298D01*
X98167428Y-73184931D01*
X98001314Y-73350755D01*
X97911302Y-73567527D01*
X97911098Y-73802243D01*
X90387000Y-73802243D01*
X90387000Y-72165018D01*
X95760008Y-72165018D01*
X95840723Y-72360364D01*
X95990050Y-72509952D01*
X96185254Y-72591008D01*
X96396618Y-72591192D01*
X96591964Y-72510477D01*
X96741552Y-72361150D01*
X96822608Y-72165946D01*
X96822792Y-71954582D01*
X96742077Y-71759236D01*
X96592750Y-71609648D01*
X96397546Y-71528592D01*
X96186182Y-71528408D01*
X95990836Y-71609123D01*
X95841248Y-71758450D01*
X95760192Y-71953654D01*
X95760008Y-72165018D01*
X90387000Y-72165018D01*
X90387000Y-70728843D01*
X90722898Y-70728843D01*
X90812531Y-70945772D01*
X90978355Y-71111886D01*
X91195127Y-71201898D01*
X91429843Y-71202102D01*
X91646772Y-71112469D01*
X91812886Y-70946645D01*
X91902898Y-70729873D01*
X91903102Y-70495157D01*
X91879411Y-70437818D01*
X96725208Y-70437818D01*
X96805923Y-70633164D01*
X96955250Y-70782752D01*
X97150454Y-70863808D01*
X97361818Y-70863992D01*
X97557164Y-70783277D01*
X97580205Y-70760277D01*
X97538192Y-70861454D01*
X97538008Y-71072818D01*
X97618723Y-71268164D01*
X97768050Y-71417752D01*
X97963254Y-71498808D01*
X98174618Y-71498992D01*
X98369964Y-71418277D01*
X98519552Y-71268950D01*
X98600608Y-71073746D01*
X98600792Y-70862382D01*
X98572297Y-70793418D01*
X99392208Y-70793418D01*
X99472923Y-70988764D01*
X99622250Y-71138352D01*
X99817454Y-71219408D01*
X100028818Y-71219592D01*
X100224164Y-71138877D01*
X100373752Y-70989550D01*
X100454808Y-70794346D01*
X100454992Y-70582982D01*
X100374277Y-70387636D01*
X100224950Y-70238048D01*
X100029746Y-70156992D01*
X99818382Y-70156808D01*
X99623036Y-70237523D01*
X99473448Y-70386850D01*
X99392392Y-70582054D01*
X99392208Y-70793418D01*
X98572297Y-70793418D01*
X98520077Y-70667036D01*
X98370750Y-70517448D01*
X98175546Y-70436392D01*
X97964182Y-70436208D01*
X97768836Y-70516923D01*
X97745795Y-70539923D01*
X97787808Y-70438746D01*
X97787992Y-70227382D01*
X97707277Y-70032036D01*
X97557950Y-69882448D01*
X97362746Y-69801392D01*
X97151382Y-69801208D01*
X96956036Y-69881923D01*
X96806448Y-70031250D01*
X96725392Y-70226454D01*
X96725208Y-70437818D01*
X91879411Y-70437818D01*
X91813469Y-70278228D01*
X91647645Y-70112114D01*
X91430873Y-70022102D01*
X91196157Y-70021898D01*
X90979228Y-70111531D01*
X90813114Y-70277355D01*
X90723102Y-70494127D01*
X90722898Y-70728843D01*
X90387000Y-70728843D01*
X90387000Y-68659818D01*
X92813608Y-68659818D01*
X92894323Y-68855164D01*
X93043650Y-69004752D01*
X93238854Y-69085808D01*
X93450218Y-69085992D01*
X93645564Y-69005277D01*
X93795152Y-68855950D01*
X93876208Y-68660746D01*
X93876392Y-68449382D01*
X93795677Y-68254036D01*
X93646350Y-68104448D01*
X93451146Y-68023392D01*
X93239782Y-68023208D01*
X93044436Y-68103923D01*
X92894848Y-68253250D01*
X92813792Y-68448454D01*
X92813608Y-68659818D01*
X90387000Y-68659818D01*
X90387000Y-67897818D01*
X96064808Y-67897818D01*
X96145523Y-68093164D01*
X96294850Y-68242752D01*
X96490054Y-68323808D01*
X96701418Y-68323992D01*
X96896764Y-68243277D01*
X97046352Y-68093950D01*
X97127408Y-67898746D01*
X97127592Y-67687382D01*
X97046877Y-67492036D01*
X96897550Y-67342448D01*
X96702346Y-67261392D01*
X96490982Y-67261208D01*
X96295636Y-67341923D01*
X96146048Y-67491250D01*
X96064992Y-67686454D01*
X96064808Y-67897818D01*
X90387000Y-67897818D01*
X90387000Y-66323018D01*
X93702608Y-66323018D01*
X93783323Y-66518364D01*
X93932650Y-66667952D01*
X94127854Y-66749008D01*
X94339218Y-66749192D01*
X94534564Y-66668477D01*
X94684152Y-66519150D01*
X94744499Y-66373818D01*
X95810808Y-66373818D01*
X95891523Y-66569164D01*
X96040850Y-66718752D01*
X96236054Y-66799808D01*
X96447418Y-66799992D01*
X96642764Y-66719277D01*
X96792352Y-66569950D01*
X96873408Y-66374746D01*
X96873592Y-66163382D01*
X96792877Y-65968036D01*
X96643550Y-65818448D01*
X96448346Y-65737392D01*
X96236982Y-65737208D01*
X96041636Y-65817923D01*
X95892048Y-65967250D01*
X95810992Y-66162454D01*
X95810808Y-66373818D01*
X94744499Y-66373818D01*
X94765208Y-66323946D01*
X94765392Y-66112582D01*
X94684677Y-65917236D01*
X94535350Y-65767648D01*
X94340146Y-65686592D01*
X94128782Y-65686408D01*
X93933436Y-65767123D01*
X93783848Y-65916450D01*
X93702792Y-66111654D01*
X93702608Y-66323018D01*
X90387000Y-66323018D01*
X90387000Y-65307018D01*
X94871008Y-65307018D01*
X94951723Y-65502364D01*
X95101050Y-65651952D01*
X95296254Y-65733008D01*
X95507618Y-65733192D01*
X95702964Y-65652477D01*
X95852552Y-65503150D01*
X95933608Y-65307946D01*
X95933792Y-65096582D01*
X95926287Y-65078418D01*
X96953808Y-65078418D01*
X97034523Y-65273764D01*
X97183850Y-65423352D01*
X97379054Y-65504408D01*
X97590418Y-65504592D01*
X97785764Y-65423877D01*
X97935352Y-65274550D01*
X98016408Y-65079346D01*
X98016592Y-64867982D01*
X97935877Y-64672636D01*
X97786550Y-64523048D01*
X97591346Y-64441992D01*
X97379982Y-64441808D01*
X97184636Y-64522523D01*
X97035048Y-64671850D01*
X96953992Y-64867054D01*
X96953808Y-65078418D01*
X95926287Y-65078418D01*
X95853077Y-64901236D01*
X95703750Y-64751648D01*
X95508546Y-64670592D01*
X95297182Y-64670408D01*
X95101836Y-64751123D01*
X94952248Y-64900450D01*
X94871192Y-65095654D01*
X94871008Y-65307018D01*
X90387000Y-65307018D01*
X90387000Y-64528126D01*
X90456931Y-64697372D01*
X90622755Y-64863486D01*
X90839527Y-64953498D01*
X91074243Y-64953702D01*
X91291172Y-64864069D01*
X91457286Y-64698245D01*
X91547298Y-64481473D01*
X91547502Y-64246757D01*
X91481830Y-64087818D01*
X98274608Y-64087818D01*
X98355323Y-64283164D01*
X98504650Y-64432752D01*
X98699854Y-64513808D01*
X98911218Y-64513992D01*
X99106564Y-64433277D01*
X99256152Y-64283950D01*
X99337208Y-64088746D01*
X99337392Y-63877382D01*
X99256677Y-63682036D01*
X99107350Y-63532448D01*
X98912146Y-63451392D01*
X98700782Y-63451208D01*
X98505436Y-63531923D01*
X98355848Y-63681250D01*
X98274792Y-63876454D01*
X98274608Y-64087818D01*
X91481830Y-64087818D01*
X91457869Y-64029828D01*
X91292045Y-63863714D01*
X91075273Y-63773702D01*
X90840557Y-63773498D01*
X90623628Y-63863131D01*
X90457514Y-64028955D01*
X90387000Y-64198771D01*
X90387000Y-63452818D01*
X95734608Y-63452818D01*
X95815323Y-63648164D01*
X95964650Y-63797752D01*
X96159854Y-63878808D01*
X96371218Y-63878992D01*
X96566564Y-63798277D01*
X96716152Y-63648950D01*
X96797208Y-63453746D01*
X96797392Y-63242382D01*
X96716677Y-63047036D01*
X96567350Y-62897448D01*
X96372146Y-62816392D01*
X96160782Y-62816208D01*
X95965436Y-62896923D01*
X95815848Y-63046250D01*
X95734792Y-63241454D01*
X95734608Y-63452818D01*
X90387000Y-63452818D01*
X90387000Y-61341000D01*
X90379909Y-61305985D01*
X90359754Y-61276487D01*
X90341903Y-61265000D01*
X90757949Y-61265000D01*
X90977740Y-61173960D01*
X91145960Y-61005740D01*
X91237000Y-60785950D01*
X91237000Y-60130500D01*
X91087500Y-59981000D01*
X89953000Y-59981000D01*
X89953000Y-60001000D01*
X89625000Y-60001000D01*
X89625000Y-59981000D01*
X89605000Y-59981000D01*
X89605000Y-59653000D01*
X89625000Y-59653000D01*
X89625000Y-58518500D01*
X89953000Y-58518500D01*
X89953000Y-59653000D01*
X91087500Y-59653000D01*
X91237000Y-59503500D01*
X91237000Y-58848050D01*
X91145960Y-58628260D01*
X90977740Y-58460040D01*
X90757949Y-58369000D01*
X90102500Y-58369000D01*
X89953000Y-58518500D01*
X89625000Y-58518500D01*
X89475500Y-58369000D01*
X88820051Y-58369000D01*
X88600260Y-58460040D01*
X88579356Y-58480944D01*
X88551711Y-58463155D01*
X88519000Y-58457000D01*
X86577000Y-58457000D01*
X86577000Y-57546243D01*
X89757698Y-57546243D01*
X89847331Y-57763172D01*
X90013155Y-57929286D01*
X90229927Y-58019298D01*
X90464643Y-58019502D01*
X90681572Y-57929869D01*
X90847686Y-57764045D01*
X90937698Y-57547273D01*
X90937765Y-57470043D01*
X98927098Y-57470043D01*
X99016731Y-57686972D01*
X99182555Y-57853086D01*
X99399327Y-57943098D01*
X99634043Y-57943302D01*
X99850972Y-57853669D01*
X100017086Y-57687845D01*
X100096978Y-57495443D01*
X100400298Y-57495443D01*
X100489931Y-57712372D01*
X100655755Y-57878486D01*
X100872527Y-57968498D01*
X101107243Y-57968702D01*
X101324172Y-57879069D01*
X101490286Y-57713245D01*
X101580298Y-57496473D01*
X101580502Y-57261757D01*
X101490869Y-57044828D01*
X101325045Y-56878714D01*
X101108273Y-56788702D01*
X100873557Y-56788498D01*
X100656628Y-56878131D01*
X100490514Y-57043955D01*
X100400502Y-57260727D01*
X100400298Y-57495443D01*
X100096978Y-57495443D01*
X100107098Y-57471073D01*
X100107302Y-57236357D01*
X100017669Y-57019428D01*
X99851845Y-56853314D01*
X99635073Y-56763302D01*
X99400357Y-56763098D01*
X99183428Y-56852731D01*
X99017314Y-57018555D01*
X98927302Y-57235327D01*
X98927098Y-57470043D01*
X90937765Y-57470043D01*
X90937902Y-57312557D01*
X90848269Y-57095628D01*
X90682445Y-56929514D01*
X90465673Y-56839502D01*
X90230957Y-56839298D01*
X90014028Y-56928931D01*
X89847914Y-57094755D01*
X89757902Y-57311527D01*
X89757698Y-57546243D01*
X86577000Y-57546243D01*
X86577000Y-56823418D01*
X95531408Y-56823418D01*
X95612123Y-57018764D01*
X95761450Y-57168352D01*
X95956654Y-57249408D01*
X96168018Y-57249592D01*
X96363364Y-57168877D01*
X96512952Y-57019550D01*
X96594008Y-56824346D01*
X96594192Y-56612982D01*
X96513477Y-56417636D01*
X96364150Y-56268048D01*
X96168946Y-56186992D01*
X95957582Y-56186808D01*
X95762236Y-56267523D01*
X95612648Y-56416850D01*
X95531592Y-56612054D01*
X95531408Y-56823418D01*
X86577000Y-56823418D01*
X86577000Y-56073043D01*
X97758698Y-56073043D01*
X97848331Y-56289972D01*
X98014155Y-56456086D01*
X98230927Y-56546098D01*
X98465643Y-56546302D01*
X98682572Y-56456669D01*
X98848686Y-56290845D01*
X98938698Y-56074073D01*
X98938902Y-55839357D01*
X98849269Y-55622428D01*
X98683445Y-55456314D01*
X98466673Y-55366302D01*
X98231957Y-55366098D01*
X98015028Y-55455731D01*
X97848914Y-55621555D01*
X97758902Y-55838327D01*
X97758698Y-56073043D01*
X86577000Y-56073043D01*
X86577000Y-54820948D01*
X86682086Y-54716045D01*
X86709243Y-54650643D01*
X89783098Y-54650643D01*
X89872731Y-54867572D01*
X90038555Y-55033686D01*
X90255327Y-55123698D01*
X90490043Y-55123902D01*
X90706972Y-55034269D01*
X90873086Y-54868445D01*
X90963098Y-54651673D01*
X90963302Y-54416957D01*
X90873669Y-54200028D01*
X90707845Y-54033914D01*
X90491073Y-53943902D01*
X90256357Y-53943698D01*
X90039428Y-54033331D01*
X89873314Y-54199155D01*
X89783302Y-54415927D01*
X89783098Y-54650643D01*
X86709243Y-54650643D01*
X86772098Y-54499273D01*
X86772302Y-54264557D01*
X86682669Y-54047628D01*
X86577000Y-53941774D01*
X86577000Y-52287000D01*
X89789000Y-52287000D01*
X89824015Y-52279909D01*
X89853513Y-52259754D01*
X89872845Y-52229711D01*
X89879000Y-52197000D01*
X89879000Y-50231043D01*
X97911098Y-50231043D01*
X98000731Y-50447972D01*
X98166555Y-50614086D01*
X98383327Y-50704098D01*
X98618043Y-50704302D01*
X98834972Y-50614669D01*
X99001086Y-50448845D01*
X99091098Y-50232073D01*
X99091302Y-49997357D01*
X99001669Y-49780428D01*
X98835845Y-49614314D01*
X98619073Y-49524302D01*
X98384357Y-49524098D01*
X98167428Y-49613731D01*
X98001314Y-49779555D01*
X97911302Y-49996327D01*
X97911098Y-50231043D01*
X89879000Y-50231043D01*
X89879000Y-47183043D01*
X89960898Y-47183043D01*
X90050531Y-47399972D01*
X90216355Y-47566086D01*
X90433127Y-47656098D01*
X90667843Y-47656302D01*
X90884772Y-47566669D01*
X91050886Y-47400845D01*
X91140898Y-47184073D01*
X91141102Y-46949357D01*
X91051469Y-46732428D01*
X90885645Y-46566314D01*
X90668873Y-46476302D01*
X90434157Y-46476098D01*
X90217228Y-46565731D01*
X90051114Y-46731555D01*
X89961102Y-46948327D01*
X89960898Y-47183043D01*
X89879000Y-47183043D01*
X89879000Y-45556000D01*
X99732000Y-45556000D01*
X99732000Y-49928475D01*
G36*
X107987000Y-77851000D02*
X107994091Y-77886015D01*
X108014246Y-77915513D01*
X108044289Y-77934845D01*
X108077000Y-77941000D01*
X117766000Y-77941000D01*
X117766000Y-82333000D01*
X113628000Y-82333000D01*
X113628000Y-79883000D01*
X113620909Y-79847985D01*
X113600754Y-79818487D01*
X113570711Y-79799155D01*
X113538000Y-79793000D01*
X102579000Y-79793000D01*
X102579000Y-71871843D01*
X106343898Y-71871843D01*
X106433531Y-72088772D01*
X106599355Y-72254886D01*
X106816127Y-72344898D01*
X107050843Y-72345102D01*
X107267772Y-72255469D01*
X107433886Y-72089645D01*
X107523898Y-71872873D01*
X107524102Y-71638157D01*
X107434469Y-71421228D01*
X107268645Y-71255114D01*
X107051873Y-71165102D01*
X106817157Y-71164898D01*
X106600228Y-71254531D01*
X106434114Y-71420355D01*
X106344102Y-71637127D01*
X106343898Y-71871843D01*
X102579000Y-71871843D01*
X102579000Y-68289000D01*
X107987000Y-68289000D01*
X107987000Y-77851000D01*
X107987000Y-77851000D01*
G37*
X107987000Y-77851000D02*
X107994091Y-77886015D01*
X108014246Y-77915513D01*
X108044289Y-77934845D01*
X108077000Y-77941000D01*
X117766000Y-77941000D01*
X117766000Y-82333000D01*
X113628000Y-82333000D01*
X113628000Y-79883000D01*
X113620909Y-79847985D01*
X113600754Y-79818487D01*
X113570711Y-79799155D01*
X113538000Y-79793000D01*
X102579000Y-79793000D01*
X102579000Y-71871843D01*
X106343898Y-71871843D01*
X106433531Y-72088772D01*
X106599355Y-72254886D01*
X106816127Y-72344898D01*
X107050843Y-72345102D01*
X107267772Y-72255469D01*
X107433886Y-72089645D01*
X107523898Y-71872873D01*
X107524102Y-71638157D01*
X107434469Y-71421228D01*
X107268645Y-71255114D01*
X107051873Y-71165102D01*
X106817157Y-71164898D01*
X106600228Y-71254531D01*
X106434114Y-71420355D01*
X106344102Y-71637127D01*
X106343898Y-71871843D01*
X102579000Y-71871843D01*
X102579000Y-68289000D01*
X107987000Y-68289000D01*
X107987000Y-77851000D01*
G36*
X117639000Y-59727000D02*
X115189000Y-59727000D01*
X115153985Y-59734091D01*
X115138178Y-59742722D01*
X112725178Y-61393722D01*
X112700284Y-61419347D01*
X112686000Y-61468000D01*
X112686000Y-67855000D01*
X102529082Y-67855000D01*
X101436000Y-66640464D01*
X101436000Y-63717000D01*
X102489000Y-63717000D01*
X102524015Y-63709909D01*
X102553513Y-63689754D01*
X102572845Y-63659711D01*
X102579000Y-63627000D01*
X102579000Y-58637000D01*
X112141000Y-58637000D01*
X112176015Y-58629909D01*
X112205513Y-58609754D01*
X112224845Y-58579711D01*
X112231000Y-58547000D01*
X112231000Y-56859000D01*
X117639000Y-56859000D01*
X117639000Y-59727000D01*
X117639000Y-59727000D01*
G37*
X117639000Y-59727000D02*
X115189000Y-59727000D01*
X115153985Y-59734091D01*
X115138178Y-59742722D01*
X112725178Y-61393722D01*
X112700284Y-61419347D01*
X112686000Y-61468000D01*
X112686000Y-67855000D01*
X102529082Y-67855000D01*
X101436000Y-66640464D01*
X101436000Y-63717000D01*
X102489000Y-63717000D01*
X102524015Y-63709909D01*
X102553513Y-63689754D01*
X102572845Y-63659711D01*
X102579000Y-63627000D01*
X102579000Y-58637000D01*
X112141000Y-58637000D01*
X112176015Y-58629909D01*
X112205513Y-58609754D01*
X112224845Y-58579711D01*
X112231000Y-58547000D01*
X112231000Y-56859000D01*
X117639000Y-56859000D01*
X117639000Y-59727000D01*
G36*
X115153137Y-46111572D02*
X114643582Y-47338718D01*
X114642422Y-48667452D01*
X115149835Y-49895486D01*
X116088572Y-50835863D01*
X117315718Y-51345418D01*
X118644452Y-51346578D01*
X119872486Y-50839165D01*
X120666000Y-50047035D01*
X120666000Y-53504000D01*
X119962135Y-53504000D01*
X119962192Y-53437982D01*
X119881477Y-53242636D01*
X119732150Y-53093048D01*
X119536946Y-53011992D01*
X119325582Y-53011808D01*
X119130236Y-53092523D01*
X118980648Y-53241850D01*
X118899592Y-53437054D01*
X118899534Y-53504000D01*
X116011072Y-53504000D01*
X115145175Y-51419435D01*
X115184764Y-51403077D01*
X115334352Y-51253750D01*
X115415408Y-51058546D01*
X115415592Y-50847182D01*
X115334877Y-50651836D01*
X115185550Y-50502248D01*
X114990346Y-50421192D01*
X114778982Y-50421008D01*
X114737555Y-50438125D01*
X112612810Y-45323000D01*
X115943087Y-45323000D01*
X115153137Y-46111572D01*
X115153137Y-46111572D01*
G37*
X115153137Y-46111572D02*
X114643582Y-47338718D01*
X114642422Y-48667452D01*
X115149835Y-49895486D01*
X116088572Y-50835863D01*
X117315718Y-51345418D01*
X118644452Y-51346578D01*
X119872486Y-50839165D01*
X120666000Y-50047035D01*
X120666000Y-53504000D01*
X119962135Y-53504000D01*
X119962192Y-53437982D01*
X119881477Y-53242636D01*
X119732150Y-53093048D01*
X119536946Y-53011992D01*
X119325582Y-53011808D01*
X119130236Y-53092523D01*
X118980648Y-53241850D01*
X118899592Y-53437054D01*
X118899534Y-53504000D01*
X116011072Y-53504000D01*
X115145175Y-51419435D01*
X115184764Y-51403077D01*
X115334352Y-51253750D01*
X115415408Y-51058546D01*
X115415592Y-50847182D01*
X115334877Y-50651836D01*
X115185550Y-50502248D01*
X114990346Y-50421192D01*
X114778982Y-50421008D01*
X114737555Y-50438125D01*
X112612810Y-45323000D01*
X115943087Y-45323000D01*
X115153137Y-46111572D01*
G36*
X120666000Y-63664000D02*
X115189000Y-63664000D01*
X115153985Y-63671091D01*
X115124487Y-63691246D01*
X115105155Y-63721289D01*
X115099000Y-63754000D01*
X115099000Y-70903000D01*
X113120000Y-70903000D01*
X113120000Y-61643167D01*
X115343251Y-60161000D01*
X117983000Y-60161000D01*
X118018015Y-60153909D01*
X118047513Y-60133754D01*
X118066845Y-60103711D01*
X118073000Y-60071000D01*
X118073000Y-56859000D01*
X120666000Y-56859000D01*
X120666000Y-63664000D01*
X120666000Y-63664000D01*
G37*
X120666000Y-63664000D02*
X115189000Y-63664000D01*
X115153985Y-63671091D01*
X115124487Y-63691246D01*
X115105155Y-63721289D01*
X115099000Y-63754000D01*
X115099000Y-70903000D01*
X113120000Y-70903000D01*
X113120000Y-61643167D01*
X115343251Y-60161000D01*
X117983000Y-60161000D01*
X118018015Y-60153909D01*
X118047513Y-60133754D01*
X118066845Y-60103711D01*
X118073000Y-60071000D01*
X118073000Y-56859000D01*
X120666000Y-56859000D01*
X120666000Y-63664000D01*
G36*
X112686000Y-73025000D02*
X112693091Y-73060015D01*
X112713246Y-73089513D01*
X112743289Y-73108845D01*
X112776000Y-73115000D01*
X117766000Y-73115000D01*
X117766000Y-77507000D01*
X108421000Y-77507000D01*
X108421000Y-68289000D01*
X112686000Y-68289000D01*
X112686000Y-73025000D01*
X112686000Y-73025000D01*
G37*
X112686000Y-73025000D02*
X112693091Y-73060015D01*
X112713246Y-73089513D01*
X112743289Y-73108845D01*
X112776000Y-73115000D01*
X117766000Y-73115000D01*
X117766000Y-77507000D01*
X108421000Y-77507000D01*
X108421000Y-68289000D01*
X112686000Y-68289000D01*
X112686000Y-73025000D01*
M02*
