G04 #@! TF.FileFunction,Legend,Top*
%FSLAX46Y46*%
G04 Gerber Fmt 4.6, Leading zero omitted, Abs format (unit mm)*
G04 Created by KiCad (PCBNEW 4.0.7) date 03/24/19 02:31:51*
%MOMM*%
%LPD*%
G01*
G04 APERTURE LIST*
%ADD10C,0.100000*%
%ADD11C,0.200000*%
%ADD12C,0.300000*%
%ADD13C,0.150000*%
%ADD14C,0.120000*%
%ADD15C,0.070000*%
%ADD16C,0.127000*%
%ADD17C,0.280000*%
%ADD18C,0.152400*%
G04 APERTURE END LIST*
D10*
D11*
X89192100Y-51638200D02*
X89192100Y-45008800D01*
X89446100Y-51917600D02*
X89446100Y-44996100D01*
X85852000Y-51638200D02*
X89192100Y-51638200D01*
X86106000Y-51917600D02*
X89446100Y-51917600D01*
X85877400Y-51917600D02*
X86182200Y-51917600D01*
X86055200Y-51917600D02*
X85699600Y-51917600D01*
X85369400Y-51638200D02*
X85877400Y-51638200D01*
X85369400Y-62687200D02*
X85369400Y-51638200D01*
X85369400Y-62712600D02*
X85369400Y-62687200D01*
X86410800Y-63754000D02*
X85369400Y-62712600D01*
X85699600Y-62687200D02*
X85699600Y-62433200D01*
X85725000Y-62712600D02*
X85699600Y-62687200D01*
X86512400Y-63500000D02*
X85725000Y-62712600D01*
X86118700Y-51917600D02*
X86131400Y-51917600D01*
X85686900Y-62598300D02*
X85686900Y-51917600D01*
X86614000Y-63500000D02*
X86512400Y-63500000D01*
X87896700Y-63754000D02*
X86410800Y-63754000D01*
X88138000Y-83439000D02*
X88138000Y-84709000D01*
X87884000Y-83312000D02*
X87884000Y-84709000D01*
D12*
X85693930Y-37452571D02*
X84979644Y-37452571D01*
X84908215Y-38166857D01*
X84979644Y-38095429D01*
X85122501Y-38024000D01*
X85479644Y-38024000D01*
X85622501Y-38095429D01*
X85693930Y-38166857D01*
X85765358Y-38309714D01*
X85765358Y-38666857D01*
X85693930Y-38809714D01*
X85622501Y-38881143D01*
X85479644Y-38952571D01*
X85122501Y-38952571D01*
X84979644Y-38881143D01*
X84908215Y-38809714D01*
X86479643Y-38952571D02*
X86765358Y-38952571D01*
X86908215Y-38881143D01*
X86979643Y-38809714D01*
X87122501Y-38595429D01*
X87193929Y-38309714D01*
X87193929Y-37738286D01*
X87122501Y-37595429D01*
X87051072Y-37524000D01*
X86908215Y-37452571D01*
X86622501Y-37452571D01*
X86479643Y-37524000D01*
X86408215Y-37595429D01*
X86336786Y-37738286D01*
X86336786Y-38095429D01*
X86408215Y-38238286D01*
X86479643Y-38309714D01*
X86622501Y-38381143D01*
X86908215Y-38381143D01*
X87051072Y-38309714D01*
X87122501Y-38238286D01*
X87193929Y-38095429D01*
X87836786Y-38809714D02*
X87908214Y-38881143D01*
X87836786Y-38952571D01*
X87765357Y-38881143D01*
X87836786Y-38809714D01*
X87836786Y-38952571D01*
X88765358Y-38095429D02*
X88622500Y-38024000D01*
X88551072Y-37952571D01*
X88479643Y-37809714D01*
X88479643Y-37738286D01*
X88551072Y-37595429D01*
X88622500Y-37524000D01*
X88765358Y-37452571D01*
X89051072Y-37452571D01*
X89193929Y-37524000D01*
X89265358Y-37595429D01*
X89336786Y-37738286D01*
X89336786Y-37809714D01*
X89265358Y-37952571D01*
X89193929Y-38024000D01*
X89051072Y-38095429D01*
X88765358Y-38095429D01*
X88622500Y-38166857D01*
X88551072Y-38238286D01*
X88479643Y-38381143D01*
X88479643Y-38666857D01*
X88551072Y-38809714D01*
X88622500Y-38881143D01*
X88765358Y-38952571D01*
X89051072Y-38952571D01*
X89193929Y-38881143D01*
X89265358Y-38809714D01*
X89336786Y-38666857D01*
X89336786Y-38381143D01*
X89265358Y-38238286D01*
X89193929Y-38166857D01*
X89051072Y-38095429D01*
X90765357Y-38952571D02*
X89908214Y-38952571D01*
X90336786Y-38952571D02*
X90336786Y-37452571D01*
X90193929Y-37666857D01*
X90051071Y-37809714D01*
X89908214Y-37881143D01*
X91265357Y-37452571D02*
X92265357Y-37452571D01*
X91622500Y-38952571D01*
X93979642Y-38952571D02*
X93979642Y-37952571D01*
X93979642Y-38095429D02*
X94051070Y-38024000D01*
X94193928Y-37952571D01*
X94408213Y-37952571D01*
X94551070Y-38024000D01*
X94622499Y-38166857D01*
X94622499Y-38952571D01*
X94622499Y-38166857D02*
X94693928Y-38024000D01*
X94836785Y-37952571D01*
X95051070Y-37952571D01*
X95193928Y-38024000D01*
X95265356Y-38166857D01*
X95265356Y-38952571D01*
X95979642Y-38952571D02*
X95979642Y-37952571D01*
X95979642Y-38095429D02*
X96051070Y-38024000D01*
X96193928Y-37952571D01*
X96408213Y-37952571D01*
X96551070Y-38024000D01*
X96622499Y-38166857D01*
X96622499Y-38952571D01*
X96622499Y-38166857D02*
X96693928Y-38024000D01*
X96836785Y-37952571D01*
X97051070Y-37952571D01*
X97193928Y-38024000D01*
X97265356Y-38166857D01*
X97265356Y-38952571D01*
X121031000Y-39624000D02*
X61214000Y-39624000D01*
X121031000Y-44958000D02*
X121031000Y-36924000D01*
X61214000Y-44958000D02*
X61214000Y-36924000D01*
X61214000Y-39624000D02*
X62340504Y-39037579D01*
X61214000Y-39624000D02*
X62340504Y-40210421D01*
X121031000Y-39624000D02*
X119904496Y-39037579D01*
X121031000Y-39624000D02*
X119904496Y-40210421D01*
X130949429Y-58611287D02*
X130949429Y-59539858D01*
X130378000Y-59039858D01*
X130378000Y-59254144D01*
X130306571Y-59397001D01*
X130235143Y-59468430D01*
X130092286Y-59539858D01*
X129735143Y-59539858D01*
X129592286Y-59468430D01*
X129520857Y-59397001D01*
X129449429Y-59254144D01*
X129449429Y-58825572D01*
X129520857Y-58682715D01*
X129592286Y-58611287D01*
X129449429Y-60254143D02*
X129449429Y-60539858D01*
X129520857Y-60682715D01*
X129592286Y-60754143D01*
X129806571Y-60897001D01*
X130092286Y-60968429D01*
X130663714Y-60968429D01*
X130806571Y-60897001D01*
X130878000Y-60825572D01*
X130949429Y-60682715D01*
X130949429Y-60397001D01*
X130878000Y-60254143D01*
X130806571Y-60182715D01*
X130663714Y-60111286D01*
X130306571Y-60111286D01*
X130163714Y-60182715D01*
X130092286Y-60254143D01*
X130020857Y-60397001D01*
X130020857Y-60682715D01*
X130092286Y-60825572D01*
X130163714Y-60897001D01*
X130306571Y-60968429D01*
X129592286Y-61611286D02*
X129520857Y-61682714D01*
X129449429Y-61611286D01*
X129520857Y-61539857D01*
X129592286Y-61611286D01*
X129449429Y-61611286D01*
X130306571Y-62539858D02*
X130378000Y-62397000D01*
X130449429Y-62325572D01*
X130592286Y-62254143D01*
X130663714Y-62254143D01*
X130806571Y-62325572D01*
X130878000Y-62397000D01*
X130949429Y-62539858D01*
X130949429Y-62825572D01*
X130878000Y-62968429D01*
X130806571Y-63039858D01*
X130663714Y-63111286D01*
X130592286Y-63111286D01*
X130449429Y-63039858D01*
X130378000Y-62968429D01*
X130306571Y-62825572D01*
X130306571Y-62539858D01*
X130235143Y-62397000D01*
X130163714Y-62325572D01*
X130020857Y-62254143D01*
X129735143Y-62254143D01*
X129592286Y-62325572D01*
X129520857Y-62397000D01*
X129449429Y-62539858D01*
X129449429Y-62825572D01*
X129520857Y-62968429D01*
X129592286Y-63039858D01*
X129735143Y-63111286D01*
X130020857Y-63111286D01*
X130163714Y-63039858D01*
X130235143Y-62968429D01*
X130306571Y-62825572D01*
X130949429Y-63611286D02*
X130949429Y-64611286D01*
X129449429Y-63968429D01*
X130306571Y-65397000D02*
X130378000Y-65254142D01*
X130449429Y-65182714D01*
X130592286Y-65111285D01*
X130663714Y-65111285D01*
X130806571Y-65182714D01*
X130878000Y-65254142D01*
X130949429Y-65397000D01*
X130949429Y-65682714D01*
X130878000Y-65825571D01*
X130806571Y-65897000D01*
X130663714Y-65968428D01*
X130592286Y-65968428D01*
X130449429Y-65897000D01*
X130378000Y-65825571D01*
X130306571Y-65682714D01*
X130306571Y-65397000D01*
X130235143Y-65254142D01*
X130163714Y-65182714D01*
X130020857Y-65111285D01*
X129735143Y-65111285D01*
X129592286Y-65182714D01*
X129520857Y-65254142D01*
X129449429Y-65397000D01*
X129449429Y-65682714D01*
X129520857Y-65825571D01*
X129592286Y-65897000D01*
X129735143Y-65968428D01*
X130020857Y-65968428D01*
X130163714Y-65897000D01*
X130235143Y-65825571D01*
X130306571Y-65682714D01*
X129449429Y-67754142D02*
X130449429Y-67754142D01*
X130306571Y-67754142D02*
X130378000Y-67825570D01*
X130449429Y-67968428D01*
X130449429Y-68182713D01*
X130378000Y-68325570D01*
X130235143Y-68396999D01*
X129449429Y-68396999D01*
X130235143Y-68396999D02*
X130378000Y-68468428D01*
X130449429Y-68611285D01*
X130449429Y-68825570D01*
X130378000Y-68968428D01*
X130235143Y-69039856D01*
X129449429Y-69039856D01*
X129449429Y-69754142D02*
X130449429Y-69754142D01*
X130306571Y-69754142D02*
X130378000Y-69825570D01*
X130449429Y-69968428D01*
X130449429Y-70182713D01*
X130378000Y-70325570D01*
X130235143Y-70396999D01*
X129449429Y-70396999D01*
X130235143Y-70396999D02*
X130378000Y-70468428D01*
X130449429Y-70611285D01*
X130449429Y-70825570D01*
X130378000Y-70968428D01*
X130235143Y-71039856D01*
X129449429Y-71039856D01*
X128778000Y-44958000D02*
X128778000Y-84836000D01*
X121031000Y-44958000D02*
X131478000Y-44958000D01*
X121031000Y-84836000D02*
X131478000Y-84836000D01*
X128778000Y-84836000D02*
X128191579Y-83709496D01*
X128778000Y-84836000D02*
X129364421Y-83709496D01*
X128778000Y-44958000D02*
X128191579Y-46084504D01*
X128778000Y-44958000D02*
X129364421Y-46084504D01*
D11*
X88138000Y-82931000D02*
X88138000Y-83439000D01*
X87884000Y-82804000D02*
X87884000Y-83312000D01*
X88138000Y-82677000D02*
X88138000Y-82931000D01*
X87884000Y-63754000D02*
X87884000Y-82804000D01*
X85369400Y-59563000D02*
X85369400Y-51816000D01*
X88138000Y-63500000D02*
X86614000Y-63500000D01*
X88138000Y-64643000D02*
X88138000Y-63500000D01*
X88138000Y-82677000D02*
X88138000Y-64643000D01*
D13*
X96228428Y-80603286D02*
X96228428Y-79853286D01*
X96514143Y-79853286D01*
X96585571Y-79889000D01*
X96621286Y-79924714D01*
X96657000Y-79996143D01*
X96657000Y-80103286D01*
X96621286Y-80174714D01*
X96585571Y-80210429D01*
X96514143Y-80246143D01*
X96228428Y-80246143D01*
X96907000Y-79853286D02*
X97085571Y-80603286D01*
X97228428Y-80067571D01*
X97371286Y-80603286D01*
X97549857Y-79853286D01*
X97835571Y-80603286D02*
X97835571Y-79853286D01*
X98085571Y-80389000D01*
X98335571Y-79853286D01*
X98335571Y-80603286D01*
X100075952Y-80208429D02*
X99314047Y-80208429D01*
X94995952Y-80208429D02*
X94234047Y-80208429D01*
X94614999Y-80589381D02*
X94614999Y-79827476D01*
X111085381Y-77612571D02*
X112085381Y-77279238D01*
X111085381Y-76945904D01*
X112085381Y-76612571D02*
X111085381Y-76612571D01*
X111799667Y-76279237D01*
X111085381Y-75945904D01*
X112085381Y-75945904D01*
X111085381Y-75279238D02*
X111085381Y-75088761D01*
X111133000Y-74993523D01*
X111228238Y-74898285D01*
X111418714Y-74850666D01*
X111752048Y-74850666D01*
X111942524Y-74898285D01*
X112037762Y-74993523D01*
X112085381Y-75088761D01*
X112085381Y-75279238D01*
X112037762Y-75374476D01*
X111942524Y-75469714D01*
X111752048Y-75517333D01*
X111418714Y-75517333D01*
X111228238Y-75469714D01*
X111133000Y-75374476D01*
X111085381Y-75279238D01*
X111085381Y-74564952D02*
X111085381Y-73993523D01*
X112085381Y-74279238D02*
X111085381Y-74279238D01*
X111704429Y-73660190D02*
X111704429Y-72898285D01*
X112085381Y-73279237D02*
X111323476Y-73279237D01*
X111085381Y-83200571D02*
X112085381Y-82867238D01*
X111085381Y-82533904D01*
X112085381Y-82200571D02*
X111085381Y-82200571D01*
X111799667Y-81867237D01*
X111085381Y-81533904D01*
X112085381Y-81533904D01*
X111085381Y-80867238D02*
X111085381Y-80676761D01*
X111133000Y-80581523D01*
X111228238Y-80486285D01*
X111418714Y-80438666D01*
X111752048Y-80438666D01*
X111942524Y-80486285D01*
X112037762Y-80581523D01*
X112085381Y-80676761D01*
X112085381Y-80867238D01*
X112037762Y-80962476D01*
X111942524Y-81057714D01*
X111752048Y-81105333D01*
X111418714Y-81105333D01*
X111228238Y-81057714D01*
X111133000Y-80962476D01*
X111085381Y-80867238D01*
X111085381Y-80152952D02*
X111085381Y-79581523D01*
X112085381Y-79867238D02*
X111085381Y-79867238D01*
X111704429Y-79248190D02*
X111704429Y-78486285D01*
X111085381Y-63094905D02*
X112085381Y-62761572D01*
X111085381Y-62428238D01*
X111561571Y-61761571D02*
X111609190Y-61618714D01*
X111656810Y-61571095D01*
X111752048Y-61523476D01*
X111894905Y-61523476D01*
X111990143Y-61571095D01*
X112037762Y-61618714D01*
X112085381Y-61713952D01*
X112085381Y-62094905D01*
X111085381Y-62094905D01*
X111085381Y-61761571D01*
X111133000Y-61666333D01*
X111180619Y-61618714D01*
X111275857Y-61571095D01*
X111371095Y-61571095D01*
X111466333Y-61618714D01*
X111513952Y-61666333D01*
X111561571Y-61761571D01*
X111561571Y-62094905D01*
X111799667Y-61142524D02*
X111799667Y-60666333D01*
X112085381Y-61237762D02*
X111085381Y-60904429D01*
X112085381Y-60571095D01*
X111085381Y-60380619D02*
X111085381Y-59809190D01*
X112085381Y-60094905D02*
X111085381Y-60094905D01*
X111704429Y-59475857D02*
X111704429Y-58713952D01*
X111212381Y-68936905D02*
X112212381Y-68603572D01*
X111212381Y-68270238D01*
X111688571Y-67603571D02*
X111736190Y-67460714D01*
X111783810Y-67413095D01*
X111879048Y-67365476D01*
X112021905Y-67365476D01*
X112117143Y-67413095D01*
X112164762Y-67460714D01*
X112212381Y-67555952D01*
X112212381Y-67936905D01*
X111212381Y-67936905D01*
X111212381Y-67603571D01*
X111260000Y-67508333D01*
X111307619Y-67460714D01*
X111402857Y-67413095D01*
X111498095Y-67413095D01*
X111593333Y-67460714D01*
X111640952Y-67508333D01*
X111688571Y-67603571D01*
X111688571Y-67936905D01*
X111926667Y-66984524D02*
X111926667Y-66508333D01*
X112212381Y-67079762D02*
X111212381Y-66746429D01*
X112212381Y-66413095D01*
X111212381Y-66222619D02*
X111212381Y-65651190D01*
X112212381Y-65936905D02*
X111212381Y-65936905D01*
X111831429Y-65317857D02*
X111831429Y-64555952D01*
X112212381Y-64936904D02*
X111450476Y-64936904D01*
D14*
X78727400Y-71954200D02*
X78727400Y-71454200D01*
X77787400Y-71454200D02*
X77787400Y-71954200D01*
X75180000Y-50965000D02*
X74680000Y-50965000D01*
X74680000Y-51905000D02*
X75180000Y-51905000D01*
X71336000Y-72259000D02*
X71336000Y-71759000D01*
X70396000Y-71759000D02*
X70396000Y-72259000D01*
X83760500Y-55080000D02*
X84260500Y-55080000D01*
X84260500Y-54140000D02*
X83760500Y-54140000D01*
X72013000Y-51905000D02*
X72513000Y-51905000D01*
X72513000Y-50965000D02*
X72013000Y-50965000D01*
X101184000Y-68865000D02*
X101184000Y-69565000D01*
X99984000Y-69565000D02*
X99984000Y-68865000D01*
X96939000Y-63123000D02*
X96939000Y-63623000D01*
X97879000Y-63623000D02*
X97879000Y-63123000D01*
D15*
X116673000Y-71104000D02*
G75*
G03X116673000Y-71104000I-2500000J0D01*
G01*
D14*
X101184000Y-76358000D02*
X101184000Y-77058000D01*
X99984000Y-77058000D02*
X99984000Y-76358000D01*
X111849000Y-55622000D02*
X111849000Y-55122000D01*
X110909000Y-55122000D02*
X110909000Y-55622000D01*
X100063200Y-48187800D02*
X100063200Y-48687800D01*
X101003200Y-48687800D02*
X101003200Y-48187800D01*
X84353500Y-71941500D02*
X84353500Y-71441500D01*
X83413500Y-71441500D02*
X83413500Y-71941500D01*
X83299200Y-65129600D02*
X83299200Y-65629600D01*
X84239200Y-65629600D02*
X84239200Y-65129600D01*
X92240000Y-72013000D02*
X92240000Y-72513000D01*
X93180000Y-72513000D02*
X93180000Y-72013000D01*
X89023000Y-52362000D02*
X88523000Y-52362000D01*
X88523000Y-53302000D02*
X89023000Y-53302000D01*
X73287000Y-60228000D02*
X74287000Y-60228000D01*
X74287000Y-60228000D02*
X74287000Y-58128000D01*
X73287000Y-60228000D02*
X73287000Y-58128000D01*
X101719000Y-59279000D02*
X100719000Y-59279000D01*
X100719000Y-59279000D02*
X100719000Y-61379000D01*
X101719000Y-59279000D02*
X101719000Y-61379000D01*
X70620000Y-60228000D02*
X71620000Y-60228000D01*
X71620000Y-60228000D02*
X71620000Y-58128000D01*
X70620000Y-60228000D02*
X70620000Y-58128000D01*
X91317600Y-46321600D02*
X91317600Y-45321600D01*
X91317600Y-45321600D02*
X89217600Y-45321600D01*
X91317600Y-46321600D02*
X89217600Y-46321600D01*
X74452000Y-73855200D02*
X74452000Y-72855200D01*
X74452000Y-72855200D02*
X72352000Y-72855200D01*
X74452000Y-73855200D02*
X72352000Y-73855200D01*
X92218000Y-65115000D02*
X94218000Y-65115000D01*
X94218000Y-65115000D02*
X94218000Y-61215000D01*
X92218000Y-65115000D02*
X92218000Y-61215000D01*
D13*
X68402200Y-45123100D02*
X78308200Y-45123100D01*
D16*
X112713000Y-69008000D02*
X112713000Y-59008000D01*
X112713000Y-59008000D02*
X121013000Y-59008000D01*
X121013000Y-59008000D02*
X121013000Y-69008000D01*
X121013000Y-69008000D02*
X112713000Y-69008000D01*
D17*
X115353000Y-67808000D02*
G75*
G03X115353000Y-67808000I-140000J0D01*
G01*
D16*
X112586000Y-83232000D02*
X112586000Y-73232000D01*
X112586000Y-73232000D02*
X120886000Y-73232000D01*
X120886000Y-73232000D02*
X120886000Y-83232000D01*
X120886000Y-83232000D02*
X112586000Y-83232000D01*
D17*
X115226000Y-82032000D02*
G75*
G03X115226000Y-82032000I-140000J0D01*
G01*
D14*
X101025000Y-84007000D02*
X101025000Y-81347000D01*
X95885000Y-84007000D02*
X101025000Y-84007000D01*
X95885000Y-81347000D02*
X101025000Y-81347000D01*
X95885000Y-84007000D02*
X95885000Y-81347000D01*
X94615000Y-84007000D02*
X93285000Y-84007000D01*
X93285000Y-84007000D02*
X93285000Y-82677000D01*
X67116000Y-76394000D02*
X61916000Y-76394000D01*
X67116000Y-81534000D02*
X67116000Y-76394000D01*
X61916000Y-84134000D02*
X61916000Y-76394000D01*
X67116000Y-81534000D02*
X64516000Y-81534000D01*
X64516000Y-81534000D02*
X64516000Y-84134000D01*
X64516000Y-84134000D02*
X61916000Y-84134000D01*
X67116000Y-82804000D02*
X67116000Y-84134000D01*
X67116000Y-84134000D02*
X65786000Y-84134000D01*
X77896000Y-70112000D02*
X77896000Y-71112000D01*
X76536000Y-71112000D02*
X76536000Y-70112000D01*
X94830000Y-59174000D02*
X94830000Y-58174000D01*
X93130000Y-58174000D02*
X93130000Y-59174000D01*
D13*
X100141229Y-50990000D02*
G75*
G03X100141229Y-50990000I-5272229J0D01*
G01*
D14*
X86658000Y-56626000D02*
X86658000Y-54626000D01*
X89618000Y-54626000D02*
X89618000Y-56626000D01*
X74317000Y-56384000D02*
X74317000Y-55884000D01*
X73257000Y-55884000D02*
X73257000Y-56384000D01*
X99546000Y-62488000D02*
X99546000Y-62988000D01*
X100606000Y-62988000D02*
X100606000Y-62488000D01*
X71650000Y-56384000D02*
X71650000Y-55884000D01*
X70590000Y-55884000D02*
X70590000Y-56384000D01*
X89031000Y-47799400D02*
X89531000Y-47799400D01*
X89531000Y-46739400D02*
X89031000Y-46739400D01*
X99209000Y-59432000D02*
X99209000Y-58932000D01*
X98149000Y-58932000D02*
X98149000Y-59432000D01*
X97032000Y-61871000D02*
X97532000Y-61871000D01*
X97532000Y-60811000D02*
X97032000Y-60811000D01*
X98784000Y-72267000D02*
X98784000Y-72767000D01*
X99844000Y-72767000D02*
X99844000Y-72267000D01*
X95635000Y-73682000D02*
X96135000Y-73682000D01*
X96135000Y-72622000D02*
X95635000Y-72622000D01*
X72419400Y-72691400D02*
X72919400Y-72691400D01*
X72919400Y-71631400D02*
X72419400Y-71631400D01*
X99818000Y-73765000D02*
X99318000Y-73765000D01*
X99318000Y-74825000D02*
X99818000Y-74825000D01*
X99500500Y-78781500D02*
X99000500Y-78781500D01*
X99000500Y-79841500D02*
X99500500Y-79841500D01*
X85602000Y-84223000D02*
X86102000Y-84223000D01*
X86102000Y-83163000D02*
X85602000Y-83163000D01*
D16*
X78682000Y-51263000D02*
X78682000Y-47543000D01*
X85402000Y-51263000D02*
X85402000Y-47543000D01*
X78682000Y-51263000D02*
X78942000Y-51263000D01*
X85152000Y-51263000D02*
X85402000Y-51263000D01*
X85402000Y-47543000D02*
X83912000Y-47543000D01*
X80282000Y-47543000D02*
X78682000Y-47543000D01*
D11*
X79852000Y-53776000D02*
G75*
G03X79852000Y-53776000I-100000J0D01*
G01*
D13*
X104224000Y-48987000D02*
X104224000Y-49037000D01*
X108374000Y-48987000D02*
X108374000Y-49132000D01*
X108374000Y-54137000D02*
X108374000Y-53992000D01*
X104224000Y-54137000D02*
X104224000Y-53992000D01*
X104224000Y-48987000D02*
X108374000Y-48987000D01*
X104224000Y-54137000D02*
X108374000Y-54137000D01*
X104224000Y-49037000D02*
X102824000Y-49037000D01*
D18*
X97967800Y-58953400D02*
X97967800Y-58394600D01*
X96875600Y-57886600D02*
X96164400Y-57886600D01*
X95072200Y-58394600D02*
X95072200Y-58953400D01*
D13*
X86190000Y-64735000D02*
X86190000Y-64785000D01*
X90340000Y-64735000D02*
X90340000Y-64880000D01*
X90340000Y-69885000D02*
X90340000Y-69740000D01*
X86190000Y-69885000D02*
X86190000Y-69740000D01*
X86190000Y-64735000D02*
X90340000Y-64735000D01*
X86190000Y-69885000D02*
X90340000Y-69885000D01*
X86190000Y-64785000D02*
X84790000Y-64785000D01*
X86190000Y-71212000D02*
X86190000Y-71262000D01*
X90340000Y-71212000D02*
X90340000Y-71357000D01*
X90340000Y-76362000D02*
X90340000Y-76217000D01*
X86190000Y-76362000D02*
X86190000Y-76217000D01*
X86190000Y-71212000D02*
X90340000Y-71212000D01*
X86190000Y-76362000D02*
X90340000Y-76362000D01*
X86190000Y-71262000D02*
X84790000Y-71262000D01*
X86190000Y-77435000D02*
X86190000Y-77485000D01*
X90340000Y-77435000D02*
X90340000Y-77580000D01*
X90340000Y-82585000D02*
X90340000Y-82440000D01*
X86190000Y-82585000D02*
X86190000Y-82440000D01*
X86190000Y-77435000D02*
X90340000Y-77435000D01*
X86190000Y-82585000D02*
X90340000Y-82585000D01*
X86190000Y-77485000D02*
X84790000Y-77485000D01*
X91694000Y-58039000D02*
X80264000Y-58039000D01*
X80264000Y-64135000D02*
X91694000Y-64135000D01*
X80269000Y-64135000D02*
X80269000Y-58039000D01*
X91689000Y-64135000D02*
X91689000Y-58039000D01*
D14*
X80839000Y-58487000D02*
X80839000Y-61147000D01*
X88519000Y-58487000D02*
X80839000Y-58487000D01*
X88519000Y-61147000D02*
X80839000Y-61147000D01*
X88519000Y-58487000D02*
X88519000Y-61147000D01*
X89789000Y-58487000D02*
X91119000Y-58487000D01*
X91119000Y-58487000D02*
X91119000Y-59817000D01*
X77212000Y-60998000D02*
X76712000Y-60998000D01*
X76712000Y-61938000D02*
X77212000Y-61938000D01*
X76712000Y-63335000D02*
X77212000Y-63335000D01*
X77212000Y-62395000D02*
X76712000Y-62395000D01*
X78591000Y-61980000D02*
X78591000Y-62480000D01*
X79651000Y-62480000D02*
X79651000Y-61980000D01*
X78878000Y-57445000D02*
X77078000Y-57445000D01*
X77078000Y-60665000D02*
X79528000Y-60665000D01*
X74807000Y-66764000D02*
X75307000Y-66764000D01*
X75307000Y-65824000D02*
X74807000Y-65824000D01*
X94527000Y-62492000D02*
X94527000Y-63492000D01*
X96227000Y-63492000D02*
X96227000Y-62492000D01*
X108462000Y-48349000D02*
X108962000Y-48349000D01*
X108962000Y-47409000D02*
X108462000Y-47409000D01*
X71714000Y-82500000D02*
X71714000Y-82600000D01*
X76114000Y-81000000D02*
X71714000Y-81000000D01*
X71714000Y-84100000D02*
X76114000Y-84100000D01*
X76114000Y-82500000D02*
X76114000Y-82600000D01*
X73892000Y-53217000D02*
X73892000Y-53717000D01*
X74952000Y-53717000D02*
X74952000Y-53217000D01*
X72368000Y-53217000D02*
X72368000Y-53717000D01*
X73428000Y-53717000D02*
X73428000Y-53217000D01*
X112246000Y-50042000D02*
X112246000Y-50542000D01*
X113306000Y-50542000D02*
X113306000Y-50042000D01*
X111528000Y-50542000D02*
X111528000Y-50042000D01*
X110468000Y-50042000D02*
X110468000Y-50542000D01*
X111401000Y-52828000D02*
X111401000Y-52328000D01*
X110341000Y-52328000D02*
X110341000Y-52828000D01*
X110639000Y-55622000D02*
X110639000Y-55122000D01*
X109579000Y-55122000D02*
X109579000Y-55622000D01*
X103755000Y-47476000D02*
X103255000Y-47476000D01*
X103255000Y-48536000D02*
X103755000Y-48536000D01*
X108055000Y-55122000D02*
X108055000Y-55622000D01*
X109115000Y-55622000D02*
X109115000Y-55122000D01*
X81411000Y-57807000D02*
X81911000Y-57807000D01*
X81911000Y-56747000D02*
X81411000Y-56747000D01*
X81911000Y-55223000D02*
X81411000Y-55223000D01*
X81411000Y-56283000D02*
X81911000Y-56283000D01*
X102069000Y-52570000D02*
X102069000Y-51570000D01*
X100369000Y-51570000D02*
X100369000Y-52570000D01*
X102655000Y-55888000D02*
X102655000Y-56888000D01*
X104355000Y-56888000D02*
X104355000Y-55888000D01*
X98709000Y-75254000D02*
X98709000Y-75454000D01*
X98709000Y-78112800D02*
X99109000Y-78112800D01*
X98709000Y-78212800D02*
X98709000Y-78112800D01*
X96109000Y-78212800D02*
X98709000Y-78212800D01*
X98709000Y-75254000D02*
X96109000Y-75254000D01*
X98709000Y-68142000D02*
X98709000Y-68342000D01*
X98709000Y-71000800D02*
X99109000Y-71000800D01*
X98709000Y-71100800D02*
X98709000Y-71000800D01*
X96109000Y-71100800D02*
X98709000Y-71100800D01*
X98709000Y-68142000D02*
X96109000Y-68142000D01*
X117987000Y-53302000D02*
X118487000Y-53302000D01*
X118487000Y-52362000D02*
X117987000Y-52362000D01*
D13*
X78614543Y-73902866D02*
X78662162Y-73950485D01*
X78709781Y-74093342D01*
X78709781Y-74188580D01*
X78662162Y-74331438D01*
X78566924Y-74426676D01*
X78471686Y-74474295D01*
X78281210Y-74521914D01*
X78138352Y-74521914D01*
X77947876Y-74474295D01*
X77852638Y-74426676D01*
X77757400Y-74331438D01*
X77709781Y-74188580D01*
X77709781Y-74093342D01*
X77757400Y-73950485D01*
X77805019Y-73902866D01*
X77709781Y-73569533D02*
X77709781Y-72902866D01*
X78709781Y-73331438D01*
X76922334Y-51792143D02*
X76874715Y-51839762D01*
X76731858Y-51887381D01*
X76636620Y-51887381D01*
X76493762Y-51839762D01*
X76398524Y-51744524D01*
X76350905Y-51649286D01*
X76303286Y-51458810D01*
X76303286Y-51315952D01*
X76350905Y-51125476D01*
X76398524Y-51030238D01*
X76493762Y-50935000D01*
X76636620Y-50887381D01*
X76731858Y-50887381D01*
X76874715Y-50935000D01*
X76922334Y-50982619D01*
X77398524Y-51887381D02*
X77589000Y-51887381D01*
X77684239Y-51839762D01*
X77731858Y-51792143D01*
X77827096Y-51649286D01*
X77874715Y-51458810D01*
X77874715Y-51077857D01*
X77827096Y-50982619D01*
X77779477Y-50935000D01*
X77684239Y-50887381D01*
X77493762Y-50887381D01*
X77398524Y-50935000D01*
X77350905Y-50982619D01*
X77303286Y-51077857D01*
X77303286Y-51315952D01*
X77350905Y-51411190D01*
X77398524Y-51458810D01*
X77493762Y-51506429D01*
X77684239Y-51506429D01*
X77779477Y-51458810D01*
X77827096Y-51411190D01*
X77874715Y-51315952D01*
X71223143Y-75064857D02*
X71270762Y-75112476D01*
X71318381Y-75255333D01*
X71318381Y-75350571D01*
X71270762Y-75493429D01*
X71175524Y-75588667D01*
X71080286Y-75636286D01*
X70889810Y-75683905D01*
X70746952Y-75683905D01*
X70556476Y-75636286D01*
X70461238Y-75588667D01*
X70366000Y-75493429D01*
X70318381Y-75350571D01*
X70318381Y-75255333D01*
X70366000Y-75112476D01*
X70413619Y-75064857D01*
X71318381Y-74112476D02*
X71318381Y-74683905D01*
X71318381Y-74398191D02*
X70318381Y-74398191D01*
X70461238Y-74493429D01*
X70556476Y-74588667D01*
X70604095Y-74683905D01*
X70318381Y-73493429D02*
X70318381Y-73398190D01*
X70366000Y-73302952D01*
X70413619Y-73255333D01*
X70508857Y-73207714D01*
X70699333Y-73160095D01*
X70937429Y-73160095D01*
X71127905Y-73207714D01*
X71223143Y-73255333D01*
X71270762Y-73302952D01*
X71318381Y-73398190D01*
X71318381Y-73493429D01*
X71270762Y-73588667D01*
X71223143Y-73636286D01*
X71127905Y-73683905D01*
X70937429Y-73731524D01*
X70699333Y-73731524D01*
X70508857Y-73683905D01*
X70413619Y-73636286D01*
X70366000Y-73588667D01*
X70318381Y-73493429D01*
X81369357Y-54750857D02*
X81333643Y-54786571D01*
X81226500Y-54822286D01*
X81155071Y-54822286D01*
X81047928Y-54786571D01*
X80976500Y-54715143D01*
X80940785Y-54643714D01*
X80905071Y-54500857D01*
X80905071Y-54393714D01*
X80940785Y-54250857D01*
X80976500Y-54179429D01*
X81047928Y-54108000D01*
X81155071Y-54072286D01*
X81226500Y-54072286D01*
X81333643Y-54108000D01*
X81369357Y-54143714D01*
X82083643Y-54822286D02*
X81655071Y-54822286D01*
X81869357Y-54822286D02*
X81869357Y-54072286D01*
X81797928Y-54179429D01*
X81726500Y-54250857D01*
X81655071Y-54286571D01*
X82369357Y-54143714D02*
X82405071Y-54108000D01*
X82476500Y-54072286D01*
X82655071Y-54072286D01*
X82726500Y-54108000D01*
X82762214Y-54143714D01*
X82797929Y-54215143D01*
X82797929Y-54286571D01*
X82762214Y-54393714D01*
X82333643Y-54822286D01*
X82797929Y-54822286D01*
X69080143Y-51665143D02*
X69032524Y-51712762D01*
X68889667Y-51760381D01*
X68794429Y-51760381D01*
X68651571Y-51712762D01*
X68556333Y-51617524D01*
X68508714Y-51522286D01*
X68461095Y-51331810D01*
X68461095Y-51188952D01*
X68508714Y-50998476D01*
X68556333Y-50903238D01*
X68651571Y-50808000D01*
X68794429Y-50760381D01*
X68889667Y-50760381D01*
X69032524Y-50808000D01*
X69080143Y-50855619D01*
X70032524Y-51760381D02*
X69461095Y-51760381D01*
X69746809Y-51760381D02*
X69746809Y-50760381D01*
X69651571Y-50903238D01*
X69556333Y-50998476D01*
X69461095Y-51046095D01*
X70365857Y-50760381D02*
X70984905Y-50760381D01*
X70651571Y-51141333D01*
X70794429Y-51141333D01*
X70889667Y-51188952D01*
X70937286Y-51236571D01*
X70984905Y-51331810D01*
X70984905Y-51569905D01*
X70937286Y-51665143D01*
X70889667Y-51712762D01*
X70794429Y-51760381D01*
X70508714Y-51760381D01*
X70413476Y-51712762D01*
X70365857Y-51665143D01*
X101068143Y-72651857D02*
X101115762Y-72699476D01*
X101163381Y-72842333D01*
X101163381Y-72937571D01*
X101115762Y-73080429D01*
X101020524Y-73175667D01*
X100925286Y-73223286D01*
X100734810Y-73270905D01*
X100591952Y-73270905D01*
X100401476Y-73223286D01*
X100306238Y-73175667D01*
X100211000Y-73080429D01*
X100163381Y-72937571D01*
X100163381Y-72842333D01*
X100211000Y-72699476D01*
X100258619Y-72651857D01*
X101163381Y-71699476D02*
X101163381Y-72270905D01*
X101163381Y-71985191D02*
X100163381Y-71985191D01*
X100306238Y-72080429D01*
X100401476Y-72175667D01*
X100449095Y-72270905D01*
X100163381Y-71366143D02*
X100163381Y-70699476D01*
X101163381Y-71128048D01*
X99036143Y-64142857D02*
X99083762Y-64190476D01*
X99131381Y-64333333D01*
X99131381Y-64428571D01*
X99083762Y-64571429D01*
X98988524Y-64666667D01*
X98893286Y-64714286D01*
X98702810Y-64761905D01*
X98559952Y-64761905D01*
X98369476Y-64714286D01*
X98274238Y-64666667D01*
X98179000Y-64571429D01*
X98131381Y-64428571D01*
X98131381Y-64333333D01*
X98179000Y-64190476D01*
X98226619Y-64142857D01*
X99131381Y-63190476D02*
X99131381Y-63761905D01*
X99131381Y-63476191D02*
X98131381Y-63476191D01*
X98274238Y-63571429D01*
X98369476Y-63666667D01*
X98417095Y-63761905D01*
X98559952Y-62619048D02*
X98512333Y-62714286D01*
X98464714Y-62761905D01*
X98369476Y-62809524D01*
X98321857Y-62809524D01*
X98226619Y-62761905D01*
X98179000Y-62714286D01*
X98131381Y-62619048D01*
X98131381Y-62428571D01*
X98179000Y-62333333D01*
X98226619Y-62285714D01*
X98321857Y-62238095D01*
X98369476Y-62238095D01*
X98464714Y-62285714D01*
X98512333Y-62333333D01*
X98559952Y-62428571D01*
X98559952Y-62619048D01*
X98607571Y-62714286D01*
X98655190Y-62761905D01*
X98750429Y-62809524D01*
X98940905Y-62809524D01*
X99036143Y-62761905D01*
X99083762Y-62714286D01*
X99131381Y-62619048D01*
X99131381Y-62428571D01*
X99083762Y-62333333D01*
X99036143Y-62285714D01*
X98940905Y-62238095D01*
X98750429Y-62238095D01*
X98655190Y-62285714D01*
X98607571Y-62333333D01*
X98559952Y-62428571D01*
X117832143Y-71762857D02*
X117879762Y-71810476D01*
X117927381Y-71953333D01*
X117927381Y-72048571D01*
X117879762Y-72191429D01*
X117784524Y-72286667D01*
X117689286Y-72334286D01*
X117498810Y-72381905D01*
X117355952Y-72381905D01*
X117165476Y-72334286D01*
X117070238Y-72286667D01*
X116975000Y-72191429D01*
X116927381Y-72048571D01*
X116927381Y-71953333D01*
X116975000Y-71810476D01*
X117022619Y-71762857D01*
X117022619Y-71381905D02*
X116975000Y-71334286D01*
X116927381Y-71239048D01*
X116927381Y-71000952D01*
X116975000Y-70905714D01*
X117022619Y-70858095D01*
X117117857Y-70810476D01*
X117213095Y-70810476D01*
X117355952Y-70858095D01*
X117927381Y-71429524D01*
X117927381Y-70810476D01*
X116927381Y-70477143D02*
X116927381Y-69858095D01*
X117308333Y-70191429D01*
X117308333Y-70048571D01*
X117355952Y-69953333D01*
X117403571Y-69905714D01*
X117498810Y-69858095D01*
X117736905Y-69858095D01*
X117832143Y-69905714D01*
X117879762Y-69953333D01*
X117927381Y-70048571D01*
X117927381Y-70334286D01*
X117879762Y-70429524D01*
X117832143Y-70477143D01*
X102465143Y-77223857D02*
X102512762Y-77271476D01*
X102560381Y-77414333D01*
X102560381Y-77509571D01*
X102512762Y-77652429D01*
X102417524Y-77747667D01*
X102322286Y-77795286D01*
X102131810Y-77842905D01*
X101988952Y-77842905D01*
X101798476Y-77795286D01*
X101703238Y-77747667D01*
X101608000Y-77652429D01*
X101560381Y-77509571D01*
X101560381Y-77414333D01*
X101608000Y-77271476D01*
X101655619Y-77223857D01*
X101655619Y-76842905D02*
X101608000Y-76795286D01*
X101560381Y-76700048D01*
X101560381Y-76461952D01*
X101608000Y-76366714D01*
X101655619Y-76319095D01*
X101750857Y-76271476D01*
X101846095Y-76271476D01*
X101988952Y-76319095D01*
X102560381Y-76890524D01*
X102560381Y-76271476D01*
X101893714Y-75414333D02*
X102560381Y-75414333D01*
X101512762Y-75652429D02*
X102227048Y-75890524D01*
X102227048Y-75271476D01*
X113006143Y-56141857D02*
X113053762Y-56189476D01*
X113101381Y-56332333D01*
X113101381Y-56427571D01*
X113053762Y-56570429D01*
X112958524Y-56665667D01*
X112863286Y-56713286D01*
X112672810Y-56760905D01*
X112529952Y-56760905D01*
X112339476Y-56713286D01*
X112244238Y-56665667D01*
X112149000Y-56570429D01*
X112101381Y-56427571D01*
X112101381Y-56332333D01*
X112149000Y-56189476D01*
X112196619Y-56141857D01*
X112101381Y-55808524D02*
X112101381Y-55189476D01*
X112482333Y-55522810D01*
X112482333Y-55379952D01*
X112529952Y-55284714D01*
X112577571Y-55237095D01*
X112672810Y-55189476D01*
X112910905Y-55189476D01*
X113006143Y-55237095D01*
X113053762Y-55284714D01*
X113101381Y-55379952D01*
X113101381Y-55665667D01*
X113053762Y-55760905D01*
X113006143Y-55808524D01*
X112196619Y-54808524D02*
X112149000Y-54760905D01*
X112101381Y-54665667D01*
X112101381Y-54427571D01*
X112149000Y-54332333D01*
X112196619Y-54284714D01*
X112291857Y-54237095D01*
X112387095Y-54237095D01*
X112529952Y-54284714D01*
X113101381Y-54856143D01*
X113101381Y-54237095D01*
X100890343Y-46540657D02*
X100937962Y-46588276D01*
X100985581Y-46731133D01*
X100985581Y-46826371D01*
X100937962Y-46969229D01*
X100842724Y-47064467D01*
X100747486Y-47112086D01*
X100557010Y-47159705D01*
X100414152Y-47159705D01*
X100223676Y-47112086D01*
X100128438Y-47064467D01*
X100033200Y-46969229D01*
X99985581Y-46826371D01*
X99985581Y-46731133D01*
X100033200Y-46588276D01*
X100080819Y-46540657D01*
X99985581Y-46207324D02*
X99985581Y-45588276D01*
X100366533Y-45921610D01*
X100366533Y-45778752D01*
X100414152Y-45683514D01*
X100461771Y-45635895D01*
X100557010Y-45588276D01*
X100795105Y-45588276D01*
X100890343Y-45635895D01*
X100937962Y-45683514D01*
X100985581Y-45778752D01*
X100985581Y-46064467D01*
X100937962Y-46159705D01*
X100890343Y-46207324D01*
X99985581Y-45254943D02*
X99985581Y-44635895D01*
X100366533Y-44969229D01*
X100366533Y-44826371D01*
X100414152Y-44731133D01*
X100461771Y-44683514D01*
X100557010Y-44635895D01*
X100795105Y-44635895D01*
X100890343Y-44683514D01*
X100937962Y-44731133D01*
X100985581Y-44826371D01*
X100985581Y-45112086D01*
X100937962Y-45207324D01*
X100890343Y-45254943D01*
X84240643Y-74874357D02*
X84288262Y-74921976D01*
X84335881Y-75064833D01*
X84335881Y-75160071D01*
X84288262Y-75302929D01*
X84193024Y-75398167D01*
X84097786Y-75445786D01*
X83907310Y-75493405D01*
X83764452Y-75493405D01*
X83573976Y-75445786D01*
X83478738Y-75398167D01*
X83383500Y-75302929D01*
X83335881Y-75160071D01*
X83335881Y-75064833D01*
X83383500Y-74921976D01*
X83431119Y-74874357D01*
X83335881Y-74541024D02*
X83335881Y-73921976D01*
X83716833Y-74255310D01*
X83716833Y-74112452D01*
X83764452Y-74017214D01*
X83812071Y-73969595D01*
X83907310Y-73921976D01*
X84145405Y-73921976D01*
X84240643Y-73969595D01*
X84288262Y-74017214D01*
X84335881Y-74112452D01*
X84335881Y-74398167D01*
X84288262Y-74493405D01*
X84240643Y-74541024D01*
X83335881Y-73017214D02*
X83335881Y-73493405D01*
X83812071Y-73541024D01*
X83764452Y-73493405D01*
X83716833Y-73398167D01*
X83716833Y-73160071D01*
X83764452Y-73064833D01*
X83812071Y-73017214D01*
X83907310Y-72969595D01*
X84145405Y-72969595D01*
X84240643Y-73017214D01*
X84288262Y-73064833D01*
X84335881Y-73160071D01*
X84335881Y-73398167D01*
X84288262Y-73493405D01*
X84240643Y-73541024D01*
X84189843Y-68562457D02*
X84237462Y-68610076D01*
X84285081Y-68752933D01*
X84285081Y-68848171D01*
X84237462Y-68991029D01*
X84142224Y-69086267D01*
X84046986Y-69133886D01*
X83856510Y-69181505D01*
X83713652Y-69181505D01*
X83523176Y-69133886D01*
X83427938Y-69086267D01*
X83332700Y-68991029D01*
X83285081Y-68848171D01*
X83285081Y-68752933D01*
X83332700Y-68610076D01*
X83380319Y-68562457D01*
X83285081Y-68229124D02*
X83285081Y-67610076D01*
X83666033Y-67943410D01*
X83666033Y-67800552D01*
X83713652Y-67705314D01*
X83761271Y-67657695D01*
X83856510Y-67610076D01*
X84094605Y-67610076D01*
X84189843Y-67657695D01*
X84237462Y-67705314D01*
X84285081Y-67800552D01*
X84285081Y-68086267D01*
X84237462Y-68181505D01*
X84189843Y-68229124D01*
X83285081Y-67276743D02*
X83285081Y-66610076D01*
X84285081Y-67038648D01*
X94337143Y-73286857D02*
X94384762Y-73334476D01*
X94432381Y-73477333D01*
X94432381Y-73572571D01*
X94384762Y-73715429D01*
X94289524Y-73810667D01*
X94194286Y-73858286D01*
X94003810Y-73905905D01*
X93860952Y-73905905D01*
X93670476Y-73858286D01*
X93575238Y-73810667D01*
X93480000Y-73715429D01*
X93432381Y-73572571D01*
X93432381Y-73477333D01*
X93480000Y-73334476D01*
X93527619Y-73286857D01*
X93432381Y-72953524D02*
X93432381Y-72334476D01*
X93813333Y-72667810D01*
X93813333Y-72524952D01*
X93860952Y-72429714D01*
X93908571Y-72382095D01*
X94003810Y-72334476D01*
X94241905Y-72334476D01*
X94337143Y-72382095D01*
X94384762Y-72429714D01*
X94432381Y-72524952D01*
X94432381Y-72810667D01*
X94384762Y-72905905D01*
X94337143Y-72953524D01*
X93860952Y-71763048D02*
X93813333Y-71858286D01*
X93765714Y-71905905D01*
X93670476Y-71953524D01*
X93622857Y-71953524D01*
X93527619Y-71905905D01*
X93480000Y-71858286D01*
X93432381Y-71763048D01*
X93432381Y-71572571D01*
X93480000Y-71477333D01*
X93527619Y-71429714D01*
X93622857Y-71382095D01*
X93670476Y-71382095D01*
X93765714Y-71429714D01*
X93813333Y-71477333D01*
X93860952Y-71572571D01*
X93860952Y-71763048D01*
X93908571Y-71858286D01*
X93956190Y-71905905D01*
X94051429Y-71953524D01*
X94241905Y-71953524D01*
X94337143Y-71905905D01*
X94384762Y-71858286D01*
X94432381Y-71763048D01*
X94432381Y-71572571D01*
X94384762Y-71477333D01*
X94337143Y-71429714D01*
X94241905Y-71382095D01*
X94051429Y-71382095D01*
X93956190Y-71429714D01*
X93908571Y-71477333D01*
X93860952Y-71572571D01*
X86385857Y-53074457D02*
X86350143Y-53110171D01*
X86243000Y-53145886D01*
X86171571Y-53145886D01*
X86064428Y-53110171D01*
X85993000Y-53038743D01*
X85957285Y-52967314D01*
X85921571Y-52824457D01*
X85921571Y-52717314D01*
X85957285Y-52574457D01*
X85993000Y-52503029D01*
X86064428Y-52431600D01*
X86171571Y-52395886D01*
X86243000Y-52395886D01*
X86350143Y-52431600D01*
X86385857Y-52467314D01*
X87028714Y-52645886D02*
X87028714Y-53145886D01*
X86850143Y-52360171D02*
X86671571Y-52895886D01*
X87135857Y-52895886D01*
X87814429Y-53145886D02*
X87385857Y-53145886D01*
X87600143Y-53145886D02*
X87600143Y-52395886D01*
X87528714Y-52503029D01*
X87457286Y-52574457D01*
X87385857Y-52610171D01*
X72989381Y-59666095D02*
X71989381Y-59666095D01*
X71989381Y-59428000D01*
X72037000Y-59285142D01*
X72132238Y-59189904D01*
X72227476Y-59142285D01*
X72417952Y-59094666D01*
X72560810Y-59094666D01*
X72751286Y-59142285D01*
X72846524Y-59189904D01*
X72941762Y-59285142D01*
X72989381Y-59428000D01*
X72989381Y-59666095D01*
X72989381Y-58142285D02*
X72989381Y-58713714D01*
X72989381Y-58428000D02*
X71989381Y-58428000D01*
X72132238Y-58523238D01*
X72227476Y-58618476D01*
X72275095Y-58713714D01*
X101798381Y-63730095D02*
X100798381Y-63730095D01*
X100798381Y-63492000D01*
X100846000Y-63349142D01*
X100941238Y-63253904D01*
X101036476Y-63206285D01*
X101226952Y-63158666D01*
X101369810Y-63158666D01*
X101560286Y-63206285D01*
X101655524Y-63253904D01*
X101750762Y-63349142D01*
X101798381Y-63492000D01*
X101798381Y-63730095D01*
X100893619Y-62777714D02*
X100846000Y-62730095D01*
X100798381Y-62634857D01*
X100798381Y-62396761D01*
X100846000Y-62301523D01*
X100893619Y-62253904D01*
X100988857Y-62206285D01*
X101084095Y-62206285D01*
X101226952Y-62253904D01*
X101798381Y-62825333D01*
X101798381Y-62206285D01*
X70322381Y-59666095D02*
X69322381Y-59666095D01*
X69322381Y-59428000D01*
X69370000Y-59285142D01*
X69465238Y-59189904D01*
X69560476Y-59142285D01*
X69750952Y-59094666D01*
X69893810Y-59094666D01*
X70084286Y-59142285D01*
X70179524Y-59189904D01*
X70274762Y-59285142D01*
X70322381Y-59428000D01*
X70322381Y-59666095D01*
X69322381Y-58761333D02*
X69322381Y-58142285D01*
X69703333Y-58475619D01*
X69703333Y-58332761D01*
X69750952Y-58237523D01*
X69798571Y-58189904D01*
X69893810Y-58142285D01*
X70131905Y-58142285D01*
X70227143Y-58189904D01*
X70274762Y-58237523D01*
X70322381Y-58332761D01*
X70322381Y-58618476D01*
X70274762Y-58713714D01*
X70227143Y-58761333D01*
X87120505Y-46248581D02*
X87120505Y-45248581D01*
X87358600Y-45248581D01*
X87501458Y-45296200D01*
X87596696Y-45391438D01*
X87644315Y-45486676D01*
X87691934Y-45677152D01*
X87691934Y-45820010D01*
X87644315Y-46010486D01*
X87596696Y-46105724D01*
X87501458Y-46200962D01*
X87358600Y-46248581D01*
X87120505Y-46248581D01*
X88549077Y-45581914D02*
X88549077Y-46248581D01*
X88310981Y-45200962D02*
X88072886Y-45915248D01*
X88691934Y-45915248D01*
X74826905Y-73756781D02*
X74826905Y-72756781D01*
X75065000Y-72756781D01*
X75207858Y-72804400D01*
X75303096Y-72899638D01*
X75350715Y-72994876D01*
X75398334Y-73185352D01*
X75398334Y-73328210D01*
X75350715Y-73518686D01*
X75303096Y-73613924D01*
X75207858Y-73709162D01*
X75065000Y-73756781D01*
X74826905Y-73756781D01*
X76255477Y-72756781D02*
X76065000Y-72756781D01*
X75969762Y-72804400D01*
X75922143Y-72852019D01*
X75826905Y-72994876D01*
X75779286Y-73185352D01*
X75779286Y-73566305D01*
X75826905Y-73661543D01*
X75874524Y-73709162D01*
X75969762Y-73756781D01*
X76160239Y-73756781D01*
X76255477Y-73709162D01*
X76303096Y-73661543D01*
X76350715Y-73566305D01*
X76350715Y-73328210D01*
X76303096Y-73232971D01*
X76255477Y-73185352D01*
X76160239Y-73137733D01*
X75969762Y-73137733D01*
X75874524Y-73185352D01*
X75826905Y-73232971D01*
X75779286Y-73328210D01*
X93797381Y-67032095D02*
X92797381Y-67032095D01*
X92797381Y-66794000D01*
X92845000Y-66651142D01*
X92940238Y-66555904D01*
X93035476Y-66508285D01*
X93225952Y-66460666D01*
X93368810Y-66460666D01*
X93559286Y-66508285D01*
X93654524Y-66555904D01*
X93749762Y-66651142D01*
X93797381Y-66794000D01*
X93797381Y-67032095D01*
X93797381Y-65984476D02*
X93797381Y-65794000D01*
X93749762Y-65698761D01*
X93702143Y-65651142D01*
X93559286Y-65555904D01*
X93368810Y-65508285D01*
X92987857Y-65508285D01*
X92892619Y-65555904D01*
X92845000Y-65603523D01*
X92797381Y-65698761D01*
X92797381Y-65889238D01*
X92845000Y-65984476D01*
X92892619Y-66032095D01*
X92987857Y-66079714D01*
X93225952Y-66079714D01*
X93321190Y-66032095D01*
X93368810Y-65984476D01*
X93416429Y-65889238D01*
X93416429Y-65698761D01*
X93368810Y-65603523D01*
X93321190Y-65555904D01*
X93225952Y-65508285D01*
X67230667Y-45299381D02*
X67230667Y-46013667D01*
X67183047Y-46156524D01*
X67087809Y-46251762D01*
X66944952Y-46299381D01*
X66849714Y-46299381D01*
X68230667Y-46299381D02*
X67659238Y-46299381D01*
X67944952Y-46299381D02*
X67944952Y-45299381D01*
X67849714Y-45442238D01*
X67754476Y-45537476D01*
X67659238Y-45585095D01*
X119935667Y-57364381D02*
X119935667Y-58078667D01*
X119888047Y-58221524D01*
X119792809Y-58316762D01*
X119649952Y-58364381D01*
X119554714Y-58364381D01*
X120840429Y-57697714D02*
X120840429Y-58364381D01*
X120602333Y-57316762D02*
X120364238Y-58031048D01*
X120983286Y-58031048D01*
X119681667Y-71715381D02*
X119681667Y-72429667D01*
X119634047Y-72572524D01*
X119538809Y-72667762D01*
X119395952Y-72715381D01*
X119300714Y-72715381D01*
X120634048Y-71715381D02*
X120157857Y-71715381D01*
X120110238Y-72191571D01*
X120157857Y-72143952D01*
X120253095Y-72096333D01*
X120491191Y-72096333D01*
X120586429Y-72143952D01*
X120634048Y-72191571D01*
X120681667Y-72286810D01*
X120681667Y-72524905D01*
X120634048Y-72620143D01*
X120586429Y-72667762D01*
X120491191Y-72715381D01*
X120253095Y-72715381D01*
X120157857Y-72667762D01*
X120110238Y-72620143D01*
X91614667Y-83399381D02*
X91614667Y-84113667D01*
X91567047Y-84256524D01*
X91471809Y-84351762D01*
X91328952Y-84399381D01*
X91233714Y-84399381D01*
X92519429Y-83399381D02*
X92328952Y-83399381D01*
X92233714Y-83447000D01*
X92186095Y-83494619D01*
X92090857Y-83637476D01*
X92043238Y-83827952D01*
X92043238Y-84208905D01*
X92090857Y-84304143D01*
X92138476Y-84351762D01*
X92233714Y-84399381D01*
X92424191Y-84399381D01*
X92519429Y-84351762D01*
X92567048Y-84304143D01*
X92614667Y-84208905D01*
X92614667Y-83970810D01*
X92567048Y-83875571D01*
X92519429Y-83827952D01*
X92424191Y-83780333D01*
X92233714Y-83780333D01*
X92138476Y-83827952D01*
X92090857Y-83875571D01*
X92043238Y-83970810D01*
X103020762Y-84486476D02*
X103068381Y-84343619D01*
X103068381Y-84105523D01*
X103020762Y-84010285D01*
X102973143Y-83962666D01*
X102877905Y-83915047D01*
X102782667Y-83915047D01*
X102687429Y-83962666D01*
X102639810Y-84010285D01*
X102592190Y-84105523D01*
X102544571Y-84296000D01*
X102496952Y-84391238D01*
X102449333Y-84438857D01*
X102354095Y-84486476D01*
X102258857Y-84486476D01*
X102163619Y-84438857D01*
X102116000Y-84391238D01*
X102068381Y-84296000D01*
X102068381Y-84057904D01*
X102116000Y-83915047D01*
X102544571Y-83486476D02*
X102544571Y-83153142D01*
X103068381Y-83010285D02*
X103068381Y-83486476D01*
X102068381Y-83486476D01*
X102068381Y-83010285D01*
X103068381Y-82010285D02*
X102592190Y-82343619D01*
X103068381Y-82581714D02*
X102068381Y-82581714D01*
X102068381Y-82200761D01*
X102116000Y-82105523D01*
X102163619Y-82057904D01*
X102258857Y-82010285D01*
X102401714Y-82010285D01*
X102496952Y-82057904D01*
X102544571Y-82105523D01*
X102592190Y-82200761D01*
X102592190Y-82581714D01*
X102068381Y-81724571D02*
X103068381Y-81391238D01*
X102068381Y-81057904D01*
X102068381Y-80534095D02*
X102068381Y-80343618D01*
X102116000Y-80248380D01*
X102211238Y-80153142D01*
X102401714Y-80105523D01*
X102735048Y-80105523D01*
X102925524Y-80153142D01*
X103020762Y-80248380D01*
X103068381Y-80343618D01*
X103068381Y-80534095D01*
X103020762Y-80629333D01*
X102925524Y-80724571D01*
X102735048Y-80772190D01*
X102401714Y-80772190D01*
X102211238Y-80724571D01*
X102116000Y-80629333D01*
X102068381Y-80534095D01*
X68119667Y-83272381D02*
X68119667Y-83986667D01*
X68072047Y-84129524D01*
X67976809Y-84224762D01*
X67833952Y-84272381D01*
X67738714Y-84272381D01*
X68500619Y-83272381D02*
X69167286Y-83272381D01*
X68738714Y-84272381D01*
X69032381Y-81486190D02*
X68032381Y-81486190D01*
X68937143Y-80438571D02*
X68984762Y-80486190D01*
X69032381Y-80629047D01*
X69032381Y-80724285D01*
X68984762Y-80867143D01*
X68889524Y-80962381D01*
X68794286Y-81010000D01*
X68603810Y-81057619D01*
X68460952Y-81057619D01*
X68270476Y-81010000D01*
X68175238Y-80962381D01*
X68080000Y-80867143D01*
X68032381Y-80724285D01*
X68032381Y-80629047D01*
X68080000Y-80486190D01*
X68127619Y-80438571D01*
X68984762Y-80057619D02*
X69032381Y-79914762D01*
X69032381Y-79676666D01*
X68984762Y-79581428D01*
X68937143Y-79533809D01*
X68841905Y-79486190D01*
X68746667Y-79486190D01*
X68651429Y-79533809D01*
X68603810Y-79581428D01*
X68556190Y-79676666D01*
X68508571Y-79867143D01*
X68460952Y-79962381D01*
X68413333Y-80010000D01*
X68318095Y-80057619D01*
X68222857Y-80057619D01*
X68127619Y-80010000D01*
X68080000Y-79962381D01*
X68032381Y-79867143D01*
X68032381Y-79629047D01*
X68080000Y-79486190D01*
X69032381Y-79057619D02*
X68032381Y-79057619D01*
X68032381Y-78676666D01*
X68080000Y-78581428D01*
X68127619Y-78533809D01*
X68222857Y-78486190D01*
X68365714Y-78486190D01*
X68460952Y-78533809D01*
X68508571Y-78581428D01*
X68556190Y-78676666D01*
X68556190Y-79057619D01*
X77668381Y-68365666D02*
X77668381Y-68841857D01*
X76668381Y-68841857D01*
X77668381Y-67508523D02*
X77668381Y-68079952D01*
X77668381Y-67794238D02*
X76668381Y-67794238D01*
X76811238Y-67889476D01*
X76906476Y-67984714D01*
X76954095Y-68079952D01*
X92908381Y-58840666D02*
X92908381Y-59316857D01*
X91908381Y-59316857D01*
X92003619Y-58554952D02*
X91956000Y-58507333D01*
X91908381Y-58412095D01*
X91908381Y-58173999D01*
X91956000Y-58078761D01*
X92003619Y-58031142D01*
X92098857Y-57983523D01*
X92194095Y-57983523D01*
X92336952Y-58031142D01*
X92908381Y-58602571D01*
X92908381Y-57983523D01*
X98766334Y-46680381D02*
X98290143Y-46680381D01*
X98290143Y-45680381D01*
X99528239Y-46013714D02*
X99528239Y-46680381D01*
X99290143Y-45632762D02*
X99052048Y-46347048D01*
X99671096Y-46347048D01*
X91003381Y-56554666D02*
X91003381Y-57030857D01*
X90003381Y-57030857D01*
X90003381Y-55745142D02*
X90003381Y-56221333D01*
X90479571Y-56268952D01*
X90431952Y-56221333D01*
X90384333Y-56126095D01*
X90384333Y-55887999D01*
X90431952Y-55792761D01*
X90479571Y-55745142D01*
X90574810Y-55697523D01*
X90812905Y-55697523D01*
X90908143Y-55745142D01*
X90955762Y-55792761D01*
X91003381Y-55887999D01*
X91003381Y-56126095D01*
X90955762Y-56221333D01*
X90908143Y-56268952D01*
X72842381Y-56427666D02*
X72366190Y-56761000D01*
X72842381Y-56999095D02*
X71842381Y-56999095D01*
X71842381Y-56618142D01*
X71890000Y-56522904D01*
X71937619Y-56475285D01*
X72032857Y-56427666D01*
X72175714Y-56427666D01*
X72270952Y-56475285D01*
X72318571Y-56522904D01*
X72366190Y-56618142D01*
X72366190Y-56999095D01*
X72175714Y-55570523D02*
X72842381Y-55570523D01*
X71794762Y-55808619D02*
X72509048Y-56046714D01*
X72509048Y-55427666D01*
X100528381Y-64682666D02*
X100052190Y-65016000D01*
X100528381Y-65254095D02*
X99528381Y-65254095D01*
X99528381Y-64873142D01*
X99576000Y-64777904D01*
X99623619Y-64730285D01*
X99718857Y-64682666D01*
X99861714Y-64682666D01*
X99956952Y-64730285D01*
X100004571Y-64777904D01*
X100052190Y-64873142D01*
X100052190Y-65254095D01*
X99528381Y-63777904D02*
X99528381Y-64254095D01*
X100004571Y-64301714D01*
X99956952Y-64254095D01*
X99909333Y-64158857D01*
X99909333Y-63920761D01*
X99956952Y-63825523D01*
X100004571Y-63777904D01*
X100099810Y-63730285D01*
X100337905Y-63730285D01*
X100433143Y-63777904D01*
X100480762Y-63825523D01*
X100528381Y-63920761D01*
X100528381Y-64158857D01*
X100480762Y-64254095D01*
X100433143Y-64301714D01*
X70429381Y-56300666D02*
X69953190Y-56634000D01*
X70429381Y-56872095D02*
X69429381Y-56872095D01*
X69429381Y-56491142D01*
X69477000Y-56395904D01*
X69524619Y-56348285D01*
X69619857Y-56300666D01*
X69762714Y-56300666D01*
X69857952Y-56348285D01*
X69905571Y-56395904D01*
X69953190Y-56491142D01*
X69953190Y-56872095D01*
X69429381Y-55443523D02*
X69429381Y-55634000D01*
X69477000Y-55729238D01*
X69524619Y-55776857D01*
X69667476Y-55872095D01*
X69857952Y-55919714D01*
X70238905Y-55919714D01*
X70334143Y-55872095D01*
X70381762Y-55824476D01*
X70429381Y-55729238D01*
X70429381Y-55538761D01*
X70381762Y-55443523D01*
X70334143Y-55395904D01*
X70238905Y-55348285D01*
X70000810Y-55348285D01*
X69905571Y-55395904D01*
X69857952Y-55443523D01*
X69810333Y-55538761D01*
X69810333Y-55729238D01*
X69857952Y-55824476D01*
X69905571Y-55872095D01*
X70000810Y-55919714D01*
X87285534Y-47747181D02*
X86952200Y-47270990D01*
X86714105Y-47747181D02*
X86714105Y-46747181D01*
X87095058Y-46747181D01*
X87190296Y-46794800D01*
X87237915Y-46842419D01*
X87285534Y-46937657D01*
X87285534Y-47080514D01*
X87237915Y-47175752D01*
X87190296Y-47223371D01*
X87095058Y-47270990D01*
X86714105Y-47270990D01*
X87856962Y-47175752D02*
X87761724Y-47128133D01*
X87714105Y-47080514D01*
X87666486Y-46985276D01*
X87666486Y-46937657D01*
X87714105Y-46842419D01*
X87761724Y-46794800D01*
X87856962Y-46747181D01*
X88047439Y-46747181D01*
X88142677Y-46794800D01*
X88190296Y-46842419D01*
X88237915Y-46937657D01*
X88237915Y-46985276D01*
X88190296Y-47080514D01*
X88142677Y-47128133D01*
X88047439Y-47175752D01*
X87856962Y-47175752D01*
X87761724Y-47223371D01*
X87714105Y-47270990D01*
X87666486Y-47366229D01*
X87666486Y-47556705D01*
X87714105Y-47651943D01*
X87761724Y-47699562D01*
X87856962Y-47747181D01*
X88047439Y-47747181D01*
X88142677Y-47699562D01*
X88190296Y-47651943D01*
X88237915Y-47556705D01*
X88237915Y-47366229D01*
X88190296Y-47270990D01*
X88142677Y-47223371D01*
X88047439Y-47175752D01*
X100401381Y-59824857D02*
X99925190Y-60158191D01*
X100401381Y-60396286D02*
X99401381Y-60396286D01*
X99401381Y-60015333D01*
X99449000Y-59920095D01*
X99496619Y-59872476D01*
X99591857Y-59824857D01*
X99734714Y-59824857D01*
X99829952Y-59872476D01*
X99877571Y-59920095D01*
X99925190Y-60015333D01*
X99925190Y-60396286D01*
X100401381Y-58872476D02*
X100401381Y-59443905D01*
X100401381Y-59158191D02*
X99401381Y-59158191D01*
X99544238Y-59253429D01*
X99639476Y-59348667D01*
X99687095Y-59443905D01*
X99401381Y-58253429D02*
X99401381Y-58158190D01*
X99449000Y-58062952D01*
X99496619Y-58015333D01*
X99591857Y-57967714D01*
X99782333Y-57920095D01*
X100020429Y-57920095D01*
X100210905Y-57967714D01*
X100306143Y-58015333D01*
X100353762Y-58062952D01*
X100401381Y-58158190D01*
X100401381Y-58253429D01*
X100353762Y-58348667D01*
X100306143Y-58396286D01*
X100210905Y-58443905D01*
X100020429Y-58491524D01*
X99782333Y-58491524D01*
X99591857Y-58443905D01*
X99496619Y-58396286D01*
X99449000Y-58348667D01*
X99401381Y-58253429D01*
X98798143Y-61793381D02*
X98464809Y-61317190D01*
X98226714Y-61793381D02*
X98226714Y-60793381D01*
X98607667Y-60793381D01*
X98702905Y-60841000D01*
X98750524Y-60888619D01*
X98798143Y-60983857D01*
X98798143Y-61126714D01*
X98750524Y-61221952D01*
X98702905Y-61269571D01*
X98607667Y-61317190D01*
X98226714Y-61317190D01*
X99750524Y-61793381D02*
X99179095Y-61793381D01*
X99464809Y-61793381D02*
X99464809Y-60793381D01*
X99369571Y-60936238D01*
X99274333Y-61031476D01*
X99179095Y-61079095D01*
X100702905Y-61793381D02*
X100131476Y-61793381D01*
X100417190Y-61793381D02*
X100417190Y-60793381D01*
X100321952Y-60936238D01*
X100226714Y-61031476D01*
X100131476Y-61079095D01*
X98623381Y-73286857D02*
X98147190Y-73620191D01*
X98623381Y-73858286D02*
X97623381Y-73858286D01*
X97623381Y-73477333D01*
X97671000Y-73382095D01*
X97718619Y-73334476D01*
X97813857Y-73286857D01*
X97956714Y-73286857D01*
X98051952Y-73334476D01*
X98099571Y-73382095D01*
X98147190Y-73477333D01*
X98147190Y-73858286D01*
X98623381Y-72334476D02*
X98623381Y-72905905D01*
X98623381Y-72620191D02*
X97623381Y-72620191D01*
X97766238Y-72715429D01*
X97861476Y-72810667D01*
X97909095Y-72905905D01*
X97718619Y-71953524D02*
X97671000Y-71905905D01*
X97623381Y-71810667D01*
X97623381Y-71572571D01*
X97671000Y-71477333D01*
X97718619Y-71429714D01*
X97813857Y-71382095D01*
X97909095Y-71382095D01*
X98051952Y-71429714D01*
X98623381Y-72001143D01*
X98623381Y-71382095D01*
X95242143Y-74874381D02*
X94908809Y-74398190D01*
X94670714Y-74874381D02*
X94670714Y-73874381D01*
X95051667Y-73874381D01*
X95146905Y-73922000D01*
X95194524Y-73969619D01*
X95242143Y-74064857D01*
X95242143Y-74207714D01*
X95194524Y-74302952D01*
X95146905Y-74350571D01*
X95051667Y-74398190D01*
X94670714Y-74398190D01*
X96194524Y-74874381D02*
X95623095Y-74874381D01*
X95908809Y-74874381D02*
X95908809Y-73874381D01*
X95813571Y-74017238D01*
X95718333Y-74112476D01*
X95623095Y-74160095D01*
X96527857Y-73874381D02*
X97146905Y-73874381D01*
X96813571Y-74255333D01*
X96956429Y-74255333D01*
X97051667Y-74302952D01*
X97099286Y-74350571D01*
X97146905Y-74445810D01*
X97146905Y-74683905D01*
X97099286Y-74779143D01*
X97051667Y-74826762D01*
X96956429Y-74874381D01*
X96670714Y-74874381D01*
X96575476Y-74826762D01*
X96527857Y-74779143D01*
X74109343Y-72512181D02*
X73776009Y-72035990D01*
X73537914Y-72512181D02*
X73537914Y-71512181D01*
X73918867Y-71512181D01*
X74014105Y-71559800D01*
X74061724Y-71607419D01*
X74109343Y-71702657D01*
X74109343Y-71845514D01*
X74061724Y-71940752D01*
X74014105Y-71988371D01*
X73918867Y-72035990D01*
X73537914Y-72035990D01*
X75061724Y-72512181D02*
X74490295Y-72512181D01*
X74776009Y-72512181D02*
X74776009Y-71512181D01*
X74680771Y-71655038D01*
X74585533Y-71750276D01*
X74490295Y-71797895D01*
X75918867Y-71845514D02*
X75918867Y-72512181D01*
X75680771Y-71464562D02*
X75442676Y-72178848D01*
X76061724Y-72178848D01*
X101338143Y-74874381D02*
X101004809Y-74398190D01*
X100766714Y-74874381D02*
X100766714Y-73874381D01*
X101147667Y-73874381D01*
X101242905Y-73922000D01*
X101290524Y-73969619D01*
X101338143Y-74064857D01*
X101338143Y-74207714D01*
X101290524Y-74302952D01*
X101242905Y-74350571D01*
X101147667Y-74398190D01*
X100766714Y-74398190D01*
X102290524Y-74874381D02*
X101719095Y-74874381D01*
X102004809Y-74874381D02*
X102004809Y-73874381D01*
X101909571Y-74017238D01*
X101814333Y-74112476D01*
X101719095Y-74160095D01*
X103195286Y-73874381D02*
X102719095Y-73874381D01*
X102671476Y-74350571D01*
X102719095Y-74302952D01*
X102814333Y-74255333D01*
X103052429Y-74255333D01*
X103147667Y-74302952D01*
X103195286Y-74350571D01*
X103242905Y-74445810D01*
X103242905Y-74683905D01*
X103195286Y-74779143D01*
X103147667Y-74826762D01*
X103052429Y-74874381D01*
X102814333Y-74874381D01*
X102719095Y-74826762D01*
X102671476Y-74779143D01*
X100957143Y-79827381D02*
X100623809Y-79351190D01*
X100385714Y-79827381D02*
X100385714Y-78827381D01*
X100766667Y-78827381D01*
X100861905Y-78875000D01*
X100909524Y-78922619D01*
X100957143Y-79017857D01*
X100957143Y-79160714D01*
X100909524Y-79255952D01*
X100861905Y-79303571D01*
X100766667Y-79351190D01*
X100385714Y-79351190D01*
X101909524Y-79827381D02*
X101338095Y-79827381D01*
X101623809Y-79827381D02*
X101623809Y-78827381D01*
X101528571Y-78970238D01*
X101433333Y-79065476D01*
X101338095Y-79113095D01*
X102766667Y-78827381D02*
X102576190Y-78827381D01*
X102480952Y-78875000D01*
X102433333Y-78922619D01*
X102338095Y-79065476D01*
X102290476Y-79255952D01*
X102290476Y-79636905D01*
X102338095Y-79732143D01*
X102385714Y-79779762D01*
X102480952Y-79827381D01*
X102671429Y-79827381D01*
X102766667Y-79779762D01*
X102814286Y-79732143D01*
X102861905Y-79636905D01*
X102861905Y-79398810D01*
X102814286Y-79303571D01*
X102766667Y-79255952D01*
X102671429Y-79208333D01*
X102480952Y-79208333D01*
X102385714Y-79255952D01*
X102338095Y-79303571D01*
X102290476Y-79398810D01*
X83050143Y-84145381D02*
X82716809Y-83669190D01*
X82478714Y-84145381D02*
X82478714Y-83145381D01*
X82859667Y-83145381D01*
X82954905Y-83193000D01*
X83002524Y-83240619D01*
X83050143Y-83335857D01*
X83050143Y-83478714D01*
X83002524Y-83573952D01*
X82954905Y-83621571D01*
X82859667Y-83669190D01*
X82478714Y-83669190D01*
X83431095Y-83240619D02*
X83478714Y-83193000D01*
X83573952Y-83145381D01*
X83812048Y-83145381D01*
X83907286Y-83193000D01*
X83954905Y-83240619D01*
X84002524Y-83335857D01*
X84002524Y-83431095D01*
X83954905Y-83573952D01*
X83383476Y-84145381D01*
X84002524Y-84145381D01*
X84954905Y-84145381D02*
X84383476Y-84145381D01*
X84669190Y-84145381D02*
X84669190Y-83145381D01*
X84573952Y-83288238D01*
X84478714Y-83383476D01*
X84383476Y-83431095D01*
X84045876Y-46287955D02*
X84045876Y-47100474D01*
X84093671Y-47196064D01*
X84141467Y-47243860D01*
X84237057Y-47291655D01*
X84428238Y-47291655D01*
X84523829Y-47243860D01*
X84571624Y-47196064D01*
X84619419Y-47100474D01*
X84619419Y-46287955D01*
X85001781Y-46287955D02*
X85623119Y-46287955D01*
X85288552Y-46670317D01*
X85431938Y-46670317D01*
X85527528Y-46718112D01*
X85575324Y-46765907D01*
X85623119Y-46861498D01*
X85623119Y-47100474D01*
X85575324Y-47196064D01*
X85527528Y-47243860D01*
X85431938Y-47291655D01*
X85145166Y-47291655D01*
X85049576Y-47243860D01*
X85001781Y-47196064D01*
X105537095Y-47712381D02*
X105537095Y-48521905D01*
X105584714Y-48617143D01*
X105632333Y-48664762D01*
X105727571Y-48712381D01*
X105918048Y-48712381D01*
X106013286Y-48664762D01*
X106060905Y-48617143D01*
X106108524Y-48521905D01*
X106108524Y-47712381D01*
X107013286Y-48045714D02*
X107013286Y-48712381D01*
X106775190Y-47664762D02*
X106537095Y-48379048D01*
X107156143Y-48379048D01*
X98044095Y-56602381D02*
X98044095Y-57411905D01*
X98091714Y-57507143D01*
X98139333Y-57554762D01*
X98234571Y-57602381D01*
X98425048Y-57602381D01*
X98520286Y-57554762D01*
X98567905Y-57507143D01*
X98615524Y-57411905D01*
X98615524Y-56602381D01*
X99520286Y-56602381D02*
X99329809Y-56602381D01*
X99234571Y-56650000D01*
X99186952Y-56697619D01*
X99091714Y-56840476D01*
X99044095Y-57030952D01*
X99044095Y-57411905D01*
X99091714Y-57507143D01*
X99139333Y-57554762D01*
X99234571Y-57602381D01*
X99425048Y-57602381D01*
X99520286Y-57554762D01*
X99567905Y-57507143D01*
X99615524Y-57411905D01*
X99615524Y-57173810D01*
X99567905Y-57078571D01*
X99520286Y-57030952D01*
X99425048Y-56983333D01*
X99234571Y-56983333D01*
X99139333Y-57030952D01*
X99091714Y-57078571D01*
X99044095Y-57173810D01*
X82854895Y-69581781D02*
X82854895Y-70391305D01*
X82902514Y-70486543D01*
X82950133Y-70534162D01*
X83045371Y-70581781D01*
X83235848Y-70581781D01*
X83331086Y-70534162D01*
X83378705Y-70486543D01*
X83426324Y-70391305D01*
X83426324Y-69581781D01*
X83807276Y-69581781D02*
X84473943Y-69581781D01*
X84045371Y-70581781D01*
X92202095Y-74763381D02*
X92202095Y-75572905D01*
X92249714Y-75668143D01*
X92297333Y-75715762D01*
X92392571Y-75763381D01*
X92583048Y-75763381D01*
X92678286Y-75715762D01*
X92725905Y-75668143D01*
X92773524Y-75572905D01*
X92773524Y-74763381D01*
X93392571Y-75191952D02*
X93297333Y-75144333D01*
X93249714Y-75096714D01*
X93202095Y-75001476D01*
X93202095Y-74953857D01*
X93249714Y-74858619D01*
X93297333Y-74811000D01*
X93392571Y-74763381D01*
X93583048Y-74763381D01*
X93678286Y-74811000D01*
X93725905Y-74858619D01*
X93773524Y-74953857D01*
X93773524Y-75001476D01*
X93725905Y-75096714D01*
X93678286Y-75144333D01*
X93583048Y-75191952D01*
X93392571Y-75191952D01*
X93297333Y-75239571D01*
X93249714Y-75287190D01*
X93202095Y-75382429D01*
X93202095Y-75572905D01*
X93249714Y-75668143D01*
X93297333Y-75715762D01*
X93392571Y-75763381D01*
X93583048Y-75763381D01*
X93678286Y-75715762D01*
X93725905Y-75668143D01*
X93773524Y-75572905D01*
X93773524Y-75382429D01*
X93725905Y-75287190D01*
X93678286Y-75239571D01*
X93583048Y-75191952D01*
X82677095Y-77303381D02*
X82677095Y-78112905D01*
X82724714Y-78208143D01*
X82772333Y-78255762D01*
X82867571Y-78303381D01*
X83058048Y-78303381D01*
X83153286Y-78255762D01*
X83200905Y-78208143D01*
X83248524Y-78112905D01*
X83248524Y-77303381D01*
X83772333Y-78303381D02*
X83962809Y-78303381D01*
X84058048Y-78255762D01*
X84105667Y-78208143D01*
X84200905Y-78065286D01*
X84248524Y-77874810D01*
X84248524Y-77493857D01*
X84200905Y-77398619D01*
X84153286Y-77351000D01*
X84058048Y-77303381D01*
X83867571Y-77303381D01*
X83772333Y-77351000D01*
X83724714Y-77398619D01*
X83677095Y-77493857D01*
X83677095Y-77731952D01*
X83724714Y-77827190D01*
X83772333Y-77874810D01*
X83867571Y-77922429D01*
X84058048Y-77922429D01*
X84153286Y-77874810D01*
X84200905Y-77827190D01*
X84248524Y-77731952D01*
X80295905Y-64349381D02*
X80295905Y-65158905D01*
X80343524Y-65254143D01*
X80391143Y-65301762D01*
X80486381Y-65349381D01*
X80676858Y-65349381D01*
X80772096Y-65301762D01*
X80819715Y-65254143D01*
X80867334Y-65158905D01*
X80867334Y-64349381D01*
X81867334Y-65349381D02*
X81295905Y-65349381D01*
X81581619Y-65349381D02*
X81581619Y-64349381D01*
X81486381Y-64492238D01*
X81391143Y-64587476D01*
X81295905Y-64635095D01*
X82486381Y-64349381D02*
X82581620Y-64349381D01*
X82676858Y-64397000D01*
X82724477Y-64444619D01*
X82772096Y-64539857D01*
X82819715Y-64730333D01*
X82819715Y-64968429D01*
X82772096Y-65158905D01*
X82724477Y-65254143D01*
X82676858Y-65301762D01*
X82581620Y-65349381D01*
X82486381Y-65349381D01*
X82391143Y-65301762D01*
X82343524Y-65254143D01*
X82295905Y-65158905D01*
X82248286Y-64968429D01*
X82248286Y-64730333D01*
X82295905Y-64539857D01*
X82343524Y-64444619D01*
X82391143Y-64397000D01*
X82486381Y-64349381D01*
X70024667Y-73747381D02*
X70024667Y-74461667D01*
X69977047Y-74604524D01*
X69881809Y-74699762D01*
X69738952Y-74747381D01*
X69643714Y-74747381D01*
X70453238Y-73842619D02*
X70500857Y-73795000D01*
X70596095Y-73747381D01*
X70834191Y-73747381D01*
X70929429Y-73795000D01*
X70977048Y-73842619D01*
X71024667Y-73937857D01*
X71024667Y-74033095D01*
X70977048Y-74175952D01*
X70405619Y-74747381D01*
X71024667Y-74747381D01*
X64611381Y-51760381D02*
X64611381Y-50760381D01*
X65801857Y-50712762D02*
X64944714Y-51998476D01*
X66325666Y-50760381D02*
X66516143Y-50760381D01*
X66611381Y-50808000D01*
X66706619Y-50903238D01*
X66754238Y-51093714D01*
X66754238Y-51427048D01*
X66706619Y-51617524D01*
X66611381Y-51712762D01*
X66516143Y-51760381D01*
X66325666Y-51760381D01*
X66230428Y-51712762D01*
X66135190Y-51617524D01*
X66087571Y-51427048D01*
X66087571Y-51093714D01*
X66135190Y-50903238D01*
X66230428Y-50808000D01*
X66325666Y-50760381D01*
X73779143Y-61825143D02*
X73731524Y-61872762D01*
X73588667Y-61920381D01*
X73493429Y-61920381D01*
X73350571Y-61872762D01*
X73255333Y-61777524D01*
X73207714Y-61682286D01*
X73160095Y-61491810D01*
X73160095Y-61348952D01*
X73207714Y-61158476D01*
X73255333Y-61063238D01*
X73350571Y-60968000D01*
X73493429Y-60920381D01*
X73588667Y-60920381D01*
X73731524Y-60968000D01*
X73779143Y-61015619D01*
X74636286Y-61253714D02*
X74636286Y-61920381D01*
X74398190Y-60872762D02*
X74160095Y-61587048D01*
X74779143Y-61587048D01*
X75302952Y-61348952D02*
X75207714Y-61301333D01*
X75160095Y-61253714D01*
X75112476Y-61158476D01*
X75112476Y-61110857D01*
X75160095Y-61015619D01*
X75207714Y-60968000D01*
X75302952Y-60920381D01*
X75493429Y-60920381D01*
X75588667Y-60968000D01*
X75636286Y-61015619D01*
X75683905Y-61110857D01*
X75683905Y-61158476D01*
X75636286Y-61253714D01*
X75588667Y-61301333D01*
X75493429Y-61348952D01*
X75302952Y-61348952D01*
X75207714Y-61396571D01*
X75160095Y-61444190D01*
X75112476Y-61539429D01*
X75112476Y-61729905D01*
X75160095Y-61825143D01*
X75207714Y-61872762D01*
X75302952Y-61920381D01*
X75493429Y-61920381D01*
X75588667Y-61872762D01*
X75636286Y-61825143D01*
X75683905Y-61729905D01*
X75683905Y-61539429D01*
X75636286Y-61444190D01*
X75588667Y-61396571D01*
X75493429Y-61348952D01*
X73779143Y-63349143D02*
X73731524Y-63396762D01*
X73588667Y-63444381D01*
X73493429Y-63444381D01*
X73350571Y-63396762D01*
X73255333Y-63301524D01*
X73207714Y-63206286D01*
X73160095Y-63015810D01*
X73160095Y-62872952D01*
X73207714Y-62682476D01*
X73255333Y-62587238D01*
X73350571Y-62492000D01*
X73493429Y-62444381D01*
X73588667Y-62444381D01*
X73731524Y-62492000D01*
X73779143Y-62539619D01*
X74636286Y-62777714D02*
X74636286Y-63444381D01*
X74398190Y-62396762D02*
X74160095Y-63111048D01*
X74779143Y-63111048D01*
X75207714Y-63444381D02*
X75398190Y-63444381D01*
X75493429Y-63396762D01*
X75541048Y-63349143D01*
X75636286Y-63206286D01*
X75683905Y-63015810D01*
X75683905Y-62634857D01*
X75636286Y-62539619D01*
X75588667Y-62492000D01*
X75493429Y-62444381D01*
X75302952Y-62444381D01*
X75207714Y-62492000D01*
X75160095Y-62539619D01*
X75112476Y-62634857D01*
X75112476Y-62872952D01*
X75160095Y-62968190D01*
X75207714Y-63015810D01*
X75302952Y-63063429D01*
X75493429Y-63063429D01*
X75588667Y-63015810D01*
X75636286Y-62968190D01*
X75683905Y-62872952D01*
X79573381Y-65158857D02*
X79097190Y-65492191D01*
X79573381Y-65730286D02*
X78573381Y-65730286D01*
X78573381Y-65349333D01*
X78621000Y-65254095D01*
X78668619Y-65206476D01*
X78763857Y-65158857D01*
X78906714Y-65158857D01*
X79001952Y-65206476D01*
X79049571Y-65254095D01*
X79097190Y-65349333D01*
X79097190Y-65730286D01*
X78573381Y-64825524D02*
X78573381Y-64206476D01*
X78954333Y-64539810D01*
X78954333Y-64396952D01*
X79001952Y-64301714D01*
X79049571Y-64254095D01*
X79144810Y-64206476D01*
X79382905Y-64206476D01*
X79478143Y-64254095D01*
X79525762Y-64301714D01*
X79573381Y-64396952D01*
X79573381Y-64682667D01*
X79525762Y-64777905D01*
X79478143Y-64825524D01*
X79001952Y-63635048D02*
X78954333Y-63730286D01*
X78906714Y-63777905D01*
X78811476Y-63825524D01*
X78763857Y-63825524D01*
X78668619Y-63777905D01*
X78621000Y-63730286D01*
X78573381Y-63635048D01*
X78573381Y-63444571D01*
X78621000Y-63349333D01*
X78668619Y-63301714D01*
X78763857Y-63254095D01*
X78811476Y-63254095D01*
X78906714Y-63301714D01*
X78954333Y-63349333D01*
X79001952Y-63444571D01*
X79001952Y-63635048D01*
X79049571Y-63730286D01*
X79097190Y-63777905D01*
X79192429Y-63825524D01*
X79382905Y-63825524D01*
X79478143Y-63777905D01*
X79525762Y-63730286D01*
X79573381Y-63635048D01*
X79573381Y-63444571D01*
X79525762Y-63349333D01*
X79478143Y-63301714D01*
X79382905Y-63254095D01*
X79192429Y-63254095D01*
X79097190Y-63301714D01*
X79049571Y-63349333D01*
X79001952Y-63444571D01*
X105037095Y-58634381D02*
X105608524Y-58634381D01*
X105322809Y-59634381D02*
X105322809Y-58634381D01*
X105941857Y-59634381D02*
X105941857Y-58634381D01*
X106322810Y-58634381D01*
X106418048Y-58682000D01*
X106465667Y-58729619D01*
X106513286Y-58824857D01*
X106513286Y-58967714D01*
X106465667Y-59062952D01*
X106418048Y-59110571D01*
X106322810Y-59158190D01*
X105941857Y-59158190D01*
X107465667Y-59634381D02*
X106894238Y-59634381D01*
X107179952Y-59634381D02*
X107179952Y-58634381D01*
X107084714Y-58777238D01*
X106989476Y-58872476D01*
X106894238Y-58920095D01*
X98941095Y-66000381D02*
X99512524Y-66000381D01*
X99226809Y-67000381D02*
X99226809Y-66000381D01*
X99845857Y-67000381D02*
X99845857Y-66000381D01*
X100226810Y-66000381D01*
X100322048Y-66048000D01*
X100369667Y-66095619D01*
X100417286Y-66190857D01*
X100417286Y-66333714D01*
X100369667Y-66428952D01*
X100322048Y-66476571D01*
X100226810Y-66524190D01*
X99845857Y-66524190D01*
X100798238Y-66095619D02*
X100845857Y-66048000D01*
X100941095Y-66000381D01*
X101179191Y-66000381D01*
X101274429Y-66048000D01*
X101322048Y-66095619D01*
X101369667Y-66190857D01*
X101369667Y-66286095D01*
X101322048Y-66428952D01*
X100750619Y-67000381D01*
X101369667Y-67000381D01*
X78709995Y-68019681D02*
X79281424Y-68019681D01*
X78995709Y-69019681D02*
X78995709Y-68019681D01*
X79614757Y-69019681D02*
X79614757Y-68019681D01*
X79995710Y-68019681D01*
X80090948Y-68067300D01*
X80138567Y-68114919D01*
X80186186Y-68210157D01*
X80186186Y-68353014D01*
X80138567Y-68448252D01*
X80090948Y-68495871D01*
X79995710Y-68543490D01*
X79614757Y-68543490D01*
X80519519Y-68019681D02*
X81138567Y-68019681D01*
X80805233Y-68400633D01*
X80948091Y-68400633D01*
X81043329Y-68448252D01*
X81090948Y-68495871D01*
X81138567Y-68591110D01*
X81138567Y-68829205D01*
X81090948Y-68924443D01*
X81043329Y-68972062D01*
X80948091Y-69019681D01*
X80662376Y-69019681D01*
X80567138Y-68972062D01*
X80519519Y-68924443D01*
X76414381Y-56760905D02*
X76414381Y-56189476D01*
X77414381Y-56475191D02*
X76414381Y-56475191D01*
X77414381Y-55856143D02*
X76414381Y-55856143D01*
X76414381Y-55475190D01*
X76462000Y-55379952D01*
X76509619Y-55332333D01*
X76604857Y-55284714D01*
X76747714Y-55284714D01*
X76842952Y-55332333D01*
X76890571Y-55379952D01*
X76938190Y-55475190D01*
X76938190Y-55856143D01*
X76747714Y-54427571D02*
X77414381Y-54427571D01*
X76366762Y-54665667D02*
X77081048Y-54903762D01*
X77081048Y-54284714D01*
X74890381Y-60293095D02*
X75699905Y-60293095D01*
X75795143Y-60245476D01*
X75842762Y-60197857D01*
X75890381Y-60102619D01*
X75890381Y-59912142D01*
X75842762Y-59816904D01*
X75795143Y-59769285D01*
X75699905Y-59721666D01*
X74890381Y-59721666D01*
X75890381Y-58721666D02*
X75890381Y-59293095D01*
X75890381Y-59007381D02*
X74890381Y-59007381D01*
X75033238Y-59102619D01*
X75128476Y-59197857D01*
X75176095Y-59293095D01*
X74890381Y-57816904D02*
X74890381Y-58293095D01*
X75366571Y-58340714D01*
X75318952Y-58293095D01*
X75271333Y-58197857D01*
X75271333Y-57959761D01*
X75318952Y-57864523D01*
X75366571Y-57816904D01*
X75461810Y-57769285D01*
X75699905Y-57769285D01*
X75795143Y-57816904D01*
X75842762Y-57864523D01*
X75890381Y-57959761D01*
X75890381Y-58197857D01*
X75842762Y-58293095D01*
X75795143Y-58340714D01*
X72858334Y-66651143D02*
X72810715Y-66698762D01*
X72667858Y-66746381D01*
X72572620Y-66746381D01*
X72429762Y-66698762D01*
X72334524Y-66603524D01*
X72286905Y-66508286D01*
X72239286Y-66317810D01*
X72239286Y-66174952D01*
X72286905Y-65984476D01*
X72334524Y-65889238D01*
X72429762Y-65794000D01*
X72572620Y-65746381D01*
X72667858Y-65746381D01*
X72810715Y-65794000D01*
X72858334Y-65841619D01*
X73429762Y-66174952D02*
X73334524Y-66127333D01*
X73286905Y-66079714D01*
X73239286Y-65984476D01*
X73239286Y-65936857D01*
X73286905Y-65841619D01*
X73334524Y-65794000D01*
X73429762Y-65746381D01*
X73620239Y-65746381D01*
X73715477Y-65794000D01*
X73763096Y-65841619D01*
X73810715Y-65936857D01*
X73810715Y-65984476D01*
X73763096Y-66079714D01*
X73715477Y-66127333D01*
X73620239Y-66174952D01*
X73429762Y-66174952D01*
X73334524Y-66222571D01*
X73286905Y-66270190D01*
X73239286Y-66365429D01*
X73239286Y-66555905D01*
X73286905Y-66651143D01*
X73334524Y-66698762D01*
X73429762Y-66746381D01*
X73620239Y-66746381D01*
X73715477Y-66698762D01*
X73763096Y-66651143D01*
X73810715Y-66555905D01*
X73810715Y-66365429D01*
X73763096Y-66270190D01*
X73715477Y-66222571D01*
X73620239Y-66174952D01*
X95734143Y-66682857D02*
X95781762Y-66730476D01*
X95829381Y-66873333D01*
X95829381Y-66968571D01*
X95781762Y-67111429D01*
X95686524Y-67206667D01*
X95591286Y-67254286D01*
X95400810Y-67301905D01*
X95257952Y-67301905D01*
X95067476Y-67254286D01*
X94972238Y-67206667D01*
X94877000Y-67111429D01*
X94829381Y-66968571D01*
X94829381Y-66873333D01*
X94877000Y-66730476D01*
X94924619Y-66682857D01*
X94924619Y-66301905D02*
X94877000Y-66254286D01*
X94829381Y-66159048D01*
X94829381Y-65920952D01*
X94877000Y-65825714D01*
X94924619Y-65778095D01*
X95019857Y-65730476D01*
X95115095Y-65730476D01*
X95257952Y-65778095D01*
X95829381Y-66349524D01*
X95829381Y-65730476D01*
X95829381Y-64778095D02*
X95829381Y-65349524D01*
X95829381Y-65063810D02*
X94829381Y-65063810D01*
X94972238Y-65159048D01*
X95067476Y-65254286D01*
X95115095Y-65349524D01*
X107942143Y-47093143D02*
X107894524Y-47140762D01*
X107751667Y-47188381D01*
X107656429Y-47188381D01*
X107513571Y-47140762D01*
X107418333Y-47045524D01*
X107370714Y-46950286D01*
X107323095Y-46759810D01*
X107323095Y-46616952D01*
X107370714Y-46426476D01*
X107418333Y-46331238D01*
X107513571Y-46236000D01*
X107656429Y-46188381D01*
X107751667Y-46188381D01*
X107894524Y-46236000D01*
X107942143Y-46283619D01*
X108275476Y-46188381D02*
X108894524Y-46188381D01*
X108561190Y-46569333D01*
X108704048Y-46569333D01*
X108799286Y-46616952D01*
X108846905Y-46664571D01*
X108894524Y-46759810D01*
X108894524Y-46997905D01*
X108846905Y-47093143D01*
X108799286Y-47140762D01*
X108704048Y-47188381D01*
X108418333Y-47188381D01*
X108323095Y-47140762D01*
X108275476Y-47093143D01*
X109513571Y-46188381D02*
X109608810Y-46188381D01*
X109704048Y-46236000D01*
X109751667Y-46283619D01*
X109799286Y-46378857D01*
X109846905Y-46569333D01*
X109846905Y-46807429D01*
X109799286Y-46997905D01*
X109751667Y-47093143D01*
X109704048Y-47140762D01*
X109608810Y-47188381D01*
X109513571Y-47188381D01*
X109418333Y-47140762D01*
X109370714Y-47093143D01*
X109323095Y-46997905D01*
X109275476Y-46807429D01*
X109275476Y-46569333D01*
X109323095Y-46378857D01*
X109370714Y-46283619D01*
X109418333Y-46236000D01*
X109513571Y-46188381D01*
X76835095Y-84224762D02*
X76977952Y-84272381D01*
X77216048Y-84272381D01*
X77311286Y-84224762D01*
X77358905Y-84177143D01*
X77406524Y-84081905D01*
X77406524Y-83986667D01*
X77358905Y-83891429D01*
X77311286Y-83843810D01*
X77216048Y-83796190D01*
X77025571Y-83748571D01*
X76930333Y-83700952D01*
X76882714Y-83653333D01*
X76835095Y-83558095D01*
X76835095Y-83462857D01*
X76882714Y-83367619D01*
X76930333Y-83320000D01*
X77025571Y-83272381D01*
X77263667Y-83272381D01*
X77406524Y-83320000D01*
X78358905Y-84272381D02*
X77787476Y-84272381D01*
X78073190Y-84272381D02*
X78073190Y-83272381D01*
X77977952Y-83415238D01*
X77882714Y-83510476D01*
X77787476Y-83558095D01*
X71699619Y-80335381D02*
X71366285Y-79859190D01*
X71128190Y-80335381D02*
X71128190Y-79335381D01*
X71509143Y-79335381D01*
X71604381Y-79383000D01*
X71652000Y-79430619D01*
X71699619Y-79525857D01*
X71699619Y-79668714D01*
X71652000Y-79763952D01*
X71604381Y-79811571D01*
X71509143Y-79859190D01*
X71128190Y-79859190D01*
X72128190Y-79811571D02*
X72461524Y-79811571D01*
X72604381Y-80335381D02*
X72128190Y-80335381D01*
X72128190Y-79335381D01*
X72604381Y-79335381D01*
X72985333Y-80287762D02*
X73128190Y-80335381D01*
X73366286Y-80335381D01*
X73461524Y-80287762D01*
X73509143Y-80240143D01*
X73556762Y-80144905D01*
X73556762Y-80049667D01*
X73509143Y-79954429D01*
X73461524Y-79906810D01*
X73366286Y-79859190D01*
X73175809Y-79811571D01*
X73080571Y-79763952D01*
X73032952Y-79716333D01*
X72985333Y-79621095D01*
X72985333Y-79525857D01*
X73032952Y-79430619D01*
X73080571Y-79383000D01*
X73175809Y-79335381D01*
X73413905Y-79335381D01*
X73556762Y-79383000D01*
X73985333Y-79811571D02*
X74318667Y-79811571D01*
X74461524Y-80335381D02*
X73985333Y-80335381D01*
X73985333Y-79335381D01*
X74461524Y-79335381D01*
X74747238Y-79335381D02*
X75318667Y-79335381D01*
X75032952Y-80335381D02*
X75032952Y-79335381D01*
X76271381Y-53506666D02*
X75795190Y-53840000D01*
X76271381Y-54078095D02*
X75271381Y-54078095D01*
X75271381Y-53697142D01*
X75319000Y-53601904D01*
X75366619Y-53554285D01*
X75461857Y-53506666D01*
X75604714Y-53506666D01*
X75699952Y-53554285D01*
X75747571Y-53601904D01*
X75795190Y-53697142D01*
X75795190Y-54078095D01*
X75271381Y-53173333D02*
X75271381Y-52554285D01*
X75652333Y-52887619D01*
X75652333Y-52744761D01*
X75699952Y-52649523D01*
X75747571Y-52601904D01*
X75842810Y-52554285D01*
X76080905Y-52554285D01*
X76176143Y-52601904D01*
X76223762Y-52649523D01*
X76271381Y-52744761D01*
X76271381Y-53030476D01*
X76223762Y-53125714D01*
X76176143Y-53173333D01*
X72080381Y-54109857D02*
X71604190Y-54443191D01*
X72080381Y-54681286D02*
X71080381Y-54681286D01*
X71080381Y-54300333D01*
X71128000Y-54205095D01*
X71175619Y-54157476D01*
X71270857Y-54109857D01*
X71413714Y-54109857D01*
X71508952Y-54157476D01*
X71556571Y-54205095D01*
X71604190Y-54300333D01*
X71604190Y-54681286D01*
X71175619Y-53728905D02*
X71128000Y-53681286D01*
X71080381Y-53586048D01*
X71080381Y-53347952D01*
X71128000Y-53252714D01*
X71175619Y-53205095D01*
X71270857Y-53157476D01*
X71366095Y-53157476D01*
X71508952Y-53205095D01*
X72080381Y-53776524D01*
X72080381Y-53157476D01*
X71413714Y-52300333D02*
X72080381Y-52300333D01*
X71032762Y-52538429D02*
X71747048Y-52776524D01*
X71747048Y-52157476D01*
X113228381Y-48521857D02*
X112752190Y-48855191D01*
X113228381Y-49093286D02*
X112228381Y-49093286D01*
X112228381Y-48712333D01*
X112276000Y-48617095D01*
X112323619Y-48569476D01*
X112418857Y-48521857D01*
X112561714Y-48521857D01*
X112656952Y-48569476D01*
X112704571Y-48617095D01*
X112752190Y-48712333D01*
X112752190Y-49093286D01*
X112323619Y-48140905D02*
X112276000Y-48093286D01*
X112228381Y-47998048D01*
X112228381Y-47759952D01*
X112276000Y-47664714D01*
X112323619Y-47617095D01*
X112418857Y-47569476D01*
X112514095Y-47569476D01*
X112656952Y-47617095D01*
X113228381Y-48188524D01*
X113228381Y-47569476D01*
X112228381Y-46712333D02*
X112228381Y-46902810D01*
X112276000Y-46998048D01*
X112323619Y-47045667D01*
X112466476Y-47140905D01*
X112656952Y-47188524D01*
X113037905Y-47188524D01*
X113133143Y-47140905D01*
X113180762Y-47093286D01*
X113228381Y-46998048D01*
X113228381Y-46807571D01*
X113180762Y-46712333D01*
X113133143Y-46664714D01*
X113037905Y-46617095D01*
X112799810Y-46617095D01*
X112704571Y-46664714D01*
X112656952Y-46712333D01*
X112609333Y-46807571D01*
X112609333Y-46998048D01*
X112656952Y-47093286D01*
X112704571Y-47140905D01*
X112799810Y-47188524D01*
X111704381Y-48521857D02*
X111228190Y-48855191D01*
X111704381Y-49093286D02*
X110704381Y-49093286D01*
X110704381Y-48712333D01*
X110752000Y-48617095D01*
X110799619Y-48569476D01*
X110894857Y-48521857D01*
X111037714Y-48521857D01*
X111132952Y-48569476D01*
X111180571Y-48617095D01*
X111228190Y-48712333D01*
X111228190Y-49093286D01*
X110799619Y-48140905D02*
X110752000Y-48093286D01*
X110704381Y-47998048D01*
X110704381Y-47759952D01*
X110752000Y-47664714D01*
X110799619Y-47617095D01*
X110894857Y-47569476D01*
X110990095Y-47569476D01*
X111132952Y-47617095D01*
X111704381Y-48188524D01*
X111704381Y-47569476D01*
X110704381Y-47236143D02*
X110704381Y-46569476D01*
X111704381Y-46998048D01*
X112593381Y-53220857D02*
X112117190Y-53554191D01*
X112593381Y-53792286D02*
X111593381Y-53792286D01*
X111593381Y-53411333D01*
X111641000Y-53316095D01*
X111688619Y-53268476D01*
X111783857Y-53220857D01*
X111926714Y-53220857D01*
X112021952Y-53268476D01*
X112069571Y-53316095D01*
X112117190Y-53411333D01*
X112117190Y-53792286D01*
X111688619Y-52839905D02*
X111641000Y-52792286D01*
X111593381Y-52697048D01*
X111593381Y-52458952D01*
X111641000Y-52363714D01*
X111688619Y-52316095D01*
X111783857Y-52268476D01*
X111879095Y-52268476D01*
X112021952Y-52316095D01*
X112593381Y-52887524D01*
X112593381Y-52268476D01*
X112021952Y-51697048D02*
X111974333Y-51792286D01*
X111926714Y-51839905D01*
X111831476Y-51887524D01*
X111783857Y-51887524D01*
X111688619Y-51839905D01*
X111641000Y-51792286D01*
X111593381Y-51697048D01*
X111593381Y-51506571D01*
X111641000Y-51411333D01*
X111688619Y-51363714D01*
X111783857Y-51316095D01*
X111831476Y-51316095D01*
X111926714Y-51363714D01*
X111974333Y-51411333D01*
X112021952Y-51506571D01*
X112021952Y-51697048D01*
X112069571Y-51792286D01*
X112117190Y-51839905D01*
X112212429Y-51887524D01*
X112402905Y-51887524D01*
X112498143Y-51839905D01*
X112545762Y-51792286D01*
X112593381Y-51697048D01*
X112593381Y-51506571D01*
X112545762Y-51411333D01*
X112498143Y-51363714D01*
X112402905Y-51316095D01*
X112212429Y-51316095D01*
X112117190Y-51363714D01*
X112069571Y-51411333D01*
X112021952Y-51506571D01*
X110561381Y-58300857D02*
X110085190Y-58634191D01*
X110561381Y-58872286D02*
X109561381Y-58872286D01*
X109561381Y-58491333D01*
X109609000Y-58396095D01*
X109656619Y-58348476D01*
X109751857Y-58300857D01*
X109894714Y-58300857D01*
X109989952Y-58348476D01*
X110037571Y-58396095D01*
X110085190Y-58491333D01*
X110085190Y-58872286D01*
X109656619Y-57919905D02*
X109609000Y-57872286D01*
X109561381Y-57777048D01*
X109561381Y-57538952D01*
X109609000Y-57443714D01*
X109656619Y-57396095D01*
X109751857Y-57348476D01*
X109847095Y-57348476D01*
X109989952Y-57396095D01*
X110561381Y-57967524D01*
X110561381Y-57348476D01*
X110561381Y-56872286D02*
X110561381Y-56681810D01*
X110513762Y-56586571D01*
X110466143Y-56538952D01*
X110323286Y-56443714D01*
X110132810Y-56396095D01*
X109751857Y-56396095D01*
X109656619Y-56443714D01*
X109609000Y-56491333D01*
X109561381Y-56586571D01*
X109561381Y-56777048D01*
X109609000Y-56872286D01*
X109656619Y-56919905D01*
X109751857Y-56967524D01*
X109989952Y-56967524D01*
X110085190Y-56919905D01*
X110132810Y-56872286D01*
X110180429Y-56777048D01*
X110180429Y-56586571D01*
X110132810Y-56491333D01*
X110085190Y-56443714D01*
X109989952Y-56396095D01*
X103116143Y-47188381D02*
X102782809Y-46712190D01*
X102544714Y-47188381D02*
X102544714Y-46188381D01*
X102925667Y-46188381D01*
X103020905Y-46236000D01*
X103068524Y-46283619D01*
X103116143Y-46378857D01*
X103116143Y-46521714D01*
X103068524Y-46616952D01*
X103020905Y-46664571D01*
X102925667Y-46712190D01*
X102544714Y-46712190D01*
X103449476Y-46188381D02*
X104068524Y-46188381D01*
X103735190Y-46569333D01*
X103878048Y-46569333D01*
X103973286Y-46616952D01*
X104020905Y-46664571D01*
X104068524Y-46759810D01*
X104068524Y-46997905D01*
X104020905Y-47093143D01*
X103973286Y-47140762D01*
X103878048Y-47188381D01*
X103592333Y-47188381D01*
X103497095Y-47140762D01*
X103449476Y-47093143D01*
X104687571Y-46188381D02*
X104782810Y-46188381D01*
X104878048Y-46236000D01*
X104925667Y-46283619D01*
X104973286Y-46378857D01*
X105020905Y-46569333D01*
X105020905Y-46807429D01*
X104973286Y-46997905D01*
X104925667Y-47093143D01*
X104878048Y-47140762D01*
X104782810Y-47188381D01*
X104687571Y-47188381D01*
X104592333Y-47140762D01*
X104544714Y-47093143D01*
X104497095Y-46997905D01*
X104449476Y-46807429D01*
X104449476Y-46569333D01*
X104497095Y-46378857D01*
X104544714Y-46283619D01*
X104592333Y-46236000D01*
X104687571Y-46188381D01*
X109037381Y-58300857D02*
X108561190Y-58634191D01*
X109037381Y-58872286D02*
X108037381Y-58872286D01*
X108037381Y-58491333D01*
X108085000Y-58396095D01*
X108132619Y-58348476D01*
X108227857Y-58300857D01*
X108370714Y-58300857D01*
X108465952Y-58348476D01*
X108513571Y-58396095D01*
X108561190Y-58491333D01*
X108561190Y-58872286D01*
X108037381Y-57967524D02*
X108037381Y-57348476D01*
X108418333Y-57681810D01*
X108418333Y-57538952D01*
X108465952Y-57443714D01*
X108513571Y-57396095D01*
X108608810Y-57348476D01*
X108846905Y-57348476D01*
X108942143Y-57396095D01*
X108989762Y-57443714D01*
X109037381Y-57538952D01*
X109037381Y-57824667D01*
X108989762Y-57919905D01*
X108942143Y-57967524D01*
X109037381Y-56396095D02*
X109037381Y-56967524D01*
X109037381Y-56681810D02*
X108037381Y-56681810D01*
X108180238Y-56777048D01*
X108275476Y-56872286D01*
X108323095Y-56967524D01*
X83304143Y-57729381D02*
X82970809Y-57253190D01*
X82732714Y-57729381D02*
X82732714Y-56729381D01*
X83113667Y-56729381D01*
X83208905Y-56777000D01*
X83256524Y-56824619D01*
X83304143Y-56919857D01*
X83304143Y-57062714D01*
X83256524Y-57157952D01*
X83208905Y-57205571D01*
X83113667Y-57253190D01*
X82732714Y-57253190D01*
X83637476Y-56729381D02*
X84256524Y-56729381D01*
X83923190Y-57110333D01*
X84066048Y-57110333D01*
X84161286Y-57157952D01*
X84208905Y-57205571D01*
X84256524Y-57300810D01*
X84256524Y-57538905D01*
X84208905Y-57634143D01*
X84161286Y-57681762D01*
X84066048Y-57729381D01*
X83780333Y-57729381D01*
X83685095Y-57681762D01*
X83637476Y-57634143D01*
X84637476Y-56824619D02*
X84685095Y-56777000D01*
X84780333Y-56729381D01*
X85018429Y-56729381D01*
X85113667Y-56777000D01*
X85161286Y-56824619D01*
X85208905Y-56919857D01*
X85208905Y-57015095D01*
X85161286Y-57157952D01*
X84589857Y-57729381D01*
X85208905Y-57729381D01*
X83304143Y-56332381D02*
X82970809Y-55856190D01*
X82732714Y-56332381D02*
X82732714Y-55332381D01*
X83113667Y-55332381D01*
X83208905Y-55380000D01*
X83256524Y-55427619D01*
X83304143Y-55522857D01*
X83304143Y-55665714D01*
X83256524Y-55760952D01*
X83208905Y-55808571D01*
X83113667Y-55856190D01*
X82732714Y-55856190D01*
X83637476Y-55332381D02*
X84256524Y-55332381D01*
X83923190Y-55713333D01*
X84066048Y-55713333D01*
X84161286Y-55760952D01*
X84208905Y-55808571D01*
X84256524Y-55903810D01*
X84256524Y-56141905D01*
X84208905Y-56237143D01*
X84161286Y-56284762D01*
X84066048Y-56332381D01*
X83780333Y-56332381D01*
X83685095Y-56284762D01*
X83637476Y-56237143D01*
X84589857Y-55332381D02*
X85208905Y-55332381D01*
X84875571Y-55713333D01*
X85018429Y-55713333D01*
X85113667Y-55760952D01*
X85161286Y-55808571D01*
X85208905Y-55903810D01*
X85208905Y-56141905D01*
X85161286Y-56237143D01*
X85113667Y-56284762D01*
X85018429Y-56332381D01*
X84732714Y-56332381D01*
X84637476Y-56284762D01*
X84589857Y-56237143D01*
X101576143Y-56014857D02*
X101623762Y-56062476D01*
X101671381Y-56205333D01*
X101671381Y-56300571D01*
X101623762Y-56443429D01*
X101528524Y-56538667D01*
X101433286Y-56586286D01*
X101242810Y-56633905D01*
X101099952Y-56633905D01*
X100909476Y-56586286D01*
X100814238Y-56538667D01*
X100719000Y-56443429D01*
X100671381Y-56300571D01*
X100671381Y-56205333D01*
X100719000Y-56062476D01*
X100766619Y-56014857D01*
X100766619Y-55633905D02*
X100719000Y-55586286D01*
X100671381Y-55491048D01*
X100671381Y-55252952D01*
X100719000Y-55157714D01*
X100766619Y-55110095D01*
X100861857Y-55062476D01*
X100957095Y-55062476D01*
X101099952Y-55110095D01*
X101671381Y-55681524D01*
X101671381Y-55062476D01*
X101671381Y-54586286D02*
X101671381Y-54395810D01*
X101623762Y-54300571D01*
X101576143Y-54252952D01*
X101433286Y-54157714D01*
X101242810Y-54110095D01*
X100861857Y-54110095D01*
X100766619Y-54157714D01*
X100719000Y-54205333D01*
X100671381Y-54300571D01*
X100671381Y-54491048D01*
X100719000Y-54586286D01*
X100766619Y-54633905D01*
X100861857Y-54681524D01*
X101099952Y-54681524D01*
X101195190Y-54633905D01*
X101242810Y-54586286D01*
X101290429Y-54491048D01*
X101290429Y-54300571D01*
X101242810Y-54205333D01*
X101195190Y-54157714D01*
X101099952Y-54110095D01*
X103862143Y-60332857D02*
X103909762Y-60380476D01*
X103957381Y-60523333D01*
X103957381Y-60618571D01*
X103909762Y-60761429D01*
X103814524Y-60856667D01*
X103719286Y-60904286D01*
X103528810Y-60951905D01*
X103385952Y-60951905D01*
X103195476Y-60904286D01*
X103100238Y-60856667D01*
X103005000Y-60761429D01*
X102957381Y-60618571D01*
X102957381Y-60523333D01*
X103005000Y-60380476D01*
X103052619Y-60332857D01*
X102957381Y-59999524D02*
X102957381Y-59380476D01*
X103338333Y-59713810D01*
X103338333Y-59570952D01*
X103385952Y-59475714D01*
X103433571Y-59428095D01*
X103528810Y-59380476D01*
X103766905Y-59380476D01*
X103862143Y-59428095D01*
X103909762Y-59475714D01*
X103957381Y-59570952D01*
X103957381Y-59856667D01*
X103909762Y-59951905D01*
X103862143Y-59999524D01*
X103290714Y-58523333D02*
X103957381Y-58523333D01*
X102909762Y-58761429D02*
X103624048Y-58999524D01*
X103624048Y-58380476D01*
X95408905Y-78446381D02*
X95408905Y-79255905D01*
X95456524Y-79351143D01*
X95504143Y-79398762D01*
X95599381Y-79446381D01*
X95789858Y-79446381D01*
X95885096Y-79398762D01*
X95932715Y-79351143D01*
X95980334Y-79255905D01*
X95980334Y-78446381D01*
X96980334Y-79446381D02*
X96408905Y-79446381D01*
X96694619Y-79446381D02*
X96694619Y-78446381D01*
X96599381Y-78589238D01*
X96504143Y-78684476D01*
X96408905Y-78732095D01*
X97361286Y-78541619D02*
X97408905Y-78494000D01*
X97504143Y-78446381D01*
X97742239Y-78446381D01*
X97837477Y-78494000D01*
X97885096Y-78541619D01*
X97932715Y-78636857D01*
X97932715Y-78732095D01*
X97885096Y-78874952D01*
X97313667Y-79446381D01*
X97932715Y-79446381D01*
X95631095Y-71334381D02*
X95631095Y-72143905D01*
X95678714Y-72239143D01*
X95726333Y-72286762D01*
X95821571Y-72334381D01*
X96012048Y-72334381D01*
X96107286Y-72286762D01*
X96154905Y-72239143D01*
X96202524Y-72143905D01*
X96202524Y-71334381D01*
X97154905Y-71334381D02*
X96678714Y-71334381D01*
X96631095Y-71810571D01*
X96678714Y-71762952D01*
X96773952Y-71715333D01*
X97012048Y-71715333D01*
X97107286Y-71762952D01*
X97154905Y-71810571D01*
X97202524Y-71905810D01*
X97202524Y-72143905D01*
X97154905Y-72239143D01*
X97107286Y-72286762D01*
X97012048Y-72334381D01*
X96773952Y-72334381D01*
X96678714Y-72286762D01*
X96631095Y-72239143D01*
X117340143Y-51919143D02*
X117292524Y-51966762D01*
X117149667Y-52014381D01*
X117054429Y-52014381D01*
X116911571Y-51966762D01*
X116816333Y-51871524D01*
X116768714Y-51776286D01*
X116721095Y-51585810D01*
X116721095Y-51442952D01*
X116768714Y-51252476D01*
X116816333Y-51157238D01*
X116911571Y-51062000D01*
X117054429Y-51014381D01*
X117149667Y-51014381D01*
X117292524Y-51062000D01*
X117340143Y-51109619D01*
X117721095Y-51109619D02*
X117768714Y-51062000D01*
X117863952Y-51014381D01*
X118102048Y-51014381D01*
X118197286Y-51062000D01*
X118244905Y-51109619D01*
X118292524Y-51204857D01*
X118292524Y-51300095D01*
X118244905Y-51442952D01*
X117673476Y-52014381D01*
X118292524Y-52014381D01*
X118673476Y-51109619D02*
X118721095Y-51062000D01*
X118816333Y-51014381D01*
X119054429Y-51014381D01*
X119149667Y-51062000D01*
X119197286Y-51109619D01*
X119244905Y-51204857D01*
X119244905Y-51300095D01*
X119197286Y-51442952D01*
X118625857Y-52014381D01*
X119244905Y-52014381D01*
M02*
