G04 #@! TF.FileFunction,Legend,Bot*
%FSLAX46Y46*%
G04 Gerber Fmt 4.6, Leading zero omitted, Abs format (unit mm)*
G04 Created by KiCad (PCBNEW 4.0.7) date 03/18/19 10:08:06*
%MOMM*%
%LPD*%
G01*
G04 APERTURE LIST*
%ADD10C,0.100000*%
%ADD11C,0.120000*%
%ADD12C,0.150000*%
%ADD13C,0.203200*%
%ADD14C,0.152400*%
%ADD15C,0.500000*%
%ADD16C,0.066040*%
G04 APERTURE END LIST*
D10*
D11*
X71717000Y-82173000D02*
X71717000Y-82673000D01*
X70777000Y-82673000D02*
X70777000Y-82173000D01*
X75026000Y-53375000D02*
X74326000Y-53375000D01*
X74326000Y-54575000D02*
X75026000Y-54575000D01*
X83443000Y-69253000D02*
X83943000Y-69253000D01*
X83943000Y-70193000D02*
X83443000Y-70193000D01*
X83443000Y-74841000D02*
X83943000Y-74841000D01*
X83943000Y-75781000D02*
X83443000Y-75781000D01*
X74968000Y-56511000D02*
X74968000Y-56011000D01*
X75908000Y-56011000D02*
X75908000Y-56511000D01*
X65917000Y-58331000D02*
X66417000Y-58331000D01*
X66417000Y-59271000D02*
X65917000Y-59271000D01*
X91217000Y-83277000D02*
X91917000Y-83277000D01*
X91917000Y-82077000D02*
X91217000Y-82077000D01*
X100041000Y-52420000D02*
X100041000Y-51720000D01*
X98841000Y-51720000D02*
X98841000Y-52420000D01*
X94519000Y-68164000D02*
X95219000Y-68164000D01*
X95219000Y-66964000D02*
X94519000Y-66964000D01*
X76839000Y-51727000D02*
X77339000Y-51727000D01*
X77339000Y-52667000D02*
X76839000Y-52667000D01*
X97247000Y-58516000D02*
X97247000Y-57816000D01*
X96047000Y-57816000D02*
X96047000Y-58516000D01*
X95027000Y-74895000D02*
X95727000Y-74895000D01*
X95727000Y-73695000D02*
X95027000Y-73695000D01*
X73876000Y-60329000D02*
X73876000Y-60829000D01*
X72936000Y-60829000D02*
X72936000Y-60329000D01*
X93891000Y-55368000D02*
X93891000Y-54868000D01*
X94831000Y-54868000D02*
X94831000Y-55368000D01*
X85814000Y-81157000D02*
X85814000Y-81657000D01*
X84874000Y-81657000D02*
X84874000Y-81157000D01*
X67179000Y-60287000D02*
X66679000Y-60287000D01*
X66679000Y-59347000D02*
X67179000Y-59347000D01*
X83223000Y-77593000D02*
X83223000Y-77093000D01*
X84163000Y-77093000D02*
X84163000Y-77593000D01*
X90335000Y-77085000D02*
X90335000Y-76585000D01*
X91275000Y-76585000D02*
X91275000Y-77085000D01*
X92799000Y-65663000D02*
X92799000Y-66163000D01*
X91859000Y-66163000D02*
X91859000Y-65663000D01*
X86178200Y-61772900D02*
X85678200Y-61772900D01*
X85678200Y-60832900D02*
X86178200Y-60832900D01*
X84654200Y-50876300D02*
X84154200Y-50876300D01*
X84154200Y-49936300D02*
X84654200Y-49936300D01*
X96585000Y-69058000D02*
X97725000Y-69058000D01*
X97725000Y-69058000D02*
X97725000Y-71158000D01*
X96585000Y-69058000D02*
X96585000Y-71158000D01*
X96585000Y-75281000D02*
X97725000Y-75281000D01*
X97725000Y-75281000D02*
X97725000Y-77381000D01*
X96585000Y-75281000D02*
X96585000Y-77381000D01*
X73234000Y-55951500D02*
X73234000Y-56951500D01*
X74594000Y-56951500D02*
X74594000Y-55951500D01*
D12*
X113538000Y-75311000D02*
X108458000Y-75311000D01*
X108458000Y-75311000D02*
X108458000Y-79883000D01*
X108458000Y-79883000D02*
X113538000Y-79883000D01*
X113538000Y-79883000D02*
X113538000Y-75311000D01*
X113538000Y-76835000D02*
X113030000Y-76835000D01*
X113030000Y-76835000D02*
X113030000Y-78105000D01*
X113030000Y-78105000D02*
X113538000Y-78105000D01*
X112268000Y-65786000D02*
X107188000Y-65786000D01*
X107188000Y-65786000D02*
X107188000Y-70358000D01*
X107188000Y-70358000D02*
X112268000Y-70358000D01*
X112268000Y-70358000D02*
X112268000Y-65786000D01*
X112268000Y-67310000D02*
X111760000Y-67310000D01*
X111760000Y-67310000D02*
X111760000Y-68580000D01*
X111760000Y-68580000D02*
X112268000Y-68580000D01*
X106299000Y-65786000D02*
X101219000Y-65786000D01*
X101219000Y-65786000D02*
X101219000Y-70358000D01*
X101219000Y-70358000D02*
X106299000Y-70358000D01*
X106299000Y-70358000D02*
X106299000Y-65786000D01*
X106299000Y-67310000D02*
X105791000Y-67310000D01*
X105791000Y-67310000D02*
X105791000Y-68580000D01*
X105791000Y-68580000D02*
X106299000Y-68580000D01*
X107569000Y-75311000D02*
X102489000Y-75311000D01*
X102489000Y-75311000D02*
X102489000Y-79883000D01*
X102489000Y-79883000D02*
X107569000Y-79883000D01*
X107569000Y-79883000D02*
X107569000Y-75311000D01*
X107569000Y-76835000D02*
X107061000Y-76835000D01*
X107061000Y-76835000D02*
X107061000Y-78105000D01*
X107061000Y-78105000D02*
X107569000Y-78105000D01*
D11*
X87279600Y-49210500D02*
X86349600Y-49210500D01*
X84119600Y-49210500D02*
X85049600Y-49210500D01*
X84119600Y-49210500D02*
X84119600Y-47050500D01*
X87279600Y-49210500D02*
X87279600Y-47750500D01*
X74045000Y-82655000D02*
X74545000Y-82655000D01*
X74545000Y-83715000D02*
X74045000Y-83715000D01*
X72902000Y-81131000D02*
X73402000Y-81131000D01*
X73402000Y-82191000D02*
X72902000Y-82191000D01*
X92611800Y-70557200D02*
X92611800Y-70057200D01*
X93671800Y-70057200D02*
X93671800Y-70557200D01*
X76222000Y-80395000D02*
X76222000Y-80895000D01*
X75162000Y-80895000D02*
X75162000Y-80395000D01*
X99500500Y-79841500D02*
X99000500Y-79841500D01*
X99000500Y-78781500D02*
X99500500Y-78781500D01*
X75206000Y-60329000D02*
X75206000Y-60829000D01*
X74146000Y-60829000D02*
X74146000Y-60329000D01*
X96270000Y-52302000D02*
X96770000Y-52302000D01*
X96770000Y-53362000D02*
X96270000Y-53362000D01*
X95355000Y-55368000D02*
X95355000Y-54868000D01*
X96415000Y-54868000D02*
X96415000Y-55368000D01*
X86338000Y-81657000D02*
X86338000Y-81157000D01*
X87398000Y-81157000D02*
X87398000Y-81657000D01*
X100539000Y-74049000D02*
X100539000Y-75049000D01*
X101899000Y-75049000D02*
X101899000Y-74049000D01*
D13*
X69458000Y-66654000D02*
X69458000Y-76084000D01*
X69458000Y-76084000D02*
X78878000Y-76084000D01*
X78878000Y-76084000D02*
X78878000Y-66654000D01*
X78878000Y-66654000D02*
X69458000Y-66654000D01*
D10*
X80672000Y-66374000D02*
G75*
G03X80672000Y-66374000I-254000J0D01*
G01*
D14*
X67954000Y-59185000D02*
X67954000Y-59935000D01*
X67954000Y-59935000D02*
X68704000Y-59935000D01*
D10*
G36*
X67949390Y-59935000D02*
X68654000Y-59935000D01*
X68654000Y-59238110D01*
X67949390Y-59238110D01*
X67949390Y-59935000D01*
G37*
D14*
X72254000Y-59935000D02*
X71504000Y-59935000D01*
X72254000Y-55635000D02*
X71504000Y-55635000D01*
X67954000Y-55635000D02*
X68704000Y-55635000D01*
X67954000Y-56385000D02*
X67954000Y-55635000D01*
X72254000Y-56385000D02*
X72254000Y-55635000D01*
X72254000Y-59185000D02*
X72254000Y-59935000D01*
D11*
X80100600Y-47031000D02*
X81900600Y-47031000D01*
X81900600Y-50251000D02*
X79450600Y-50251000D01*
D12*
X120269000Y-53340000D02*
X115189000Y-53340000D01*
X115189000Y-53340000D02*
X115189000Y-57912000D01*
X115189000Y-57912000D02*
X120269000Y-57912000D01*
X120269000Y-57912000D02*
X120269000Y-53340000D01*
X120269000Y-54864000D02*
X119761000Y-54864000D01*
X119761000Y-54864000D02*
X119761000Y-56134000D01*
X119761000Y-56134000D02*
X120269000Y-56134000D01*
D15*
X85523605Y-70358000D02*
G75*
G03X85523605Y-70358000I-179605J0D01*
G01*
D11*
X92079000Y-50711000D02*
X92579000Y-50711000D01*
X92579000Y-51651000D02*
X92079000Y-51651000D01*
X80712500Y-51473000D02*
X81212500Y-51473000D01*
X81212500Y-52413000D02*
X80712500Y-52413000D01*
X77685800Y-57882600D02*
X77685800Y-57382600D01*
X78625800Y-57382600D02*
X78625800Y-57882600D01*
X77635000Y-60321000D02*
X77635000Y-59821000D01*
X78575000Y-59821000D02*
X78575000Y-60321000D01*
D12*
X114300000Y-63119000D02*
X114300000Y-62992000D01*
X114300000Y-64770000D02*
X114300000Y-65532000D01*
X114300000Y-63754000D02*
X114300000Y-63119000D01*
X114681000Y-64643000D02*
X114808000Y-64770000D01*
X114808000Y-64770000D02*
X113792000Y-64770000D01*
X113792000Y-64770000D02*
X113919000Y-64643000D01*
X114681000Y-63881000D02*
X114808000Y-63754000D01*
X114808000Y-63754000D02*
X113792000Y-63754000D01*
X113792000Y-63754000D02*
X113919000Y-63881000D01*
X114300000Y-64262000D02*
X114681000Y-63881000D01*
X113919000Y-63881000D02*
X114300000Y-64135000D01*
X114300000Y-64262000D02*
X113919000Y-64262000D01*
X113919000Y-64262000D02*
X113792000Y-64389000D01*
X114300000Y-64262000D02*
X114681000Y-64262000D01*
X114681000Y-64262000D02*
X114808000Y-64135000D01*
X113919000Y-64643000D02*
X114300000Y-64262000D01*
X114300000Y-64262000D02*
X114681000Y-64643000D01*
D16*
X119778780Y-65079880D02*
X119778780Y-65476120D01*
X119778780Y-65476120D02*
X118981220Y-65476120D01*
X118981220Y-65079880D02*
X118981220Y-65476120D01*
X119778780Y-65079880D02*
X118981220Y-65079880D01*
D11*
X77365000Y-57408000D02*
X77365000Y-57908000D01*
X76305000Y-57908000D02*
X76305000Y-57408000D01*
X79346200Y-54741000D02*
X79346200Y-55241000D01*
X78286200Y-55241000D02*
X78286200Y-54741000D01*
X79854200Y-57281000D02*
X79854200Y-57781000D01*
X78794200Y-57781000D02*
X78794200Y-57281000D01*
X77238000Y-59694000D02*
X77238000Y-60194000D01*
X76178000Y-60194000D02*
X76178000Y-59694000D01*
X90291000Y-57518000D02*
X90291000Y-58218000D01*
X90291000Y-58218000D02*
X83241000Y-58218000D01*
X83241000Y-58218000D02*
X83241000Y-57468000D01*
X83241000Y-52768000D02*
X83241000Y-52018000D01*
X83241000Y-52018000D02*
X90291000Y-52018000D01*
X90291000Y-52018000D02*
X90291000Y-52668000D01*
X90291000Y-52668000D02*
X92991000Y-52668000D01*
X97405000Y-81305500D02*
X96905000Y-81305500D01*
X96905000Y-80365500D02*
X97405000Y-80365500D01*
X80293400Y-62639800D02*
X80793400Y-62639800D01*
X80793400Y-63699800D02*
X80293400Y-63699800D01*
X92713400Y-77694600D02*
X92713400Y-77194600D01*
X93773400Y-77194600D02*
X93773400Y-77694600D01*
D12*
X70334143Y-82256334D02*
X70381762Y-82208715D01*
X70429381Y-82065858D01*
X70429381Y-81970620D01*
X70381762Y-81827762D01*
X70286524Y-81732524D01*
X70191286Y-81684905D01*
X70000810Y-81637286D01*
X69857952Y-81637286D01*
X69667476Y-81684905D01*
X69572238Y-81732524D01*
X69477000Y-81827762D01*
X69429381Y-81970620D01*
X69429381Y-82065858D01*
X69477000Y-82208715D01*
X69524619Y-82256334D01*
X70429381Y-83208715D02*
X70429381Y-82637286D01*
X70429381Y-82923000D02*
X69429381Y-82923000D01*
X69572238Y-82827762D01*
X69667476Y-82732524D01*
X69715095Y-82637286D01*
X72556666Y-54332143D02*
X72604285Y-54379762D01*
X72747142Y-54427381D01*
X72842380Y-54427381D01*
X72985238Y-54379762D01*
X73080476Y-54284524D01*
X73128095Y-54189286D01*
X73175714Y-53998810D01*
X73175714Y-53855952D01*
X73128095Y-53665476D01*
X73080476Y-53570238D01*
X72985238Y-53475000D01*
X72842380Y-53427381D01*
X72747142Y-53427381D01*
X72604285Y-53475000D01*
X72556666Y-53522619D01*
X72175714Y-53522619D02*
X72128095Y-53475000D01*
X72032857Y-53427381D01*
X71794761Y-53427381D01*
X71699523Y-53475000D01*
X71651904Y-53522619D01*
X71604285Y-53617857D01*
X71604285Y-53713095D01*
X71651904Y-53855952D01*
X72223333Y-54427381D01*
X71604285Y-54427381D01*
X83859666Y-68810143D02*
X83907285Y-68857762D01*
X84050142Y-68905381D01*
X84145380Y-68905381D01*
X84288238Y-68857762D01*
X84383476Y-68762524D01*
X84431095Y-68667286D01*
X84478714Y-68476810D01*
X84478714Y-68333952D01*
X84431095Y-68143476D01*
X84383476Y-68048238D01*
X84288238Y-67953000D01*
X84145380Y-67905381D01*
X84050142Y-67905381D01*
X83907285Y-67953000D01*
X83859666Y-68000619D01*
X83526333Y-67905381D02*
X82907285Y-67905381D01*
X83240619Y-68286333D01*
X83097761Y-68286333D01*
X83002523Y-68333952D01*
X82954904Y-68381571D01*
X82907285Y-68476810D01*
X82907285Y-68714905D01*
X82954904Y-68810143D01*
X83002523Y-68857762D01*
X83097761Y-68905381D01*
X83383476Y-68905381D01*
X83478714Y-68857762D01*
X83526333Y-68810143D01*
X85891666Y-75668143D02*
X85939285Y-75715762D01*
X86082142Y-75763381D01*
X86177380Y-75763381D01*
X86320238Y-75715762D01*
X86415476Y-75620524D01*
X86463095Y-75525286D01*
X86510714Y-75334810D01*
X86510714Y-75191952D01*
X86463095Y-75001476D01*
X86415476Y-74906238D01*
X86320238Y-74811000D01*
X86177380Y-74763381D01*
X86082142Y-74763381D01*
X85939285Y-74811000D01*
X85891666Y-74858619D01*
X85034523Y-75096714D02*
X85034523Y-75763381D01*
X85272619Y-74715762D02*
X85510714Y-75430048D01*
X84891666Y-75430048D01*
X75795143Y-58380334D02*
X75842762Y-58332715D01*
X75890381Y-58189858D01*
X75890381Y-58094620D01*
X75842762Y-57951762D01*
X75747524Y-57856524D01*
X75652286Y-57808905D01*
X75461810Y-57761286D01*
X75318952Y-57761286D01*
X75128476Y-57808905D01*
X75033238Y-57856524D01*
X74938000Y-57951762D01*
X74890381Y-58094620D01*
X74890381Y-58189858D01*
X74938000Y-58332715D01*
X74985619Y-58380334D01*
X74890381Y-59285096D02*
X74890381Y-58808905D01*
X75366571Y-58761286D01*
X75318952Y-58808905D01*
X75271333Y-58904143D01*
X75271333Y-59142239D01*
X75318952Y-59237477D01*
X75366571Y-59285096D01*
X75461810Y-59332715D01*
X75699905Y-59332715D01*
X75795143Y-59285096D01*
X75842762Y-59237477D01*
X75890381Y-59142239D01*
X75890381Y-58904143D01*
X75842762Y-58808905D01*
X75795143Y-58761286D01*
X64301666Y-59158143D02*
X64349285Y-59205762D01*
X64492142Y-59253381D01*
X64587380Y-59253381D01*
X64730238Y-59205762D01*
X64825476Y-59110524D01*
X64873095Y-59015286D01*
X64920714Y-58824810D01*
X64920714Y-58681952D01*
X64873095Y-58491476D01*
X64825476Y-58396238D01*
X64730238Y-58301000D01*
X64587380Y-58253381D01*
X64492142Y-58253381D01*
X64349285Y-58301000D01*
X64301666Y-58348619D01*
X63444523Y-58253381D02*
X63635000Y-58253381D01*
X63730238Y-58301000D01*
X63777857Y-58348619D01*
X63873095Y-58491476D01*
X63920714Y-58681952D01*
X63920714Y-59062905D01*
X63873095Y-59158143D01*
X63825476Y-59205762D01*
X63730238Y-59253381D01*
X63539761Y-59253381D01*
X63444523Y-59205762D01*
X63396904Y-59158143D01*
X63349285Y-59062905D01*
X63349285Y-58824810D01*
X63396904Y-58729571D01*
X63444523Y-58681952D01*
X63539761Y-58634333D01*
X63730238Y-58634333D01*
X63825476Y-58681952D01*
X63873095Y-58729571D01*
X63920714Y-58824810D01*
X89288857Y-83034143D02*
X89336476Y-83081762D01*
X89479333Y-83129381D01*
X89574571Y-83129381D01*
X89717429Y-83081762D01*
X89812667Y-82986524D01*
X89860286Y-82891286D01*
X89907905Y-82700810D01*
X89907905Y-82557952D01*
X89860286Y-82367476D01*
X89812667Y-82272238D01*
X89717429Y-82177000D01*
X89574571Y-82129381D01*
X89479333Y-82129381D01*
X89336476Y-82177000D01*
X89288857Y-82224619D01*
X88336476Y-83129381D02*
X88907905Y-83129381D01*
X88622191Y-83129381D02*
X88622191Y-82129381D01*
X88717429Y-82272238D01*
X88812667Y-82367476D01*
X88907905Y-82415095D01*
X87384095Y-83129381D02*
X87955524Y-83129381D01*
X87669810Y-83129381D02*
X87669810Y-82129381D01*
X87765048Y-82272238D01*
X87860286Y-82367476D01*
X87955524Y-82415095D01*
X99798143Y-54348143D02*
X99845762Y-54300524D01*
X99893381Y-54157667D01*
X99893381Y-54062429D01*
X99845762Y-53919571D01*
X99750524Y-53824333D01*
X99655286Y-53776714D01*
X99464810Y-53729095D01*
X99321952Y-53729095D01*
X99131476Y-53776714D01*
X99036238Y-53824333D01*
X98941000Y-53919571D01*
X98893381Y-54062429D01*
X98893381Y-54157667D01*
X98941000Y-54300524D01*
X98988619Y-54348143D01*
X99893381Y-55300524D02*
X99893381Y-54729095D01*
X99893381Y-55014809D02*
X98893381Y-55014809D01*
X99036238Y-54919571D01*
X99131476Y-54824333D01*
X99179095Y-54729095D01*
X99226714Y-56157667D02*
X99893381Y-56157667D01*
X98845762Y-55919571D02*
X99560048Y-55681476D01*
X99560048Y-56300524D01*
X98305857Y-68048143D02*
X98353476Y-68095762D01*
X98496333Y-68143381D01*
X98591571Y-68143381D01*
X98734429Y-68095762D01*
X98829667Y-68000524D01*
X98877286Y-67905286D01*
X98924905Y-67714810D01*
X98924905Y-67571952D01*
X98877286Y-67381476D01*
X98829667Y-67286238D01*
X98734429Y-67191000D01*
X98591571Y-67143381D01*
X98496333Y-67143381D01*
X98353476Y-67191000D01*
X98305857Y-67238619D01*
X97353476Y-68143381D02*
X97924905Y-68143381D01*
X97639191Y-68143381D02*
X97639191Y-67143381D01*
X97734429Y-67286238D01*
X97829667Y-67381476D01*
X97924905Y-67429095D01*
X96448714Y-67143381D02*
X96924905Y-67143381D01*
X96972524Y-67619571D01*
X96924905Y-67571952D01*
X96829667Y-67524333D01*
X96591571Y-67524333D01*
X96496333Y-67571952D01*
X96448714Y-67619571D01*
X96401095Y-67714810D01*
X96401095Y-67952905D01*
X96448714Y-68048143D01*
X96496333Y-68095762D01*
X96591571Y-68143381D01*
X96829667Y-68143381D01*
X96924905Y-68095762D01*
X96972524Y-68048143D01*
X75318857Y-52554143D02*
X75366476Y-52601762D01*
X75509333Y-52649381D01*
X75604571Y-52649381D01*
X75747429Y-52601762D01*
X75842667Y-52506524D01*
X75890286Y-52411286D01*
X75937905Y-52220810D01*
X75937905Y-52077952D01*
X75890286Y-51887476D01*
X75842667Y-51792238D01*
X75747429Y-51697000D01*
X75604571Y-51649381D01*
X75509333Y-51649381D01*
X75366476Y-51697000D01*
X75318857Y-51744619D01*
X74366476Y-52649381D02*
X74937905Y-52649381D01*
X74652191Y-52649381D02*
X74652191Y-51649381D01*
X74747429Y-51792238D01*
X74842667Y-51887476D01*
X74937905Y-51935095D01*
X73509333Y-51649381D02*
X73699810Y-51649381D01*
X73795048Y-51697000D01*
X73842667Y-51744619D01*
X73937905Y-51887476D01*
X73985524Y-52077952D01*
X73985524Y-52458905D01*
X73937905Y-52554143D01*
X73890286Y-52601762D01*
X73795048Y-52649381D01*
X73604571Y-52649381D01*
X73509333Y-52601762D01*
X73461714Y-52554143D01*
X73414095Y-52458905D01*
X73414095Y-52220810D01*
X73461714Y-52125571D01*
X73509333Y-52077952D01*
X73604571Y-52030333D01*
X73795048Y-52030333D01*
X73890286Y-52077952D01*
X73937905Y-52125571D01*
X73985524Y-52220810D01*
X97258143Y-60317143D02*
X97305762Y-60269524D01*
X97353381Y-60126667D01*
X97353381Y-60031429D01*
X97305762Y-59888571D01*
X97210524Y-59793333D01*
X97115286Y-59745714D01*
X96924810Y-59698095D01*
X96781952Y-59698095D01*
X96591476Y-59745714D01*
X96496238Y-59793333D01*
X96401000Y-59888571D01*
X96353381Y-60031429D01*
X96353381Y-60126667D01*
X96401000Y-60269524D01*
X96448619Y-60317143D01*
X97353381Y-61269524D02*
X97353381Y-60698095D01*
X97353381Y-60983809D02*
X96353381Y-60983809D01*
X96496238Y-60888571D01*
X96591476Y-60793333D01*
X96639095Y-60698095D01*
X97353381Y-61745714D02*
X97353381Y-61936190D01*
X97305762Y-62031429D01*
X97258143Y-62079048D01*
X97115286Y-62174286D01*
X96924810Y-62221905D01*
X96543857Y-62221905D01*
X96448619Y-62174286D01*
X96401000Y-62126667D01*
X96353381Y-62031429D01*
X96353381Y-61840952D01*
X96401000Y-61745714D01*
X96448619Y-61698095D01*
X96543857Y-61650476D01*
X96781952Y-61650476D01*
X96877190Y-61698095D01*
X96924810Y-61745714D01*
X96972429Y-61840952D01*
X96972429Y-62031429D01*
X96924810Y-62126667D01*
X96877190Y-62174286D01*
X96781952Y-62221905D01*
X98813857Y-74652143D02*
X98861476Y-74699762D01*
X99004333Y-74747381D01*
X99099571Y-74747381D01*
X99242429Y-74699762D01*
X99337667Y-74604524D01*
X99385286Y-74509286D01*
X99432905Y-74318810D01*
X99432905Y-74175952D01*
X99385286Y-73985476D01*
X99337667Y-73890238D01*
X99242429Y-73795000D01*
X99099571Y-73747381D01*
X99004333Y-73747381D01*
X98861476Y-73795000D01*
X98813857Y-73842619D01*
X98432905Y-73842619D02*
X98385286Y-73795000D01*
X98290048Y-73747381D01*
X98051952Y-73747381D01*
X97956714Y-73795000D01*
X97909095Y-73842619D01*
X97861476Y-73937857D01*
X97861476Y-74033095D01*
X97909095Y-74175952D01*
X98480524Y-74747381D01*
X97861476Y-74747381D01*
X96956714Y-73747381D02*
X97432905Y-73747381D01*
X97480524Y-74223571D01*
X97432905Y-74175952D01*
X97337667Y-74128333D01*
X97099571Y-74128333D01*
X97004333Y-74175952D01*
X96956714Y-74223571D01*
X96909095Y-74318810D01*
X96909095Y-74556905D01*
X96956714Y-74652143D01*
X97004333Y-74699762D01*
X97099571Y-74747381D01*
X97337667Y-74747381D01*
X97432905Y-74699762D01*
X97480524Y-74652143D01*
X73763143Y-62349143D02*
X73810762Y-62301524D01*
X73858381Y-62158667D01*
X73858381Y-62063429D01*
X73810762Y-61920571D01*
X73715524Y-61825333D01*
X73620286Y-61777714D01*
X73429810Y-61730095D01*
X73286952Y-61730095D01*
X73096476Y-61777714D01*
X73001238Y-61825333D01*
X72906000Y-61920571D01*
X72858381Y-62063429D01*
X72858381Y-62158667D01*
X72906000Y-62301524D01*
X72953619Y-62349143D01*
X72953619Y-62730095D02*
X72906000Y-62777714D01*
X72858381Y-62872952D01*
X72858381Y-63111048D01*
X72906000Y-63206286D01*
X72953619Y-63253905D01*
X73048857Y-63301524D01*
X73144095Y-63301524D01*
X73286952Y-63253905D01*
X73858381Y-62682476D01*
X73858381Y-63301524D01*
X72858381Y-64158667D02*
X72858381Y-63968190D01*
X72906000Y-63872952D01*
X72953619Y-63825333D01*
X73096476Y-63730095D01*
X73286952Y-63682476D01*
X73667905Y-63682476D01*
X73763143Y-63730095D01*
X73810762Y-63777714D01*
X73858381Y-63872952D01*
X73858381Y-64063429D01*
X73810762Y-64158667D01*
X73763143Y-64206286D01*
X73667905Y-64253905D01*
X73429810Y-64253905D01*
X73334571Y-64206286D01*
X73286952Y-64158667D01*
X73239333Y-64063429D01*
X73239333Y-63872952D01*
X73286952Y-63777714D01*
X73334571Y-63730095D01*
X73429810Y-63682476D01*
X94718143Y-51808143D02*
X94765762Y-51760524D01*
X94813381Y-51617667D01*
X94813381Y-51522429D01*
X94765762Y-51379571D01*
X94670524Y-51284333D01*
X94575286Y-51236714D01*
X94384810Y-51189095D01*
X94241952Y-51189095D01*
X94051476Y-51236714D01*
X93956238Y-51284333D01*
X93861000Y-51379571D01*
X93813381Y-51522429D01*
X93813381Y-51617667D01*
X93861000Y-51760524D01*
X93908619Y-51808143D01*
X93908619Y-52189095D02*
X93861000Y-52236714D01*
X93813381Y-52331952D01*
X93813381Y-52570048D01*
X93861000Y-52665286D01*
X93908619Y-52712905D01*
X94003857Y-52760524D01*
X94099095Y-52760524D01*
X94241952Y-52712905D01*
X94813381Y-52141476D01*
X94813381Y-52760524D01*
X93813381Y-53093857D02*
X93813381Y-53760524D01*
X94813381Y-53331952D01*
X85701143Y-78097143D02*
X85748762Y-78049524D01*
X85796381Y-77906667D01*
X85796381Y-77811429D01*
X85748762Y-77668571D01*
X85653524Y-77573333D01*
X85558286Y-77525714D01*
X85367810Y-77478095D01*
X85224952Y-77478095D01*
X85034476Y-77525714D01*
X84939238Y-77573333D01*
X84844000Y-77668571D01*
X84796381Y-77811429D01*
X84796381Y-77906667D01*
X84844000Y-78049524D01*
X84891619Y-78097143D01*
X84891619Y-78478095D02*
X84844000Y-78525714D01*
X84796381Y-78620952D01*
X84796381Y-78859048D01*
X84844000Y-78954286D01*
X84891619Y-79001905D01*
X84986857Y-79049524D01*
X85082095Y-79049524D01*
X85224952Y-79001905D01*
X85796381Y-78430476D01*
X85796381Y-79049524D01*
X85224952Y-79620952D02*
X85177333Y-79525714D01*
X85129714Y-79478095D01*
X85034476Y-79430476D01*
X84986857Y-79430476D01*
X84891619Y-79478095D01*
X84844000Y-79525714D01*
X84796381Y-79620952D01*
X84796381Y-79811429D01*
X84844000Y-79906667D01*
X84891619Y-79954286D01*
X84986857Y-80001905D01*
X85034476Y-80001905D01*
X85129714Y-79954286D01*
X85177333Y-79906667D01*
X85224952Y-79811429D01*
X85224952Y-79620952D01*
X85272571Y-79525714D01*
X85320190Y-79478095D01*
X85415429Y-79430476D01*
X85605905Y-79430476D01*
X85701143Y-79478095D01*
X85748762Y-79525714D01*
X85796381Y-79620952D01*
X85796381Y-79811429D01*
X85748762Y-79906667D01*
X85701143Y-79954286D01*
X85605905Y-80001905D01*
X85415429Y-80001905D01*
X85320190Y-79954286D01*
X85272571Y-79906667D01*
X85224952Y-79811429D01*
X67571857Y-61444143D02*
X67619476Y-61491762D01*
X67762333Y-61539381D01*
X67857571Y-61539381D01*
X68000429Y-61491762D01*
X68095667Y-61396524D01*
X68143286Y-61301286D01*
X68190905Y-61110810D01*
X68190905Y-60967952D01*
X68143286Y-60777476D01*
X68095667Y-60682238D01*
X68000429Y-60587000D01*
X67857571Y-60539381D01*
X67762333Y-60539381D01*
X67619476Y-60587000D01*
X67571857Y-60634619D01*
X67238524Y-60539381D02*
X66619476Y-60539381D01*
X66952810Y-60920333D01*
X66809952Y-60920333D01*
X66714714Y-60967952D01*
X66667095Y-61015571D01*
X66619476Y-61110810D01*
X66619476Y-61348905D01*
X66667095Y-61444143D01*
X66714714Y-61491762D01*
X66809952Y-61539381D01*
X67095667Y-61539381D01*
X67190905Y-61491762D01*
X67238524Y-61444143D01*
X65667095Y-61539381D02*
X66238524Y-61539381D01*
X65952810Y-61539381D02*
X65952810Y-60539381D01*
X66048048Y-60682238D01*
X66143286Y-60777476D01*
X66238524Y-60825095D01*
X82780143Y-76700143D02*
X82827762Y-76652524D01*
X82875381Y-76509667D01*
X82875381Y-76414429D01*
X82827762Y-76271571D01*
X82732524Y-76176333D01*
X82637286Y-76128714D01*
X82446810Y-76081095D01*
X82303952Y-76081095D01*
X82113476Y-76128714D01*
X82018238Y-76176333D01*
X81923000Y-76271571D01*
X81875381Y-76414429D01*
X81875381Y-76509667D01*
X81923000Y-76652524D01*
X81970619Y-76700143D01*
X81875381Y-77033476D02*
X81875381Y-77652524D01*
X82256333Y-77319190D01*
X82256333Y-77462048D01*
X82303952Y-77557286D01*
X82351571Y-77604905D01*
X82446810Y-77652524D01*
X82684905Y-77652524D01*
X82780143Y-77604905D01*
X82827762Y-77557286D01*
X82875381Y-77462048D01*
X82875381Y-77176333D01*
X82827762Y-77081095D01*
X82780143Y-77033476D01*
X81875381Y-78509667D02*
X81875381Y-78319190D01*
X81923000Y-78223952D01*
X81970619Y-78176333D01*
X82113476Y-78081095D01*
X82303952Y-78033476D01*
X82684905Y-78033476D01*
X82780143Y-78081095D01*
X82827762Y-78128714D01*
X82875381Y-78223952D01*
X82875381Y-78414429D01*
X82827762Y-78509667D01*
X82780143Y-78557286D01*
X82684905Y-78604905D01*
X82446810Y-78604905D01*
X82351571Y-78557286D01*
X82303952Y-78509667D01*
X82256333Y-78414429D01*
X82256333Y-78223952D01*
X82303952Y-78128714D01*
X82351571Y-78081095D01*
X82446810Y-78033476D01*
X91289143Y-73652143D02*
X91336762Y-73604524D01*
X91384381Y-73461667D01*
X91384381Y-73366429D01*
X91336762Y-73223571D01*
X91241524Y-73128333D01*
X91146286Y-73080714D01*
X90955810Y-73033095D01*
X90812952Y-73033095D01*
X90622476Y-73080714D01*
X90527238Y-73128333D01*
X90432000Y-73223571D01*
X90384381Y-73366429D01*
X90384381Y-73461667D01*
X90432000Y-73604524D01*
X90479619Y-73652143D01*
X90384381Y-73985476D02*
X90384381Y-74604524D01*
X90765333Y-74271190D01*
X90765333Y-74414048D01*
X90812952Y-74509286D01*
X90860571Y-74556905D01*
X90955810Y-74604524D01*
X91193905Y-74604524D01*
X91289143Y-74556905D01*
X91336762Y-74509286D01*
X91384381Y-74414048D01*
X91384381Y-74128333D01*
X91336762Y-74033095D01*
X91289143Y-73985476D01*
X91384381Y-75080714D02*
X91384381Y-75271190D01*
X91336762Y-75366429D01*
X91289143Y-75414048D01*
X91146286Y-75509286D01*
X90955810Y-75556905D01*
X90574857Y-75556905D01*
X90479619Y-75509286D01*
X90432000Y-75461667D01*
X90384381Y-75366429D01*
X90384381Y-75175952D01*
X90432000Y-75080714D01*
X90479619Y-75033095D01*
X90574857Y-74985476D01*
X90812952Y-74985476D01*
X90908190Y-75033095D01*
X90955810Y-75080714D01*
X91003429Y-75175952D01*
X91003429Y-75366429D01*
X90955810Y-75461667D01*
X90908190Y-75509286D01*
X90812952Y-75556905D01*
X92686143Y-62730143D02*
X92733762Y-62682524D01*
X92781381Y-62539667D01*
X92781381Y-62444429D01*
X92733762Y-62301571D01*
X92638524Y-62206333D01*
X92543286Y-62158714D01*
X92352810Y-62111095D01*
X92209952Y-62111095D01*
X92019476Y-62158714D01*
X91924238Y-62206333D01*
X91829000Y-62301571D01*
X91781381Y-62444429D01*
X91781381Y-62539667D01*
X91829000Y-62682524D01*
X91876619Y-62730143D01*
X92114714Y-63587286D02*
X92781381Y-63587286D01*
X91733762Y-63349190D02*
X92448048Y-63111095D01*
X92448048Y-63730143D01*
X91781381Y-64301571D02*
X91781381Y-64396810D01*
X91829000Y-64492048D01*
X91876619Y-64539667D01*
X91971857Y-64587286D01*
X92162333Y-64634905D01*
X92400429Y-64634905D01*
X92590905Y-64587286D01*
X92686143Y-64539667D01*
X92733762Y-64492048D01*
X92781381Y-64396810D01*
X92781381Y-64301571D01*
X92733762Y-64206333D01*
X92686143Y-64158714D01*
X92590905Y-64111095D01*
X92400429Y-64063476D01*
X92162333Y-64063476D01*
X91971857Y-64111095D01*
X91876619Y-64158714D01*
X91829000Y-64206333D01*
X91781381Y-64301571D01*
X88095057Y-62815743D02*
X88142676Y-62863362D01*
X88285533Y-62910981D01*
X88380771Y-62910981D01*
X88523629Y-62863362D01*
X88618867Y-62768124D01*
X88666486Y-62672886D01*
X88714105Y-62482410D01*
X88714105Y-62339552D01*
X88666486Y-62149076D01*
X88618867Y-62053838D01*
X88523629Y-61958600D01*
X88380771Y-61910981D01*
X88285533Y-61910981D01*
X88142676Y-61958600D01*
X88095057Y-62006219D01*
X87237914Y-62244314D02*
X87237914Y-62910981D01*
X87476010Y-61863362D02*
X87714105Y-62577648D01*
X87095057Y-62577648D01*
X86761724Y-62006219D02*
X86714105Y-61958600D01*
X86618867Y-61910981D01*
X86380771Y-61910981D01*
X86285533Y-61958600D01*
X86237914Y-62006219D01*
X86190295Y-62101457D01*
X86190295Y-62196695D01*
X86237914Y-62339552D01*
X86809343Y-62910981D01*
X86190295Y-62910981D01*
X87955357Y-50915843D02*
X88002976Y-50963462D01*
X88145833Y-51011081D01*
X88241071Y-51011081D01*
X88383929Y-50963462D01*
X88479167Y-50868224D01*
X88526786Y-50772986D01*
X88574405Y-50582510D01*
X88574405Y-50439652D01*
X88526786Y-50249176D01*
X88479167Y-50153938D01*
X88383929Y-50058700D01*
X88241071Y-50011081D01*
X88145833Y-50011081D01*
X88002976Y-50058700D01*
X87955357Y-50106319D01*
X87098214Y-50344414D02*
X87098214Y-51011081D01*
X87336310Y-49963462D02*
X87574405Y-50677748D01*
X86955357Y-50677748D01*
X86669643Y-50011081D02*
X86050595Y-50011081D01*
X86383929Y-50392033D01*
X86241071Y-50392033D01*
X86145833Y-50439652D01*
X86098214Y-50487271D01*
X86050595Y-50582510D01*
X86050595Y-50820605D01*
X86098214Y-50915843D01*
X86145833Y-50963462D01*
X86241071Y-51011081D01*
X86526786Y-51011081D01*
X86622024Y-50963462D01*
X86669643Y-50915843D01*
X96207381Y-69619905D02*
X95207381Y-69619905D01*
X95207381Y-69858000D01*
X95255000Y-70000858D01*
X95350238Y-70096096D01*
X95445476Y-70143715D01*
X95635952Y-70191334D01*
X95778810Y-70191334D01*
X95969286Y-70143715D01*
X96064524Y-70096096D01*
X96159762Y-70000858D01*
X96207381Y-69858000D01*
X96207381Y-69619905D01*
X95207381Y-71096096D02*
X95207381Y-70619905D01*
X95683571Y-70572286D01*
X95635952Y-70619905D01*
X95588333Y-70715143D01*
X95588333Y-70953239D01*
X95635952Y-71048477D01*
X95683571Y-71096096D01*
X95778810Y-71143715D01*
X96016905Y-71143715D01*
X96112143Y-71096096D01*
X96159762Y-71048477D01*
X96207381Y-70953239D01*
X96207381Y-70715143D01*
X96159762Y-70619905D01*
X96112143Y-70572286D01*
X96207381Y-75366714D02*
X95207381Y-75366714D01*
X95207381Y-75604809D01*
X95255000Y-75747667D01*
X95350238Y-75842905D01*
X95445476Y-75890524D01*
X95635952Y-75938143D01*
X95778810Y-75938143D01*
X95969286Y-75890524D01*
X96064524Y-75842905D01*
X96159762Y-75747667D01*
X96207381Y-75604809D01*
X96207381Y-75366714D01*
X96207381Y-76890524D02*
X96207381Y-76319095D01*
X96207381Y-76604809D02*
X95207381Y-76604809D01*
X95350238Y-76509571D01*
X95445476Y-76414333D01*
X95493095Y-76319095D01*
X95302619Y-77271476D02*
X95255000Y-77319095D01*
X95207381Y-77414333D01*
X95207381Y-77652429D01*
X95255000Y-77747667D01*
X95302619Y-77795286D01*
X95397857Y-77842905D01*
X95493095Y-77842905D01*
X95635952Y-77795286D01*
X96207381Y-77223857D01*
X96207381Y-77842905D01*
X74366381Y-58570834D02*
X74366381Y-58094643D01*
X73366381Y-58094643D01*
X73366381Y-58808929D02*
X73366381Y-59427977D01*
X73747333Y-59094643D01*
X73747333Y-59237501D01*
X73794952Y-59332739D01*
X73842571Y-59380358D01*
X73937810Y-59427977D01*
X74175905Y-59427977D01*
X74271143Y-59380358D01*
X74318762Y-59332739D01*
X74366381Y-59237501D01*
X74366381Y-58951786D01*
X74318762Y-58856548D01*
X74271143Y-58808929D01*
X111093238Y-76874619D02*
X111188476Y-76827000D01*
X111283714Y-76731762D01*
X111426571Y-76588905D01*
X111521810Y-76541286D01*
X111617048Y-76541286D01*
X111569429Y-76779381D02*
X111664667Y-76731762D01*
X111759905Y-76636524D01*
X111807524Y-76446048D01*
X111807524Y-76112714D01*
X111759905Y-75922238D01*
X111664667Y-75827000D01*
X111569429Y-75779381D01*
X111378952Y-75779381D01*
X111283714Y-75827000D01*
X111188476Y-75922238D01*
X111140857Y-76112714D01*
X111140857Y-76446048D01*
X111188476Y-76636524D01*
X111283714Y-76731762D01*
X111378952Y-76779381D01*
X111569429Y-76779381D01*
X110188476Y-76779381D02*
X110759905Y-76779381D01*
X110474191Y-76779381D02*
X110474191Y-75779381D01*
X110569429Y-75922238D01*
X110664667Y-76017476D01*
X110759905Y-76065095D01*
X109823238Y-67349619D02*
X109918476Y-67302000D01*
X110013714Y-67206762D01*
X110156571Y-67063905D01*
X110251810Y-67016286D01*
X110347048Y-67016286D01*
X110299429Y-67254381D02*
X110394667Y-67206762D01*
X110489905Y-67111524D01*
X110537524Y-66921048D01*
X110537524Y-66587714D01*
X110489905Y-66397238D01*
X110394667Y-66302000D01*
X110299429Y-66254381D01*
X110108952Y-66254381D01*
X110013714Y-66302000D01*
X109918476Y-66397238D01*
X109870857Y-66587714D01*
X109870857Y-66921048D01*
X109918476Y-67111524D01*
X110013714Y-67206762D01*
X110108952Y-67254381D01*
X110299429Y-67254381D01*
X109489905Y-66349619D02*
X109442286Y-66302000D01*
X109347048Y-66254381D01*
X109108952Y-66254381D01*
X109013714Y-66302000D01*
X108966095Y-66349619D01*
X108918476Y-66444857D01*
X108918476Y-66540095D01*
X108966095Y-66682952D01*
X109537524Y-67254381D01*
X108918476Y-67254381D01*
X103854238Y-67349619D02*
X103949476Y-67302000D01*
X104044714Y-67206762D01*
X104187571Y-67063905D01*
X104282810Y-67016286D01*
X104378048Y-67016286D01*
X104330429Y-67254381D02*
X104425667Y-67206762D01*
X104520905Y-67111524D01*
X104568524Y-66921048D01*
X104568524Y-66587714D01*
X104520905Y-66397238D01*
X104425667Y-66302000D01*
X104330429Y-66254381D01*
X104139952Y-66254381D01*
X104044714Y-66302000D01*
X103949476Y-66397238D01*
X103901857Y-66587714D01*
X103901857Y-66921048D01*
X103949476Y-67111524D01*
X104044714Y-67206762D01*
X104139952Y-67254381D01*
X104330429Y-67254381D01*
X103568524Y-66254381D02*
X102949476Y-66254381D01*
X103282810Y-66635333D01*
X103139952Y-66635333D01*
X103044714Y-66682952D01*
X102997095Y-66730571D01*
X102949476Y-66825810D01*
X102949476Y-67063905D01*
X102997095Y-67159143D01*
X103044714Y-67206762D01*
X103139952Y-67254381D01*
X103425667Y-67254381D01*
X103520905Y-67206762D01*
X103568524Y-67159143D01*
X105124238Y-76874619D02*
X105219476Y-76827000D01*
X105314714Y-76731762D01*
X105457571Y-76588905D01*
X105552810Y-76541286D01*
X105648048Y-76541286D01*
X105600429Y-76779381D02*
X105695667Y-76731762D01*
X105790905Y-76636524D01*
X105838524Y-76446048D01*
X105838524Y-76112714D01*
X105790905Y-75922238D01*
X105695667Y-75827000D01*
X105600429Y-75779381D01*
X105409952Y-75779381D01*
X105314714Y-75827000D01*
X105219476Y-75922238D01*
X105171857Y-76112714D01*
X105171857Y-76446048D01*
X105219476Y-76636524D01*
X105314714Y-76731762D01*
X105409952Y-76779381D01*
X105600429Y-76779381D01*
X104314714Y-76112714D02*
X104314714Y-76779381D01*
X104552810Y-75731762D02*
X104790905Y-76446048D01*
X104171857Y-76446048D01*
X85718638Y-46635919D02*
X85813876Y-46588300D01*
X85909114Y-46493062D01*
X86051971Y-46350205D01*
X86147210Y-46302586D01*
X86242448Y-46302586D01*
X86194829Y-46540681D02*
X86290067Y-46493062D01*
X86385305Y-46397824D01*
X86432924Y-46207348D01*
X86432924Y-45874014D01*
X86385305Y-45683538D01*
X86290067Y-45588300D01*
X86194829Y-45540681D01*
X86004352Y-45540681D01*
X85909114Y-45588300D01*
X85813876Y-45683538D01*
X85766257Y-45874014D01*
X85766257Y-46207348D01*
X85813876Y-46397824D01*
X85909114Y-46493062D01*
X86004352Y-46540681D01*
X86194829Y-46540681D01*
X84861495Y-45540681D02*
X85337686Y-45540681D01*
X85385305Y-46016871D01*
X85337686Y-45969252D01*
X85242448Y-45921633D01*
X85004352Y-45921633D01*
X84909114Y-45969252D01*
X84861495Y-46016871D01*
X84813876Y-46112110D01*
X84813876Y-46350205D01*
X84861495Y-46445443D01*
X84909114Y-46493062D01*
X85004352Y-46540681D01*
X85242448Y-46540681D01*
X85337686Y-46493062D01*
X85385305Y-46445443D01*
X72683666Y-83637381D02*
X73017000Y-83161190D01*
X73255095Y-83637381D02*
X73255095Y-82637381D01*
X72874142Y-82637381D01*
X72778904Y-82685000D01*
X72731285Y-82732619D01*
X72683666Y-82827857D01*
X72683666Y-82970714D01*
X72731285Y-83065952D01*
X72778904Y-83113571D01*
X72874142Y-83161190D01*
X73255095Y-83161190D01*
X71731285Y-83637381D02*
X72302714Y-83637381D01*
X72017000Y-83637381D02*
X72017000Y-82637381D01*
X72112238Y-82780238D01*
X72207476Y-82875476D01*
X72302714Y-82923095D01*
X75096666Y-82113381D02*
X75430000Y-81637190D01*
X75668095Y-82113381D02*
X75668095Y-81113381D01*
X75287142Y-81113381D01*
X75191904Y-81161000D01*
X75144285Y-81208619D01*
X75096666Y-81303857D01*
X75096666Y-81446714D01*
X75144285Y-81541952D01*
X75191904Y-81589571D01*
X75287142Y-81637190D01*
X75668095Y-81637190D01*
X74715714Y-81208619D02*
X74668095Y-81161000D01*
X74572857Y-81113381D01*
X74334761Y-81113381D01*
X74239523Y-81161000D01*
X74191904Y-81208619D01*
X74144285Y-81303857D01*
X74144285Y-81399095D01*
X74191904Y-81541952D01*
X74763333Y-82113381D01*
X74144285Y-82113381D01*
X93594181Y-68362534D02*
X93117990Y-68029200D01*
X93594181Y-67791105D02*
X92594181Y-67791105D01*
X92594181Y-68172058D01*
X92641800Y-68267296D01*
X92689419Y-68314915D01*
X92784657Y-68362534D01*
X92927514Y-68362534D01*
X93022752Y-68314915D01*
X93070371Y-68267296D01*
X93117990Y-68172058D01*
X93117990Y-67791105D01*
X92594181Y-68695867D02*
X92594181Y-69362534D01*
X93594181Y-68933962D01*
X77414381Y-80478334D02*
X76938190Y-80145000D01*
X77414381Y-79906905D02*
X76414381Y-79906905D01*
X76414381Y-80287858D01*
X76462000Y-80383096D01*
X76509619Y-80430715D01*
X76604857Y-80478334D01*
X76747714Y-80478334D01*
X76842952Y-80430715D01*
X76890571Y-80383096D01*
X76938190Y-80287858D01*
X76938190Y-79906905D01*
X77414381Y-80954524D02*
X77414381Y-81145000D01*
X77366762Y-81240239D01*
X77319143Y-81287858D01*
X77176286Y-81383096D01*
X76985810Y-81430715D01*
X76604857Y-81430715D01*
X76509619Y-81383096D01*
X76462000Y-81335477D01*
X76414381Y-81240239D01*
X76414381Y-81049762D01*
X76462000Y-80954524D01*
X76509619Y-80906905D01*
X76604857Y-80859286D01*
X76842952Y-80859286D01*
X76938190Y-80906905D01*
X76985810Y-80954524D01*
X77033429Y-81049762D01*
X77033429Y-81240239D01*
X76985810Y-81335477D01*
X76938190Y-81383096D01*
X76842952Y-81430715D01*
X97670857Y-79763881D02*
X98004191Y-79287690D01*
X98242286Y-79763881D02*
X98242286Y-78763881D01*
X97861333Y-78763881D01*
X97766095Y-78811500D01*
X97718476Y-78859119D01*
X97670857Y-78954357D01*
X97670857Y-79097214D01*
X97718476Y-79192452D01*
X97766095Y-79240071D01*
X97861333Y-79287690D01*
X98242286Y-79287690D01*
X96718476Y-79763881D02*
X97289905Y-79763881D01*
X97004191Y-79763881D02*
X97004191Y-78763881D01*
X97099429Y-78906738D01*
X97194667Y-79001976D01*
X97289905Y-79049595D01*
X95861333Y-78763881D02*
X96051810Y-78763881D01*
X96147048Y-78811500D01*
X96194667Y-78859119D01*
X96289905Y-79001976D01*
X96337524Y-79192452D01*
X96337524Y-79573405D01*
X96289905Y-79668643D01*
X96242286Y-79716262D01*
X96147048Y-79763881D01*
X95956571Y-79763881D01*
X95861333Y-79716262D01*
X95813714Y-79668643D01*
X95766095Y-79573405D01*
X95766095Y-79335310D01*
X95813714Y-79240071D01*
X95861333Y-79192452D01*
X95956571Y-79144833D01*
X96147048Y-79144833D01*
X96242286Y-79192452D01*
X96289905Y-79240071D01*
X96337524Y-79335310D01*
X75255381Y-62222143D02*
X74779190Y-61888809D01*
X75255381Y-61650714D02*
X74255381Y-61650714D01*
X74255381Y-62031667D01*
X74303000Y-62126905D01*
X74350619Y-62174524D01*
X74445857Y-62222143D01*
X74588714Y-62222143D01*
X74683952Y-62174524D01*
X74731571Y-62126905D01*
X74779190Y-62031667D01*
X74779190Y-61650714D01*
X75255381Y-63174524D02*
X75255381Y-62603095D01*
X75255381Y-62888809D02*
X74255381Y-62888809D01*
X74398238Y-62793571D01*
X74493476Y-62698333D01*
X74541095Y-62603095D01*
X74683952Y-63745952D02*
X74636333Y-63650714D01*
X74588714Y-63603095D01*
X74493476Y-63555476D01*
X74445857Y-63555476D01*
X74350619Y-63603095D01*
X74303000Y-63650714D01*
X74255381Y-63745952D01*
X74255381Y-63936429D01*
X74303000Y-64031667D01*
X74350619Y-64079286D01*
X74445857Y-64126905D01*
X74493476Y-64126905D01*
X74588714Y-64079286D01*
X74636333Y-64031667D01*
X74683952Y-63936429D01*
X74683952Y-63745952D01*
X74731571Y-63650714D01*
X74779190Y-63603095D01*
X74874429Y-63555476D01*
X75064905Y-63555476D01*
X75160143Y-63603095D01*
X75207762Y-63650714D01*
X75255381Y-63745952D01*
X75255381Y-63936429D01*
X75207762Y-64031667D01*
X75160143Y-64079286D01*
X75064905Y-64126905D01*
X74874429Y-64126905D01*
X74779190Y-64079286D01*
X74731571Y-64031667D01*
X74683952Y-63936429D01*
X97162857Y-51934381D02*
X97496191Y-51458190D01*
X97734286Y-51934381D02*
X97734286Y-50934381D01*
X97353333Y-50934381D01*
X97258095Y-50982000D01*
X97210476Y-51029619D01*
X97162857Y-51124857D01*
X97162857Y-51267714D01*
X97210476Y-51362952D01*
X97258095Y-51410571D01*
X97353333Y-51458190D01*
X97734286Y-51458190D01*
X96210476Y-51934381D02*
X96781905Y-51934381D01*
X96496191Y-51934381D02*
X96496191Y-50934381D01*
X96591429Y-51077238D01*
X96686667Y-51172476D01*
X96781905Y-51220095D01*
X95734286Y-51934381D02*
X95543810Y-51934381D01*
X95448571Y-51886762D01*
X95400952Y-51839143D01*
X95305714Y-51696286D01*
X95258095Y-51505810D01*
X95258095Y-51124857D01*
X95305714Y-51029619D01*
X95353333Y-50982000D01*
X95448571Y-50934381D01*
X95639048Y-50934381D01*
X95734286Y-50982000D01*
X95781905Y-51029619D01*
X95829524Y-51124857D01*
X95829524Y-51362952D01*
X95781905Y-51458190D01*
X95734286Y-51505810D01*
X95639048Y-51553429D01*
X95448571Y-51553429D01*
X95353333Y-51505810D01*
X95305714Y-51458190D01*
X95258095Y-51362952D01*
X97734381Y-54475143D02*
X97258190Y-54141809D01*
X97734381Y-53903714D02*
X96734381Y-53903714D01*
X96734381Y-54284667D01*
X96782000Y-54379905D01*
X96829619Y-54427524D01*
X96924857Y-54475143D01*
X97067714Y-54475143D01*
X97162952Y-54427524D01*
X97210571Y-54379905D01*
X97258190Y-54284667D01*
X97258190Y-53903714D01*
X96829619Y-54856095D02*
X96782000Y-54903714D01*
X96734381Y-54998952D01*
X96734381Y-55237048D01*
X96782000Y-55332286D01*
X96829619Y-55379905D01*
X96924857Y-55427524D01*
X97020095Y-55427524D01*
X97162952Y-55379905D01*
X97734381Y-54808476D01*
X97734381Y-55427524D01*
X96734381Y-56046571D02*
X96734381Y-56141810D01*
X96782000Y-56237048D01*
X96829619Y-56284667D01*
X96924857Y-56332286D01*
X97115333Y-56379905D01*
X97353429Y-56379905D01*
X97543905Y-56332286D01*
X97639143Y-56284667D01*
X97686762Y-56237048D01*
X97734381Y-56141810D01*
X97734381Y-56046571D01*
X97686762Y-55951333D01*
X97639143Y-55903714D01*
X97543905Y-55856095D01*
X97353429Y-55808476D01*
X97115333Y-55808476D01*
X96924857Y-55856095D01*
X96829619Y-55903714D01*
X96782000Y-55951333D01*
X96734381Y-56046571D01*
X87320381Y-78351143D02*
X86844190Y-78017809D01*
X87320381Y-77779714D02*
X86320381Y-77779714D01*
X86320381Y-78160667D01*
X86368000Y-78255905D01*
X86415619Y-78303524D01*
X86510857Y-78351143D01*
X86653714Y-78351143D01*
X86748952Y-78303524D01*
X86796571Y-78255905D01*
X86844190Y-78160667D01*
X86844190Y-77779714D01*
X86415619Y-78732095D02*
X86368000Y-78779714D01*
X86320381Y-78874952D01*
X86320381Y-79113048D01*
X86368000Y-79208286D01*
X86415619Y-79255905D01*
X86510857Y-79303524D01*
X86606095Y-79303524D01*
X86748952Y-79255905D01*
X87320381Y-78684476D01*
X87320381Y-79303524D01*
X86415619Y-79684476D02*
X86368000Y-79732095D01*
X86320381Y-79827333D01*
X86320381Y-80065429D01*
X86368000Y-80160667D01*
X86415619Y-80208286D01*
X86510857Y-80255905D01*
X86606095Y-80255905D01*
X86748952Y-80208286D01*
X87320381Y-79636857D01*
X87320381Y-80255905D01*
X100798381Y-75930286D02*
X100798381Y-76501715D01*
X101798381Y-76216000D02*
X100798381Y-76216000D01*
X101798381Y-76835048D02*
X100798381Y-76835048D01*
X101274571Y-76835048D02*
X101274571Y-77406477D01*
X101798381Y-77406477D02*
X100798381Y-77406477D01*
X101798381Y-78406477D02*
X101798381Y-77835048D01*
X101798381Y-78120762D02*
X100798381Y-78120762D01*
X100941238Y-78025524D01*
X101036476Y-77930286D01*
X101084095Y-77835048D01*
X79462370Y-76454080D02*
X80271910Y-76454080D01*
X80367150Y-76501700D01*
X80414770Y-76549320D01*
X80462390Y-76644560D01*
X80462390Y-76835040D01*
X80414770Y-76930280D01*
X80367150Y-76977900D01*
X80271910Y-77025520D01*
X79462370Y-77025520D01*
X80462390Y-78025540D02*
X80462390Y-77454100D01*
X80462390Y-77739820D02*
X79462370Y-77739820D01*
X79605230Y-77644580D01*
X79700470Y-77549340D01*
X79748090Y-77454100D01*
X70738905Y-53935381D02*
X70738905Y-54744905D01*
X70691286Y-54840143D01*
X70643667Y-54887762D01*
X70548429Y-54935381D01*
X70357952Y-54935381D01*
X70262714Y-54887762D01*
X70215095Y-54840143D01*
X70167476Y-54744905D01*
X70167476Y-53935381D01*
X69738905Y-54030619D02*
X69691286Y-53983000D01*
X69596048Y-53935381D01*
X69357952Y-53935381D01*
X69262714Y-53983000D01*
X69215095Y-54030619D01*
X69167476Y-54125857D01*
X69167476Y-54221095D01*
X69215095Y-54363952D01*
X69786524Y-54935381D01*
X69167476Y-54935381D01*
X83056481Y-47275905D02*
X83866005Y-47275905D01*
X83961243Y-47323524D01*
X84008862Y-47371143D01*
X84056481Y-47466381D01*
X84056481Y-47656858D01*
X84008862Y-47752096D01*
X83961243Y-47799715D01*
X83866005Y-47847334D01*
X83056481Y-47847334D01*
X84056481Y-48847334D02*
X84056481Y-48275905D01*
X84056481Y-48561619D02*
X83056481Y-48561619D01*
X83199338Y-48466381D01*
X83294576Y-48371143D01*
X83342195Y-48275905D01*
X84056481Y-49799715D02*
X84056481Y-49228286D01*
X84056481Y-49514000D02*
X83056481Y-49514000D01*
X83199338Y-49418762D01*
X83294576Y-49323524D01*
X83342195Y-49228286D01*
X113752381Y-54514905D02*
X114561905Y-54514905D01*
X114657143Y-54562524D01*
X114704762Y-54610143D01*
X114752381Y-54705381D01*
X114752381Y-54895858D01*
X114704762Y-54991096D01*
X114657143Y-55038715D01*
X114561905Y-55086334D01*
X113752381Y-55086334D01*
X114752381Y-56086334D02*
X114752381Y-55514905D01*
X114752381Y-55800619D02*
X113752381Y-55800619D01*
X113895238Y-55705381D01*
X113990476Y-55610143D01*
X114038095Y-55514905D01*
X113752381Y-56419667D02*
X113752381Y-57038715D01*
X114133333Y-56705381D01*
X114133333Y-56848239D01*
X114180952Y-56943477D01*
X114228571Y-56991096D01*
X114323810Y-57038715D01*
X114561905Y-57038715D01*
X114657143Y-56991096D01*
X114704762Y-56943477D01*
X114752381Y-56848239D01*
X114752381Y-56562524D01*
X114704762Y-56467286D01*
X114657143Y-56419667D01*
X86582191Y-72289990D02*
X86582191Y-72766181D01*
X86915524Y-71766181D02*
X86582191Y-72289990D01*
X86248857Y-71766181D01*
X85391714Y-72766181D02*
X85963143Y-72766181D01*
X85677429Y-72766181D02*
X85677429Y-71766181D01*
X85772667Y-71909038D01*
X85867905Y-72004276D01*
X85963143Y-72051895D01*
X90431857Y-51538143D02*
X90479476Y-51585762D01*
X90622333Y-51633381D01*
X90717571Y-51633381D01*
X90860429Y-51585762D01*
X90955667Y-51490524D01*
X91003286Y-51395286D01*
X91050905Y-51204810D01*
X91050905Y-51061952D01*
X91003286Y-50871476D01*
X90955667Y-50776238D01*
X90860429Y-50681000D01*
X90717571Y-50633381D01*
X90622333Y-50633381D01*
X90479476Y-50681000D01*
X90431857Y-50728619D01*
X89574714Y-50966714D02*
X89574714Y-51633381D01*
X89812810Y-50585762D02*
X90050905Y-51300048D01*
X89431857Y-51300048D01*
X88622333Y-50966714D02*
X88622333Y-51633381D01*
X88860429Y-50585762D02*
X89098524Y-51300048D01*
X88479476Y-51300048D01*
X81503757Y-51487343D02*
X81551376Y-51534962D01*
X81694233Y-51582581D01*
X81789471Y-51582581D01*
X81932329Y-51534962D01*
X82027567Y-51439724D01*
X82075186Y-51344486D01*
X82122805Y-51154010D01*
X82122805Y-51011152D01*
X82075186Y-50820676D01*
X82027567Y-50725438D01*
X81932329Y-50630200D01*
X81789471Y-50582581D01*
X81694233Y-50582581D01*
X81551376Y-50630200D01*
X81503757Y-50677819D01*
X80646614Y-50915914D02*
X80646614Y-51582581D01*
X80884710Y-50534962D02*
X81122805Y-51249248D01*
X80503757Y-51249248D01*
X79646614Y-50582581D02*
X80122805Y-50582581D01*
X80170424Y-51058771D01*
X80122805Y-51011152D01*
X80027567Y-50963533D01*
X79789471Y-50963533D01*
X79694233Y-51011152D01*
X79646614Y-51058771D01*
X79598995Y-51154010D01*
X79598995Y-51392105D01*
X79646614Y-51487343D01*
X79694233Y-51534962D01*
X79789471Y-51582581D01*
X80027567Y-51582581D01*
X80122805Y-51534962D01*
X80170424Y-51487343D01*
X78208143Y-54602143D02*
X78255762Y-54554524D01*
X78303381Y-54411667D01*
X78303381Y-54316429D01*
X78255762Y-54173571D01*
X78160524Y-54078333D01*
X78065286Y-54030714D01*
X77874810Y-53983095D01*
X77731952Y-53983095D01*
X77541476Y-54030714D01*
X77446238Y-54078333D01*
X77351000Y-54173571D01*
X77303381Y-54316429D01*
X77303381Y-54411667D01*
X77351000Y-54554524D01*
X77398619Y-54602143D01*
X77636714Y-55459286D02*
X78303381Y-55459286D01*
X77255762Y-55221190D02*
X77970048Y-54983095D01*
X77970048Y-55602143D01*
X77303381Y-56411667D02*
X77303381Y-56221190D01*
X77351000Y-56125952D01*
X77398619Y-56078333D01*
X77541476Y-55983095D01*
X77731952Y-55935476D01*
X78112905Y-55935476D01*
X78208143Y-55983095D01*
X78255762Y-56030714D01*
X78303381Y-56125952D01*
X78303381Y-56316429D01*
X78255762Y-56411667D01*
X78208143Y-56459286D01*
X78112905Y-56506905D01*
X77874810Y-56506905D01*
X77779571Y-56459286D01*
X77731952Y-56411667D01*
X77684333Y-56316429D01*
X77684333Y-56125952D01*
X77731952Y-56030714D01*
X77779571Y-55983095D01*
X77874810Y-55935476D01*
X78462143Y-61841143D02*
X78509762Y-61793524D01*
X78557381Y-61650667D01*
X78557381Y-61555429D01*
X78509762Y-61412571D01*
X78414524Y-61317333D01*
X78319286Y-61269714D01*
X78128810Y-61222095D01*
X77985952Y-61222095D01*
X77795476Y-61269714D01*
X77700238Y-61317333D01*
X77605000Y-61412571D01*
X77557381Y-61555429D01*
X77557381Y-61650667D01*
X77605000Y-61793524D01*
X77652619Y-61841143D01*
X77890714Y-62698286D02*
X78557381Y-62698286D01*
X77509762Y-62460190D02*
X78224048Y-62222095D01*
X78224048Y-62841143D01*
X77557381Y-63126857D02*
X77557381Y-63793524D01*
X78557381Y-63364952D01*
X114879381Y-59459905D02*
X113879381Y-59459905D01*
X113879381Y-59698000D01*
X113927000Y-59840858D01*
X114022238Y-59936096D01*
X114117476Y-59983715D01*
X114307952Y-60031334D01*
X114450810Y-60031334D01*
X114641286Y-59983715D01*
X114736524Y-59936096D01*
X114831762Y-59840858D01*
X114879381Y-59698000D01*
X114879381Y-59459905D01*
X114307952Y-60602762D02*
X114260333Y-60507524D01*
X114212714Y-60459905D01*
X114117476Y-60412286D01*
X114069857Y-60412286D01*
X113974619Y-60459905D01*
X113927000Y-60507524D01*
X113879381Y-60602762D01*
X113879381Y-60793239D01*
X113927000Y-60888477D01*
X113974619Y-60936096D01*
X114069857Y-60983715D01*
X114117476Y-60983715D01*
X114212714Y-60936096D01*
X114260333Y-60888477D01*
X114307952Y-60793239D01*
X114307952Y-60602762D01*
X114355571Y-60507524D01*
X114403190Y-60459905D01*
X114498429Y-60412286D01*
X114688905Y-60412286D01*
X114784143Y-60459905D01*
X114831762Y-60507524D01*
X114879381Y-60602762D01*
X114879381Y-60793239D01*
X114831762Y-60888477D01*
X114784143Y-60936096D01*
X114688905Y-60983715D01*
X114498429Y-60983715D01*
X114403190Y-60936096D01*
X114355571Y-60888477D01*
X114307952Y-60793239D01*
X119308571Y-68373667D02*
X119308571Y-68040333D01*
X119832381Y-68040333D02*
X118832381Y-68040333D01*
X118832381Y-68516524D01*
X119832381Y-69421286D02*
X119832381Y-68849857D01*
X119832381Y-69135571D02*
X118832381Y-69135571D01*
X118975238Y-69040333D01*
X119070476Y-68945095D01*
X119118095Y-68849857D01*
X77033381Y-54856143D02*
X76557190Y-54522809D01*
X77033381Y-54284714D02*
X76033381Y-54284714D01*
X76033381Y-54665667D01*
X76081000Y-54760905D01*
X76128619Y-54808524D01*
X76223857Y-54856143D01*
X76366714Y-54856143D01*
X76461952Y-54808524D01*
X76509571Y-54760905D01*
X76557190Y-54665667D01*
X76557190Y-54284714D01*
X76033381Y-55189476D02*
X76033381Y-55808524D01*
X76414333Y-55475190D01*
X76414333Y-55618048D01*
X76461952Y-55713286D01*
X76509571Y-55760905D01*
X76604810Y-55808524D01*
X76842905Y-55808524D01*
X76938143Y-55760905D01*
X76985762Y-55713286D01*
X77033381Y-55618048D01*
X77033381Y-55332333D01*
X76985762Y-55237095D01*
X76938143Y-55189476D01*
X76366714Y-56665667D02*
X77033381Y-56665667D01*
X75985762Y-56427571D02*
X76700048Y-56189476D01*
X76700048Y-56808524D01*
X79319381Y-52062143D02*
X78843190Y-51728809D01*
X79319381Y-51490714D02*
X78319381Y-51490714D01*
X78319381Y-51871667D01*
X78367000Y-51966905D01*
X78414619Y-52014524D01*
X78509857Y-52062143D01*
X78652714Y-52062143D01*
X78747952Y-52014524D01*
X78795571Y-51966905D01*
X78843190Y-51871667D01*
X78843190Y-51490714D01*
X78319381Y-52395476D02*
X78319381Y-53014524D01*
X78700333Y-52681190D01*
X78700333Y-52824048D01*
X78747952Y-52919286D01*
X78795571Y-52966905D01*
X78890810Y-53014524D01*
X79128905Y-53014524D01*
X79224143Y-52966905D01*
X79271762Y-52919286D01*
X79319381Y-52824048D01*
X79319381Y-52538333D01*
X79271762Y-52443095D01*
X79224143Y-52395476D01*
X78319381Y-53919286D02*
X78319381Y-53443095D01*
X78795571Y-53395476D01*
X78747952Y-53443095D01*
X78700333Y-53538333D01*
X78700333Y-53776429D01*
X78747952Y-53871667D01*
X78795571Y-53919286D01*
X78890810Y-53966905D01*
X79128905Y-53966905D01*
X79224143Y-53919286D01*
X79271762Y-53871667D01*
X79319381Y-53776429D01*
X79319381Y-53538333D01*
X79271762Y-53443095D01*
X79224143Y-53395476D01*
X80030581Y-59174143D02*
X79554390Y-58840809D01*
X80030581Y-58602714D02*
X79030581Y-58602714D01*
X79030581Y-58983667D01*
X79078200Y-59078905D01*
X79125819Y-59126524D01*
X79221057Y-59174143D01*
X79363914Y-59174143D01*
X79459152Y-59126524D01*
X79506771Y-59078905D01*
X79554390Y-58983667D01*
X79554390Y-58602714D01*
X79030581Y-59507476D02*
X79030581Y-60126524D01*
X79411533Y-59793190D01*
X79411533Y-59936048D01*
X79459152Y-60031286D01*
X79506771Y-60078905D01*
X79602010Y-60126524D01*
X79840105Y-60126524D01*
X79935343Y-60078905D01*
X79982962Y-60031286D01*
X80030581Y-59936048D01*
X80030581Y-59650333D01*
X79982962Y-59555095D01*
X79935343Y-59507476D01*
X79030581Y-60983667D02*
X79030581Y-60793190D01*
X79078200Y-60697952D01*
X79125819Y-60650333D01*
X79268676Y-60555095D01*
X79459152Y-60507476D01*
X79840105Y-60507476D01*
X79935343Y-60555095D01*
X79982962Y-60602714D01*
X80030581Y-60697952D01*
X80030581Y-60888429D01*
X79982962Y-60983667D01*
X79935343Y-61031286D01*
X79840105Y-61078905D01*
X79602010Y-61078905D01*
X79506771Y-61031286D01*
X79459152Y-60983667D01*
X79411533Y-60888429D01*
X79411533Y-60697952D01*
X79459152Y-60602714D01*
X79506771Y-60555095D01*
X79602010Y-60507476D01*
X76906381Y-61587143D02*
X76430190Y-61253809D01*
X76906381Y-61015714D02*
X75906381Y-61015714D01*
X75906381Y-61396667D01*
X75954000Y-61491905D01*
X76001619Y-61539524D01*
X76096857Y-61587143D01*
X76239714Y-61587143D01*
X76334952Y-61539524D01*
X76382571Y-61491905D01*
X76430190Y-61396667D01*
X76430190Y-61015714D01*
X75906381Y-61920476D02*
X75906381Y-62539524D01*
X76287333Y-62206190D01*
X76287333Y-62349048D01*
X76334952Y-62444286D01*
X76382571Y-62491905D01*
X76477810Y-62539524D01*
X76715905Y-62539524D01*
X76811143Y-62491905D01*
X76858762Y-62444286D01*
X76906381Y-62349048D01*
X76906381Y-62063333D01*
X76858762Y-61968095D01*
X76811143Y-61920476D01*
X75906381Y-62872857D02*
X75906381Y-63539524D01*
X76906381Y-63110952D01*
X79246481Y-54984805D02*
X80056005Y-54984805D01*
X80151243Y-55032424D01*
X80198862Y-55080043D01*
X80246481Y-55175281D01*
X80246481Y-55365758D01*
X80198862Y-55460996D01*
X80151243Y-55508615D01*
X80056005Y-55556234D01*
X79246481Y-55556234D01*
X80246481Y-56556234D02*
X80246481Y-55984805D01*
X80246481Y-56270519D02*
X79246481Y-56270519D01*
X79389338Y-56175281D01*
X79484576Y-56080043D01*
X79532195Y-55984805D01*
X79579814Y-57413377D02*
X80246481Y-57413377D01*
X79198862Y-57175281D02*
X79913148Y-56937186D01*
X79913148Y-57556234D01*
X95257857Y-81065643D02*
X95305476Y-81113262D01*
X95448333Y-81160881D01*
X95543571Y-81160881D01*
X95686429Y-81113262D01*
X95781667Y-81018024D01*
X95829286Y-80922786D01*
X95876905Y-80732310D01*
X95876905Y-80589452D01*
X95829286Y-80398976D01*
X95781667Y-80303738D01*
X95686429Y-80208500D01*
X95543571Y-80160881D01*
X95448333Y-80160881D01*
X95305476Y-80208500D01*
X95257857Y-80256119D01*
X94876905Y-80256119D02*
X94829286Y-80208500D01*
X94734048Y-80160881D01*
X94495952Y-80160881D01*
X94400714Y-80208500D01*
X94353095Y-80256119D01*
X94305476Y-80351357D01*
X94305476Y-80446595D01*
X94353095Y-80589452D01*
X94924524Y-81160881D01*
X94305476Y-81160881D01*
X93686429Y-80160881D02*
X93591190Y-80160881D01*
X93495952Y-80208500D01*
X93448333Y-80256119D01*
X93400714Y-80351357D01*
X93353095Y-80541833D01*
X93353095Y-80779929D01*
X93400714Y-80970405D01*
X93448333Y-81065643D01*
X93495952Y-81113262D01*
X93591190Y-81160881D01*
X93686429Y-81160881D01*
X93781667Y-81113262D01*
X93829286Y-81065643D01*
X93876905Y-80970405D01*
X93924524Y-80779929D01*
X93924524Y-80541833D01*
X93876905Y-80351357D01*
X93829286Y-80256119D01*
X93781667Y-80208500D01*
X93686429Y-80160881D01*
X83726257Y-63622181D02*
X84059591Y-63145990D01*
X84297686Y-63622181D02*
X84297686Y-62622181D01*
X83916733Y-62622181D01*
X83821495Y-62669800D01*
X83773876Y-62717419D01*
X83726257Y-62812657D01*
X83726257Y-62955514D01*
X83773876Y-63050752D01*
X83821495Y-63098371D01*
X83916733Y-63145990D01*
X84297686Y-63145990D01*
X83345305Y-62717419D02*
X83297686Y-62669800D01*
X83202448Y-62622181D01*
X82964352Y-62622181D01*
X82869114Y-62669800D01*
X82821495Y-62717419D01*
X82773876Y-62812657D01*
X82773876Y-62907895D01*
X82821495Y-63050752D01*
X83392924Y-63622181D01*
X82773876Y-63622181D01*
X81869114Y-62622181D02*
X82345305Y-62622181D01*
X82392924Y-63098371D01*
X82345305Y-63050752D01*
X82250067Y-63003133D01*
X82011971Y-63003133D01*
X81916733Y-63050752D01*
X81869114Y-63098371D01*
X81821495Y-63193610D01*
X81821495Y-63431705D01*
X81869114Y-63526943D01*
X81916733Y-63574562D01*
X82011971Y-63622181D01*
X82250067Y-63622181D01*
X82345305Y-63574562D01*
X82392924Y-63526943D01*
X93568781Y-79087743D02*
X93092590Y-78754409D01*
X93568781Y-78516314D02*
X92568781Y-78516314D01*
X92568781Y-78897267D01*
X92616400Y-78992505D01*
X92664019Y-79040124D01*
X92759257Y-79087743D01*
X92902114Y-79087743D01*
X92997352Y-79040124D01*
X93044971Y-78992505D01*
X93092590Y-78897267D01*
X93092590Y-78516314D01*
X93568781Y-80040124D02*
X93568781Y-79468695D01*
X93568781Y-79754409D02*
X92568781Y-79754409D01*
X92711638Y-79659171D01*
X92806876Y-79563933D01*
X92854495Y-79468695D01*
X92568781Y-80373457D02*
X92568781Y-81040124D01*
X93568781Y-80611552D01*
M02*
