G04 #@! TF.FileFunction,Legend,Top*
%FSLAX46Y46*%
G04 Gerber Fmt 4.6, Leading zero omitted, Abs format (unit mm)*
G04 Created by KiCad (PCBNEW 4.0.7) date 03/31/19 01:25:17*
%MOMM*%
%LPD*%
G01*
G04 APERTURE LIST*
%ADD10C,0.100000*%
%ADD11C,0.150000*%
%ADD12C,0.200000*%
%ADD13C,0.300000*%
%ADD14C,0.120000*%
%ADD15C,0.070000*%
%ADD16C,0.127000*%
%ADD17C,0.280000*%
%ADD18C,0.152400*%
G04 APERTURE END LIST*
D10*
X102777486Y-62685371D02*
X102777486Y-63113943D01*
X102777486Y-62899657D02*
X102027486Y-62899657D01*
X102134629Y-62971086D01*
X102206057Y-63042514D01*
X102241771Y-63113943D01*
X102098914Y-62399657D02*
X102063200Y-62363943D01*
X102027486Y-62292514D01*
X102027486Y-62113943D01*
X102063200Y-62042514D01*
X102098914Y-62006800D01*
X102170343Y-61971085D01*
X102241771Y-61971085D01*
X102348914Y-62006800D01*
X102777486Y-62435371D01*
X102777486Y-61971085D01*
X102027486Y-61756799D02*
X102777486Y-61506799D01*
X102027486Y-61256799D01*
X102848914Y-61185371D02*
X102848914Y-60613942D01*
X102777486Y-60435371D02*
X102027486Y-60435371D01*
X102027486Y-60149656D01*
X102063200Y-60078228D01*
X102098914Y-60042513D01*
X102170343Y-60006799D01*
X102277486Y-60006799D01*
X102348914Y-60042513D01*
X102384629Y-60078228D01*
X102420343Y-60149656D01*
X102420343Y-60435371D01*
X102027486Y-59756799D02*
X102777486Y-59578228D01*
X102241771Y-59435371D01*
X102777486Y-59292513D01*
X102027486Y-59113942D01*
X102777486Y-58399656D02*
X102420343Y-58649656D01*
X102777486Y-58828228D02*
X102027486Y-58828228D01*
X102027486Y-58542513D01*
X102063200Y-58471085D01*
X102098914Y-58435370D01*
X102170343Y-58399656D01*
X102277486Y-58399656D01*
X102348914Y-58435370D01*
X102384629Y-58471085D01*
X102420343Y-58542513D01*
X102420343Y-58828228D01*
D11*
X72388914Y-74939086D02*
X72031771Y-74939086D01*
X72031771Y-74189086D01*
X72638914Y-74546229D02*
X72888914Y-74546229D01*
X72996057Y-74939086D02*
X72638914Y-74939086D01*
X72638914Y-74189086D01*
X72996057Y-74189086D01*
X73317485Y-74939086D02*
X73317485Y-74189086D01*
X73496057Y-74189086D01*
X73603200Y-74224800D01*
X73674628Y-74296229D01*
X73710343Y-74367657D01*
X73746057Y-74510514D01*
X73746057Y-74617657D01*
X73710343Y-74760514D01*
X73674628Y-74831943D01*
X73603200Y-74903371D01*
X73496057Y-74939086D01*
X73317485Y-74939086D01*
X74460343Y-74939086D02*
X74031771Y-74939086D01*
X74246057Y-74939086D02*
X74246057Y-74189086D01*
X74174628Y-74296229D01*
X74103200Y-74367657D01*
X74031771Y-74403371D01*
D12*
X102946200Y-63804800D02*
X102946200Y-78790800D01*
X110439200Y-63804800D02*
X102946200Y-63804800D01*
X110439200Y-78790800D02*
X110439200Y-63804800D01*
X102946200Y-78790800D02*
X110439200Y-78790800D01*
D10*
X103905986Y-78231229D02*
X103155986Y-78231229D01*
X103405986Y-77874086D02*
X103905986Y-77874086D01*
X103477414Y-77874086D02*
X103441700Y-77838371D01*
X103405986Y-77766943D01*
X103405986Y-77659800D01*
X103441700Y-77588371D01*
X103513129Y-77552657D01*
X103905986Y-77552657D01*
X103405986Y-77195515D02*
X104155986Y-77195515D01*
X103441700Y-77195515D02*
X103405986Y-77124086D01*
X103405986Y-76981229D01*
X103441700Y-76909800D01*
X103477414Y-76874086D01*
X103548843Y-76838372D01*
X103763129Y-76838372D01*
X103834557Y-76874086D01*
X103870271Y-76909800D01*
X103905986Y-76981229D01*
X103905986Y-77124086D01*
X103870271Y-77195515D01*
X103405986Y-76195515D02*
X103905986Y-76195515D01*
X103405986Y-76516944D02*
X103798843Y-76516944D01*
X103870271Y-76481229D01*
X103905986Y-76409801D01*
X103905986Y-76302658D01*
X103870271Y-76231229D01*
X103834557Y-76195515D01*
X103405986Y-75945515D02*
X103405986Y-75659801D01*
X103155986Y-75838373D02*
X103798843Y-75838373D01*
X103870271Y-75802658D01*
X103905986Y-75731230D01*
X103905986Y-75659801D01*
X103834557Y-75409802D02*
X103870271Y-75374087D01*
X103905986Y-75409802D01*
X103870271Y-75445516D01*
X103834557Y-75409802D01*
X103905986Y-75409802D01*
X103441700Y-75409802D02*
X103477414Y-75374087D01*
X103513129Y-75409802D01*
X103477414Y-75445516D01*
X103441700Y-75409802D01*
X103513129Y-75409802D01*
X104845271Y-77659800D02*
X104845271Y-77088371D01*
X104380986Y-76266942D02*
X105130986Y-76016942D01*
X104380986Y-75766942D01*
X104738129Y-75266943D02*
X104773843Y-75159800D01*
X104809557Y-75124085D01*
X104880986Y-75088371D01*
X104988129Y-75088371D01*
X105059557Y-75124085D01*
X105095271Y-75159800D01*
X105130986Y-75231228D01*
X105130986Y-75516943D01*
X104380986Y-75516943D01*
X104380986Y-75266943D01*
X104416700Y-75195514D01*
X104452414Y-75159800D01*
X104523843Y-75124085D01*
X104595271Y-75124085D01*
X104666700Y-75159800D01*
X104702414Y-75195514D01*
X104738129Y-75266943D01*
X104738129Y-75516943D01*
X104916700Y-74802657D02*
X104916700Y-74445514D01*
X105130986Y-74874085D02*
X104380986Y-74624085D01*
X105130986Y-74374085D01*
X104380986Y-74231228D02*
X104380986Y-73802657D01*
X105130986Y-74016943D02*
X104380986Y-74016943D01*
X105059557Y-73552657D02*
X105095271Y-73516942D01*
X105130986Y-73552657D01*
X105095271Y-73588371D01*
X105059557Y-73552657D01*
X105130986Y-73552657D01*
X104666700Y-73552657D02*
X104702414Y-73516942D01*
X104738129Y-73552657D01*
X104702414Y-73588371D01*
X104666700Y-73552657D01*
X104738129Y-73552657D01*
X104380986Y-72266942D02*
X104380986Y-72624085D01*
X104738129Y-72659799D01*
X104702414Y-72624085D01*
X104666700Y-72552656D01*
X104666700Y-72374085D01*
X104702414Y-72302656D01*
X104738129Y-72266942D01*
X104809557Y-72231227D01*
X104988129Y-72231227D01*
X105059557Y-72266942D01*
X105095271Y-72302656D01*
X105130986Y-72374085D01*
X105130986Y-72552656D01*
X105095271Y-72624085D01*
X105059557Y-72659799D01*
X104845271Y-71909799D02*
X104845271Y-71338370D01*
X105130986Y-70588370D02*
X105130986Y-71016942D01*
X105130986Y-70802656D02*
X104380986Y-70802656D01*
X104488129Y-70874085D01*
X104559557Y-70945513D01*
X104595271Y-71016942D01*
X104702414Y-70159799D02*
X104666700Y-70231227D01*
X104630986Y-70266942D01*
X104559557Y-70302656D01*
X104523843Y-70302656D01*
X104452414Y-70266942D01*
X104416700Y-70231227D01*
X104380986Y-70159799D01*
X104380986Y-70016942D01*
X104416700Y-69945513D01*
X104452414Y-69909799D01*
X104523843Y-69874084D01*
X104559557Y-69874084D01*
X104630986Y-69909799D01*
X104666700Y-69945513D01*
X104702414Y-70016942D01*
X104702414Y-70159799D01*
X104738129Y-70231227D01*
X104773843Y-70266942D01*
X104845271Y-70302656D01*
X104988129Y-70302656D01*
X105059557Y-70266942D01*
X105095271Y-70231227D01*
X105130986Y-70159799D01*
X105130986Y-70016942D01*
X105095271Y-69945513D01*
X105059557Y-69909799D01*
X104988129Y-69874084D01*
X104845271Y-69874084D01*
X104773843Y-69909799D01*
X104738129Y-69945513D01*
X104702414Y-70016942D01*
X104380986Y-69659798D02*
X105130986Y-69409798D01*
X104380986Y-69159798D01*
X106070271Y-77659800D02*
X106070271Y-77088371D01*
X106355986Y-76159800D02*
X105605986Y-76159800D01*
X106427414Y-75981228D02*
X106427414Y-75409799D01*
X106355986Y-75231228D02*
X105605986Y-75231228D01*
X106141700Y-74981228D01*
X105605986Y-74731228D01*
X106355986Y-74731228D01*
X105605986Y-74481227D02*
X105605986Y-74052656D01*
X106355986Y-74266942D02*
X105605986Y-74266942D01*
X106355986Y-73374084D02*
X105998843Y-73624084D01*
X106355986Y-73802656D02*
X105605986Y-73802656D01*
X105605986Y-73516941D01*
X105641700Y-73445513D01*
X105677414Y-73409798D01*
X105748843Y-73374084D01*
X105855986Y-73374084D01*
X105927414Y-73409798D01*
X105963129Y-73445513D01*
X105998843Y-73516941D01*
X105998843Y-73802656D01*
X106284557Y-73052656D02*
X106320271Y-73016941D01*
X106355986Y-73052656D01*
X106320271Y-73088370D01*
X106284557Y-73052656D01*
X106355986Y-73052656D01*
X105891700Y-73052656D02*
X105927414Y-73016941D01*
X105963129Y-73052656D01*
X105927414Y-73088370D01*
X105891700Y-73052656D01*
X105963129Y-73052656D01*
X106355986Y-71731226D02*
X106355986Y-72159798D01*
X106355986Y-71945512D02*
X105605986Y-71945512D01*
X105713129Y-72016941D01*
X105784557Y-72088369D01*
X105820271Y-72159798D01*
X105605986Y-71266940D02*
X105605986Y-71195512D01*
X105641700Y-71124083D01*
X105677414Y-71088369D01*
X105748843Y-71052655D01*
X105891700Y-71016940D01*
X106070271Y-71016940D01*
X106213129Y-71052655D01*
X106284557Y-71088369D01*
X106320271Y-71124083D01*
X106355986Y-71195512D01*
X106355986Y-71266940D01*
X106320271Y-71338369D01*
X106284557Y-71374083D01*
X106213129Y-71409798D01*
X106070271Y-71445512D01*
X105891700Y-71445512D01*
X105748843Y-71409798D01*
X105677414Y-71374083D01*
X105641700Y-71338369D01*
X105605986Y-71266940D01*
X106141700Y-70731226D02*
X106141700Y-70374083D01*
X106355986Y-70802654D02*
X105605986Y-70552654D01*
X106355986Y-70302654D01*
X105570271Y-69516940D02*
X106534557Y-70159797D01*
X106355986Y-68874083D02*
X106355986Y-69302655D01*
X106355986Y-69088369D02*
X105605986Y-69088369D01*
X105713129Y-69159798D01*
X105784557Y-69231226D01*
X105820271Y-69302655D01*
X105605986Y-68624083D02*
X105605986Y-68159797D01*
X105891700Y-68409797D01*
X105891700Y-68302655D01*
X105927414Y-68231226D01*
X105963129Y-68195512D01*
X106034557Y-68159797D01*
X106213129Y-68159797D01*
X106284557Y-68195512D01*
X106320271Y-68231226D01*
X106355986Y-68302655D01*
X106355986Y-68516940D01*
X106320271Y-68588369D01*
X106284557Y-68624083D01*
X106141700Y-67874083D02*
X106141700Y-67516940D01*
X106355986Y-67945511D02*
X105605986Y-67695511D01*
X106355986Y-67445511D01*
X106427414Y-67374083D02*
X106427414Y-66802654D01*
X105855986Y-66624083D02*
X106605986Y-66624083D01*
X105891700Y-66624083D02*
X105855986Y-66552654D01*
X105855986Y-66409797D01*
X105891700Y-66338368D01*
X105927414Y-66302654D01*
X105998843Y-66266940D01*
X106213129Y-66266940D01*
X106284557Y-66302654D01*
X106320271Y-66338368D01*
X106355986Y-66409797D01*
X106355986Y-66552654D01*
X106320271Y-66624083D01*
X106320271Y-65659797D02*
X106355986Y-65731226D01*
X106355986Y-65874083D01*
X106320271Y-65945512D01*
X106248843Y-65981226D01*
X105963129Y-65981226D01*
X105891700Y-65945512D01*
X105855986Y-65874083D01*
X105855986Y-65731226D01*
X105891700Y-65659797D01*
X105963129Y-65624083D01*
X106034557Y-65624083D01*
X106105986Y-65981226D01*
X106355986Y-64981226D02*
X105963129Y-64981226D01*
X105891700Y-65016940D01*
X105855986Y-65088369D01*
X105855986Y-65231226D01*
X105891700Y-65302655D01*
X106320271Y-64981226D02*
X106355986Y-65052655D01*
X106355986Y-65231226D01*
X106320271Y-65302655D01*
X106248843Y-65338369D01*
X106177414Y-65338369D01*
X106105986Y-65302655D01*
X106070271Y-65231226D01*
X106070271Y-65052655D01*
X106034557Y-64981226D01*
X106355986Y-64624084D02*
X105605986Y-64624084D01*
X106070271Y-64552655D02*
X106355986Y-64338369D01*
X105855986Y-64338369D02*
X106141700Y-64624084D01*
X107580986Y-78231229D02*
X106830986Y-78231229D01*
X107545271Y-77909800D02*
X107580986Y-77838371D01*
X107580986Y-77695514D01*
X107545271Y-77624086D01*
X107473843Y-77588371D01*
X107438129Y-77588371D01*
X107366700Y-77624086D01*
X107330986Y-77695514D01*
X107330986Y-77802657D01*
X107295271Y-77874086D01*
X107223843Y-77909800D01*
X107188129Y-77909800D01*
X107116700Y-77874086D01*
X107080986Y-77802657D01*
X107080986Y-77695514D01*
X107116700Y-77624086D01*
X107580986Y-77159800D02*
X107545271Y-77231228D01*
X107509557Y-77266943D01*
X107438129Y-77302657D01*
X107223843Y-77302657D01*
X107152414Y-77266943D01*
X107116700Y-77231228D01*
X107080986Y-77159800D01*
X107080986Y-77052657D01*
X107116700Y-76981228D01*
X107152414Y-76945514D01*
X107223843Y-76909800D01*
X107438129Y-76909800D01*
X107509557Y-76945514D01*
X107545271Y-76981228D01*
X107580986Y-77052657D01*
X107580986Y-77159800D01*
X107580986Y-76481229D02*
X107545271Y-76552657D01*
X107473843Y-76588372D01*
X106830986Y-76588372D01*
X107580986Y-75874086D02*
X107188129Y-75874086D01*
X107116700Y-75909800D01*
X107080986Y-75981229D01*
X107080986Y-76124086D01*
X107116700Y-76195515D01*
X107545271Y-75874086D02*
X107580986Y-75945515D01*
X107580986Y-76124086D01*
X107545271Y-76195515D01*
X107473843Y-76231229D01*
X107402414Y-76231229D01*
X107330986Y-76195515D01*
X107295271Y-76124086D01*
X107295271Y-75945515D01*
X107259557Y-75874086D01*
X107080986Y-75624086D02*
X107080986Y-75338372D01*
X106830986Y-75516944D02*
X107473843Y-75516944D01*
X107545271Y-75481229D01*
X107580986Y-75409801D01*
X107580986Y-75338372D01*
X107545271Y-74802658D02*
X107580986Y-74874087D01*
X107580986Y-75016944D01*
X107545271Y-75088373D01*
X107473843Y-75124087D01*
X107188129Y-75124087D01*
X107116700Y-75088373D01*
X107080986Y-75016944D01*
X107080986Y-74874087D01*
X107116700Y-74802658D01*
X107188129Y-74766944D01*
X107259557Y-74766944D01*
X107330986Y-75124087D01*
X107580986Y-74124087D02*
X106830986Y-74124087D01*
X107545271Y-74124087D02*
X107580986Y-74195516D01*
X107580986Y-74338373D01*
X107545271Y-74409801D01*
X107509557Y-74445516D01*
X107438129Y-74481230D01*
X107223843Y-74481230D01*
X107152414Y-74445516D01*
X107116700Y-74409801D01*
X107080986Y-74338373D01*
X107080986Y-74195516D01*
X107116700Y-74124087D01*
X107580986Y-73088373D02*
X107545271Y-73159801D01*
X107509557Y-73195516D01*
X107438129Y-73231230D01*
X107223843Y-73231230D01*
X107152414Y-73195516D01*
X107116700Y-73159801D01*
X107080986Y-73088373D01*
X107080986Y-72981230D01*
X107116700Y-72909801D01*
X107152414Y-72874087D01*
X107223843Y-72838373D01*
X107438129Y-72838373D01*
X107509557Y-72874087D01*
X107545271Y-72909801D01*
X107580986Y-72981230D01*
X107580986Y-73088373D01*
X107080986Y-72195516D02*
X107580986Y-72195516D01*
X107080986Y-72516945D02*
X107473843Y-72516945D01*
X107545271Y-72481230D01*
X107580986Y-72409802D01*
X107580986Y-72302659D01*
X107545271Y-72231230D01*
X107509557Y-72195516D01*
X107080986Y-71945516D02*
X107080986Y-71659802D01*
X106830986Y-71838374D02*
X107473843Y-71838374D01*
X107545271Y-71802659D01*
X107580986Y-71731231D01*
X107580986Y-71659802D01*
X107080986Y-71409803D02*
X107830986Y-71409803D01*
X107116700Y-71409803D02*
X107080986Y-71338374D01*
X107080986Y-71195517D01*
X107116700Y-71124088D01*
X107152414Y-71088374D01*
X107223843Y-71052660D01*
X107438129Y-71052660D01*
X107509557Y-71088374D01*
X107545271Y-71124088D01*
X107580986Y-71195517D01*
X107580986Y-71338374D01*
X107545271Y-71409803D01*
X107080986Y-70409803D02*
X107580986Y-70409803D01*
X107080986Y-70731232D02*
X107473843Y-70731232D01*
X107545271Y-70695517D01*
X107580986Y-70624089D01*
X107580986Y-70516946D01*
X107545271Y-70445517D01*
X107509557Y-70409803D01*
X107080986Y-70159803D02*
X107080986Y-69874089D01*
X106830986Y-70052661D02*
X107473843Y-70052661D01*
X107545271Y-70016946D01*
X107580986Y-69945518D01*
X107580986Y-69874089D01*
X107509557Y-69624090D02*
X107545271Y-69588375D01*
X107580986Y-69624090D01*
X107545271Y-69659804D01*
X107509557Y-69624090D01*
X107580986Y-69624090D01*
X107116700Y-69624090D02*
X107152414Y-69588375D01*
X107188129Y-69624090D01*
X107152414Y-69659804D01*
X107116700Y-69624090D01*
X107188129Y-69624090D01*
X108520271Y-77659800D02*
X108520271Y-77088371D01*
X108055986Y-75802657D02*
X108055986Y-76159800D01*
X108413129Y-76195514D01*
X108377414Y-76159800D01*
X108341700Y-76088371D01*
X108341700Y-75909800D01*
X108377414Y-75838371D01*
X108413129Y-75802657D01*
X108484557Y-75766942D01*
X108663129Y-75766942D01*
X108734557Y-75802657D01*
X108770271Y-75838371D01*
X108805986Y-75909800D01*
X108805986Y-76088371D01*
X108770271Y-76159800D01*
X108734557Y-76195514D01*
X108055986Y-75552656D02*
X108805986Y-75302656D01*
X108055986Y-75052656D01*
X108055986Y-74659799D02*
X108055986Y-74588371D01*
X108091700Y-74516942D01*
X108127414Y-74481228D01*
X108198843Y-74445514D01*
X108341700Y-74409799D01*
X108520271Y-74409799D01*
X108663129Y-74445514D01*
X108734557Y-74481228D01*
X108770271Y-74516942D01*
X108805986Y-74588371D01*
X108805986Y-74659799D01*
X108770271Y-74731228D01*
X108734557Y-74766942D01*
X108663129Y-74802657D01*
X108520271Y-74838371D01*
X108341700Y-74838371D01*
X108198843Y-74802657D01*
X108127414Y-74766942D01*
X108091700Y-74731228D01*
X108055986Y-74659799D01*
X108770271Y-74052656D02*
X108805986Y-74052656D01*
X108877414Y-74088371D01*
X108913129Y-74124085D01*
X108055986Y-72838370D02*
X108055986Y-72981227D01*
X108091700Y-73052656D01*
X108127414Y-73088370D01*
X108234557Y-73159799D01*
X108377414Y-73195513D01*
X108663129Y-73195513D01*
X108734557Y-73159799D01*
X108770271Y-73124084D01*
X108805986Y-73052656D01*
X108805986Y-72909799D01*
X108770271Y-72838370D01*
X108734557Y-72802656D01*
X108663129Y-72766941D01*
X108484557Y-72766941D01*
X108413129Y-72802656D01*
X108377414Y-72838370D01*
X108341700Y-72909799D01*
X108341700Y-73052656D01*
X108377414Y-73124084D01*
X108413129Y-73159799D01*
X108484557Y-73195513D01*
X108055986Y-72302655D02*
X108055986Y-72231227D01*
X108091700Y-72159798D01*
X108127414Y-72124084D01*
X108198843Y-72088370D01*
X108341700Y-72052655D01*
X108520271Y-72052655D01*
X108663129Y-72088370D01*
X108734557Y-72124084D01*
X108770271Y-72159798D01*
X108805986Y-72231227D01*
X108805986Y-72302655D01*
X108770271Y-72374084D01*
X108734557Y-72409798D01*
X108663129Y-72445513D01*
X108520271Y-72481227D01*
X108341700Y-72481227D01*
X108198843Y-72445513D01*
X108127414Y-72409798D01*
X108091700Y-72374084D01*
X108055986Y-72302655D01*
X108055986Y-71588369D02*
X108055986Y-71516941D01*
X108091700Y-71445512D01*
X108127414Y-71409798D01*
X108198843Y-71374084D01*
X108341700Y-71338369D01*
X108520271Y-71338369D01*
X108663129Y-71374084D01*
X108734557Y-71409798D01*
X108770271Y-71445512D01*
X108805986Y-71516941D01*
X108805986Y-71588369D01*
X108770271Y-71659798D01*
X108734557Y-71695512D01*
X108663129Y-71731227D01*
X108520271Y-71766941D01*
X108341700Y-71766941D01*
X108198843Y-71731227D01*
X108127414Y-71695512D01*
X108091700Y-71659798D01*
X108055986Y-71588369D01*
X108805986Y-71016941D02*
X108305986Y-71016941D01*
X108377414Y-71016941D02*
X108341700Y-70981226D01*
X108305986Y-70909798D01*
X108305986Y-70802655D01*
X108341700Y-70731226D01*
X108413129Y-70695512D01*
X108805986Y-70695512D01*
X108413129Y-70695512D02*
X108341700Y-70659798D01*
X108305986Y-70588369D01*
X108305986Y-70481226D01*
X108341700Y-70409798D01*
X108413129Y-70374083D01*
X108805986Y-70374083D01*
X108591700Y-70052655D02*
X108591700Y-69695512D01*
X108805986Y-70124083D02*
X108055986Y-69874083D01*
X108805986Y-69624083D01*
X109745271Y-77659800D02*
X109745271Y-77088371D01*
X109280986Y-76231228D02*
X109280986Y-75766942D01*
X109566700Y-76016942D01*
X109566700Y-75909800D01*
X109602414Y-75838371D01*
X109638129Y-75802657D01*
X109709557Y-75766942D01*
X109888129Y-75766942D01*
X109959557Y-75802657D01*
X109995271Y-75838371D01*
X110030986Y-75909800D01*
X110030986Y-76124085D01*
X109995271Y-76195514D01*
X109959557Y-76231228D01*
X109280986Y-75552656D02*
X110030986Y-75302656D01*
X109280986Y-75052656D01*
X109280986Y-74874085D02*
X109280986Y-74409799D01*
X109566700Y-74659799D01*
X109566700Y-74552657D01*
X109602414Y-74481228D01*
X109638129Y-74445514D01*
X109709557Y-74409799D01*
X109888129Y-74409799D01*
X109959557Y-74445514D01*
X109995271Y-74481228D01*
X110030986Y-74552657D01*
X110030986Y-74766942D01*
X109995271Y-74838371D01*
X109959557Y-74874085D01*
X109995271Y-74052656D02*
X110030986Y-74052656D01*
X110102414Y-74088371D01*
X110138129Y-74124085D01*
X109602414Y-73052656D02*
X109566700Y-73124084D01*
X109530986Y-73159799D01*
X109459557Y-73195513D01*
X109423843Y-73195513D01*
X109352414Y-73159799D01*
X109316700Y-73124084D01*
X109280986Y-73052656D01*
X109280986Y-72909799D01*
X109316700Y-72838370D01*
X109352414Y-72802656D01*
X109423843Y-72766941D01*
X109459557Y-72766941D01*
X109530986Y-72802656D01*
X109566700Y-72838370D01*
X109602414Y-72909799D01*
X109602414Y-73052656D01*
X109638129Y-73124084D01*
X109673843Y-73159799D01*
X109745271Y-73195513D01*
X109888129Y-73195513D01*
X109959557Y-73159799D01*
X109995271Y-73124084D01*
X110030986Y-73052656D01*
X110030986Y-72909799D01*
X109995271Y-72838370D01*
X109959557Y-72802656D01*
X109888129Y-72766941D01*
X109745271Y-72766941D01*
X109673843Y-72802656D01*
X109638129Y-72838370D01*
X109602414Y-72909799D01*
X109280986Y-72302655D02*
X109280986Y-72231227D01*
X109316700Y-72159798D01*
X109352414Y-72124084D01*
X109423843Y-72088370D01*
X109566700Y-72052655D01*
X109745271Y-72052655D01*
X109888129Y-72088370D01*
X109959557Y-72124084D01*
X109995271Y-72159798D01*
X110030986Y-72231227D01*
X110030986Y-72302655D01*
X109995271Y-72374084D01*
X109959557Y-72409798D01*
X109888129Y-72445513D01*
X109745271Y-72481227D01*
X109566700Y-72481227D01*
X109423843Y-72445513D01*
X109352414Y-72409798D01*
X109316700Y-72374084D01*
X109280986Y-72302655D01*
X109280986Y-71588369D02*
X109280986Y-71516941D01*
X109316700Y-71445512D01*
X109352414Y-71409798D01*
X109423843Y-71374084D01*
X109566700Y-71338369D01*
X109745271Y-71338369D01*
X109888129Y-71374084D01*
X109959557Y-71409798D01*
X109995271Y-71445512D01*
X110030986Y-71516941D01*
X110030986Y-71588369D01*
X109995271Y-71659798D01*
X109959557Y-71695512D01*
X109888129Y-71731227D01*
X109745271Y-71766941D01*
X109566700Y-71766941D01*
X109423843Y-71731227D01*
X109352414Y-71695512D01*
X109316700Y-71659798D01*
X109280986Y-71588369D01*
X110030986Y-71016941D02*
X109530986Y-71016941D01*
X109602414Y-71016941D02*
X109566700Y-70981226D01*
X109530986Y-70909798D01*
X109530986Y-70802655D01*
X109566700Y-70731226D01*
X109638129Y-70695512D01*
X110030986Y-70695512D01*
X109638129Y-70695512D02*
X109566700Y-70659798D01*
X109530986Y-70588369D01*
X109530986Y-70481226D01*
X109566700Y-70409798D01*
X109638129Y-70374083D01*
X110030986Y-70374083D01*
X109816700Y-70052655D02*
X109816700Y-69695512D01*
X110030986Y-70124083D02*
X109280986Y-69874083D01*
X110030986Y-69624083D01*
X76754486Y-56351371D02*
X76754486Y-55887085D01*
X77040200Y-56137085D01*
X77040200Y-56029943D01*
X77075914Y-55958514D01*
X77111629Y-55922800D01*
X77183057Y-55887085D01*
X77361629Y-55887085D01*
X77433057Y-55922800D01*
X77468771Y-55958514D01*
X77504486Y-56029943D01*
X77504486Y-56244228D01*
X77468771Y-56315657D01*
X77433057Y-56351371D01*
X76754486Y-55672799D02*
X77504486Y-55422799D01*
X76754486Y-55172799D01*
X76754486Y-54994228D02*
X76754486Y-54529942D01*
X77040200Y-54779942D01*
X77040200Y-54672800D01*
X77075914Y-54601371D01*
X77111629Y-54565657D01*
X77183057Y-54529942D01*
X77361629Y-54529942D01*
X77433057Y-54565657D01*
X77468771Y-54601371D01*
X77504486Y-54672800D01*
X77504486Y-54887085D01*
X77468771Y-54958514D01*
X77433057Y-54994228D01*
X106105343Y-58695086D02*
X105748200Y-58695086D01*
X105712486Y-59052229D01*
X105748200Y-59016514D01*
X105819629Y-58980800D01*
X105998200Y-58980800D01*
X106069629Y-59016514D01*
X106105343Y-59052229D01*
X106141058Y-59123657D01*
X106141058Y-59302229D01*
X106105343Y-59373657D01*
X106069629Y-59409371D01*
X105998200Y-59445086D01*
X105819629Y-59445086D01*
X105748200Y-59409371D01*
X105712486Y-59373657D01*
X106355344Y-58695086D02*
X106605344Y-59445086D01*
X106855344Y-58695086D01*
X99306915Y-66811086D02*
X98878343Y-66811086D01*
X99092629Y-66811086D02*
X99092629Y-66061086D01*
X99021200Y-66168229D01*
X98949772Y-66239657D01*
X98878343Y-66275371D01*
X99592629Y-66132514D02*
X99628343Y-66096800D01*
X99699772Y-66061086D01*
X99878343Y-66061086D01*
X99949772Y-66096800D01*
X99985486Y-66132514D01*
X100021201Y-66203943D01*
X100021201Y-66275371D01*
X99985486Y-66382514D01*
X99556915Y-66811086D01*
X100021201Y-66811086D01*
X100235487Y-66061086D02*
X100485487Y-66811086D01*
X100735487Y-66061086D01*
X72182486Y-61595943D02*
X72182486Y-61953086D01*
X72539629Y-61988800D01*
X72503914Y-61953086D01*
X72468200Y-61881657D01*
X72468200Y-61703086D01*
X72503914Y-61631657D01*
X72539629Y-61595943D01*
X72611057Y-61560228D01*
X72789629Y-61560228D01*
X72861057Y-61595943D01*
X72896771Y-61631657D01*
X72932486Y-61703086D01*
X72932486Y-61881657D01*
X72896771Y-61953086D01*
X72861057Y-61988800D01*
X72182486Y-61345942D02*
X72932486Y-61095942D01*
X72182486Y-60845942D01*
X72182486Y-60453085D02*
X72182486Y-60381657D01*
X72218200Y-60310228D01*
X72253914Y-60274514D01*
X72325343Y-60238800D01*
X72468200Y-60203085D01*
X72646771Y-60203085D01*
X72789629Y-60238800D01*
X72861057Y-60274514D01*
X72896771Y-60310228D01*
X72932486Y-60381657D01*
X72932486Y-60453085D01*
X72896771Y-60524514D01*
X72861057Y-60560228D01*
X72789629Y-60595943D01*
X72646771Y-60631657D01*
X72468200Y-60631657D01*
X72325343Y-60595943D01*
X72253914Y-60560228D01*
X72218200Y-60524514D01*
X72182486Y-60453085D01*
X73003914Y-60060228D02*
X73003914Y-59488799D01*
X72932486Y-59310228D02*
X72182486Y-59310228D01*
X72718200Y-59060228D01*
X72182486Y-58810228D01*
X72932486Y-58810228D01*
X72861057Y-58024513D02*
X72896771Y-58060227D01*
X72932486Y-58167370D01*
X72932486Y-58238799D01*
X72896771Y-58345942D01*
X72825343Y-58417370D01*
X72753914Y-58453085D01*
X72611057Y-58488799D01*
X72503914Y-58488799D01*
X72361057Y-58453085D01*
X72289629Y-58417370D01*
X72218200Y-58345942D01*
X72182486Y-58238799D01*
X72182486Y-58167370D01*
X72218200Y-58060227D01*
X72253914Y-58024513D01*
X72182486Y-57703085D02*
X72789629Y-57703085D01*
X72861057Y-57667370D01*
X72896771Y-57631656D01*
X72932486Y-57560227D01*
X72932486Y-57417370D01*
X72896771Y-57345942D01*
X72861057Y-57310227D01*
X72789629Y-57274513D01*
X72182486Y-57274513D01*
X69515486Y-62024514D02*
X69515486Y-61560228D01*
X69801200Y-61810228D01*
X69801200Y-61703086D01*
X69836914Y-61631657D01*
X69872629Y-61595943D01*
X69944057Y-61560228D01*
X70122629Y-61560228D01*
X70194057Y-61595943D01*
X70229771Y-61631657D01*
X70265486Y-61703086D01*
X70265486Y-61917371D01*
X70229771Y-61988800D01*
X70194057Y-62024514D01*
X69515486Y-61345942D02*
X70265486Y-61095942D01*
X69515486Y-60845942D01*
X69515486Y-60667371D02*
X69515486Y-60203085D01*
X69801200Y-60453085D01*
X69801200Y-60345943D01*
X69836914Y-60274514D01*
X69872629Y-60238800D01*
X69944057Y-60203085D01*
X70122629Y-60203085D01*
X70194057Y-60238800D01*
X70229771Y-60274514D01*
X70265486Y-60345943D01*
X70265486Y-60560228D01*
X70229771Y-60631657D01*
X70194057Y-60667371D01*
X70336914Y-60060228D02*
X70336914Y-59488799D01*
X70265486Y-59310228D02*
X69515486Y-59310228D01*
X70051200Y-59060228D01*
X69515486Y-58810228D01*
X70265486Y-58810228D01*
X70194057Y-58024513D02*
X70229771Y-58060227D01*
X70265486Y-58167370D01*
X70265486Y-58238799D01*
X70229771Y-58345942D01*
X70158343Y-58417370D01*
X70086914Y-58453085D01*
X69944057Y-58488799D01*
X69836914Y-58488799D01*
X69694057Y-58453085D01*
X69622629Y-58417370D01*
X69551200Y-58345942D01*
X69515486Y-58238799D01*
X69515486Y-58167370D01*
X69551200Y-58060227D01*
X69586914Y-58024513D01*
X69515486Y-57703085D02*
X70122629Y-57703085D01*
X70194057Y-57667370D01*
X70229771Y-57631656D01*
X70265486Y-57560227D01*
X70265486Y-57417370D01*
X70229771Y-57345942D01*
X70194057Y-57310227D01*
X70122629Y-57274513D01*
X69515486Y-57274513D01*
X79994143Y-67483486D02*
X79637000Y-67483486D01*
X79601286Y-67840629D01*
X79637000Y-67804914D01*
X79708429Y-67769200D01*
X79887000Y-67769200D01*
X79958429Y-67804914D01*
X79994143Y-67840629D01*
X80029858Y-67912057D01*
X80029858Y-68090629D01*
X79994143Y-68162057D01*
X79958429Y-68197771D01*
X79887000Y-68233486D01*
X79708429Y-68233486D01*
X79637000Y-68197771D01*
X79601286Y-68162057D01*
X80244144Y-67483486D02*
X80494144Y-68233486D01*
X80744144Y-67483486D01*
X84344914Y-45360086D02*
X83987771Y-45360086D01*
X83952057Y-45717229D01*
X83987771Y-45681514D01*
X84059200Y-45645800D01*
X84237771Y-45645800D01*
X84309200Y-45681514D01*
X84344914Y-45717229D01*
X84380629Y-45788657D01*
X84380629Y-45967229D01*
X84344914Y-46038657D01*
X84309200Y-46074371D01*
X84237771Y-46110086D01*
X84059200Y-46110086D01*
X83987771Y-46074371D01*
X83952057Y-46038657D01*
X84594915Y-45360086D02*
X84844915Y-46110086D01*
X85094915Y-45360086D01*
X85487772Y-45360086D02*
X85559200Y-45360086D01*
X85630629Y-45395800D01*
X85666343Y-45431514D01*
X85702057Y-45502943D01*
X85737772Y-45645800D01*
X85737772Y-45824371D01*
X85702057Y-45967229D01*
X85666343Y-46038657D01*
X85630629Y-46074371D01*
X85559200Y-46110086D01*
X85487772Y-46110086D01*
X85416343Y-46074371D01*
X85380629Y-46038657D01*
X85344914Y-45967229D01*
X85309200Y-45824371D01*
X85309200Y-45645800D01*
X85344914Y-45502943D01*
X85380629Y-45431514D01*
X85416343Y-45395800D01*
X85487772Y-45360086D01*
X85880629Y-46181514D02*
X86452058Y-46181514D01*
X86630629Y-46110086D02*
X86630629Y-45360086D01*
X86916344Y-45360086D01*
X86987772Y-45395800D01*
X87023487Y-45431514D01*
X87059201Y-45502943D01*
X87059201Y-45610086D01*
X87023487Y-45681514D01*
X86987772Y-45717229D01*
X86916344Y-45752943D01*
X86630629Y-45752943D01*
X87309201Y-45360086D02*
X87487772Y-46110086D01*
X87630629Y-45574371D01*
X87773487Y-46110086D01*
X87952058Y-45360086D01*
X88666344Y-46110086D02*
X88416344Y-45752943D01*
X88237772Y-46110086D02*
X88237772Y-45360086D01*
X88523487Y-45360086D01*
X88594915Y-45395800D01*
X88630630Y-45431514D01*
X88666344Y-45502943D01*
X88666344Y-45610086D01*
X88630630Y-45681514D01*
X88594915Y-45717229D01*
X88523487Y-45752943D01*
X88237772Y-45752943D01*
D13*
X85444701Y-35979371D02*
X85158987Y-35979371D01*
X85016130Y-36050800D01*
X84944701Y-36122229D01*
X84801844Y-36336514D01*
X84730415Y-36622229D01*
X84730415Y-37193657D01*
X84801844Y-37336514D01*
X84873272Y-37407943D01*
X85016130Y-37479371D01*
X85301844Y-37479371D01*
X85444701Y-37407943D01*
X85516130Y-37336514D01*
X85587558Y-37193657D01*
X85587558Y-36836514D01*
X85516130Y-36693657D01*
X85444701Y-36622229D01*
X85301844Y-36550800D01*
X85016130Y-36550800D01*
X84873272Y-36622229D01*
X84801844Y-36693657D01*
X84730415Y-36836514D01*
X86516129Y-35979371D02*
X86658986Y-35979371D01*
X86801843Y-36050800D01*
X86873272Y-36122229D01*
X86944701Y-36265086D01*
X87016129Y-36550800D01*
X87016129Y-36907943D01*
X86944701Y-37193657D01*
X86873272Y-37336514D01*
X86801843Y-37407943D01*
X86658986Y-37479371D01*
X86516129Y-37479371D01*
X86373272Y-37407943D01*
X86301843Y-37336514D01*
X86230415Y-37193657D01*
X86158986Y-36907943D01*
X86158986Y-36550800D01*
X86230415Y-36265086D01*
X86301843Y-36122229D01*
X86373272Y-36050800D01*
X86516129Y-35979371D01*
X87658986Y-37336514D02*
X87730414Y-37407943D01*
X87658986Y-37479371D01*
X87587557Y-37407943D01*
X87658986Y-37336514D01*
X87658986Y-37479371D01*
X88658986Y-35979371D02*
X88801843Y-35979371D01*
X88944700Y-36050800D01*
X89016129Y-36122229D01*
X89087558Y-36265086D01*
X89158986Y-36550800D01*
X89158986Y-36907943D01*
X89087558Y-37193657D01*
X89016129Y-37336514D01*
X88944700Y-37407943D01*
X88801843Y-37479371D01*
X88658986Y-37479371D01*
X88516129Y-37407943D01*
X88444700Y-37336514D01*
X88373272Y-37193657D01*
X88301843Y-36907943D01*
X88301843Y-36550800D01*
X88373272Y-36265086D01*
X88444700Y-36122229D01*
X88516129Y-36050800D01*
X88658986Y-35979371D01*
X89658986Y-35979371D02*
X90658986Y-35979371D01*
X90016129Y-37479371D01*
X92016128Y-37479371D02*
X91158985Y-37479371D01*
X91587557Y-37479371D02*
X91587557Y-35979371D01*
X91444700Y-36193657D01*
X91301842Y-36336514D01*
X91158985Y-36407943D01*
X93801842Y-37479371D02*
X93801842Y-36479371D01*
X93801842Y-36622229D02*
X93873270Y-36550800D01*
X94016128Y-36479371D01*
X94230413Y-36479371D01*
X94373270Y-36550800D01*
X94444699Y-36693657D01*
X94444699Y-37479371D01*
X94444699Y-36693657D02*
X94516128Y-36550800D01*
X94658985Y-36479371D01*
X94873270Y-36479371D01*
X95016128Y-36550800D01*
X95087556Y-36693657D01*
X95087556Y-37479371D01*
X95801842Y-37479371D02*
X95801842Y-36479371D01*
X95801842Y-36622229D02*
X95873270Y-36550800D01*
X96016128Y-36479371D01*
X96230413Y-36479371D01*
X96373270Y-36550800D01*
X96444699Y-36693657D01*
X96444699Y-37479371D01*
X96444699Y-36693657D02*
X96516128Y-36550800D01*
X96658985Y-36479371D01*
X96873270Y-36479371D01*
X97016128Y-36550800D01*
X97087556Y-36693657D01*
X97087556Y-37479371D01*
X120980200Y-38150800D02*
X60909200Y-38150800D01*
X120980200Y-45008800D02*
X120980200Y-35450800D01*
X60909200Y-45008800D02*
X60909200Y-35450800D01*
X60909200Y-38150800D02*
X62035704Y-37564379D01*
X60909200Y-38150800D02*
X62035704Y-38737221D01*
X120980200Y-38150800D02*
X119853696Y-37564379D01*
X120980200Y-38150800D02*
X119853696Y-38737221D01*
D12*
X89192100Y-51638200D02*
X89192100Y-45008800D01*
X89446100Y-51917600D02*
X89446100Y-44996100D01*
X85852000Y-51638200D02*
X89192100Y-51638200D01*
X86106000Y-51917600D02*
X89446100Y-51917600D01*
X85877400Y-51917600D02*
X86182200Y-51917600D01*
X86055200Y-51917600D02*
X85699600Y-51917600D01*
X85369400Y-51638200D02*
X85877400Y-51638200D01*
X85369400Y-62687200D02*
X85369400Y-51638200D01*
X85369400Y-62712600D02*
X85369400Y-62687200D01*
X86410800Y-63754000D02*
X85369400Y-62712600D01*
X85699600Y-62687200D02*
X85699600Y-62433200D01*
X85725000Y-62712600D02*
X85699600Y-62687200D01*
X86512400Y-63500000D02*
X85725000Y-62712600D01*
X86118700Y-51917600D02*
X86131400Y-51917600D01*
X85686900Y-62598300D02*
X85686900Y-51917600D01*
X86614000Y-63500000D02*
X86512400Y-63500000D01*
X87896700Y-63754000D02*
X86410800Y-63754000D01*
X88138000Y-83439000D02*
X88138000Y-84709000D01*
X87884000Y-83312000D02*
X87884000Y-84709000D01*
D13*
X130949429Y-58611287D02*
X130949429Y-59539858D01*
X130378000Y-59039858D01*
X130378000Y-59254144D01*
X130306571Y-59397001D01*
X130235143Y-59468430D01*
X130092286Y-59539858D01*
X129735143Y-59539858D01*
X129592286Y-59468430D01*
X129520857Y-59397001D01*
X129449429Y-59254144D01*
X129449429Y-58825572D01*
X129520857Y-58682715D01*
X129592286Y-58611287D01*
X129449429Y-60254143D02*
X129449429Y-60539858D01*
X129520857Y-60682715D01*
X129592286Y-60754143D01*
X129806571Y-60897001D01*
X130092286Y-60968429D01*
X130663714Y-60968429D01*
X130806571Y-60897001D01*
X130878000Y-60825572D01*
X130949429Y-60682715D01*
X130949429Y-60397001D01*
X130878000Y-60254143D01*
X130806571Y-60182715D01*
X130663714Y-60111286D01*
X130306571Y-60111286D01*
X130163714Y-60182715D01*
X130092286Y-60254143D01*
X130020857Y-60397001D01*
X130020857Y-60682715D01*
X130092286Y-60825572D01*
X130163714Y-60897001D01*
X130306571Y-60968429D01*
X129592286Y-61611286D02*
X129520857Y-61682714D01*
X129449429Y-61611286D01*
X129520857Y-61539857D01*
X129592286Y-61611286D01*
X129449429Y-61611286D01*
X130306571Y-62539858D02*
X130378000Y-62397000D01*
X130449429Y-62325572D01*
X130592286Y-62254143D01*
X130663714Y-62254143D01*
X130806571Y-62325572D01*
X130878000Y-62397000D01*
X130949429Y-62539858D01*
X130949429Y-62825572D01*
X130878000Y-62968429D01*
X130806571Y-63039858D01*
X130663714Y-63111286D01*
X130592286Y-63111286D01*
X130449429Y-63039858D01*
X130378000Y-62968429D01*
X130306571Y-62825572D01*
X130306571Y-62539858D01*
X130235143Y-62397000D01*
X130163714Y-62325572D01*
X130020857Y-62254143D01*
X129735143Y-62254143D01*
X129592286Y-62325572D01*
X129520857Y-62397000D01*
X129449429Y-62539858D01*
X129449429Y-62825572D01*
X129520857Y-62968429D01*
X129592286Y-63039858D01*
X129735143Y-63111286D01*
X130020857Y-63111286D01*
X130163714Y-63039858D01*
X130235143Y-62968429D01*
X130306571Y-62825572D01*
X130949429Y-63611286D02*
X130949429Y-64611286D01*
X129449429Y-63968429D01*
X130306571Y-65397000D02*
X130378000Y-65254142D01*
X130449429Y-65182714D01*
X130592286Y-65111285D01*
X130663714Y-65111285D01*
X130806571Y-65182714D01*
X130878000Y-65254142D01*
X130949429Y-65397000D01*
X130949429Y-65682714D01*
X130878000Y-65825571D01*
X130806571Y-65897000D01*
X130663714Y-65968428D01*
X130592286Y-65968428D01*
X130449429Y-65897000D01*
X130378000Y-65825571D01*
X130306571Y-65682714D01*
X130306571Y-65397000D01*
X130235143Y-65254142D01*
X130163714Y-65182714D01*
X130020857Y-65111285D01*
X129735143Y-65111285D01*
X129592286Y-65182714D01*
X129520857Y-65254142D01*
X129449429Y-65397000D01*
X129449429Y-65682714D01*
X129520857Y-65825571D01*
X129592286Y-65897000D01*
X129735143Y-65968428D01*
X130020857Y-65968428D01*
X130163714Y-65897000D01*
X130235143Y-65825571D01*
X130306571Y-65682714D01*
X129449429Y-67754142D02*
X130449429Y-67754142D01*
X130306571Y-67754142D02*
X130378000Y-67825570D01*
X130449429Y-67968428D01*
X130449429Y-68182713D01*
X130378000Y-68325570D01*
X130235143Y-68396999D01*
X129449429Y-68396999D01*
X130235143Y-68396999D02*
X130378000Y-68468428D01*
X130449429Y-68611285D01*
X130449429Y-68825570D01*
X130378000Y-68968428D01*
X130235143Y-69039856D01*
X129449429Y-69039856D01*
X129449429Y-69754142D02*
X130449429Y-69754142D01*
X130306571Y-69754142D02*
X130378000Y-69825570D01*
X130449429Y-69968428D01*
X130449429Y-70182713D01*
X130378000Y-70325570D01*
X130235143Y-70396999D01*
X129449429Y-70396999D01*
X130235143Y-70396999D02*
X130378000Y-70468428D01*
X130449429Y-70611285D01*
X130449429Y-70825570D01*
X130378000Y-70968428D01*
X130235143Y-71039856D01*
X129449429Y-71039856D01*
X128778000Y-44958000D02*
X128778000Y-84836000D01*
X121031000Y-44958000D02*
X131478000Y-44958000D01*
X121031000Y-84836000D02*
X131478000Y-84836000D01*
X128778000Y-84836000D02*
X128191579Y-83709496D01*
X128778000Y-84836000D02*
X129364421Y-83709496D01*
X128778000Y-44958000D02*
X128191579Y-46084504D01*
X128778000Y-44958000D02*
X129364421Y-46084504D01*
D12*
X88138000Y-82931000D02*
X88138000Y-83439000D01*
X87884000Y-82804000D02*
X87884000Y-83312000D01*
X88138000Y-82677000D02*
X88138000Y-82931000D01*
X87884000Y-63754000D02*
X87884000Y-82804000D01*
X85369400Y-59563000D02*
X85369400Y-51816000D01*
X88138000Y-63500000D02*
X86614000Y-63500000D01*
X88138000Y-64643000D02*
X88138000Y-63500000D01*
X88138000Y-82677000D02*
X88138000Y-64643000D01*
D11*
X96177628Y-80654086D02*
X96177628Y-79904086D01*
X96463343Y-79904086D01*
X96534771Y-79939800D01*
X96570486Y-79975514D01*
X96606200Y-80046943D01*
X96606200Y-80154086D01*
X96570486Y-80225514D01*
X96534771Y-80261229D01*
X96463343Y-80296943D01*
X96177628Y-80296943D01*
X96856200Y-79904086D02*
X97034771Y-80654086D01*
X97177628Y-80118371D01*
X97320486Y-80654086D01*
X97499057Y-79904086D01*
X97784771Y-80654086D02*
X97784771Y-79904086D01*
X98034771Y-80439800D01*
X98284771Y-79904086D01*
X98284771Y-80654086D01*
X100025152Y-80386229D02*
X99263247Y-80386229D01*
X94995952Y-80208429D02*
X94234047Y-80208429D01*
X94614999Y-80589381D02*
X94614999Y-79827476D01*
X111552486Y-76675228D02*
X112302486Y-76425228D01*
X111552486Y-76175228D01*
X112302486Y-75925229D02*
X111552486Y-75925229D01*
X112088200Y-75675229D01*
X111552486Y-75425229D01*
X112302486Y-75425229D01*
X111552486Y-74925228D02*
X111552486Y-74782371D01*
X111588200Y-74710943D01*
X111659629Y-74639514D01*
X111802486Y-74603800D01*
X112052486Y-74603800D01*
X112195343Y-74639514D01*
X112266771Y-74710943D01*
X112302486Y-74782371D01*
X112302486Y-74925228D01*
X112266771Y-74996657D01*
X112195343Y-75068086D01*
X112052486Y-75103800D01*
X111802486Y-75103800D01*
X111659629Y-75068086D01*
X111588200Y-74996657D01*
X111552486Y-74925228D01*
X111552486Y-74389514D02*
X111552486Y-73960943D01*
X112302486Y-74175229D02*
X111552486Y-74175229D01*
X112016771Y-73710943D02*
X112016771Y-73139514D01*
X112302486Y-73425228D02*
X111731057Y-73425228D01*
X111552486Y-82771228D02*
X112302486Y-82521228D01*
X111552486Y-82271228D01*
X112302486Y-82021229D02*
X111552486Y-82021229D01*
X112088200Y-81771229D01*
X111552486Y-81521229D01*
X112302486Y-81521229D01*
X111552486Y-81021228D02*
X111552486Y-80878371D01*
X111588200Y-80806943D01*
X111659629Y-80735514D01*
X111802486Y-80699800D01*
X112052486Y-80699800D01*
X112195343Y-80735514D01*
X112266771Y-80806943D01*
X112302486Y-80878371D01*
X112302486Y-81021228D01*
X112266771Y-81092657D01*
X112195343Y-81164086D01*
X112052486Y-81199800D01*
X111802486Y-81199800D01*
X111659629Y-81164086D01*
X111588200Y-81092657D01*
X111552486Y-81021228D01*
X111552486Y-80485514D02*
X111552486Y-80056943D01*
X112302486Y-80271229D02*
X111552486Y-80271229D01*
X112016771Y-79806943D02*
X112016771Y-79235514D01*
X111525105Y-62566324D02*
X112325105Y-62299657D01*
X111525105Y-62032990D01*
X111906057Y-61499657D02*
X111944152Y-61385371D01*
X111982248Y-61347276D01*
X112058438Y-61309181D01*
X112172724Y-61309181D01*
X112248914Y-61347276D01*
X112287010Y-61385371D01*
X112325105Y-61461562D01*
X112325105Y-61766324D01*
X111525105Y-61766324D01*
X111525105Y-61499657D01*
X111563200Y-61423467D01*
X111601295Y-61385371D01*
X111677486Y-61347276D01*
X111753676Y-61347276D01*
X111829867Y-61385371D01*
X111867962Y-61423467D01*
X111906057Y-61499657D01*
X111906057Y-61766324D01*
X112096533Y-61004419D02*
X112096533Y-60623467D01*
X112325105Y-61080610D02*
X111525105Y-60813943D01*
X112325105Y-60547276D01*
X111525105Y-60394896D02*
X111525105Y-59937753D01*
X112325105Y-60166324D02*
X111525105Y-60166324D01*
X112020343Y-59671086D02*
X112020343Y-59061562D01*
X111552486Y-68422228D02*
X112302486Y-68172228D01*
X111552486Y-67922228D01*
X111909629Y-67422229D02*
X111945343Y-67315086D01*
X111981057Y-67279371D01*
X112052486Y-67243657D01*
X112159629Y-67243657D01*
X112231057Y-67279371D01*
X112266771Y-67315086D01*
X112302486Y-67386514D01*
X112302486Y-67672229D01*
X111552486Y-67672229D01*
X111552486Y-67422229D01*
X111588200Y-67350800D01*
X111623914Y-67315086D01*
X111695343Y-67279371D01*
X111766771Y-67279371D01*
X111838200Y-67315086D01*
X111873914Y-67350800D01*
X111909629Y-67422229D01*
X111909629Y-67672229D01*
X112088200Y-66957943D02*
X112088200Y-66600800D01*
X112302486Y-67029371D02*
X111552486Y-66779371D01*
X112302486Y-66529371D01*
X111552486Y-66386514D02*
X111552486Y-65957943D01*
X112302486Y-66172229D02*
X111552486Y-66172229D01*
X112016771Y-65707943D02*
X112016771Y-65136514D01*
X112302486Y-65422228D02*
X111731057Y-65422228D01*
D14*
X80264000Y-57683400D02*
X80264000Y-65278000D01*
X80264000Y-65278000D02*
X91719400Y-65278000D01*
X91719400Y-65278000D02*
X91719400Y-57683400D01*
D11*
X91694000Y-57683400D02*
X80264000Y-57683400D01*
D14*
X88519000Y-57648800D02*
X80839000Y-57648800D01*
X78727400Y-71954200D02*
X78727400Y-71454200D01*
X77787400Y-71454200D02*
X77787400Y-71954200D01*
X75180000Y-50965000D02*
X74680000Y-50965000D01*
X74680000Y-51905000D02*
X75180000Y-51905000D01*
X71336000Y-72259000D02*
X71336000Y-71759000D01*
X70396000Y-71759000D02*
X70396000Y-72259000D01*
X83760500Y-55080000D02*
X84260500Y-55080000D01*
X84260500Y-54140000D02*
X83760500Y-54140000D01*
X72013000Y-51905000D02*
X72513000Y-51905000D01*
X72513000Y-50965000D02*
X72013000Y-50965000D01*
X101184000Y-68865000D02*
X101184000Y-69565000D01*
X99984000Y-69565000D02*
X99984000Y-68865000D01*
X96939000Y-63123000D02*
X96939000Y-63623000D01*
X97879000Y-63623000D02*
X97879000Y-63123000D01*
D15*
X116673000Y-71104000D02*
G75*
G03X116673000Y-71104000I-2500000J0D01*
G01*
D14*
X101184000Y-76358000D02*
X101184000Y-77058000D01*
X99984000Y-77058000D02*
X99984000Y-76358000D01*
X111849000Y-55622000D02*
X111849000Y-55122000D01*
X110909000Y-55122000D02*
X110909000Y-55622000D01*
X100063200Y-48187800D02*
X100063200Y-48687800D01*
X101003200Y-48687800D02*
X101003200Y-48187800D01*
X84353500Y-71941500D02*
X84353500Y-71441500D01*
X83413500Y-71441500D02*
X83413500Y-71941500D01*
X83502400Y-66399600D02*
X83502400Y-66899600D01*
X84442400Y-66899600D02*
X84442400Y-66399600D01*
X92240000Y-72013000D02*
X92240000Y-72513000D01*
X93180000Y-72513000D02*
X93180000Y-72013000D01*
X87245000Y-52031800D02*
X86745000Y-52031800D01*
X86745000Y-52971800D02*
X87245000Y-52971800D01*
X73287000Y-60228000D02*
X74287000Y-60228000D01*
X74287000Y-60228000D02*
X74287000Y-58128000D01*
X73287000Y-60228000D02*
X73287000Y-58128000D01*
X101719000Y-59279000D02*
X100719000Y-59279000D01*
X100719000Y-59279000D02*
X100719000Y-61379000D01*
X101719000Y-59279000D02*
X101719000Y-61379000D01*
X70620000Y-60228000D02*
X71620000Y-60228000D01*
X71620000Y-60228000D02*
X71620000Y-58128000D01*
X70620000Y-60228000D02*
X70620000Y-58128000D01*
X91317600Y-46321600D02*
X91317600Y-45321600D01*
X91317600Y-45321600D02*
X89217600Y-45321600D01*
X91317600Y-46321600D02*
X89217600Y-46321600D01*
X74452000Y-73855200D02*
X74452000Y-72855200D01*
X74452000Y-72855200D02*
X72352000Y-72855200D01*
X74452000Y-73855200D02*
X72352000Y-73855200D01*
X92218000Y-65115000D02*
X94218000Y-65115000D01*
X94218000Y-65115000D02*
X94218000Y-61215000D01*
X92218000Y-65115000D02*
X92218000Y-61215000D01*
D11*
X68402200Y-45123100D02*
X78308200Y-45123100D01*
D16*
X112713000Y-69008000D02*
X112713000Y-59008000D01*
X112713000Y-59008000D02*
X121013000Y-59008000D01*
X121013000Y-59008000D02*
X121013000Y-69008000D01*
X121013000Y-69008000D02*
X112713000Y-69008000D01*
D17*
X115353000Y-67808000D02*
G75*
G03X115353000Y-67808000I-140000J0D01*
G01*
D16*
X112586000Y-83232000D02*
X112586000Y-73232000D01*
X112586000Y-73232000D02*
X120886000Y-73232000D01*
X120886000Y-73232000D02*
X120886000Y-83232000D01*
X120886000Y-83232000D02*
X112586000Y-83232000D01*
D17*
X115226000Y-82032000D02*
G75*
G03X115226000Y-82032000I-140000J0D01*
G01*
D14*
X101025000Y-84007000D02*
X101025000Y-81347000D01*
X95885000Y-84007000D02*
X101025000Y-84007000D01*
X95885000Y-81347000D02*
X101025000Y-81347000D01*
X95885000Y-84007000D02*
X95885000Y-81347000D01*
X94615000Y-84007000D02*
X93285000Y-84007000D01*
X93285000Y-84007000D02*
X93285000Y-82677000D01*
X67116000Y-76394000D02*
X61916000Y-76394000D01*
X67116000Y-81534000D02*
X67116000Y-76394000D01*
X61916000Y-84134000D02*
X61916000Y-76394000D01*
X67116000Y-81534000D02*
X64516000Y-81534000D01*
X64516000Y-81534000D02*
X64516000Y-84134000D01*
X64516000Y-84134000D02*
X61916000Y-84134000D01*
X67116000Y-82804000D02*
X67116000Y-84134000D01*
X67116000Y-84134000D02*
X65786000Y-84134000D01*
X77896000Y-70112000D02*
X77896000Y-71112000D01*
X76536000Y-71112000D02*
X76536000Y-70112000D01*
X94830000Y-59174000D02*
X94830000Y-58174000D01*
X93130000Y-58174000D02*
X93130000Y-59174000D01*
D11*
X100141229Y-50990000D02*
G75*
G03X100141229Y-50990000I-5272229J0D01*
G01*
D14*
X86632600Y-56270400D02*
X86632600Y-54270400D01*
X89592600Y-54270400D02*
X89592600Y-56270400D01*
X74317000Y-56384000D02*
X74317000Y-55884000D01*
X73257000Y-55884000D02*
X73257000Y-56384000D01*
X99546000Y-62488000D02*
X99546000Y-62988000D01*
X100606000Y-62988000D02*
X100606000Y-62488000D01*
X71650000Y-56384000D02*
X71650000Y-55884000D01*
X70590000Y-55884000D02*
X70590000Y-56384000D01*
X89031000Y-47799400D02*
X89531000Y-47799400D01*
X89531000Y-46739400D02*
X89031000Y-46739400D01*
X99209000Y-59432000D02*
X99209000Y-58932000D01*
X98149000Y-58932000D02*
X98149000Y-59432000D01*
X97032000Y-61871000D02*
X97532000Y-61871000D01*
X97532000Y-60811000D02*
X97032000Y-60811000D01*
X98784000Y-72267000D02*
X98784000Y-72767000D01*
X99844000Y-72767000D02*
X99844000Y-72267000D01*
X95635000Y-73682000D02*
X96135000Y-73682000D01*
X96135000Y-72622000D02*
X95635000Y-72622000D01*
X72419400Y-72691400D02*
X72919400Y-72691400D01*
X72919400Y-71631400D02*
X72419400Y-71631400D01*
X99818000Y-73765000D02*
X99318000Y-73765000D01*
X99318000Y-74825000D02*
X99818000Y-74825000D01*
X99500500Y-78781500D02*
X99000500Y-78781500D01*
X99000500Y-79841500D02*
X99500500Y-79841500D01*
X85602000Y-84223000D02*
X86102000Y-84223000D01*
X86102000Y-83163000D02*
X85602000Y-83163000D01*
D16*
X78682000Y-51263000D02*
X78682000Y-47543000D01*
X85402000Y-51263000D02*
X85402000Y-47543000D01*
X78682000Y-51263000D02*
X78942000Y-51263000D01*
X85152000Y-51263000D02*
X85402000Y-51263000D01*
X85402000Y-47543000D02*
X83912000Y-47543000D01*
X80282000Y-47543000D02*
X78682000Y-47543000D01*
D12*
X79852000Y-53776000D02*
G75*
G03X79852000Y-53776000I-100000J0D01*
G01*
D11*
X104224000Y-48987000D02*
X104224000Y-49037000D01*
X108374000Y-48987000D02*
X108374000Y-49132000D01*
X108374000Y-54137000D02*
X108374000Y-53992000D01*
X104224000Y-54137000D02*
X104224000Y-53992000D01*
X104224000Y-48987000D02*
X108374000Y-48987000D01*
X104224000Y-54137000D02*
X108374000Y-54137000D01*
X104224000Y-49037000D02*
X102824000Y-49037000D01*
D18*
X97967800Y-58953400D02*
X97967800Y-58394600D01*
X96875600Y-57886600D02*
X96164400Y-57886600D01*
X95072200Y-58394600D02*
X95072200Y-58953400D01*
D11*
X86088400Y-65674800D02*
X86088400Y-65724800D01*
X90238400Y-65674800D02*
X90238400Y-65819800D01*
X90238400Y-70824800D02*
X90238400Y-70679800D01*
X86088400Y-70824800D02*
X86088400Y-70679800D01*
X86088400Y-65674800D02*
X90238400Y-65674800D01*
X86088400Y-70824800D02*
X90238400Y-70824800D01*
X86088400Y-65724800D02*
X84688400Y-65724800D01*
X86164600Y-71542200D02*
X86164600Y-71592200D01*
X90314600Y-71542200D02*
X90314600Y-71687200D01*
X90314600Y-76692200D02*
X90314600Y-76547200D01*
X86164600Y-76692200D02*
X86164600Y-76547200D01*
X86164600Y-71542200D02*
X90314600Y-71542200D01*
X86164600Y-76692200D02*
X90314600Y-76692200D01*
X86164600Y-71592200D02*
X84764600Y-71592200D01*
X86190000Y-77435000D02*
X86190000Y-77485000D01*
X90340000Y-77435000D02*
X90340000Y-77580000D01*
X90340000Y-82585000D02*
X90340000Y-82440000D01*
X86190000Y-82585000D02*
X86190000Y-82440000D01*
X86190000Y-77435000D02*
X90340000Y-77435000D01*
X86190000Y-82585000D02*
X90340000Y-82585000D01*
X86190000Y-77485000D02*
X84790000Y-77485000D01*
D14*
X77212000Y-60998000D02*
X76712000Y-60998000D01*
X76712000Y-61938000D02*
X77212000Y-61938000D01*
X76712000Y-63335000D02*
X77212000Y-63335000D01*
X77212000Y-62395000D02*
X76712000Y-62395000D01*
X78591000Y-61980000D02*
X78591000Y-62480000D01*
X79651000Y-62480000D02*
X79651000Y-61980000D01*
X78878000Y-57445000D02*
X77078000Y-57445000D01*
X77078000Y-60665000D02*
X79528000Y-60665000D01*
X74807000Y-66764000D02*
X75307000Y-66764000D01*
X75307000Y-65824000D02*
X74807000Y-65824000D01*
X94527000Y-62492000D02*
X94527000Y-63492000D01*
X96227000Y-63492000D02*
X96227000Y-62492000D01*
X108462000Y-48349000D02*
X108962000Y-48349000D01*
X108962000Y-47409000D02*
X108462000Y-47409000D01*
X71714000Y-82500000D02*
X71714000Y-82600000D01*
X76114000Y-81000000D02*
X71714000Y-81000000D01*
X71714000Y-84100000D02*
X76114000Y-84100000D01*
X76114000Y-82500000D02*
X76114000Y-82600000D01*
X73892000Y-53217000D02*
X73892000Y-53717000D01*
X74952000Y-53717000D02*
X74952000Y-53217000D01*
X72368000Y-53217000D02*
X72368000Y-53717000D01*
X73428000Y-53717000D02*
X73428000Y-53217000D01*
X112042800Y-50118200D02*
X112042800Y-50618200D01*
X113102800Y-50618200D02*
X113102800Y-50118200D01*
X111528000Y-50542000D02*
X111528000Y-50042000D01*
X110468000Y-50042000D02*
X110468000Y-50542000D01*
X111401000Y-52828000D02*
X111401000Y-52328000D01*
X110341000Y-52328000D02*
X110341000Y-52828000D01*
X110639000Y-55622000D02*
X110639000Y-55122000D01*
X109579000Y-55122000D02*
X109579000Y-55622000D01*
X103755000Y-47476000D02*
X103255000Y-47476000D01*
X103255000Y-48536000D02*
X103755000Y-48536000D01*
X108055000Y-55122000D02*
X108055000Y-55622000D01*
X109115000Y-55622000D02*
X109115000Y-55122000D01*
X81385600Y-57426000D02*
X81885600Y-57426000D01*
X81885600Y-56366000D02*
X81385600Y-56366000D01*
X81911000Y-55223000D02*
X81411000Y-55223000D01*
X81411000Y-56283000D02*
X81911000Y-56283000D01*
X102069000Y-52570000D02*
X102069000Y-51570000D01*
X100369000Y-51570000D02*
X100369000Y-52570000D01*
X102655000Y-55888000D02*
X102655000Y-56888000D01*
X104355000Y-56888000D02*
X104355000Y-55888000D01*
X98709000Y-75254000D02*
X98709000Y-75454000D01*
X98709000Y-78112800D02*
X99109000Y-78112800D01*
X98709000Y-78212800D02*
X98709000Y-78112800D01*
X96109000Y-78212800D02*
X98709000Y-78212800D01*
X98709000Y-75254000D02*
X96109000Y-75254000D01*
X98709000Y-68142000D02*
X98709000Y-68342000D01*
X98709000Y-71000800D02*
X99109000Y-71000800D01*
X98709000Y-71100800D02*
X98709000Y-71000800D01*
X96109000Y-71100800D02*
X98709000Y-71100800D01*
X98709000Y-68142000D02*
X96109000Y-68142000D01*
X117987000Y-53302000D02*
X118487000Y-53302000D01*
X118487000Y-52362000D02*
X117987000Y-52362000D01*
D11*
X81367428Y-65578486D02*
X81367428Y-66185629D01*
X81403143Y-66257057D01*
X81438857Y-66292771D01*
X81510286Y-66328486D01*
X81653143Y-66328486D01*
X81724571Y-66292771D01*
X81760286Y-66257057D01*
X81796000Y-66185629D01*
X81796000Y-65578486D01*
X82546000Y-66328486D02*
X82117428Y-66328486D01*
X82331714Y-66328486D02*
X82331714Y-65578486D01*
X82260285Y-65685629D01*
X82188857Y-65757057D01*
X82117428Y-65792771D01*
X83010286Y-65578486D02*
X83081714Y-65578486D01*
X83153143Y-65614200D01*
X83188857Y-65649914D01*
X83224571Y-65721343D01*
X83260286Y-65864200D01*
X83260286Y-66042771D01*
X83224571Y-66185629D01*
X83188857Y-66257057D01*
X83153143Y-66292771D01*
X83081714Y-66328486D01*
X83010286Y-66328486D01*
X82938857Y-66292771D01*
X82903143Y-66257057D01*
X82867428Y-66185629D01*
X82831714Y-66042771D01*
X82831714Y-65864200D01*
X82867428Y-65721343D01*
X82903143Y-65649914D01*
X82938857Y-65614200D01*
X83010286Y-65578486D01*
X78576057Y-73708800D02*
X78611771Y-73744514D01*
X78647486Y-73851657D01*
X78647486Y-73923086D01*
X78611771Y-74030229D01*
X78540343Y-74101657D01*
X78468914Y-74137372D01*
X78326057Y-74173086D01*
X78218914Y-74173086D01*
X78076057Y-74137372D01*
X78004629Y-74101657D01*
X77933200Y-74030229D01*
X77897486Y-73923086D01*
X77897486Y-73851657D01*
X77933200Y-73744514D01*
X77968914Y-73708800D01*
X77897486Y-73458800D02*
X77897486Y-72958800D01*
X78647486Y-73280229D01*
X76659200Y-51626657D02*
X76623486Y-51662371D01*
X76516343Y-51698086D01*
X76444914Y-51698086D01*
X76337771Y-51662371D01*
X76266343Y-51590943D01*
X76230628Y-51519514D01*
X76194914Y-51376657D01*
X76194914Y-51269514D01*
X76230628Y-51126657D01*
X76266343Y-51055229D01*
X76337771Y-50983800D01*
X76444914Y-50948086D01*
X76516343Y-50948086D01*
X76623486Y-50983800D01*
X76659200Y-51019514D01*
X77016343Y-51698086D02*
X77159200Y-51698086D01*
X77230628Y-51662371D01*
X77266343Y-51626657D01*
X77337771Y-51519514D01*
X77373486Y-51376657D01*
X77373486Y-51090943D01*
X77337771Y-51019514D01*
X77302057Y-50983800D01*
X77230628Y-50948086D01*
X77087771Y-50948086D01*
X77016343Y-50983800D01*
X76980628Y-51019514D01*
X76944914Y-51090943D01*
X76944914Y-51269514D01*
X76980628Y-51340943D01*
X77016343Y-51376657D01*
X77087771Y-51412371D01*
X77230628Y-51412371D01*
X77302057Y-51376657D01*
X77337771Y-51340943D01*
X77373486Y-51269514D01*
X71210057Y-74827943D02*
X71245771Y-74863657D01*
X71281486Y-74970800D01*
X71281486Y-75042229D01*
X71245771Y-75149372D01*
X71174343Y-75220800D01*
X71102914Y-75256515D01*
X70960057Y-75292229D01*
X70852914Y-75292229D01*
X70710057Y-75256515D01*
X70638629Y-75220800D01*
X70567200Y-75149372D01*
X70531486Y-75042229D01*
X70531486Y-74970800D01*
X70567200Y-74863657D01*
X70602914Y-74827943D01*
X71281486Y-74113657D02*
X71281486Y-74542229D01*
X71281486Y-74327943D02*
X70531486Y-74327943D01*
X70638629Y-74399372D01*
X70710057Y-74470800D01*
X70745771Y-74542229D01*
X70531486Y-73649371D02*
X70531486Y-73577943D01*
X70567200Y-73506514D01*
X70602914Y-73470800D01*
X70674343Y-73435086D01*
X70817200Y-73399371D01*
X70995771Y-73399371D01*
X71138629Y-73435086D01*
X71210057Y-73470800D01*
X71245771Y-73506514D01*
X71281486Y-73577943D01*
X71281486Y-73649371D01*
X71245771Y-73720800D01*
X71210057Y-73756514D01*
X71138629Y-73792229D01*
X70995771Y-73827943D01*
X70817200Y-73827943D01*
X70674343Y-73792229D01*
X70602914Y-73756514D01*
X70567200Y-73720800D01*
X70531486Y-73649371D01*
X81369357Y-54750857D02*
X81333643Y-54786571D01*
X81226500Y-54822286D01*
X81155071Y-54822286D01*
X81047928Y-54786571D01*
X80976500Y-54715143D01*
X80940785Y-54643714D01*
X80905071Y-54500857D01*
X80905071Y-54393714D01*
X80940785Y-54250857D01*
X80976500Y-54179429D01*
X81047928Y-54108000D01*
X81155071Y-54072286D01*
X81226500Y-54072286D01*
X81333643Y-54108000D01*
X81369357Y-54143714D01*
X82083643Y-54822286D02*
X81655071Y-54822286D01*
X81869357Y-54822286D02*
X81869357Y-54072286D01*
X81797928Y-54179429D01*
X81726500Y-54250857D01*
X81655071Y-54286571D01*
X82369357Y-54143714D02*
X82405071Y-54108000D01*
X82476500Y-54072286D01*
X82655071Y-54072286D01*
X82726500Y-54108000D01*
X82762214Y-54143714D01*
X82797929Y-54215143D01*
X82797929Y-54286571D01*
X82762214Y-54393714D01*
X82333643Y-54822286D01*
X82797929Y-54822286D01*
X69571057Y-51753657D02*
X69535343Y-51789371D01*
X69428200Y-51825086D01*
X69356771Y-51825086D01*
X69249628Y-51789371D01*
X69178200Y-51717943D01*
X69142485Y-51646514D01*
X69106771Y-51503657D01*
X69106771Y-51396514D01*
X69142485Y-51253657D01*
X69178200Y-51182229D01*
X69249628Y-51110800D01*
X69356771Y-51075086D01*
X69428200Y-51075086D01*
X69535343Y-51110800D01*
X69571057Y-51146514D01*
X70285343Y-51825086D02*
X69856771Y-51825086D01*
X70071057Y-51825086D02*
X70071057Y-51075086D01*
X69999628Y-51182229D01*
X69928200Y-51253657D01*
X69856771Y-51289371D01*
X70535343Y-51075086D02*
X70999629Y-51075086D01*
X70749629Y-51360800D01*
X70856771Y-51360800D01*
X70928200Y-51396514D01*
X70963914Y-51432229D01*
X70999629Y-51503657D01*
X70999629Y-51682229D01*
X70963914Y-51753657D01*
X70928200Y-51789371D01*
X70856771Y-51825086D01*
X70642486Y-51825086D01*
X70571057Y-51789371D01*
X70535343Y-51753657D01*
X102198057Y-69874943D02*
X102233771Y-69910657D01*
X102269486Y-70017800D01*
X102269486Y-70089229D01*
X102233771Y-70196372D01*
X102162343Y-70267800D01*
X102090914Y-70303515D01*
X101948057Y-70339229D01*
X101840914Y-70339229D01*
X101698057Y-70303515D01*
X101626629Y-70267800D01*
X101555200Y-70196372D01*
X101519486Y-70089229D01*
X101519486Y-70017800D01*
X101555200Y-69910657D01*
X101590914Y-69874943D01*
X102269486Y-69160657D02*
X102269486Y-69589229D01*
X102269486Y-69374943D02*
X101519486Y-69374943D01*
X101626629Y-69446372D01*
X101698057Y-69517800D01*
X101733771Y-69589229D01*
X101519486Y-68910657D02*
X101519486Y-68410657D01*
X102269486Y-68732086D01*
X98769057Y-63905943D02*
X98804771Y-63941657D01*
X98840486Y-64048800D01*
X98840486Y-64120229D01*
X98804771Y-64227372D01*
X98733343Y-64298800D01*
X98661914Y-64334515D01*
X98519057Y-64370229D01*
X98411914Y-64370229D01*
X98269057Y-64334515D01*
X98197629Y-64298800D01*
X98126200Y-64227372D01*
X98090486Y-64120229D01*
X98090486Y-64048800D01*
X98126200Y-63941657D01*
X98161914Y-63905943D01*
X98840486Y-63191657D02*
X98840486Y-63620229D01*
X98840486Y-63405943D02*
X98090486Y-63405943D01*
X98197629Y-63477372D01*
X98269057Y-63548800D01*
X98304771Y-63620229D01*
X98411914Y-62763086D02*
X98376200Y-62834514D01*
X98340486Y-62870229D01*
X98269057Y-62905943D01*
X98233343Y-62905943D01*
X98161914Y-62870229D01*
X98126200Y-62834514D01*
X98090486Y-62763086D01*
X98090486Y-62620229D01*
X98126200Y-62548800D01*
X98161914Y-62513086D01*
X98233343Y-62477371D01*
X98269057Y-62477371D01*
X98340486Y-62513086D01*
X98376200Y-62548800D01*
X98411914Y-62620229D01*
X98411914Y-62763086D01*
X98447629Y-62834514D01*
X98483343Y-62870229D01*
X98554771Y-62905943D01*
X98697629Y-62905943D01*
X98769057Y-62870229D01*
X98804771Y-62834514D01*
X98840486Y-62763086D01*
X98840486Y-62620229D01*
X98804771Y-62548800D01*
X98769057Y-62513086D01*
X98697629Y-62477371D01*
X98554771Y-62477371D01*
X98483343Y-62513086D01*
X98447629Y-62548800D01*
X98411914Y-62620229D01*
X117742857Y-71602143D02*
X117778571Y-71637857D01*
X117814286Y-71745000D01*
X117814286Y-71816429D01*
X117778571Y-71923572D01*
X117707143Y-71995000D01*
X117635714Y-72030715D01*
X117492857Y-72066429D01*
X117385714Y-72066429D01*
X117242857Y-72030715D01*
X117171429Y-71995000D01*
X117100000Y-71923572D01*
X117064286Y-71816429D01*
X117064286Y-71745000D01*
X117100000Y-71637857D01*
X117135714Y-71602143D01*
X117135714Y-71316429D02*
X117100000Y-71280715D01*
X117064286Y-71209286D01*
X117064286Y-71030715D01*
X117100000Y-70959286D01*
X117135714Y-70923572D01*
X117207143Y-70887857D01*
X117278571Y-70887857D01*
X117385714Y-70923572D01*
X117814286Y-71352143D01*
X117814286Y-70887857D01*
X117064286Y-70637857D02*
X117064286Y-70173571D01*
X117350000Y-70423571D01*
X117350000Y-70316429D01*
X117385714Y-70245000D01*
X117421429Y-70209286D01*
X117492857Y-70173571D01*
X117671429Y-70173571D01*
X117742857Y-70209286D01*
X117778571Y-70245000D01*
X117814286Y-70316429D01*
X117814286Y-70530714D01*
X117778571Y-70602143D01*
X117742857Y-70637857D01*
X102071057Y-77113943D02*
X102106771Y-77149657D01*
X102142486Y-77256800D01*
X102142486Y-77328229D01*
X102106771Y-77435372D01*
X102035343Y-77506800D01*
X101963914Y-77542515D01*
X101821057Y-77578229D01*
X101713914Y-77578229D01*
X101571057Y-77542515D01*
X101499629Y-77506800D01*
X101428200Y-77435372D01*
X101392486Y-77328229D01*
X101392486Y-77256800D01*
X101428200Y-77149657D01*
X101463914Y-77113943D01*
X101463914Y-76828229D02*
X101428200Y-76792515D01*
X101392486Y-76721086D01*
X101392486Y-76542515D01*
X101428200Y-76471086D01*
X101463914Y-76435372D01*
X101535343Y-76399657D01*
X101606771Y-76399657D01*
X101713914Y-76435372D01*
X102142486Y-76863943D01*
X102142486Y-76399657D01*
X101642486Y-75756800D02*
X102142486Y-75756800D01*
X101356771Y-75935371D02*
X101892486Y-76113943D01*
X101892486Y-75649657D01*
X112739057Y-55904943D02*
X112774771Y-55940657D01*
X112810486Y-56047800D01*
X112810486Y-56119229D01*
X112774771Y-56226372D01*
X112703343Y-56297800D01*
X112631914Y-56333515D01*
X112489057Y-56369229D01*
X112381914Y-56369229D01*
X112239057Y-56333515D01*
X112167629Y-56297800D01*
X112096200Y-56226372D01*
X112060486Y-56119229D01*
X112060486Y-56047800D01*
X112096200Y-55940657D01*
X112131914Y-55904943D01*
X112060486Y-55654943D02*
X112060486Y-55190657D01*
X112346200Y-55440657D01*
X112346200Y-55333515D01*
X112381914Y-55262086D01*
X112417629Y-55226372D01*
X112489057Y-55190657D01*
X112667629Y-55190657D01*
X112739057Y-55226372D01*
X112774771Y-55262086D01*
X112810486Y-55333515D01*
X112810486Y-55547800D01*
X112774771Y-55619229D01*
X112739057Y-55654943D01*
X112131914Y-54904943D02*
X112096200Y-54869229D01*
X112060486Y-54797800D01*
X112060486Y-54619229D01*
X112096200Y-54547800D01*
X112131914Y-54512086D01*
X112203343Y-54476371D01*
X112274771Y-54476371D01*
X112381914Y-54512086D01*
X112810486Y-54940657D01*
X112810486Y-54476371D01*
D10*
X100801057Y-46887943D02*
X100836771Y-46923657D01*
X100872486Y-47030800D01*
X100872486Y-47102229D01*
X100836771Y-47209372D01*
X100765343Y-47280800D01*
X100693914Y-47316515D01*
X100551057Y-47352229D01*
X100443914Y-47352229D01*
X100301057Y-47316515D01*
X100229629Y-47280800D01*
X100158200Y-47209372D01*
X100122486Y-47102229D01*
X100122486Y-47030800D01*
X100158200Y-46923657D01*
X100193914Y-46887943D01*
X100122486Y-46637943D02*
X100122486Y-46173657D01*
X100408200Y-46423657D01*
X100408200Y-46316515D01*
X100443914Y-46245086D01*
X100479629Y-46209372D01*
X100551057Y-46173657D01*
X100729629Y-46173657D01*
X100801057Y-46209372D01*
X100836771Y-46245086D01*
X100872486Y-46316515D01*
X100872486Y-46530800D01*
X100836771Y-46602229D01*
X100801057Y-46637943D01*
X100122486Y-45923657D02*
X100122486Y-45459371D01*
X100408200Y-45709371D01*
X100408200Y-45602229D01*
X100443914Y-45530800D01*
X100479629Y-45495086D01*
X100551057Y-45459371D01*
X100729629Y-45459371D01*
X100801057Y-45495086D01*
X100836771Y-45530800D01*
X100872486Y-45602229D01*
X100872486Y-45816514D01*
X100836771Y-45887943D01*
X100801057Y-45923657D01*
D11*
X84164057Y-74319943D02*
X84199771Y-74355657D01*
X84235486Y-74462800D01*
X84235486Y-74534229D01*
X84199771Y-74641372D01*
X84128343Y-74712800D01*
X84056914Y-74748515D01*
X83914057Y-74784229D01*
X83806914Y-74784229D01*
X83664057Y-74748515D01*
X83592629Y-74712800D01*
X83521200Y-74641372D01*
X83485486Y-74534229D01*
X83485486Y-74462800D01*
X83521200Y-74355657D01*
X83556914Y-74319943D01*
X83485486Y-74069943D02*
X83485486Y-73605657D01*
X83771200Y-73855657D01*
X83771200Y-73748515D01*
X83806914Y-73677086D01*
X83842629Y-73641372D01*
X83914057Y-73605657D01*
X84092629Y-73605657D01*
X84164057Y-73641372D01*
X84199771Y-73677086D01*
X84235486Y-73748515D01*
X84235486Y-73962800D01*
X84199771Y-74034229D01*
X84164057Y-74069943D01*
X83485486Y-72927086D02*
X83485486Y-73284229D01*
X83842629Y-73319943D01*
X83806914Y-73284229D01*
X83771200Y-73212800D01*
X83771200Y-73034229D01*
X83806914Y-72962800D01*
X83842629Y-72927086D01*
X83914057Y-72891371D01*
X84092629Y-72891371D01*
X84164057Y-72927086D01*
X84199771Y-72962800D01*
X84235486Y-73034229D01*
X84235486Y-73212800D01*
X84199771Y-73284229D01*
X84164057Y-73319943D01*
X84291057Y-69239943D02*
X84326771Y-69275657D01*
X84362486Y-69382800D01*
X84362486Y-69454229D01*
X84326771Y-69561372D01*
X84255343Y-69632800D01*
X84183914Y-69668515D01*
X84041057Y-69704229D01*
X83933914Y-69704229D01*
X83791057Y-69668515D01*
X83719629Y-69632800D01*
X83648200Y-69561372D01*
X83612486Y-69454229D01*
X83612486Y-69382800D01*
X83648200Y-69275657D01*
X83683914Y-69239943D01*
X83612486Y-68989943D02*
X83612486Y-68525657D01*
X83898200Y-68775657D01*
X83898200Y-68668515D01*
X83933914Y-68597086D01*
X83969629Y-68561372D01*
X84041057Y-68525657D01*
X84219629Y-68525657D01*
X84291057Y-68561372D01*
X84326771Y-68597086D01*
X84362486Y-68668515D01*
X84362486Y-68882800D01*
X84326771Y-68954229D01*
X84291057Y-68989943D01*
X83612486Y-68275657D02*
X83612486Y-67775657D01*
X84362486Y-68097086D01*
X94070057Y-72795943D02*
X94105771Y-72831657D01*
X94141486Y-72938800D01*
X94141486Y-73010229D01*
X94105771Y-73117372D01*
X94034343Y-73188800D01*
X93962914Y-73224515D01*
X93820057Y-73260229D01*
X93712914Y-73260229D01*
X93570057Y-73224515D01*
X93498629Y-73188800D01*
X93427200Y-73117372D01*
X93391486Y-73010229D01*
X93391486Y-72938800D01*
X93427200Y-72831657D01*
X93462914Y-72795943D01*
X93391486Y-72545943D02*
X93391486Y-72081657D01*
X93677200Y-72331657D01*
X93677200Y-72224515D01*
X93712914Y-72153086D01*
X93748629Y-72117372D01*
X93820057Y-72081657D01*
X93998629Y-72081657D01*
X94070057Y-72117372D01*
X94105771Y-72153086D01*
X94141486Y-72224515D01*
X94141486Y-72438800D01*
X94105771Y-72510229D01*
X94070057Y-72545943D01*
X93712914Y-71653086D02*
X93677200Y-71724514D01*
X93641486Y-71760229D01*
X93570057Y-71795943D01*
X93534343Y-71795943D01*
X93462914Y-71760229D01*
X93427200Y-71724514D01*
X93391486Y-71653086D01*
X93391486Y-71510229D01*
X93427200Y-71438800D01*
X93462914Y-71403086D01*
X93534343Y-71367371D01*
X93570057Y-71367371D01*
X93641486Y-71403086D01*
X93677200Y-71438800D01*
X93712914Y-71510229D01*
X93712914Y-71653086D01*
X93748629Y-71724514D01*
X93784343Y-71760229D01*
X93855771Y-71795943D01*
X93998629Y-71795943D01*
X94070057Y-71760229D01*
X94105771Y-71724514D01*
X94141486Y-71653086D01*
X94141486Y-71510229D01*
X94105771Y-71438800D01*
X94070057Y-71403086D01*
X93998629Y-71367371D01*
X93855771Y-71367371D01*
X93784343Y-71403086D01*
X93748629Y-71438800D01*
X93712914Y-71510229D01*
X88417857Y-53125257D02*
X88382143Y-53160971D01*
X88275000Y-53196686D01*
X88203571Y-53196686D01*
X88096428Y-53160971D01*
X88025000Y-53089543D01*
X87989285Y-53018114D01*
X87953571Y-52875257D01*
X87953571Y-52768114D01*
X87989285Y-52625257D01*
X88025000Y-52553829D01*
X88096428Y-52482400D01*
X88203571Y-52446686D01*
X88275000Y-52446686D01*
X88382143Y-52482400D01*
X88417857Y-52518114D01*
X89060714Y-52696686D02*
X89060714Y-53196686D01*
X88882143Y-52410971D02*
X88703571Y-52946686D01*
X89167857Y-52946686D01*
X89846429Y-53196686D02*
X89417857Y-53196686D01*
X89632143Y-53196686D02*
X89632143Y-52446686D01*
X89560714Y-52553829D01*
X89489286Y-52625257D01*
X89417857Y-52660971D01*
X93633486Y-66771372D02*
X92883486Y-66771372D01*
X92883486Y-66592800D01*
X92919200Y-66485657D01*
X92990629Y-66414229D01*
X93062057Y-66378514D01*
X93204914Y-66342800D01*
X93312057Y-66342800D01*
X93454914Y-66378514D01*
X93526343Y-66414229D01*
X93597771Y-66485657D01*
X93633486Y-66592800D01*
X93633486Y-66771372D01*
X93633486Y-65985657D02*
X93633486Y-65842800D01*
X93597771Y-65771372D01*
X93562057Y-65735657D01*
X93454914Y-65664229D01*
X93312057Y-65628514D01*
X93026343Y-65628514D01*
X92954914Y-65664229D01*
X92919200Y-65699943D01*
X92883486Y-65771372D01*
X92883486Y-65914229D01*
X92919200Y-65985657D01*
X92954914Y-66021372D01*
X93026343Y-66057086D01*
X93204914Y-66057086D01*
X93276343Y-66021372D01*
X93312057Y-65985657D01*
X93347771Y-65914229D01*
X93347771Y-65771372D01*
X93312057Y-65699943D01*
X93276343Y-65664229D01*
X93204914Y-65628514D01*
X67230667Y-45299381D02*
X67230667Y-46013667D01*
X67183047Y-46156524D01*
X67087809Y-46251762D01*
X66944952Y-46299381D01*
X66849714Y-46299381D01*
X68230667Y-46299381D02*
X67659238Y-46299381D01*
X67944952Y-46299381D02*
X67944952Y-45299381D01*
X67849714Y-45442238D01*
X67754476Y-45537476D01*
X67659238Y-45585095D01*
X119587200Y-57806086D02*
X119587200Y-58341800D01*
X119551486Y-58448943D01*
X119480057Y-58520371D01*
X119372914Y-58556086D01*
X119301486Y-58556086D01*
X120265772Y-58056086D02*
X120265772Y-58556086D01*
X120087201Y-57770371D02*
X119908629Y-58306086D01*
X120372915Y-58306086D01*
X119765000Y-71852286D02*
X119765000Y-72388000D01*
X119729286Y-72495143D01*
X119657857Y-72566571D01*
X119550714Y-72602286D01*
X119479286Y-72602286D01*
X120479286Y-71852286D02*
X120122143Y-71852286D01*
X120086429Y-72209429D01*
X120122143Y-72173714D01*
X120193572Y-72138000D01*
X120372143Y-72138000D01*
X120443572Y-72173714D01*
X120479286Y-72209429D01*
X120515001Y-72280857D01*
X120515001Y-72459429D01*
X120479286Y-72530857D01*
X120443572Y-72566571D01*
X120372143Y-72602286D01*
X120193572Y-72602286D01*
X120122143Y-72566571D01*
X120086429Y-72530857D01*
X91698000Y-83536286D02*
X91698000Y-84072000D01*
X91662286Y-84179143D01*
X91590857Y-84250571D01*
X91483714Y-84286286D01*
X91412286Y-84286286D01*
X92376572Y-83536286D02*
X92233715Y-83536286D01*
X92162286Y-83572000D01*
X92126572Y-83607714D01*
X92055143Y-83714857D01*
X92019429Y-83857714D01*
X92019429Y-84143429D01*
X92055143Y-84214857D01*
X92090858Y-84250571D01*
X92162286Y-84286286D01*
X92305143Y-84286286D01*
X92376572Y-84250571D01*
X92412286Y-84214857D01*
X92448001Y-84143429D01*
X92448001Y-83964857D01*
X92412286Y-83893429D01*
X92376572Y-83857714D01*
X92305143Y-83822000D01*
X92162286Y-83822000D01*
X92090858Y-83857714D01*
X92055143Y-83893429D01*
X92019429Y-83964857D01*
X103020762Y-84486476D02*
X103068381Y-84343619D01*
X103068381Y-84105523D01*
X103020762Y-84010285D01*
X102973143Y-83962666D01*
X102877905Y-83915047D01*
X102782667Y-83915047D01*
X102687429Y-83962666D01*
X102639810Y-84010285D01*
X102592190Y-84105523D01*
X102544571Y-84296000D01*
X102496952Y-84391238D01*
X102449333Y-84438857D01*
X102354095Y-84486476D01*
X102258857Y-84486476D01*
X102163619Y-84438857D01*
X102116000Y-84391238D01*
X102068381Y-84296000D01*
X102068381Y-84057904D01*
X102116000Y-83915047D01*
X102544571Y-83486476D02*
X102544571Y-83153142D01*
X103068381Y-83010285D02*
X103068381Y-83486476D01*
X102068381Y-83486476D01*
X102068381Y-83010285D01*
X103068381Y-82010285D02*
X102592190Y-82343619D01*
X103068381Y-82581714D02*
X102068381Y-82581714D01*
X102068381Y-82200761D01*
X102116000Y-82105523D01*
X102163619Y-82057904D01*
X102258857Y-82010285D01*
X102401714Y-82010285D01*
X102496952Y-82057904D01*
X102544571Y-82105523D01*
X102592190Y-82200761D01*
X102592190Y-82581714D01*
X102068381Y-81724571D02*
X103068381Y-81391238D01*
X102068381Y-81057904D01*
X102068381Y-80534095D02*
X102068381Y-80343618D01*
X102116000Y-80248380D01*
X102211238Y-80153142D01*
X102401714Y-80105523D01*
X102735048Y-80105523D01*
X102925524Y-80153142D01*
X103020762Y-80248380D01*
X103068381Y-80343618D01*
X103068381Y-80534095D01*
X103020762Y-80629333D01*
X102925524Y-80724571D01*
X102735048Y-80772190D01*
X102401714Y-80772190D01*
X102211238Y-80724571D01*
X102116000Y-80629333D01*
X102068381Y-80534095D01*
X68025200Y-83714086D02*
X68025200Y-84249800D01*
X67989486Y-84356943D01*
X67918057Y-84428371D01*
X67810914Y-84464086D01*
X67739486Y-84464086D01*
X68310915Y-83714086D02*
X68810915Y-83714086D01*
X68489486Y-84464086D01*
X69032381Y-81486190D02*
X68032381Y-81486190D01*
X68937143Y-80438571D02*
X68984762Y-80486190D01*
X69032381Y-80629047D01*
X69032381Y-80724285D01*
X68984762Y-80867143D01*
X68889524Y-80962381D01*
X68794286Y-81010000D01*
X68603810Y-81057619D01*
X68460952Y-81057619D01*
X68270476Y-81010000D01*
X68175238Y-80962381D01*
X68080000Y-80867143D01*
X68032381Y-80724285D01*
X68032381Y-80629047D01*
X68080000Y-80486190D01*
X68127619Y-80438571D01*
X68984762Y-80057619D02*
X69032381Y-79914762D01*
X69032381Y-79676666D01*
X68984762Y-79581428D01*
X68937143Y-79533809D01*
X68841905Y-79486190D01*
X68746667Y-79486190D01*
X68651429Y-79533809D01*
X68603810Y-79581428D01*
X68556190Y-79676666D01*
X68508571Y-79867143D01*
X68460952Y-79962381D01*
X68413333Y-80010000D01*
X68318095Y-80057619D01*
X68222857Y-80057619D01*
X68127619Y-80010000D01*
X68080000Y-79962381D01*
X68032381Y-79867143D01*
X68032381Y-79629047D01*
X68080000Y-79486190D01*
X69032381Y-79057619D02*
X68032381Y-79057619D01*
X68032381Y-78676666D01*
X68080000Y-78581428D01*
X68127619Y-78533809D01*
X68222857Y-78486190D01*
X68365714Y-78486190D01*
X68460952Y-78533809D01*
X68508571Y-78581428D01*
X68556190Y-78676666D01*
X68556190Y-79057619D01*
X77529886Y-68755800D02*
X77529886Y-69112943D01*
X76779886Y-69112943D01*
X77529886Y-68112942D02*
X77529886Y-68541514D01*
X77529886Y-68327228D02*
X76779886Y-68327228D01*
X76887029Y-68398657D01*
X76958457Y-68470085D01*
X76994171Y-68541514D01*
X92795286Y-58799000D02*
X92795286Y-59156143D01*
X92045286Y-59156143D01*
X92116714Y-58584714D02*
X92081000Y-58549000D01*
X92045286Y-58477571D01*
X92045286Y-58299000D01*
X92081000Y-58227571D01*
X92116714Y-58191857D01*
X92188143Y-58156142D01*
X92259571Y-58156142D01*
X92366714Y-58191857D01*
X92795286Y-58620428D01*
X92795286Y-58156142D01*
X98808000Y-46567286D02*
X98450857Y-46567286D01*
X98450857Y-45817286D01*
X99379429Y-46067286D02*
X99379429Y-46567286D01*
X99200858Y-45781571D02*
X99022286Y-46317286D01*
X99486572Y-46317286D01*
X90977981Y-56199066D02*
X90977981Y-56675257D01*
X89977981Y-56675257D01*
X89977981Y-55389542D02*
X89977981Y-55865733D01*
X90454171Y-55913352D01*
X90406552Y-55865733D01*
X90358933Y-55770495D01*
X90358933Y-55532399D01*
X90406552Y-55437161D01*
X90454171Y-55389542D01*
X90549410Y-55341923D01*
X90787505Y-55341923D01*
X90882743Y-55389542D01*
X90930362Y-55437161D01*
X90977981Y-55532399D01*
X90977981Y-55770495D01*
X90930362Y-55865733D01*
X90882743Y-55913352D01*
X72932486Y-56309800D02*
X72575343Y-56559800D01*
X72932486Y-56738372D02*
X72182486Y-56738372D01*
X72182486Y-56452657D01*
X72218200Y-56381229D01*
X72253914Y-56345514D01*
X72325343Y-56309800D01*
X72432486Y-56309800D01*
X72503914Y-56345514D01*
X72539629Y-56381229D01*
X72575343Y-56452657D01*
X72575343Y-56738372D01*
X72432486Y-55666943D02*
X72932486Y-55666943D01*
X72146771Y-55845514D02*
X72682486Y-56024086D01*
X72682486Y-55559800D01*
X100491486Y-64437800D02*
X100134343Y-64687800D01*
X100491486Y-64866372D02*
X99741486Y-64866372D01*
X99741486Y-64580657D01*
X99777200Y-64509229D01*
X99812914Y-64473514D01*
X99884343Y-64437800D01*
X99991486Y-64437800D01*
X100062914Y-64473514D01*
X100098629Y-64509229D01*
X100134343Y-64580657D01*
X100134343Y-64866372D01*
X99741486Y-63759229D02*
X99741486Y-64116372D01*
X100098629Y-64152086D01*
X100062914Y-64116372D01*
X100027200Y-64044943D01*
X100027200Y-63866372D01*
X100062914Y-63794943D01*
X100098629Y-63759229D01*
X100170057Y-63723514D01*
X100348629Y-63723514D01*
X100420057Y-63759229D01*
X100455771Y-63794943D01*
X100491486Y-63866372D01*
X100491486Y-64044943D01*
X100455771Y-64116372D01*
X100420057Y-64152086D01*
X70316286Y-56259000D02*
X69959143Y-56509000D01*
X70316286Y-56687572D02*
X69566286Y-56687572D01*
X69566286Y-56401857D01*
X69602000Y-56330429D01*
X69637714Y-56294714D01*
X69709143Y-56259000D01*
X69816286Y-56259000D01*
X69887714Y-56294714D01*
X69923429Y-56330429D01*
X69959143Y-56401857D01*
X69959143Y-56687572D01*
X69566286Y-55616143D02*
X69566286Y-55759000D01*
X69602000Y-55830429D01*
X69637714Y-55866143D01*
X69744857Y-55937572D01*
X69887714Y-55973286D01*
X70173429Y-55973286D01*
X70244857Y-55937572D01*
X70280571Y-55901857D01*
X70316286Y-55830429D01*
X70316286Y-55687572D01*
X70280571Y-55616143D01*
X70244857Y-55580429D01*
X70173429Y-55544714D01*
X69994857Y-55544714D01*
X69923429Y-55580429D01*
X69887714Y-55616143D01*
X69852000Y-55687572D01*
X69852000Y-55830429D01*
X69887714Y-55901857D01*
X69923429Y-55937572D01*
X69994857Y-55973286D01*
X87581200Y-47634086D02*
X87331200Y-47276943D01*
X87152628Y-47634086D02*
X87152628Y-46884086D01*
X87438343Y-46884086D01*
X87509771Y-46919800D01*
X87545486Y-46955514D01*
X87581200Y-47026943D01*
X87581200Y-47134086D01*
X87545486Y-47205514D01*
X87509771Y-47241229D01*
X87438343Y-47276943D01*
X87152628Y-47276943D01*
X88009771Y-47205514D02*
X87938343Y-47169800D01*
X87902628Y-47134086D01*
X87866914Y-47062657D01*
X87866914Y-47026943D01*
X87902628Y-46955514D01*
X87938343Y-46919800D01*
X88009771Y-46884086D01*
X88152628Y-46884086D01*
X88224057Y-46919800D01*
X88259771Y-46955514D01*
X88295486Y-47026943D01*
X88295486Y-47062657D01*
X88259771Y-47134086D01*
X88224057Y-47169800D01*
X88152628Y-47205514D01*
X88009771Y-47205514D01*
X87938343Y-47241229D01*
X87902628Y-47276943D01*
X87866914Y-47348371D01*
X87866914Y-47491229D01*
X87902628Y-47562657D01*
X87938343Y-47598371D01*
X88009771Y-47634086D01*
X88152628Y-47634086D01*
X88224057Y-47598371D01*
X88259771Y-47562657D01*
X88295486Y-47491229D01*
X88295486Y-47348371D01*
X88259771Y-47276943D01*
X88224057Y-47241229D01*
X88152628Y-47205514D01*
X100110486Y-59714943D02*
X99753343Y-59964943D01*
X100110486Y-60143515D02*
X99360486Y-60143515D01*
X99360486Y-59857800D01*
X99396200Y-59786372D01*
X99431914Y-59750657D01*
X99503343Y-59714943D01*
X99610486Y-59714943D01*
X99681914Y-59750657D01*
X99717629Y-59786372D01*
X99753343Y-59857800D01*
X99753343Y-60143515D01*
X100110486Y-59000657D02*
X100110486Y-59429229D01*
X100110486Y-59214943D02*
X99360486Y-59214943D01*
X99467629Y-59286372D01*
X99539057Y-59357800D01*
X99574771Y-59429229D01*
X99360486Y-58536371D02*
X99360486Y-58464943D01*
X99396200Y-58393514D01*
X99431914Y-58357800D01*
X99503343Y-58322086D01*
X99646200Y-58286371D01*
X99824771Y-58286371D01*
X99967629Y-58322086D01*
X100039057Y-58357800D01*
X100074771Y-58393514D01*
X100110486Y-58464943D01*
X100110486Y-58536371D01*
X100074771Y-58607800D01*
X100039057Y-58643514D01*
X99967629Y-58679229D01*
X99824771Y-58714943D01*
X99646200Y-58714943D01*
X99503343Y-58679229D01*
X99431914Y-58643514D01*
X99396200Y-58607800D01*
X99360486Y-58536371D01*
X98781057Y-61731086D02*
X98531057Y-61373943D01*
X98352485Y-61731086D02*
X98352485Y-60981086D01*
X98638200Y-60981086D01*
X98709628Y-61016800D01*
X98745343Y-61052514D01*
X98781057Y-61123943D01*
X98781057Y-61231086D01*
X98745343Y-61302514D01*
X98709628Y-61338229D01*
X98638200Y-61373943D01*
X98352485Y-61373943D01*
X99495343Y-61731086D02*
X99066771Y-61731086D01*
X99281057Y-61731086D02*
X99281057Y-60981086D01*
X99209628Y-61088229D01*
X99138200Y-61159657D01*
X99066771Y-61195371D01*
X100209629Y-61731086D02*
X99781057Y-61731086D01*
X99995343Y-61731086D02*
X99995343Y-60981086D01*
X99923914Y-61088229D01*
X99852486Y-61159657D01*
X99781057Y-61195371D01*
X98510286Y-73126143D02*
X98153143Y-73376143D01*
X98510286Y-73554715D02*
X97760286Y-73554715D01*
X97760286Y-73269000D01*
X97796000Y-73197572D01*
X97831714Y-73161857D01*
X97903143Y-73126143D01*
X98010286Y-73126143D01*
X98081714Y-73161857D01*
X98117429Y-73197572D01*
X98153143Y-73269000D01*
X98153143Y-73554715D01*
X98510286Y-72411857D02*
X98510286Y-72840429D01*
X98510286Y-72626143D02*
X97760286Y-72626143D01*
X97867429Y-72697572D01*
X97938857Y-72769000D01*
X97974571Y-72840429D01*
X97831714Y-72126143D02*
X97796000Y-72090429D01*
X97760286Y-72019000D01*
X97760286Y-71840429D01*
X97796000Y-71769000D01*
X97831714Y-71733286D01*
X97903143Y-71697571D01*
X97974571Y-71697571D01*
X98081714Y-71733286D01*
X98510286Y-72161857D01*
X98510286Y-71697571D01*
X95402857Y-74761286D02*
X95152857Y-74404143D01*
X94974285Y-74761286D02*
X94974285Y-74011286D01*
X95260000Y-74011286D01*
X95331428Y-74047000D01*
X95367143Y-74082714D01*
X95402857Y-74154143D01*
X95402857Y-74261286D01*
X95367143Y-74332714D01*
X95331428Y-74368429D01*
X95260000Y-74404143D01*
X94974285Y-74404143D01*
X96117143Y-74761286D02*
X95688571Y-74761286D01*
X95902857Y-74761286D02*
X95902857Y-74011286D01*
X95831428Y-74118429D01*
X95760000Y-74189857D01*
X95688571Y-74225571D01*
X96367143Y-74011286D02*
X96831429Y-74011286D01*
X96581429Y-74297000D01*
X96688571Y-74297000D01*
X96760000Y-74332714D01*
X96795714Y-74368429D01*
X96831429Y-74439857D01*
X96831429Y-74618429D01*
X96795714Y-74689857D01*
X96760000Y-74725571D01*
X96688571Y-74761286D01*
X96474286Y-74761286D01*
X96402857Y-74725571D01*
X96367143Y-74689857D01*
X74270057Y-72399086D02*
X74020057Y-72041943D01*
X73841485Y-72399086D02*
X73841485Y-71649086D01*
X74127200Y-71649086D01*
X74198628Y-71684800D01*
X74234343Y-71720514D01*
X74270057Y-71791943D01*
X74270057Y-71899086D01*
X74234343Y-71970514D01*
X74198628Y-72006229D01*
X74127200Y-72041943D01*
X73841485Y-72041943D01*
X74984343Y-72399086D02*
X74555771Y-72399086D01*
X74770057Y-72399086D02*
X74770057Y-71649086D01*
X74698628Y-71756229D01*
X74627200Y-71827657D01*
X74555771Y-71863371D01*
X75627200Y-71899086D02*
X75627200Y-72399086D01*
X75448629Y-71613371D02*
X75270057Y-72149086D01*
X75734343Y-72149086D01*
X101067057Y-74685086D02*
X100817057Y-74327943D01*
X100638485Y-74685086D02*
X100638485Y-73935086D01*
X100924200Y-73935086D01*
X100995628Y-73970800D01*
X101031343Y-74006514D01*
X101067057Y-74077943D01*
X101067057Y-74185086D01*
X101031343Y-74256514D01*
X100995628Y-74292229D01*
X100924200Y-74327943D01*
X100638485Y-74327943D01*
X101781343Y-74685086D02*
X101352771Y-74685086D01*
X101567057Y-74685086D02*
X101567057Y-73935086D01*
X101495628Y-74042229D01*
X101424200Y-74113657D01*
X101352771Y-74149371D01*
X102459914Y-73935086D02*
X102102771Y-73935086D01*
X102067057Y-74292229D01*
X102102771Y-74256514D01*
X102174200Y-74220800D01*
X102352771Y-74220800D01*
X102424200Y-74256514D01*
X102459914Y-74292229D01*
X102495629Y-74363657D01*
X102495629Y-74542229D01*
X102459914Y-74613657D01*
X102424200Y-74649371D01*
X102352771Y-74685086D01*
X102174200Y-74685086D01*
X102102771Y-74649371D01*
X102067057Y-74613657D01*
X100813057Y-79765086D02*
X100563057Y-79407943D01*
X100384485Y-79765086D02*
X100384485Y-79015086D01*
X100670200Y-79015086D01*
X100741628Y-79050800D01*
X100777343Y-79086514D01*
X100813057Y-79157943D01*
X100813057Y-79265086D01*
X100777343Y-79336514D01*
X100741628Y-79372229D01*
X100670200Y-79407943D01*
X100384485Y-79407943D01*
X101527343Y-79765086D02*
X101098771Y-79765086D01*
X101313057Y-79765086D02*
X101313057Y-79015086D01*
X101241628Y-79122229D01*
X101170200Y-79193657D01*
X101098771Y-79229371D01*
X102170200Y-79015086D02*
X102027343Y-79015086D01*
X101955914Y-79050800D01*
X101920200Y-79086514D01*
X101848771Y-79193657D01*
X101813057Y-79336514D01*
X101813057Y-79622229D01*
X101848771Y-79693657D01*
X101884486Y-79729371D01*
X101955914Y-79765086D01*
X102098771Y-79765086D01*
X102170200Y-79729371D01*
X102205914Y-79693657D01*
X102241629Y-79622229D01*
X102241629Y-79443657D01*
X102205914Y-79372229D01*
X102170200Y-79336514D01*
X102098771Y-79300800D01*
X101955914Y-79300800D01*
X101884486Y-79336514D01*
X101848771Y-79372229D01*
X101813057Y-79443657D01*
X83414057Y-84083086D02*
X83164057Y-83725943D01*
X82985485Y-84083086D02*
X82985485Y-83333086D01*
X83271200Y-83333086D01*
X83342628Y-83368800D01*
X83378343Y-83404514D01*
X83414057Y-83475943D01*
X83414057Y-83583086D01*
X83378343Y-83654514D01*
X83342628Y-83690229D01*
X83271200Y-83725943D01*
X82985485Y-83725943D01*
X83699771Y-83404514D02*
X83735485Y-83368800D01*
X83806914Y-83333086D01*
X83985485Y-83333086D01*
X84056914Y-83368800D01*
X84092628Y-83404514D01*
X84128343Y-83475943D01*
X84128343Y-83547371D01*
X84092628Y-83654514D01*
X83664057Y-84083086D01*
X84128343Y-84083086D01*
X84842629Y-84083086D02*
X84414057Y-84083086D01*
X84628343Y-84083086D02*
X84628343Y-83333086D01*
X84556914Y-83440229D01*
X84485486Y-83511657D01*
X84414057Y-83547371D01*
X85864771Y-50313086D02*
X85864771Y-50920229D01*
X85900486Y-50991657D01*
X85936200Y-51027371D01*
X86007629Y-51063086D01*
X86150486Y-51063086D01*
X86221914Y-51027371D01*
X86257629Y-50991657D01*
X86293343Y-50920229D01*
X86293343Y-50313086D01*
X86579057Y-50313086D02*
X87043343Y-50313086D01*
X86793343Y-50598800D01*
X86900485Y-50598800D01*
X86971914Y-50634514D01*
X87007628Y-50670229D01*
X87043343Y-50741657D01*
X87043343Y-50920229D01*
X87007628Y-50991657D01*
X86971914Y-51027371D01*
X86900485Y-51063086D01*
X86686200Y-51063086D01*
X86614771Y-51027371D01*
X86579057Y-50991657D01*
X105727571Y-47849286D02*
X105727571Y-48456429D01*
X105763286Y-48527857D01*
X105799000Y-48563571D01*
X105870429Y-48599286D01*
X106013286Y-48599286D01*
X106084714Y-48563571D01*
X106120429Y-48527857D01*
X106156143Y-48456429D01*
X106156143Y-47849286D01*
X106834714Y-48099286D02*
X106834714Y-48599286D01*
X106656143Y-47813571D02*
X106477571Y-48349286D01*
X106941857Y-48349286D01*
X98056771Y-56790086D02*
X98056771Y-57397229D01*
X98092486Y-57468657D01*
X98128200Y-57504371D01*
X98199629Y-57540086D01*
X98342486Y-57540086D01*
X98413914Y-57504371D01*
X98449629Y-57468657D01*
X98485343Y-57397229D01*
X98485343Y-56790086D01*
X99163914Y-56790086D02*
X99021057Y-56790086D01*
X98949628Y-56825800D01*
X98913914Y-56861514D01*
X98842485Y-56968657D01*
X98806771Y-57111514D01*
X98806771Y-57397229D01*
X98842485Y-57468657D01*
X98878200Y-57504371D01*
X98949628Y-57540086D01*
X99092485Y-57540086D01*
X99163914Y-57504371D01*
X99199628Y-57468657D01*
X99235343Y-57397229D01*
X99235343Y-57218657D01*
X99199628Y-57147229D01*
X99163914Y-57111514D01*
X99092485Y-57075800D01*
X98949628Y-57075800D01*
X98878200Y-57111514D01*
X98842485Y-57147229D01*
X98806771Y-57218657D01*
X92113171Y-70175886D02*
X92113171Y-70783029D01*
X92148886Y-70854457D01*
X92184600Y-70890171D01*
X92256029Y-70925886D01*
X92398886Y-70925886D01*
X92470314Y-70890171D01*
X92506029Y-70854457D01*
X92541743Y-70783029D01*
X92541743Y-70175886D01*
X92827457Y-70175886D02*
X93327457Y-70175886D01*
X93006028Y-70925886D01*
X92087771Y-75967086D02*
X92087771Y-76574229D01*
X92123486Y-76645657D01*
X92159200Y-76681371D01*
X92230629Y-76717086D01*
X92373486Y-76717086D01*
X92444914Y-76681371D01*
X92480629Y-76645657D01*
X92516343Y-76574229D01*
X92516343Y-75967086D01*
X92980628Y-76288514D02*
X92909200Y-76252800D01*
X92873485Y-76217086D01*
X92837771Y-76145657D01*
X92837771Y-76109943D01*
X92873485Y-76038514D01*
X92909200Y-76002800D01*
X92980628Y-75967086D01*
X93123485Y-75967086D01*
X93194914Y-76002800D01*
X93230628Y-76038514D01*
X93266343Y-76109943D01*
X93266343Y-76145657D01*
X93230628Y-76217086D01*
X93194914Y-76252800D01*
X93123485Y-76288514D01*
X92980628Y-76288514D01*
X92909200Y-76324229D01*
X92873485Y-76359943D01*
X92837771Y-76431371D01*
X92837771Y-76574229D01*
X92873485Y-76645657D01*
X92909200Y-76681371D01*
X92980628Y-76717086D01*
X93123485Y-76717086D01*
X93194914Y-76681371D01*
X93230628Y-76645657D01*
X93266343Y-76574229D01*
X93266343Y-76431371D01*
X93230628Y-76359943D01*
X93194914Y-76324229D01*
X93123485Y-76288514D01*
X83197771Y-77364086D02*
X83197771Y-77971229D01*
X83233486Y-78042657D01*
X83269200Y-78078371D01*
X83340629Y-78114086D01*
X83483486Y-78114086D01*
X83554914Y-78078371D01*
X83590629Y-78042657D01*
X83626343Y-77971229D01*
X83626343Y-77364086D01*
X84019200Y-78114086D02*
X84162057Y-78114086D01*
X84233485Y-78078371D01*
X84269200Y-78042657D01*
X84340628Y-77935514D01*
X84376343Y-77792657D01*
X84376343Y-77506943D01*
X84340628Y-77435514D01*
X84304914Y-77399800D01*
X84233485Y-77364086D01*
X84090628Y-77364086D01*
X84019200Y-77399800D01*
X83983485Y-77435514D01*
X83947771Y-77506943D01*
X83947771Y-77685514D01*
X83983485Y-77756943D01*
X84019200Y-77792657D01*
X84090628Y-77828371D01*
X84233485Y-77828371D01*
X84304914Y-77792657D01*
X84340628Y-77756943D01*
X84376343Y-77685514D01*
X62056200Y-74189086D02*
X62056200Y-74724800D01*
X62020486Y-74831943D01*
X61949057Y-74903371D01*
X61841914Y-74939086D01*
X61770486Y-74939086D01*
X62377629Y-74260514D02*
X62413343Y-74224800D01*
X62484772Y-74189086D01*
X62663343Y-74189086D01*
X62734772Y-74224800D01*
X62770486Y-74260514D01*
X62806201Y-74331943D01*
X62806201Y-74403371D01*
X62770486Y-74510514D01*
X62341915Y-74939086D01*
X62806201Y-74939086D01*
X64611381Y-51760381D02*
X64611381Y-50760381D01*
X65801857Y-50712762D02*
X64944714Y-51998476D01*
X66325666Y-50760381D02*
X66516143Y-50760381D01*
X66611381Y-50808000D01*
X66706619Y-50903238D01*
X66754238Y-51093714D01*
X66754238Y-51427048D01*
X66706619Y-51617524D01*
X66611381Y-51712762D01*
X66516143Y-51760381D01*
X66325666Y-51760381D01*
X66230428Y-51712762D01*
X66135190Y-51617524D01*
X66087571Y-51427048D01*
X66087571Y-51093714D01*
X66135190Y-50903238D01*
X66230428Y-50808000D01*
X66325666Y-50760381D01*
X74270057Y-61786657D02*
X74234343Y-61822371D01*
X74127200Y-61858086D01*
X74055771Y-61858086D01*
X73948628Y-61822371D01*
X73877200Y-61750943D01*
X73841485Y-61679514D01*
X73805771Y-61536657D01*
X73805771Y-61429514D01*
X73841485Y-61286657D01*
X73877200Y-61215229D01*
X73948628Y-61143800D01*
X74055771Y-61108086D01*
X74127200Y-61108086D01*
X74234343Y-61143800D01*
X74270057Y-61179514D01*
X74912914Y-61358086D02*
X74912914Y-61858086D01*
X74734343Y-61072371D02*
X74555771Y-61608086D01*
X75020057Y-61608086D01*
X75412914Y-61429514D02*
X75341486Y-61393800D01*
X75305771Y-61358086D01*
X75270057Y-61286657D01*
X75270057Y-61250943D01*
X75305771Y-61179514D01*
X75341486Y-61143800D01*
X75412914Y-61108086D01*
X75555771Y-61108086D01*
X75627200Y-61143800D01*
X75662914Y-61179514D01*
X75698629Y-61250943D01*
X75698629Y-61286657D01*
X75662914Y-61358086D01*
X75627200Y-61393800D01*
X75555771Y-61429514D01*
X75412914Y-61429514D01*
X75341486Y-61465229D01*
X75305771Y-61500943D01*
X75270057Y-61572371D01*
X75270057Y-61715229D01*
X75305771Y-61786657D01*
X75341486Y-61822371D01*
X75412914Y-61858086D01*
X75555771Y-61858086D01*
X75627200Y-61822371D01*
X75662914Y-61786657D01*
X75698629Y-61715229D01*
X75698629Y-61572371D01*
X75662914Y-61500943D01*
X75627200Y-61465229D01*
X75555771Y-61429514D01*
X74270057Y-63310657D02*
X74234343Y-63346371D01*
X74127200Y-63382086D01*
X74055771Y-63382086D01*
X73948628Y-63346371D01*
X73877200Y-63274943D01*
X73841485Y-63203514D01*
X73805771Y-63060657D01*
X73805771Y-62953514D01*
X73841485Y-62810657D01*
X73877200Y-62739229D01*
X73948628Y-62667800D01*
X74055771Y-62632086D01*
X74127200Y-62632086D01*
X74234343Y-62667800D01*
X74270057Y-62703514D01*
X74912914Y-62882086D02*
X74912914Y-63382086D01*
X74734343Y-62596371D02*
X74555771Y-63132086D01*
X75020057Y-63132086D01*
X75341486Y-63382086D02*
X75484343Y-63382086D01*
X75555771Y-63346371D01*
X75591486Y-63310657D01*
X75662914Y-63203514D01*
X75698629Y-63060657D01*
X75698629Y-62774943D01*
X75662914Y-62703514D01*
X75627200Y-62667800D01*
X75555771Y-62632086D01*
X75412914Y-62632086D01*
X75341486Y-62667800D01*
X75305771Y-62703514D01*
X75270057Y-62774943D01*
X75270057Y-62953514D01*
X75305771Y-63024943D01*
X75341486Y-63060657D01*
X75412914Y-63096371D01*
X75555771Y-63096371D01*
X75627200Y-63060657D01*
X75662914Y-63024943D01*
X75698629Y-62953514D01*
X79536486Y-64667943D02*
X79179343Y-64917943D01*
X79536486Y-65096515D02*
X78786486Y-65096515D01*
X78786486Y-64810800D01*
X78822200Y-64739372D01*
X78857914Y-64703657D01*
X78929343Y-64667943D01*
X79036486Y-64667943D01*
X79107914Y-64703657D01*
X79143629Y-64739372D01*
X79179343Y-64810800D01*
X79179343Y-65096515D01*
X78786486Y-64417943D02*
X78786486Y-63953657D01*
X79072200Y-64203657D01*
X79072200Y-64096515D01*
X79107914Y-64025086D01*
X79143629Y-63989372D01*
X79215057Y-63953657D01*
X79393629Y-63953657D01*
X79465057Y-63989372D01*
X79500771Y-64025086D01*
X79536486Y-64096515D01*
X79536486Y-64310800D01*
X79500771Y-64382229D01*
X79465057Y-64417943D01*
X79107914Y-63525086D02*
X79072200Y-63596514D01*
X79036486Y-63632229D01*
X78965057Y-63667943D01*
X78929343Y-63667943D01*
X78857914Y-63632229D01*
X78822200Y-63596514D01*
X78786486Y-63525086D01*
X78786486Y-63382229D01*
X78822200Y-63310800D01*
X78857914Y-63275086D01*
X78929343Y-63239371D01*
X78965057Y-63239371D01*
X79036486Y-63275086D01*
X79072200Y-63310800D01*
X79107914Y-63382229D01*
X79107914Y-63525086D01*
X79143629Y-63596514D01*
X79179343Y-63632229D01*
X79250771Y-63667943D01*
X79393629Y-63667943D01*
X79465057Y-63632229D01*
X79500771Y-63596514D01*
X79536486Y-63525086D01*
X79536486Y-63382229D01*
X79500771Y-63310800D01*
X79465057Y-63275086D01*
X79393629Y-63239371D01*
X79250771Y-63239371D01*
X79179343Y-63275086D01*
X79143629Y-63310800D01*
X79107914Y-63382229D01*
X75154286Y-59602572D02*
X75761429Y-59602572D01*
X75832857Y-59566857D01*
X75868571Y-59531143D01*
X75904286Y-59459714D01*
X75904286Y-59316857D01*
X75868571Y-59245429D01*
X75832857Y-59209714D01*
X75761429Y-59174000D01*
X75154286Y-59174000D01*
X75904286Y-58424000D02*
X75904286Y-58852572D01*
X75904286Y-58638286D02*
X75154286Y-58638286D01*
X75261429Y-58709715D01*
X75332857Y-58781143D01*
X75368571Y-58852572D01*
X75154286Y-57745429D02*
X75154286Y-58102572D01*
X75511429Y-58138286D01*
X75475714Y-58102572D01*
X75440000Y-58031143D01*
X75440000Y-57852572D01*
X75475714Y-57781143D01*
X75511429Y-57745429D01*
X75582857Y-57709714D01*
X75761429Y-57709714D01*
X75832857Y-57745429D01*
X75868571Y-57781143D01*
X75904286Y-57852572D01*
X75904286Y-58031143D01*
X75868571Y-58102572D01*
X75832857Y-58138286D01*
X72858334Y-66651143D02*
X72810715Y-66698762D01*
X72667858Y-66746381D01*
X72572620Y-66746381D01*
X72429762Y-66698762D01*
X72334524Y-66603524D01*
X72286905Y-66508286D01*
X72239286Y-66317810D01*
X72239286Y-66174952D01*
X72286905Y-65984476D01*
X72334524Y-65889238D01*
X72429762Y-65794000D01*
X72572620Y-65746381D01*
X72667858Y-65746381D01*
X72810715Y-65794000D01*
X72858334Y-65841619D01*
X73429762Y-66174952D02*
X73334524Y-66127333D01*
X73286905Y-66079714D01*
X73239286Y-65984476D01*
X73239286Y-65936857D01*
X73286905Y-65841619D01*
X73334524Y-65794000D01*
X73429762Y-65746381D01*
X73620239Y-65746381D01*
X73715477Y-65794000D01*
X73763096Y-65841619D01*
X73810715Y-65936857D01*
X73810715Y-65984476D01*
X73763096Y-66079714D01*
X73715477Y-66127333D01*
X73620239Y-66174952D01*
X73429762Y-66174952D01*
X73334524Y-66222571D01*
X73286905Y-66270190D01*
X73239286Y-66365429D01*
X73239286Y-66555905D01*
X73286905Y-66651143D01*
X73334524Y-66698762D01*
X73429762Y-66746381D01*
X73620239Y-66746381D01*
X73715477Y-66698762D01*
X73763096Y-66651143D01*
X73810715Y-66555905D01*
X73810715Y-66365429D01*
X73763096Y-66270190D01*
X73715477Y-66222571D01*
X73620239Y-66174952D01*
X95594057Y-66318943D02*
X95629771Y-66354657D01*
X95665486Y-66461800D01*
X95665486Y-66533229D01*
X95629771Y-66640372D01*
X95558343Y-66711800D01*
X95486914Y-66747515D01*
X95344057Y-66783229D01*
X95236914Y-66783229D01*
X95094057Y-66747515D01*
X95022629Y-66711800D01*
X94951200Y-66640372D01*
X94915486Y-66533229D01*
X94915486Y-66461800D01*
X94951200Y-66354657D01*
X94986914Y-66318943D01*
X94986914Y-66033229D02*
X94951200Y-65997515D01*
X94915486Y-65926086D01*
X94915486Y-65747515D01*
X94951200Y-65676086D01*
X94986914Y-65640372D01*
X95058343Y-65604657D01*
X95129771Y-65604657D01*
X95236914Y-65640372D01*
X95665486Y-66068943D01*
X95665486Y-65604657D01*
X95665486Y-64890371D02*
X95665486Y-65318943D01*
X95665486Y-65104657D02*
X94915486Y-65104657D01*
X95022629Y-65176086D01*
X95094057Y-65247514D01*
X95129771Y-65318943D01*
X108102857Y-47003857D02*
X108067143Y-47039571D01*
X107960000Y-47075286D01*
X107888571Y-47075286D01*
X107781428Y-47039571D01*
X107710000Y-46968143D01*
X107674285Y-46896714D01*
X107638571Y-46753857D01*
X107638571Y-46646714D01*
X107674285Y-46503857D01*
X107710000Y-46432429D01*
X107781428Y-46361000D01*
X107888571Y-46325286D01*
X107960000Y-46325286D01*
X108067143Y-46361000D01*
X108102857Y-46396714D01*
X108352857Y-46325286D02*
X108817143Y-46325286D01*
X108567143Y-46611000D01*
X108674285Y-46611000D01*
X108745714Y-46646714D01*
X108781428Y-46682429D01*
X108817143Y-46753857D01*
X108817143Y-46932429D01*
X108781428Y-47003857D01*
X108745714Y-47039571D01*
X108674285Y-47075286D01*
X108460000Y-47075286D01*
X108388571Y-47039571D01*
X108352857Y-47003857D01*
X109281429Y-46325286D02*
X109352857Y-46325286D01*
X109424286Y-46361000D01*
X109460000Y-46396714D01*
X109495714Y-46468143D01*
X109531429Y-46611000D01*
X109531429Y-46789571D01*
X109495714Y-46932429D01*
X109460000Y-47003857D01*
X109424286Y-47039571D01*
X109352857Y-47075286D01*
X109281429Y-47075286D01*
X109210000Y-47039571D01*
X109174286Y-47003857D01*
X109138571Y-46932429D01*
X109102857Y-46789571D01*
X109102857Y-46611000D01*
X109138571Y-46468143D01*
X109174286Y-46396714D01*
X109210000Y-46361000D01*
X109281429Y-46325286D01*
X77025571Y-84123571D02*
X77132714Y-84159286D01*
X77311285Y-84159286D01*
X77382714Y-84123571D01*
X77418428Y-84087857D01*
X77454143Y-84016429D01*
X77454143Y-83945000D01*
X77418428Y-83873571D01*
X77382714Y-83837857D01*
X77311285Y-83802143D01*
X77168428Y-83766429D01*
X77097000Y-83730714D01*
X77061285Y-83695000D01*
X77025571Y-83623571D01*
X77025571Y-83552143D01*
X77061285Y-83480714D01*
X77097000Y-83445000D01*
X77168428Y-83409286D01*
X77347000Y-83409286D01*
X77454143Y-83445000D01*
X78168429Y-84159286D02*
X77739857Y-84159286D01*
X77954143Y-84159286D02*
X77954143Y-83409286D01*
X77882714Y-83516429D01*
X77811286Y-83587857D01*
X77739857Y-83623571D01*
X71699619Y-80335381D02*
X71366285Y-79859190D01*
X71128190Y-80335381D02*
X71128190Y-79335381D01*
X71509143Y-79335381D01*
X71604381Y-79383000D01*
X71652000Y-79430619D01*
X71699619Y-79525857D01*
X71699619Y-79668714D01*
X71652000Y-79763952D01*
X71604381Y-79811571D01*
X71509143Y-79859190D01*
X71128190Y-79859190D01*
X72128190Y-79811571D02*
X72461524Y-79811571D01*
X72604381Y-80335381D02*
X72128190Y-80335381D01*
X72128190Y-79335381D01*
X72604381Y-79335381D01*
X72985333Y-80287762D02*
X73128190Y-80335381D01*
X73366286Y-80335381D01*
X73461524Y-80287762D01*
X73509143Y-80240143D01*
X73556762Y-80144905D01*
X73556762Y-80049667D01*
X73509143Y-79954429D01*
X73461524Y-79906810D01*
X73366286Y-79859190D01*
X73175809Y-79811571D01*
X73080571Y-79763952D01*
X73032952Y-79716333D01*
X72985333Y-79621095D01*
X72985333Y-79525857D01*
X73032952Y-79430619D01*
X73080571Y-79383000D01*
X73175809Y-79335381D01*
X73413905Y-79335381D01*
X73556762Y-79383000D01*
X73985333Y-79811571D02*
X74318667Y-79811571D01*
X74461524Y-80335381D02*
X73985333Y-80335381D01*
X73985333Y-79335381D01*
X74461524Y-79335381D01*
X74747238Y-79335381D02*
X75318667Y-79335381D01*
X75032952Y-80335381D02*
X75032952Y-79335381D01*
D10*
X75980486Y-53642800D02*
X75623343Y-53892800D01*
X75980486Y-54071372D02*
X75230486Y-54071372D01*
X75230486Y-53785657D01*
X75266200Y-53714229D01*
X75301914Y-53678514D01*
X75373343Y-53642800D01*
X75480486Y-53642800D01*
X75551914Y-53678514D01*
X75587629Y-53714229D01*
X75623343Y-53785657D01*
X75623343Y-54071372D01*
X75230486Y-53392800D02*
X75230486Y-52928514D01*
X75516200Y-53178514D01*
X75516200Y-53071372D01*
X75551914Y-52999943D01*
X75587629Y-52964229D01*
X75659057Y-52928514D01*
X75837629Y-52928514D01*
X75909057Y-52964229D01*
X75944771Y-52999943D01*
X75980486Y-53071372D01*
X75980486Y-53285657D01*
X75944771Y-53357086D01*
X75909057Y-53392800D01*
X72170486Y-53999943D02*
X71813343Y-54249943D01*
X72170486Y-54428515D02*
X71420486Y-54428515D01*
X71420486Y-54142800D01*
X71456200Y-54071372D01*
X71491914Y-54035657D01*
X71563343Y-53999943D01*
X71670486Y-53999943D01*
X71741914Y-54035657D01*
X71777629Y-54071372D01*
X71813343Y-54142800D01*
X71813343Y-54428515D01*
X71491914Y-53714229D02*
X71456200Y-53678515D01*
X71420486Y-53607086D01*
X71420486Y-53428515D01*
X71456200Y-53357086D01*
X71491914Y-53321372D01*
X71563343Y-53285657D01*
X71634771Y-53285657D01*
X71741914Y-53321372D01*
X72170486Y-53749943D01*
X72170486Y-53285657D01*
X71670486Y-52642800D02*
X72170486Y-52642800D01*
X71384771Y-52821371D02*
X71920486Y-52999943D01*
X71920486Y-52535657D01*
D11*
X112937486Y-48665943D02*
X112580343Y-48915943D01*
X112937486Y-49094515D02*
X112187486Y-49094515D01*
X112187486Y-48808800D01*
X112223200Y-48737372D01*
X112258914Y-48701657D01*
X112330343Y-48665943D01*
X112437486Y-48665943D01*
X112508914Y-48701657D01*
X112544629Y-48737372D01*
X112580343Y-48808800D01*
X112580343Y-49094515D01*
X112258914Y-48380229D02*
X112223200Y-48344515D01*
X112187486Y-48273086D01*
X112187486Y-48094515D01*
X112223200Y-48023086D01*
X112258914Y-47987372D01*
X112330343Y-47951657D01*
X112401771Y-47951657D01*
X112508914Y-47987372D01*
X112937486Y-48415943D01*
X112937486Y-47951657D01*
X112187486Y-47308800D02*
X112187486Y-47451657D01*
X112223200Y-47523086D01*
X112258914Y-47558800D01*
X112366057Y-47630229D01*
X112508914Y-47665943D01*
X112794629Y-47665943D01*
X112866057Y-47630229D01*
X112901771Y-47594514D01*
X112937486Y-47523086D01*
X112937486Y-47380229D01*
X112901771Y-47308800D01*
X112866057Y-47273086D01*
X112794629Y-47237371D01*
X112616057Y-47237371D01*
X112544629Y-47273086D01*
X112508914Y-47308800D01*
X112473200Y-47380229D01*
X112473200Y-47523086D01*
X112508914Y-47594514D01*
X112544629Y-47630229D01*
X112616057Y-47665943D01*
X111286486Y-48665943D02*
X110929343Y-48915943D01*
X111286486Y-49094515D02*
X110536486Y-49094515D01*
X110536486Y-48808800D01*
X110572200Y-48737372D01*
X110607914Y-48701657D01*
X110679343Y-48665943D01*
X110786486Y-48665943D01*
X110857914Y-48701657D01*
X110893629Y-48737372D01*
X110929343Y-48808800D01*
X110929343Y-49094515D01*
X110607914Y-48380229D02*
X110572200Y-48344515D01*
X110536486Y-48273086D01*
X110536486Y-48094515D01*
X110572200Y-48023086D01*
X110607914Y-47987372D01*
X110679343Y-47951657D01*
X110750771Y-47951657D01*
X110857914Y-47987372D01*
X111286486Y-48415943D01*
X111286486Y-47951657D01*
X110536486Y-47701657D02*
X110536486Y-47201657D01*
X111286486Y-47523086D01*
X112480286Y-53060143D02*
X112123143Y-53310143D01*
X112480286Y-53488715D02*
X111730286Y-53488715D01*
X111730286Y-53203000D01*
X111766000Y-53131572D01*
X111801714Y-53095857D01*
X111873143Y-53060143D01*
X111980286Y-53060143D01*
X112051714Y-53095857D01*
X112087429Y-53131572D01*
X112123143Y-53203000D01*
X112123143Y-53488715D01*
X111801714Y-52774429D02*
X111766000Y-52738715D01*
X111730286Y-52667286D01*
X111730286Y-52488715D01*
X111766000Y-52417286D01*
X111801714Y-52381572D01*
X111873143Y-52345857D01*
X111944571Y-52345857D01*
X112051714Y-52381572D01*
X112480286Y-52810143D01*
X112480286Y-52345857D01*
X112051714Y-51917286D02*
X112016000Y-51988714D01*
X111980286Y-52024429D01*
X111908857Y-52060143D01*
X111873143Y-52060143D01*
X111801714Y-52024429D01*
X111766000Y-51988714D01*
X111730286Y-51917286D01*
X111730286Y-51774429D01*
X111766000Y-51703000D01*
X111801714Y-51667286D01*
X111873143Y-51631571D01*
X111908857Y-51631571D01*
X111980286Y-51667286D01*
X112016000Y-51703000D01*
X112051714Y-51774429D01*
X112051714Y-51917286D01*
X112087429Y-51988714D01*
X112123143Y-52024429D01*
X112194571Y-52060143D01*
X112337429Y-52060143D01*
X112408857Y-52024429D01*
X112444571Y-51988714D01*
X112480286Y-51917286D01*
X112480286Y-51774429D01*
X112444571Y-51703000D01*
X112408857Y-51667286D01*
X112337429Y-51631571D01*
X112194571Y-51631571D01*
X112123143Y-51667286D01*
X112087429Y-51703000D01*
X112051714Y-51774429D01*
X110524486Y-57936943D02*
X110167343Y-58186943D01*
X110524486Y-58365515D02*
X109774486Y-58365515D01*
X109774486Y-58079800D01*
X109810200Y-58008372D01*
X109845914Y-57972657D01*
X109917343Y-57936943D01*
X110024486Y-57936943D01*
X110095914Y-57972657D01*
X110131629Y-58008372D01*
X110167343Y-58079800D01*
X110167343Y-58365515D01*
X109845914Y-57651229D02*
X109810200Y-57615515D01*
X109774486Y-57544086D01*
X109774486Y-57365515D01*
X109810200Y-57294086D01*
X109845914Y-57258372D01*
X109917343Y-57222657D01*
X109988771Y-57222657D01*
X110095914Y-57258372D01*
X110524486Y-57686943D01*
X110524486Y-57222657D01*
X110524486Y-56865514D02*
X110524486Y-56722657D01*
X110488771Y-56651229D01*
X110453057Y-56615514D01*
X110345914Y-56544086D01*
X110203057Y-56508371D01*
X109917343Y-56508371D01*
X109845914Y-56544086D01*
X109810200Y-56579800D01*
X109774486Y-56651229D01*
X109774486Y-56794086D01*
X109810200Y-56865514D01*
X109845914Y-56901229D01*
X109917343Y-56936943D01*
X110095914Y-56936943D01*
X110167343Y-56901229D01*
X110203057Y-56865514D01*
X110238771Y-56794086D01*
X110238771Y-56651229D01*
X110203057Y-56579800D01*
X110167343Y-56544086D01*
X110095914Y-56508371D01*
X103099057Y-47126086D02*
X102849057Y-46768943D01*
X102670485Y-47126086D02*
X102670485Y-46376086D01*
X102956200Y-46376086D01*
X103027628Y-46411800D01*
X103063343Y-46447514D01*
X103099057Y-46518943D01*
X103099057Y-46626086D01*
X103063343Y-46697514D01*
X103027628Y-46733229D01*
X102956200Y-46768943D01*
X102670485Y-46768943D01*
X103349057Y-46376086D02*
X103813343Y-46376086D01*
X103563343Y-46661800D01*
X103670485Y-46661800D01*
X103741914Y-46697514D01*
X103777628Y-46733229D01*
X103813343Y-46804657D01*
X103813343Y-46983229D01*
X103777628Y-47054657D01*
X103741914Y-47090371D01*
X103670485Y-47126086D01*
X103456200Y-47126086D01*
X103384771Y-47090371D01*
X103349057Y-47054657D01*
X104277629Y-46376086D02*
X104349057Y-46376086D01*
X104420486Y-46411800D01*
X104456200Y-46447514D01*
X104491914Y-46518943D01*
X104527629Y-46661800D01*
X104527629Y-46840371D01*
X104491914Y-46983229D01*
X104456200Y-47054657D01*
X104420486Y-47090371D01*
X104349057Y-47126086D01*
X104277629Y-47126086D01*
X104206200Y-47090371D01*
X104170486Y-47054657D01*
X104134771Y-46983229D01*
X104099057Y-46840371D01*
X104099057Y-46661800D01*
X104134771Y-46518943D01*
X104170486Y-46447514D01*
X104206200Y-46411800D01*
X104277629Y-46376086D01*
X108873486Y-57809943D02*
X108516343Y-58059943D01*
X108873486Y-58238515D02*
X108123486Y-58238515D01*
X108123486Y-57952800D01*
X108159200Y-57881372D01*
X108194914Y-57845657D01*
X108266343Y-57809943D01*
X108373486Y-57809943D01*
X108444914Y-57845657D01*
X108480629Y-57881372D01*
X108516343Y-57952800D01*
X108516343Y-58238515D01*
X108123486Y-57559943D02*
X108123486Y-57095657D01*
X108409200Y-57345657D01*
X108409200Y-57238515D01*
X108444914Y-57167086D01*
X108480629Y-57131372D01*
X108552057Y-57095657D01*
X108730629Y-57095657D01*
X108802057Y-57131372D01*
X108837771Y-57167086D01*
X108873486Y-57238515D01*
X108873486Y-57452800D01*
X108837771Y-57524229D01*
X108802057Y-57559943D01*
X108873486Y-56381371D02*
X108873486Y-56809943D01*
X108873486Y-56595657D02*
X108123486Y-56595657D01*
X108230629Y-56667086D01*
X108302057Y-56738514D01*
X108337771Y-56809943D01*
X83134657Y-57286086D02*
X82884657Y-56928943D01*
X82706085Y-57286086D02*
X82706085Y-56536086D01*
X82991800Y-56536086D01*
X83063228Y-56571800D01*
X83098943Y-56607514D01*
X83134657Y-56678943D01*
X83134657Y-56786086D01*
X83098943Y-56857514D01*
X83063228Y-56893229D01*
X82991800Y-56928943D01*
X82706085Y-56928943D01*
X83384657Y-56536086D02*
X83848943Y-56536086D01*
X83598943Y-56821800D01*
X83706085Y-56821800D01*
X83777514Y-56857514D01*
X83813228Y-56893229D01*
X83848943Y-56964657D01*
X83848943Y-57143229D01*
X83813228Y-57214657D01*
X83777514Y-57250371D01*
X83706085Y-57286086D01*
X83491800Y-57286086D01*
X83420371Y-57250371D01*
X83384657Y-57214657D01*
X84134657Y-56607514D02*
X84170371Y-56571800D01*
X84241800Y-56536086D01*
X84420371Y-56536086D01*
X84491800Y-56571800D01*
X84527514Y-56607514D01*
X84563229Y-56678943D01*
X84563229Y-56750371D01*
X84527514Y-56857514D01*
X84098943Y-57286086D01*
X84563229Y-57286086D01*
X83160057Y-56143086D02*
X82910057Y-55785943D01*
X82731485Y-56143086D02*
X82731485Y-55393086D01*
X83017200Y-55393086D01*
X83088628Y-55428800D01*
X83124343Y-55464514D01*
X83160057Y-55535943D01*
X83160057Y-55643086D01*
X83124343Y-55714514D01*
X83088628Y-55750229D01*
X83017200Y-55785943D01*
X82731485Y-55785943D01*
X83410057Y-55393086D02*
X83874343Y-55393086D01*
X83624343Y-55678800D01*
X83731485Y-55678800D01*
X83802914Y-55714514D01*
X83838628Y-55750229D01*
X83874343Y-55821657D01*
X83874343Y-56000229D01*
X83838628Y-56071657D01*
X83802914Y-56107371D01*
X83731485Y-56143086D01*
X83517200Y-56143086D01*
X83445771Y-56107371D01*
X83410057Y-56071657D01*
X84124343Y-55393086D02*
X84588629Y-55393086D01*
X84338629Y-55678800D01*
X84445771Y-55678800D01*
X84517200Y-55714514D01*
X84552914Y-55750229D01*
X84588629Y-55821657D01*
X84588629Y-56000229D01*
X84552914Y-56071657D01*
X84517200Y-56107371D01*
X84445771Y-56143086D01*
X84231486Y-56143086D01*
X84160057Y-56107371D01*
X84124343Y-56071657D01*
X101436057Y-55650943D02*
X101471771Y-55686657D01*
X101507486Y-55793800D01*
X101507486Y-55865229D01*
X101471771Y-55972372D01*
X101400343Y-56043800D01*
X101328914Y-56079515D01*
X101186057Y-56115229D01*
X101078914Y-56115229D01*
X100936057Y-56079515D01*
X100864629Y-56043800D01*
X100793200Y-55972372D01*
X100757486Y-55865229D01*
X100757486Y-55793800D01*
X100793200Y-55686657D01*
X100828914Y-55650943D01*
X100828914Y-55365229D02*
X100793200Y-55329515D01*
X100757486Y-55258086D01*
X100757486Y-55079515D01*
X100793200Y-55008086D01*
X100828914Y-54972372D01*
X100900343Y-54936657D01*
X100971771Y-54936657D01*
X101078914Y-54972372D01*
X101507486Y-55400943D01*
X101507486Y-54936657D01*
X101507486Y-54579514D02*
X101507486Y-54436657D01*
X101471771Y-54365229D01*
X101436057Y-54329514D01*
X101328914Y-54258086D01*
X101186057Y-54222371D01*
X100900343Y-54222371D01*
X100828914Y-54258086D01*
X100793200Y-54293800D01*
X100757486Y-54365229D01*
X100757486Y-54508086D01*
X100793200Y-54579514D01*
X100828914Y-54615229D01*
X100900343Y-54650943D01*
X101078914Y-54650943D01*
X101150343Y-54615229D01*
X101186057Y-54579514D01*
X101221771Y-54508086D01*
X101221771Y-54365229D01*
X101186057Y-54293800D01*
X101150343Y-54258086D01*
X101078914Y-54222371D01*
X103849057Y-59841943D02*
X103884771Y-59877657D01*
X103920486Y-59984800D01*
X103920486Y-60056229D01*
X103884771Y-60163372D01*
X103813343Y-60234800D01*
X103741914Y-60270515D01*
X103599057Y-60306229D01*
X103491914Y-60306229D01*
X103349057Y-60270515D01*
X103277629Y-60234800D01*
X103206200Y-60163372D01*
X103170486Y-60056229D01*
X103170486Y-59984800D01*
X103206200Y-59877657D01*
X103241914Y-59841943D01*
X103170486Y-59591943D02*
X103170486Y-59127657D01*
X103456200Y-59377657D01*
X103456200Y-59270515D01*
X103491914Y-59199086D01*
X103527629Y-59163372D01*
X103599057Y-59127657D01*
X103777629Y-59127657D01*
X103849057Y-59163372D01*
X103884771Y-59199086D01*
X103920486Y-59270515D01*
X103920486Y-59484800D01*
X103884771Y-59556229D01*
X103849057Y-59591943D01*
X103420486Y-58484800D02*
X103920486Y-58484800D01*
X103134771Y-58663371D02*
X103670486Y-58841943D01*
X103670486Y-58377657D01*
X96048628Y-78380086D02*
X96048628Y-78987229D01*
X96084343Y-79058657D01*
X96120057Y-79094371D01*
X96191486Y-79130086D01*
X96334343Y-79130086D01*
X96405771Y-79094371D01*
X96441486Y-79058657D01*
X96477200Y-78987229D01*
X96477200Y-78380086D01*
X97227200Y-79130086D02*
X96798628Y-79130086D01*
X97012914Y-79130086D02*
X97012914Y-78380086D01*
X96941485Y-78487229D01*
X96870057Y-78558657D01*
X96798628Y-78594371D01*
X97512914Y-78451514D02*
X97548628Y-78415800D01*
X97620057Y-78380086D01*
X97798628Y-78380086D01*
X97870057Y-78415800D01*
X97905771Y-78451514D01*
X97941486Y-78522943D01*
X97941486Y-78594371D01*
X97905771Y-78701514D01*
X97477200Y-79130086D01*
X97941486Y-79130086D01*
X96024771Y-71268086D02*
X96024771Y-71875229D01*
X96060486Y-71946657D01*
X96096200Y-71982371D01*
X96167629Y-72018086D01*
X96310486Y-72018086D01*
X96381914Y-71982371D01*
X96417629Y-71946657D01*
X96453343Y-71875229D01*
X96453343Y-71268086D01*
X97167628Y-71268086D02*
X96810485Y-71268086D01*
X96774771Y-71625229D01*
X96810485Y-71589514D01*
X96881914Y-71553800D01*
X97060485Y-71553800D01*
X97131914Y-71589514D01*
X97167628Y-71625229D01*
X97203343Y-71696657D01*
X97203343Y-71875229D01*
X97167628Y-71946657D01*
X97131914Y-71982371D01*
X97060485Y-72018086D01*
X96881914Y-72018086D01*
X96810485Y-71982371D01*
X96774771Y-71946657D01*
X117704057Y-54166657D02*
X117668343Y-54202371D01*
X117561200Y-54238086D01*
X117489771Y-54238086D01*
X117382628Y-54202371D01*
X117311200Y-54130943D01*
X117275485Y-54059514D01*
X117239771Y-53916657D01*
X117239771Y-53809514D01*
X117275485Y-53666657D01*
X117311200Y-53595229D01*
X117382628Y-53523800D01*
X117489771Y-53488086D01*
X117561200Y-53488086D01*
X117668343Y-53523800D01*
X117704057Y-53559514D01*
X117989771Y-53559514D02*
X118025485Y-53523800D01*
X118096914Y-53488086D01*
X118275485Y-53488086D01*
X118346914Y-53523800D01*
X118382628Y-53559514D01*
X118418343Y-53630943D01*
X118418343Y-53702371D01*
X118382628Y-53809514D01*
X117954057Y-54238086D01*
X118418343Y-54238086D01*
X118704057Y-53559514D02*
X118739771Y-53523800D01*
X118811200Y-53488086D01*
X118989771Y-53488086D01*
X119061200Y-53523800D01*
X119096914Y-53559514D01*
X119132629Y-53630943D01*
X119132629Y-53702371D01*
X119096914Y-53809514D01*
X118668343Y-54238086D01*
X119132629Y-54238086D01*
M02*
