G04 #@! TF.FileFunction,Soldermask,Top*
%FSLAX46Y46*%
G04 Gerber Fmt 4.6, Leading zero omitted, Abs format (unit mm)*
G04 Created by KiCad (PCBNEW 4.0.7) date 06/27/18 11:47:53*
%MOMM*%
%LPD*%
G01*
G04 APERTURE LIST*
%ADD10C,0.100000*%
%ADD11R,1.150000X1.200000*%
%ADD12R,2.200000X0.900000*%
%ADD13R,0.900000X2.200000*%
%ADD14R,2.200000X2.200000*%
%ADD15O,2.200000X2.200000*%
%ADD16C,1.700000*%
%ADD17R,0.908000X1.543000*%
%ADD18R,0.650000X1.300000*%
%ADD19C,3.400000*%
%ADD20R,1.000000X0.900000*%
%ADD21R,1.200000X1.150000*%
%ADD22R,0.900000X1.000000*%
%ADD23R,1.200000X1.200000*%
%ADD24R,1.200000X1.000000*%
%ADD25R,2.200000X2.300000*%
%ADD26R,2.300000X2.300000*%
%ADD27R,0.800000X1.750000*%
%ADD28R,2.500000X2.000000*%
%ADD29R,1.000000X0.800000*%
%ADD30R,0.800000X1.000000*%
%ADD31R,1.400000X1.300000*%
%ADD32R,0.748000X1.797000*%
%ADD33R,1.543000X0.908000*%
%ADD34R,1.550000X1.800000*%
%ADD35R,2.100000X2.100000*%
%ADD36O,2.100000X2.100000*%
%ADD37R,2.350000X2.350000*%
%ADD38C,2.350000*%
G04 APERTURE END LIST*
D10*
D11*
X127127000Y-110502000D03*
X127127000Y-112002000D03*
D12*
X110840000Y-88837000D03*
X110840000Y-89637000D03*
X110840000Y-90437000D03*
X110840000Y-91237000D03*
X110840000Y-92037000D03*
X110840000Y-92837000D03*
X110840000Y-93637000D03*
X110840000Y-94437000D03*
X110840000Y-95237000D03*
X110840000Y-96037000D03*
X110840000Y-96837000D03*
D13*
X112840000Y-98837000D03*
X113640000Y-98837000D03*
X114440000Y-98837000D03*
X115240000Y-98837000D03*
X116040000Y-98837000D03*
X116840000Y-98837000D03*
X117640000Y-98837000D03*
X118440000Y-98837000D03*
X119240000Y-98837000D03*
X120040000Y-98837000D03*
X120840000Y-98837000D03*
D12*
X122840000Y-96837000D03*
X122840000Y-96037000D03*
X122840000Y-95237000D03*
X122840000Y-94437000D03*
X122840000Y-93637000D03*
X122840000Y-92837000D03*
X122840000Y-92037000D03*
X122840000Y-91237000D03*
X122840000Y-90437000D03*
X122840000Y-89637000D03*
X122840000Y-88837000D03*
D13*
X120840000Y-86837000D03*
X120040000Y-86837000D03*
X119240000Y-86837000D03*
X118440000Y-86837000D03*
X117640000Y-86837000D03*
X116840000Y-86837000D03*
X116040000Y-86837000D03*
X115240000Y-86837000D03*
X114440000Y-86837000D03*
X113640000Y-86837000D03*
X112840000Y-86837000D03*
D14*
X144653000Y-87503000D03*
D15*
X147193000Y-87503000D03*
X149733000Y-87503000D03*
D16*
X149225000Y-79629000D03*
X151225000Y-79629000D03*
D17*
X136652000Y-115951000D03*
X135382000Y-115951000D03*
X134112000Y-115951000D03*
X132842000Y-115951000D03*
X132842000Y-109601000D03*
X134112000Y-109601000D03*
X135382000Y-109601000D03*
X136652000Y-109601000D03*
D18*
X130925000Y-99224500D03*
X130917000Y-103583000D03*
X128942000Y-103583000D03*
X129417000Y-103583000D03*
X129917000Y-103583000D03*
X130417000Y-103583000D03*
X130417000Y-99224500D03*
X129917000Y-99224500D03*
X129417000Y-99224500D03*
X128917000Y-99224500D03*
D19*
X149987000Y-114808000D03*
X108839000Y-78486000D03*
D20*
X120227000Y-104140000D03*
X121327000Y-104140000D03*
X106460200Y-90322400D03*
X107560200Y-90322400D03*
X106511000Y-97282000D03*
X107611000Y-97282000D03*
D11*
X127127000Y-102374000D03*
X127127000Y-103874000D03*
D16*
X135001000Y-79756000D03*
X133001000Y-79756000D03*
D21*
X130925000Y-113792000D03*
X129425000Y-113792000D03*
D22*
X121412000Y-84560500D03*
X121412000Y-83460500D03*
D23*
X142583000Y-116840000D03*
X144183000Y-116840000D03*
X129375000Y-117094000D03*
X130975000Y-117094000D03*
X106045000Y-84975800D03*
X106045000Y-86575800D03*
X131445000Y-87338000D03*
X131445000Y-88938000D03*
D24*
X127127000Y-107022000D03*
X127127000Y-105322000D03*
X127127000Y-115150000D03*
X127127000Y-113450000D03*
D25*
X115739000Y-116502000D03*
D26*
X113139000Y-116502000D03*
X110739000Y-116502000D03*
D25*
X108139000Y-116502000D03*
D27*
X113239000Y-113825020D03*
X111939000Y-113825020D03*
X112589000Y-113825020D03*
X111289000Y-113825020D03*
X110639000Y-113825020D03*
D28*
X115039000Y-113952000D03*
X108839000Y-113952000D03*
D17*
X142748000Y-103251000D03*
X141478000Y-103251000D03*
X140208000Y-103251000D03*
X138938000Y-103251000D03*
X138938000Y-96901000D03*
X140208000Y-96901000D03*
X141478000Y-96901000D03*
X142748000Y-96901000D03*
X132842000Y-93980000D03*
X134112000Y-93980000D03*
X135382000Y-93980000D03*
X136652000Y-93980000D03*
X136652000Y-100330000D03*
X135382000Y-100330000D03*
X134112000Y-100330000D03*
X132842000Y-100330000D03*
X138938000Y-106553000D03*
X140208000Y-106553000D03*
X141478000Y-106553000D03*
X142748000Y-106553000D03*
X142748000Y-112903000D03*
X141478000Y-112903000D03*
X140208000Y-112903000D03*
X138938000Y-112903000D03*
D29*
X120142000Y-102166000D03*
X120142000Y-103066000D03*
X118999000Y-104198000D03*
X118999000Y-105098000D03*
D30*
X139885000Y-116840000D03*
X140785000Y-116840000D03*
X127185000Y-117094000D03*
X128085000Y-117094000D03*
D29*
X106045000Y-82785800D03*
X106045000Y-83685800D03*
D30*
X131387000Y-97282000D03*
X130487000Y-97282000D03*
D29*
X131445000Y-85148000D03*
X131445000Y-86048000D03*
X136779000Y-101912000D03*
X136779000Y-102812000D03*
X137922000Y-96324000D03*
X137922000Y-97224000D03*
D30*
X131122000Y-109220000D03*
X132022000Y-109220000D03*
X141917000Y-114808000D03*
X142817000Y-114808000D03*
D29*
X120205500Y-84587500D03*
X120205500Y-83687500D03*
D31*
X119088000Y-110635000D03*
X120688000Y-110635000D03*
X119088000Y-106535000D03*
X120688000Y-106535000D03*
D32*
X115604000Y-110209000D03*
X114954000Y-110209000D03*
X114304000Y-110209000D03*
X113654000Y-110209000D03*
X113004000Y-110209000D03*
X112354000Y-110209000D03*
X111704000Y-110209000D03*
X110404000Y-110209000D03*
X111054000Y-110209000D03*
X109754000Y-110209000D03*
X109104000Y-110209000D03*
X108454000Y-110209000D03*
X107804000Y-110209000D03*
X107154000Y-110209000D03*
X115604000Y-102897000D03*
X114954000Y-102897000D03*
X114304000Y-102897000D03*
X113654000Y-102897000D03*
X113004000Y-102897000D03*
X112354000Y-102897000D03*
X111704000Y-102897000D03*
X111054000Y-102897000D03*
X110404000Y-102897000D03*
X109754000Y-102897000D03*
X109104000Y-102897000D03*
X108454000Y-102897000D03*
X107804000Y-102897000D03*
X107154000Y-102897000D03*
D18*
X130925000Y-107352500D03*
X130917000Y-111711000D03*
X128942000Y-111711000D03*
X129417000Y-111711000D03*
X129917000Y-111711000D03*
X130417000Y-111711000D03*
X130417000Y-107352500D03*
X129917000Y-107352500D03*
X129417000Y-107352500D03*
X128917000Y-107352500D03*
D33*
X151638000Y-92075000D03*
X151638000Y-93345000D03*
X151638000Y-94615000D03*
X151638000Y-95885000D03*
X145288000Y-95885000D03*
X145288000Y-94615000D03*
X145288000Y-93345000D03*
X145288000Y-92075000D03*
D34*
X106299000Y-95164000D03*
X107899000Y-95164000D03*
X107899000Y-92964000D03*
X106299000Y-92964000D03*
D35*
X128651000Y-76962000D03*
D36*
X126111000Y-76962000D03*
X123571000Y-76962000D03*
X121031000Y-76962000D03*
D37*
X144613000Y-79756000D03*
D38*
X139613000Y-79756000D03*
D37*
X148463000Y-107148000D03*
D38*
X148463000Y-102148000D03*
D35*
X133985000Y-86487000D03*
D36*
X136525000Y-86487000D03*
X139065000Y-86487000D03*
D19*
X93345000Y-114808000D03*
D30*
X100653000Y-82169000D03*
X99753000Y-82169000D03*
D35*
X101371400Y-76885800D03*
D36*
X101371400Y-79425800D03*
X98831400Y-76885800D03*
X98831400Y-79425800D03*
X96291400Y-76885800D03*
X96291400Y-79425800D03*
X93751400Y-76885800D03*
X93751400Y-79425800D03*
D23*
X116459000Y-81318000D03*
X116459000Y-79718000D03*
X113157000Y-81318000D03*
X113157000Y-79718000D03*
D29*
X116459000Y-83762000D03*
X116459000Y-82862000D03*
X113157000Y-83762000D03*
X113157000Y-82862000D03*
X121904760Y-79803840D03*
X121904760Y-80703840D03*
M02*
