G04 #@! TF.FileFunction,Legend,Bot*
%FSLAX46Y46*%
G04 Gerber Fmt 4.6, Leading zero omitted, Abs format (unit mm)*
G04 Created by KiCad (PCBNEW 4.0.7) date 06/27/18 11:47:53*
%MOMM*%
%LPD*%
G01*
G04 APERTURE LIST*
%ADD10C,0.100000*%
%ADD11C,0.200000*%
%ADD12C,0.120000*%
%ADD13C,0.127000*%
%ADD14C,0.152400*%
%ADD15C,0.150000*%
%ADD16C,0.050000*%
G04 APERTURE END LIST*
D10*
D11*
X127000000Y-95885000D02*
X126873000Y-95885000D01*
X127000000Y-94742000D02*
X127000000Y-95885000D01*
X127889000Y-95504000D02*
X127889000Y-95377000D01*
X127000000Y-96393000D02*
X127889000Y-95504000D01*
X127000000Y-96774000D02*
X127000000Y-96393000D01*
X127000000Y-99441000D02*
X127000000Y-96774000D01*
X128016000Y-95377000D02*
X127889000Y-95377000D01*
X127889000Y-95377000D02*
X127889000Y-94361000D01*
X127635000Y-93218000D02*
X127635000Y-94107000D01*
X129540000Y-94107000D02*
X129667000Y-94107000D01*
X127000000Y-94742000D02*
X127635000Y-94107000D01*
X140525500Y-77152500D02*
X138620500Y-77152500D01*
X144653000Y-77978000D02*
X144653000Y-76454000D01*
X144653000Y-77216000D02*
X145415000Y-77216000D01*
X144653000Y-77216000D02*
X143891000Y-77216000D01*
D10*
X136886905Y-82950190D02*
X136086905Y-82950190D01*
X136086905Y-83254952D01*
X136125000Y-83331143D01*
X136163095Y-83369238D01*
X136239286Y-83407333D01*
X136353571Y-83407333D01*
X136429762Y-83369238D01*
X136467857Y-83331143D01*
X136505952Y-83254952D01*
X136505952Y-82950190D01*
X136086905Y-83674000D02*
X136886905Y-83864476D01*
X136315476Y-84016857D01*
X136886905Y-84169238D01*
X136086905Y-84359714D01*
X136886905Y-84664476D02*
X136086905Y-84664476D01*
X136658333Y-84931143D01*
X136086905Y-85197810D01*
X136886905Y-85197810D01*
X138792000Y-83591477D02*
X138753905Y-83515286D01*
X138753905Y-83401001D01*
X138792000Y-83286715D01*
X138868190Y-83210524D01*
X138944381Y-83172429D01*
X139096762Y-83134334D01*
X139211048Y-83134334D01*
X139363429Y-83172429D01*
X139439619Y-83210524D01*
X139515810Y-83286715D01*
X139553905Y-83401001D01*
X139553905Y-83477191D01*
X139515810Y-83591477D01*
X139477714Y-83629572D01*
X139211048Y-83629572D01*
X139211048Y-83477191D01*
X139553905Y-83972429D02*
X138753905Y-83972429D01*
X139553905Y-84429572D01*
X138753905Y-84429572D01*
X139553905Y-84810524D02*
X138753905Y-84810524D01*
X138753905Y-85001000D01*
X138792000Y-85115286D01*
X138868190Y-85191477D01*
X138944381Y-85229572D01*
X139096762Y-85267667D01*
X139211048Y-85267667D01*
X139363429Y-85229572D01*
X139439619Y-85191477D01*
X139515810Y-85115286D01*
X139553905Y-85001000D01*
X139553905Y-84810524D01*
X133673905Y-84302620D02*
X133673905Y-83921667D01*
X134054857Y-83883572D01*
X134016762Y-83921667D01*
X133978667Y-83997858D01*
X133978667Y-84188334D01*
X134016762Y-84264524D01*
X134054857Y-84302620D01*
X134131048Y-84340715D01*
X134321524Y-84340715D01*
X134397714Y-84302620D01*
X134435810Y-84264524D01*
X134473905Y-84188334D01*
X134473905Y-83997858D01*
X134435810Y-83921667D01*
X134397714Y-83883572D01*
X133673905Y-84569286D02*
X134473905Y-84835953D01*
X133673905Y-85102620D01*
D12*
X109251000Y-114773000D02*
X109951000Y-114773000D01*
X109951000Y-113573000D02*
X109251000Y-113573000D01*
X109351000Y-112306000D02*
X109851000Y-112306000D01*
X109851000Y-113246000D02*
X109351000Y-113246000D01*
X108581000Y-108420000D02*
X108081000Y-108420000D01*
X108081000Y-107480000D02*
X108581000Y-107480000D01*
X112941000Y-92706000D02*
X112941000Y-92206000D01*
X113881000Y-92206000D02*
X113881000Y-92706000D01*
X115535000Y-93060000D02*
X115535000Y-92360000D01*
X114335000Y-92360000D02*
X114335000Y-93060000D01*
X103387600Y-77704200D02*
X103387600Y-78404200D01*
X104587600Y-78404200D02*
X104587600Y-77704200D01*
X124625000Y-94992000D02*
X124625000Y-94492000D01*
X125565000Y-94492000D02*
X125565000Y-94992000D01*
X132076000Y-82639000D02*
X131576000Y-82639000D01*
X131576000Y-81699000D02*
X132076000Y-81699000D01*
X146908000Y-88935000D02*
X146208000Y-88935000D01*
X146208000Y-90135000D02*
X146908000Y-90135000D01*
X148975000Y-89065000D02*
X149475000Y-89065000D01*
X149475000Y-90005000D02*
X148975000Y-90005000D01*
X124845000Y-78270000D02*
X125345000Y-78270000D01*
X125345000Y-79210000D02*
X124845000Y-79210000D01*
X130525000Y-104556000D02*
X129825000Y-104556000D01*
X129825000Y-105756000D02*
X130525000Y-105756000D01*
X128964500Y-94132500D02*
X128464500Y-94132500D01*
X128464500Y-93192500D02*
X128964500Y-93192500D01*
X129314500Y-91917000D02*
X129314500Y-91217000D01*
X128114500Y-91217000D02*
X128114500Y-91917000D01*
X130738500Y-99910000D02*
X129738500Y-99910000D01*
X129738500Y-98210000D02*
X130738500Y-98210000D01*
X135293000Y-90928000D02*
X135293000Y-90428000D01*
X136233000Y-90428000D02*
X136233000Y-90928000D01*
X119735500Y-92706000D02*
X119735500Y-92206000D01*
X120675500Y-92206000D02*
X120675500Y-92706000D01*
X127988500Y-97774000D02*
X127988500Y-95774000D01*
X127988500Y-95774000D02*
X131888500Y-95774000D01*
X127988500Y-97774000D02*
X131888500Y-97774000D01*
X126357000Y-92030000D02*
X125357000Y-92030000D01*
X125357000Y-93390000D02*
X126357000Y-93390000D01*
X132944500Y-92765500D02*
X132944500Y-91765500D01*
X134644500Y-91765500D02*
X134644500Y-92765500D01*
X110613000Y-108480000D02*
X110113000Y-108480000D01*
X110113000Y-107420000D02*
X110613000Y-107420000D01*
X129028000Y-95399000D02*
X128528000Y-95399000D01*
X128528000Y-94339000D02*
X129028000Y-94339000D01*
X130933000Y-95399000D02*
X130433000Y-95399000D01*
X130433000Y-94339000D02*
X130933000Y-94339000D01*
X130294280Y-107255120D02*
X130294280Y-106755120D01*
X131234280Y-106755120D02*
X131234280Y-107255120D01*
X137410000Y-90573000D02*
X136910000Y-90573000D01*
X136910000Y-89513000D02*
X137410000Y-89513000D01*
X137410000Y-91843000D02*
X136910000Y-91843000D01*
X136910000Y-90783000D02*
X137410000Y-90783000D01*
X119275000Y-91952000D02*
X119275000Y-92452000D01*
X118215000Y-92452000D02*
X118215000Y-91952000D01*
X116945000Y-92325000D02*
X116945000Y-91825000D01*
X118005000Y-91825000D02*
X118005000Y-92325000D01*
X135475600Y-112223000D02*
X134475600Y-112223000D01*
X134475600Y-113583000D02*
X135475600Y-113583000D01*
D13*
X122751000Y-81769500D02*
X122751000Y-85489500D01*
X129471000Y-81769500D02*
X129471000Y-85489500D01*
X122751000Y-81769500D02*
X123011000Y-81769500D01*
X129221000Y-81769500D02*
X129471000Y-81769500D01*
X129471000Y-85489500D02*
X127981000Y-85489500D01*
X124351000Y-85489500D02*
X122751000Y-85489500D01*
D11*
X123921000Y-79256500D02*
G75*
G03X123921000Y-79256500I-100000J0D01*
G01*
D14*
X129743200Y-92481400D02*
X129743200Y-91922600D01*
X130835400Y-91414600D02*
X131546600Y-91414600D01*
X132638800Y-91922600D02*
X132638800Y-92481400D01*
D12*
X134589000Y-87792000D02*
X133889000Y-87792000D01*
X133889000Y-88992000D02*
X134589000Y-88992000D01*
X137891000Y-87792000D02*
X137191000Y-87792000D01*
X137191000Y-88992000D02*
X137891000Y-88992000D01*
X127985000Y-78140000D02*
X127285000Y-78140000D01*
X127285000Y-79340000D02*
X127985000Y-79340000D01*
D15*
X107227666Y-114530143D02*
X107275285Y-114577762D01*
X107418142Y-114625381D01*
X107513380Y-114625381D01*
X107656238Y-114577762D01*
X107751476Y-114482524D01*
X107799095Y-114387286D01*
X107846714Y-114196810D01*
X107846714Y-114053952D01*
X107799095Y-113863476D01*
X107751476Y-113768238D01*
X107656238Y-113673000D01*
X107513380Y-113625381D01*
X107418142Y-113625381D01*
X107275285Y-113673000D01*
X107227666Y-113720619D01*
X106846714Y-113720619D02*
X106799095Y-113673000D01*
X106703857Y-113625381D01*
X106465761Y-113625381D01*
X106370523Y-113673000D01*
X106322904Y-113720619D01*
X106275285Y-113815857D01*
X106275285Y-113911095D01*
X106322904Y-114053952D01*
X106894333Y-114625381D01*
X106275285Y-114625381D01*
X107735666Y-113133143D02*
X107783285Y-113180762D01*
X107926142Y-113228381D01*
X108021380Y-113228381D01*
X108164238Y-113180762D01*
X108259476Y-113085524D01*
X108307095Y-112990286D01*
X108354714Y-112799810D01*
X108354714Y-112656952D01*
X108307095Y-112466476D01*
X108259476Y-112371238D01*
X108164238Y-112276000D01*
X108021380Y-112228381D01*
X107926142Y-112228381D01*
X107783285Y-112276000D01*
X107735666Y-112323619D01*
X106830904Y-112228381D02*
X107307095Y-112228381D01*
X107354714Y-112704571D01*
X107307095Y-112656952D01*
X107211857Y-112609333D01*
X106973761Y-112609333D01*
X106878523Y-112656952D01*
X106830904Y-112704571D01*
X106783285Y-112799810D01*
X106783285Y-113037905D01*
X106830904Y-113133143D01*
X106878523Y-113180762D01*
X106973761Y-113228381D01*
X107211857Y-113228381D01*
X107307095Y-113180762D01*
X107354714Y-113133143D01*
X106465666Y-108307143D02*
X106513285Y-108354762D01*
X106656142Y-108402381D01*
X106751380Y-108402381D01*
X106894238Y-108354762D01*
X106989476Y-108259524D01*
X107037095Y-108164286D01*
X107084714Y-107973810D01*
X107084714Y-107830952D01*
X107037095Y-107640476D01*
X106989476Y-107545238D01*
X106894238Y-107450000D01*
X106751380Y-107402381D01*
X106656142Y-107402381D01*
X106513285Y-107450000D01*
X106465666Y-107497619D01*
X105608523Y-107402381D02*
X105799000Y-107402381D01*
X105894238Y-107450000D01*
X105941857Y-107497619D01*
X106037095Y-107640476D01*
X106084714Y-107830952D01*
X106084714Y-108211905D01*
X106037095Y-108307143D01*
X105989476Y-108354762D01*
X105894238Y-108402381D01*
X105703761Y-108402381D01*
X105608523Y-108354762D01*
X105560904Y-108307143D01*
X105513285Y-108211905D01*
X105513285Y-107973810D01*
X105560904Y-107878571D01*
X105608523Y-107830952D01*
X105703761Y-107783333D01*
X105894238Y-107783333D01*
X105989476Y-107830952D01*
X106037095Y-107878571D01*
X106084714Y-107973810D01*
X113768143Y-90003334D02*
X113815762Y-89955715D01*
X113863381Y-89812858D01*
X113863381Y-89717620D01*
X113815762Y-89574762D01*
X113720524Y-89479524D01*
X113625286Y-89431905D01*
X113434810Y-89384286D01*
X113291952Y-89384286D01*
X113101476Y-89431905D01*
X113006238Y-89479524D01*
X112911000Y-89574762D01*
X112863381Y-89717620D01*
X112863381Y-89812858D01*
X112911000Y-89955715D01*
X112958619Y-90003334D01*
X112863381Y-90336667D02*
X112863381Y-91003334D01*
X113863381Y-90574762D01*
X115292143Y-90003334D02*
X115339762Y-89955715D01*
X115387381Y-89812858D01*
X115387381Y-89717620D01*
X115339762Y-89574762D01*
X115244524Y-89479524D01*
X115149286Y-89431905D01*
X114958810Y-89384286D01*
X114815952Y-89384286D01*
X114625476Y-89431905D01*
X114530238Y-89479524D01*
X114435000Y-89574762D01*
X114387381Y-89717620D01*
X114387381Y-89812858D01*
X114435000Y-89955715D01*
X114482619Y-90003334D01*
X114815952Y-90574762D02*
X114768333Y-90479524D01*
X114720714Y-90431905D01*
X114625476Y-90384286D01*
X114577857Y-90384286D01*
X114482619Y-90431905D01*
X114435000Y-90479524D01*
X114387381Y-90574762D01*
X114387381Y-90765239D01*
X114435000Y-90860477D01*
X114482619Y-90908096D01*
X114577857Y-90955715D01*
X114625476Y-90955715D01*
X114720714Y-90908096D01*
X114768333Y-90860477D01*
X114815952Y-90765239D01*
X114815952Y-90574762D01*
X114863571Y-90479524D01*
X114911190Y-90431905D01*
X115006429Y-90384286D01*
X115196905Y-90384286D01*
X115292143Y-90431905D01*
X115339762Y-90479524D01*
X115387381Y-90574762D01*
X115387381Y-90765239D01*
X115339762Y-90860477D01*
X115292143Y-90908096D01*
X115196905Y-90955715D01*
X115006429Y-90955715D01*
X114911190Y-90908096D01*
X114863571Y-90860477D01*
X114815952Y-90765239D01*
X104370143Y-80351334D02*
X104417762Y-80303715D01*
X104465381Y-80160858D01*
X104465381Y-80065620D01*
X104417762Y-79922762D01*
X104322524Y-79827524D01*
X104227286Y-79779905D01*
X104036810Y-79732286D01*
X103893952Y-79732286D01*
X103703476Y-79779905D01*
X103608238Y-79827524D01*
X103513000Y-79922762D01*
X103465381Y-80065620D01*
X103465381Y-80160858D01*
X103513000Y-80303715D01*
X103560619Y-80351334D01*
X104465381Y-80827524D02*
X104465381Y-81018000D01*
X104417762Y-81113239D01*
X104370143Y-81160858D01*
X104227286Y-81256096D01*
X104036810Y-81303715D01*
X103655857Y-81303715D01*
X103560619Y-81256096D01*
X103513000Y-81208477D01*
X103465381Y-81113239D01*
X103465381Y-80922762D01*
X103513000Y-80827524D01*
X103560619Y-80779905D01*
X103655857Y-80732286D01*
X103893952Y-80732286D01*
X103989190Y-80779905D01*
X104036810Y-80827524D01*
X104084429Y-80922762D01*
X104084429Y-81113239D01*
X104036810Y-81208477D01*
X103989190Y-81256096D01*
X103893952Y-81303715D01*
X124182143Y-94099143D02*
X124229762Y-94051524D01*
X124277381Y-93908667D01*
X124277381Y-93813429D01*
X124229762Y-93670571D01*
X124134524Y-93575333D01*
X124039286Y-93527714D01*
X123848810Y-93480095D01*
X123705952Y-93480095D01*
X123515476Y-93527714D01*
X123420238Y-93575333D01*
X123325000Y-93670571D01*
X123277381Y-93813429D01*
X123277381Y-93908667D01*
X123325000Y-94051524D01*
X123372619Y-94099143D01*
X124277381Y-95051524D02*
X124277381Y-94480095D01*
X124277381Y-94765809D02*
X123277381Y-94765809D01*
X123420238Y-94670571D01*
X123515476Y-94575333D01*
X123563095Y-94480095D01*
X123277381Y-95670571D02*
X123277381Y-95765810D01*
X123325000Y-95861048D01*
X123372619Y-95908667D01*
X123467857Y-95956286D01*
X123658333Y-96003905D01*
X123896429Y-96003905D01*
X124086905Y-95956286D01*
X124182143Y-95908667D01*
X124229762Y-95861048D01*
X124277381Y-95765810D01*
X124277381Y-95670571D01*
X124229762Y-95575333D01*
X124182143Y-95527714D01*
X124086905Y-95480095D01*
X123896429Y-95432476D01*
X123658333Y-95432476D01*
X123467857Y-95480095D01*
X123372619Y-95527714D01*
X123325000Y-95575333D01*
X123277381Y-95670571D01*
X132468857Y-83796143D02*
X132516476Y-83843762D01*
X132659333Y-83891381D01*
X132754571Y-83891381D01*
X132897429Y-83843762D01*
X132992667Y-83748524D01*
X133040286Y-83653286D01*
X133087905Y-83462810D01*
X133087905Y-83319952D01*
X133040286Y-83129476D01*
X132992667Y-83034238D01*
X132897429Y-82939000D01*
X132754571Y-82891381D01*
X132659333Y-82891381D01*
X132516476Y-82939000D01*
X132468857Y-82986619D01*
X131516476Y-83891381D02*
X132087905Y-83891381D01*
X131802191Y-83891381D02*
X131802191Y-82891381D01*
X131897429Y-83034238D01*
X131992667Y-83129476D01*
X132087905Y-83177095D01*
X131135524Y-82986619D02*
X131087905Y-82939000D01*
X130992667Y-82891381D01*
X130754571Y-82891381D01*
X130659333Y-82939000D01*
X130611714Y-82986619D01*
X130564095Y-83081857D01*
X130564095Y-83177095D01*
X130611714Y-83319952D01*
X131183143Y-83891381D01*
X130564095Y-83891381D01*
X144279857Y-89892143D02*
X144327476Y-89939762D01*
X144470333Y-89987381D01*
X144565571Y-89987381D01*
X144708429Y-89939762D01*
X144803667Y-89844524D01*
X144851286Y-89749286D01*
X144898905Y-89558810D01*
X144898905Y-89415952D01*
X144851286Y-89225476D01*
X144803667Y-89130238D01*
X144708429Y-89035000D01*
X144565571Y-88987381D01*
X144470333Y-88987381D01*
X144327476Y-89035000D01*
X144279857Y-89082619D01*
X143327476Y-89987381D02*
X143898905Y-89987381D01*
X143613191Y-89987381D02*
X143613191Y-88987381D01*
X143708429Y-89130238D01*
X143803667Y-89225476D01*
X143898905Y-89273095D01*
X142994143Y-88987381D02*
X142375095Y-88987381D01*
X142708429Y-89368333D01*
X142565571Y-89368333D01*
X142470333Y-89415952D01*
X142422714Y-89463571D01*
X142375095Y-89558810D01*
X142375095Y-89796905D01*
X142422714Y-89892143D01*
X142470333Y-89939762D01*
X142565571Y-89987381D01*
X142851286Y-89987381D01*
X142946524Y-89939762D01*
X142994143Y-89892143D01*
X152280857Y-89892143D02*
X152328476Y-89939762D01*
X152471333Y-89987381D01*
X152566571Y-89987381D01*
X152709429Y-89939762D01*
X152804667Y-89844524D01*
X152852286Y-89749286D01*
X152899905Y-89558810D01*
X152899905Y-89415952D01*
X152852286Y-89225476D01*
X152804667Y-89130238D01*
X152709429Y-89035000D01*
X152566571Y-88987381D01*
X152471333Y-88987381D01*
X152328476Y-89035000D01*
X152280857Y-89082619D01*
X151328476Y-89987381D02*
X151899905Y-89987381D01*
X151614191Y-89987381D02*
X151614191Y-88987381D01*
X151709429Y-89130238D01*
X151804667Y-89225476D01*
X151899905Y-89273095D01*
X150471333Y-89320714D02*
X150471333Y-89987381D01*
X150709429Y-88939762D02*
X150947524Y-89654048D01*
X150328476Y-89654048D01*
X122816857Y-79097143D02*
X122864476Y-79144762D01*
X123007333Y-79192381D01*
X123102571Y-79192381D01*
X123245429Y-79144762D01*
X123340667Y-79049524D01*
X123388286Y-78954286D01*
X123435905Y-78763810D01*
X123435905Y-78620952D01*
X123388286Y-78430476D01*
X123340667Y-78335238D01*
X123245429Y-78240000D01*
X123102571Y-78192381D01*
X123007333Y-78192381D01*
X122864476Y-78240000D01*
X122816857Y-78287619D01*
X121864476Y-79192381D02*
X122435905Y-79192381D01*
X122150191Y-79192381D02*
X122150191Y-78192381D01*
X122245429Y-78335238D01*
X122340667Y-78430476D01*
X122435905Y-78478095D01*
X121007333Y-78192381D02*
X121197810Y-78192381D01*
X121293048Y-78240000D01*
X121340667Y-78287619D01*
X121435905Y-78430476D01*
X121483524Y-78620952D01*
X121483524Y-79001905D01*
X121435905Y-79097143D01*
X121388286Y-79144762D01*
X121293048Y-79192381D01*
X121102571Y-79192381D01*
X121007333Y-79144762D01*
X120959714Y-79097143D01*
X120912095Y-79001905D01*
X120912095Y-78763810D01*
X120959714Y-78668571D01*
X121007333Y-78620952D01*
X121102571Y-78573333D01*
X121293048Y-78573333D01*
X121388286Y-78620952D01*
X121435905Y-78668571D01*
X121483524Y-78763810D01*
X128023857Y-105513143D02*
X128071476Y-105560762D01*
X128214333Y-105608381D01*
X128309571Y-105608381D01*
X128452429Y-105560762D01*
X128547667Y-105465524D01*
X128595286Y-105370286D01*
X128642905Y-105179810D01*
X128642905Y-105036952D01*
X128595286Y-104846476D01*
X128547667Y-104751238D01*
X128452429Y-104656000D01*
X128309571Y-104608381D01*
X128214333Y-104608381D01*
X128071476Y-104656000D01*
X128023857Y-104703619D01*
X127071476Y-105608381D02*
X127642905Y-105608381D01*
X127357191Y-105608381D02*
X127357191Y-104608381D01*
X127452429Y-104751238D01*
X127547667Y-104846476D01*
X127642905Y-104894095D01*
X126738143Y-104608381D02*
X126071476Y-104608381D01*
X126500048Y-105608381D01*
X126722143Y-94226143D02*
X126769762Y-94178524D01*
X126817381Y-94035667D01*
X126817381Y-93940429D01*
X126769762Y-93797571D01*
X126674524Y-93702333D01*
X126579286Y-93654714D01*
X126388810Y-93607095D01*
X126245952Y-93607095D01*
X126055476Y-93654714D01*
X125960238Y-93702333D01*
X125865000Y-93797571D01*
X125817381Y-93940429D01*
X125817381Y-94035667D01*
X125865000Y-94178524D01*
X125912619Y-94226143D01*
X126817381Y-95178524D02*
X126817381Y-94607095D01*
X126817381Y-94892809D02*
X125817381Y-94892809D01*
X125960238Y-94797571D01*
X126055476Y-94702333D01*
X126103095Y-94607095D01*
X126245952Y-95749952D02*
X126198333Y-95654714D01*
X126150714Y-95607095D01*
X126055476Y-95559476D01*
X126007857Y-95559476D01*
X125912619Y-95607095D01*
X125865000Y-95654714D01*
X125817381Y-95749952D01*
X125817381Y-95940429D01*
X125865000Y-96035667D01*
X125912619Y-96083286D01*
X126007857Y-96130905D01*
X126055476Y-96130905D01*
X126150714Y-96083286D01*
X126198333Y-96035667D01*
X126245952Y-95940429D01*
X126245952Y-95749952D01*
X126293571Y-95654714D01*
X126341190Y-95607095D01*
X126436429Y-95559476D01*
X126626905Y-95559476D01*
X126722143Y-95607095D01*
X126769762Y-95654714D01*
X126817381Y-95749952D01*
X126817381Y-95940429D01*
X126769762Y-96035667D01*
X126722143Y-96083286D01*
X126626905Y-96130905D01*
X126436429Y-96130905D01*
X126341190Y-96083286D01*
X126293571Y-96035667D01*
X126245952Y-95940429D01*
X127571643Y-90924143D02*
X127619262Y-90876524D01*
X127666881Y-90733667D01*
X127666881Y-90638429D01*
X127619262Y-90495571D01*
X127524024Y-90400333D01*
X127428786Y-90352714D01*
X127238310Y-90305095D01*
X127095452Y-90305095D01*
X126904976Y-90352714D01*
X126809738Y-90400333D01*
X126714500Y-90495571D01*
X126666881Y-90638429D01*
X126666881Y-90733667D01*
X126714500Y-90876524D01*
X126762119Y-90924143D01*
X127666881Y-91876524D02*
X127666881Y-91305095D01*
X127666881Y-91590809D02*
X126666881Y-91590809D01*
X126809738Y-91495571D01*
X126904976Y-91400333D01*
X126952595Y-91305095D01*
X127666881Y-92352714D02*
X127666881Y-92543190D01*
X127619262Y-92638429D01*
X127571643Y-92686048D01*
X127428786Y-92781286D01*
X127238310Y-92828905D01*
X126857357Y-92828905D01*
X126762119Y-92781286D01*
X126714500Y-92733667D01*
X126666881Y-92638429D01*
X126666881Y-92447952D01*
X126714500Y-92352714D01*
X126762119Y-92305095D01*
X126857357Y-92257476D01*
X127095452Y-92257476D01*
X127190690Y-92305095D01*
X127238310Y-92352714D01*
X127285929Y-92447952D01*
X127285929Y-92638429D01*
X127238310Y-92733667D01*
X127190690Y-92781286D01*
X127095452Y-92828905D01*
X130881357Y-101167143D02*
X130928976Y-101214762D01*
X131071833Y-101262381D01*
X131167071Y-101262381D01*
X131309929Y-101214762D01*
X131405167Y-101119524D01*
X131452786Y-101024286D01*
X131500405Y-100833810D01*
X131500405Y-100690952D01*
X131452786Y-100500476D01*
X131405167Y-100405238D01*
X131309929Y-100310000D01*
X131167071Y-100262381D01*
X131071833Y-100262381D01*
X130928976Y-100310000D01*
X130881357Y-100357619D01*
X130500405Y-100357619D02*
X130452786Y-100310000D01*
X130357548Y-100262381D01*
X130119452Y-100262381D01*
X130024214Y-100310000D01*
X129976595Y-100357619D01*
X129928976Y-100452857D01*
X129928976Y-100548095D01*
X129976595Y-100690952D01*
X130548024Y-101262381D01*
X129928976Y-101262381D01*
X128976595Y-101262381D02*
X129548024Y-101262381D01*
X129262310Y-101262381D02*
X129262310Y-100262381D01*
X129357548Y-100405238D01*
X129452786Y-100500476D01*
X129548024Y-100548095D01*
X136120143Y-92575143D02*
X136167762Y-92527524D01*
X136215381Y-92384667D01*
X136215381Y-92289429D01*
X136167762Y-92146571D01*
X136072524Y-92051333D01*
X135977286Y-92003714D01*
X135786810Y-91956095D01*
X135643952Y-91956095D01*
X135453476Y-92003714D01*
X135358238Y-92051333D01*
X135263000Y-92146571D01*
X135215381Y-92289429D01*
X135215381Y-92384667D01*
X135263000Y-92527524D01*
X135310619Y-92575143D01*
X135310619Y-92956095D02*
X135263000Y-93003714D01*
X135215381Y-93098952D01*
X135215381Y-93337048D01*
X135263000Y-93432286D01*
X135310619Y-93479905D01*
X135405857Y-93527524D01*
X135501095Y-93527524D01*
X135643952Y-93479905D01*
X136215381Y-92908476D01*
X136215381Y-93527524D01*
X135215381Y-93860857D02*
X135215381Y-94527524D01*
X136215381Y-94098952D01*
X120626143Y-89273143D02*
X120673762Y-89225524D01*
X120721381Y-89082667D01*
X120721381Y-88987429D01*
X120673762Y-88844571D01*
X120578524Y-88749333D01*
X120483286Y-88701714D01*
X120292810Y-88654095D01*
X120149952Y-88654095D01*
X119959476Y-88701714D01*
X119864238Y-88749333D01*
X119769000Y-88844571D01*
X119721381Y-88987429D01*
X119721381Y-89082667D01*
X119769000Y-89225524D01*
X119816619Y-89273143D01*
X119816619Y-89654095D02*
X119769000Y-89701714D01*
X119721381Y-89796952D01*
X119721381Y-90035048D01*
X119769000Y-90130286D01*
X119816619Y-90177905D01*
X119911857Y-90225524D01*
X120007095Y-90225524D01*
X120149952Y-90177905D01*
X120721381Y-89606476D01*
X120721381Y-90225524D01*
X120149952Y-90796952D02*
X120102333Y-90701714D01*
X120054714Y-90654095D01*
X119959476Y-90606476D01*
X119911857Y-90606476D01*
X119816619Y-90654095D01*
X119769000Y-90701714D01*
X119721381Y-90796952D01*
X119721381Y-90987429D01*
X119769000Y-91082667D01*
X119816619Y-91130286D01*
X119911857Y-91177905D01*
X119959476Y-91177905D01*
X120054714Y-91130286D01*
X120102333Y-91082667D01*
X120149952Y-90987429D01*
X120149952Y-90796952D01*
X120197571Y-90701714D01*
X120245190Y-90654095D01*
X120340429Y-90606476D01*
X120530905Y-90606476D01*
X120626143Y-90654095D01*
X120673762Y-90701714D01*
X120721381Y-90796952D01*
X120721381Y-90987429D01*
X120673762Y-91082667D01*
X120626143Y-91130286D01*
X120530905Y-91177905D01*
X120340429Y-91177905D01*
X120245190Y-91130286D01*
X120197571Y-91082667D01*
X120149952Y-90987429D01*
X130976595Y-99226381D02*
X130976595Y-98226381D01*
X130738500Y-98226381D01*
X130595642Y-98274000D01*
X130500404Y-98369238D01*
X130452785Y-98464476D01*
X130405166Y-98654952D01*
X130405166Y-98797810D01*
X130452785Y-98988286D01*
X130500404Y-99083524D01*
X130595642Y-99178762D01*
X130738500Y-99226381D01*
X130976595Y-99226381D01*
X129928976Y-99226381D02*
X129738500Y-99226381D01*
X129643261Y-99178762D01*
X129595642Y-99131143D01*
X129500404Y-98988286D01*
X129452785Y-98797810D01*
X129452785Y-98416857D01*
X129500404Y-98321619D01*
X129548023Y-98274000D01*
X129643261Y-98226381D01*
X129833738Y-98226381D01*
X129928976Y-98274000D01*
X129976595Y-98321619D01*
X130024214Y-98416857D01*
X130024214Y-98654952D01*
X129976595Y-98750190D01*
X129928976Y-98797810D01*
X129833738Y-98845429D01*
X129643261Y-98845429D01*
X129548023Y-98797810D01*
X129500404Y-98750190D01*
X129452785Y-98654952D01*
X123864666Y-93162381D02*
X124340857Y-93162381D01*
X124340857Y-92162381D01*
X123007523Y-93162381D02*
X123578952Y-93162381D01*
X123293238Y-93162381D02*
X123293238Y-92162381D01*
X123388476Y-92305238D01*
X123483714Y-92400476D01*
X123578952Y-92448095D01*
X134437381Y-89622334D02*
X134437381Y-89146143D01*
X133437381Y-89146143D01*
X133532619Y-89908048D02*
X133485000Y-89955667D01*
X133437381Y-90050905D01*
X133437381Y-90289001D01*
X133485000Y-90384239D01*
X133532619Y-90431858D01*
X133627857Y-90479477D01*
X133723095Y-90479477D01*
X133865952Y-90431858D01*
X134437381Y-89860429D01*
X134437381Y-90479477D01*
X112561666Y-108402381D02*
X112895000Y-107926190D01*
X113133095Y-108402381D02*
X113133095Y-107402381D01*
X112752142Y-107402381D01*
X112656904Y-107450000D01*
X112609285Y-107497619D01*
X112561666Y-107592857D01*
X112561666Y-107735714D01*
X112609285Y-107830952D01*
X112656904Y-107878571D01*
X112752142Y-107926190D01*
X113133095Y-107926190D01*
X112228333Y-107402381D02*
X111609285Y-107402381D01*
X111942619Y-107783333D01*
X111799761Y-107783333D01*
X111704523Y-107830952D01*
X111656904Y-107878571D01*
X111609285Y-107973810D01*
X111609285Y-108211905D01*
X111656904Y-108307143D01*
X111704523Y-108354762D01*
X111799761Y-108402381D01*
X112085476Y-108402381D01*
X112180714Y-108354762D01*
X112228333Y-108307143D01*
X126817381Y-97528143D02*
X126341190Y-97194809D01*
X126817381Y-96956714D02*
X125817381Y-96956714D01*
X125817381Y-97337667D01*
X125865000Y-97432905D01*
X125912619Y-97480524D01*
X126007857Y-97528143D01*
X126150714Y-97528143D01*
X126245952Y-97480524D01*
X126293571Y-97432905D01*
X126341190Y-97337667D01*
X126341190Y-96956714D01*
X126817381Y-98480524D02*
X126817381Y-97909095D01*
X126817381Y-98194809D02*
X125817381Y-98194809D01*
X125960238Y-98099571D01*
X126055476Y-98004333D01*
X126103095Y-97909095D01*
X125817381Y-99099571D02*
X125817381Y-99194810D01*
X125865000Y-99290048D01*
X125912619Y-99337667D01*
X126007857Y-99385286D01*
X126198333Y-99432905D01*
X126436429Y-99432905D01*
X126626905Y-99385286D01*
X126722143Y-99337667D01*
X126769762Y-99290048D01*
X126817381Y-99194810D01*
X126817381Y-99099571D01*
X126769762Y-99004333D01*
X126722143Y-98956714D01*
X126626905Y-98909095D01*
X126436429Y-98861476D01*
X126198333Y-98861476D01*
X126007857Y-98909095D01*
X125912619Y-98956714D01*
X125865000Y-99004333D01*
X125817381Y-99099571D01*
X133357857Y-95194381D02*
X133691191Y-94718190D01*
X133929286Y-95194381D02*
X133929286Y-94194381D01*
X133548333Y-94194381D01*
X133453095Y-94242000D01*
X133405476Y-94289619D01*
X133357857Y-94384857D01*
X133357857Y-94527714D01*
X133405476Y-94622952D01*
X133453095Y-94670571D01*
X133548333Y-94718190D01*
X133929286Y-94718190D01*
X132405476Y-95194381D02*
X132976905Y-95194381D01*
X132691191Y-95194381D02*
X132691191Y-94194381D01*
X132786429Y-94337238D01*
X132881667Y-94432476D01*
X132976905Y-94480095D01*
X131453095Y-95194381D02*
X132024524Y-95194381D01*
X131738810Y-95194381D02*
X131738810Y-94194381D01*
X131834048Y-94337238D01*
X131929286Y-94432476D01*
X132024524Y-94480095D01*
X129883137Y-103647501D02*
X130216471Y-103171310D01*
X130454566Y-103647501D02*
X130454566Y-102647501D01*
X130073613Y-102647501D01*
X129978375Y-102695120D01*
X129930756Y-102742739D01*
X129883137Y-102837977D01*
X129883137Y-102980834D01*
X129930756Y-103076072D01*
X129978375Y-103123691D01*
X130073613Y-103171310D01*
X130454566Y-103171310D01*
X128930756Y-103647501D02*
X129502185Y-103647501D01*
X129216471Y-103647501D02*
X129216471Y-102647501D01*
X129311709Y-102790358D01*
X129406947Y-102885596D01*
X129502185Y-102933215D01*
X128597423Y-102647501D02*
X127930756Y-102647501D01*
X128359328Y-103647501D01*
X140215857Y-90495381D02*
X140549191Y-90019190D01*
X140787286Y-90495381D02*
X140787286Y-89495381D01*
X140406333Y-89495381D01*
X140311095Y-89543000D01*
X140263476Y-89590619D01*
X140215857Y-89685857D01*
X140215857Y-89828714D01*
X140263476Y-89923952D01*
X140311095Y-89971571D01*
X140406333Y-90019190D01*
X140787286Y-90019190D01*
X139263476Y-90495381D02*
X139834905Y-90495381D01*
X139549191Y-90495381D02*
X139549191Y-89495381D01*
X139644429Y-89638238D01*
X139739667Y-89733476D01*
X139834905Y-89781095D01*
X138787286Y-90495381D02*
X138596810Y-90495381D01*
X138501571Y-90447762D01*
X138453952Y-90400143D01*
X138358714Y-90257286D01*
X138311095Y-90066810D01*
X138311095Y-89685857D01*
X138358714Y-89590619D01*
X138406333Y-89543000D01*
X138501571Y-89495381D01*
X138692048Y-89495381D01*
X138787286Y-89543000D01*
X138834905Y-89590619D01*
X138882524Y-89685857D01*
X138882524Y-89923952D01*
X138834905Y-90019190D01*
X138787286Y-90066810D01*
X138692048Y-90114429D01*
X138501571Y-90114429D01*
X138406333Y-90066810D01*
X138358714Y-90019190D01*
X138311095Y-89923952D01*
X140215857Y-91892381D02*
X140549191Y-91416190D01*
X140787286Y-91892381D02*
X140787286Y-90892381D01*
X140406333Y-90892381D01*
X140311095Y-90940000D01*
X140263476Y-90987619D01*
X140215857Y-91082857D01*
X140215857Y-91225714D01*
X140263476Y-91320952D01*
X140311095Y-91368571D01*
X140406333Y-91416190D01*
X140787286Y-91416190D01*
X139834905Y-90987619D02*
X139787286Y-90940000D01*
X139692048Y-90892381D01*
X139453952Y-90892381D01*
X139358714Y-90940000D01*
X139311095Y-90987619D01*
X139263476Y-91082857D01*
X139263476Y-91178095D01*
X139311095Y-91320952D01*
X139882524Y-91892381D01*
X139263476Y-91892381D01*
X138644429Y-90892381D02*
X138549190Y-90892381D01*
X138453952Y-90940000D01*
X138406333Y-90987619D01*
X138358714Y-91082857D01*
X138311095Y-91273333D01*
X138311095Y-91511429D01*
X138358714Y-91701905D01*
X138406333Y-91797143D01*
X138453952Y-91844762D01*
X138549190Y-91892381D01*
X138644429Y-91892381D01*
X138739667Y-91844762D01*
X138787286Y-91797143D01*
X138834905Y-91701905D01*
X138882524Y-91511429D01*
X138882524Y-91273333D01*
X138834905Y-91082857D01*
X138787286Y-90987619D01*
X138739667Y-90940000D01*
X138644429Y-90892381D01*
X119197381Y-89209643D02*
X118721190Y-88876309D01*
X119197381Y-88638214D02*
X118197381Y-88638214D01*
X118197381Y-89019167D01*
X118245000Y-89114405D01*
X118292619Y-89162024D01*
X118387857Y-89209643D01*
X118530714Y-89209643D01*
X118625952Y-89162024D01*
X118673571Y-89114405D01*
X118721190Y-89019167D01*
X118721190Y-88638214D01*
X118292619Y-89590595D02*
X118245000Y-89638214D01*
X118197381Y-89733452D01*
X118197381Y-89971548D01*
X118245000Y-90066786D01*
X118292619Y-90114405D01*
X118387857Y-90162024D01*
X118483095Y-90162024D01*
X118625952Y-90114405D01*
X119197381Y-89542976D01*
X119197381Y-90162024D01*
X119197381Y-91114405D02*
X119197381Y-90542976D01*
X119197381Y-90828690D02*
X118197381Y-90828690D01*
X118340238Y-90733452D01*
X118435476Y-90638214D01*
X118483095Y-90542976D01*
X117863881Y-89082643D02*
X117387690Y-88749309D01*
X117863881Y-88511214D02*
X116863881Y-88511214D01*
X116863881Y-88892167D01*
X116911500Y-88987405D01*
X116959119Y-89035024D01*
X117054357Y-89082643D01*
X117197214Y-89082643D01*
X117292452Y-89035024D01*
X117340071Y-88987405D01*
X117387690Y-88892167D01*
X117387690Y-88511214D01*
X116959119Y-89463595D02*
X116911500Y-89511214D01*
X116863881Y-89606452D01*
X116863881Y-89844548D01*
X116911500Y-89939786D01*
X116959119Y-89987405D01*
X117054357Y-90035024D01*
X117149595Y-90035024D01*
X117292452Y-89987405D01*
X117863881Y-89415976D01*
X117863881Y-90035024D01*
X116959119Y-90415976D02*
X116911500Y-90463595D01*
X116863881Y-90558833D01*
X116863881Y-90796929D01*
X116911500Y-90892167D01*
X116959119Y-90939786D01*
X117054357Y-90987405D01*
X117149595Y-90987405D01*
X117292452Y-90939786D01*
X117863881Y-90368357D01*
X117863881Y-90987405D01*
X133608242Y-112332881D02*
X133036813Y-112332881D01*
X133322528Y-113332881D02*
X133322528Y-112332881D01*
X132703480Y-113332881D02*
X132703480Y-112332881D01*
X132703480Y-112809071D02*
X132132051Y-112809071D01*
X132132051Y-113332881D02*
X132132051Y-112332881D01*
X131132051Y-113332881D02*
X131703480Y-113332881D01*
X131417766Y-113332881D02*
X131417766Y-112332881D01*
X131513004Y-112475738D01*
X131608242Y-112570976D01*
X131703480Y-112618595D01*
D16*
X128907724Y-82000355D02*
X128907724Y-82812874D01*
X128859929Y-82908464D01*
X128812133Y-82956260D01*
X128716543Y-83004055D01*
X128525362Y-83004055D01*
X128429771Y-82956260D01*
X128381976Y-82908464D01*
X128334181Y-82812874D01*
X128334181Y-82000355D01*
X127951819Y-82000355D02*
X127330481Y-82000355D01*
X127665048Y-82382717D01*
X127521662Y-82382717D01*
X127426072Y-82430512D01*
X127378276Y-82478307D01*
X127330481Y-82573898D01*
X127330481Y-82812874D01*
X127378276Y-82908464D01*
X127426072Y-82956260D01*
X127521662Y-83004055D01*
X127808434Y-83004055D01*
X127904024Y-82956260D01*
X127951819Y-82908464D01*
D10*
X131927524Y-89350905D02*
X131927524Y-89998524D01*
X131889429Y-90074714D01*
X131851333Y-90112810D01*
X131775143Y-90150905D01*
X131622762Y-90150905D01*
X131546571Y-90112810D01*
X131508476Y-90074714D01*
X131470381Y-89998524D01*
X131470381Y-89350905D01*
X130746572Y-89350905D02*
X130898953Y-89350905D01*
X130975143Y-89389000D01*
X131013238Y-89427095D01*
X131089429Y-89541381D01*
X131127524Y-89693762D01*
X131127524Y-89998524D01*
X131089429Y-90074714D01*
X131051334Y-90112810D01*
X130975143Y-90150905D01*
X130822762Y-90150905D01*
X130746572Y-90112810D01*
X130708476Y-90074714D01*
X130670381Y-89998524D01*
X130670381Y-89808048D01*
X130708476Y-89731857D01*
X130746572Y-89693762D01*
X130822762Y-89655667D01*
X130975143Y-89655667D01*
X131051334Y-89693762D01*
X131089429Y-89731857D01*
X131127524Y-89808048D01*
D15*
X132087857Y-88749143D02*
X132135476Y-88796762D01*
X132278333Y-88844381D01*
X132373571Y-88844381D01*
X132516429Y-88796762D01*
X132611667Y-88701524D01*
X132659286Y-88606286D01*
X132706905Y-88415810D01*
X132706905Y-88272952D01*
X132659286Y-88082476D01*
X132611667Y-87987238D01*
X132516429Y-87892000D01*
X132373571Y-87844381D01*
X132278333Y-87844381D01*
X132135476Y-87892000D01*
X132087857Y-87939619D01*
X131135476Y-88844381D02*
X131706905Y-88844381D01*
X131421191Y-88844381D02*
X131421191Y-87844381D01*
X131516429Y-87987238D01*
X131611667Y-88082476D01*
X131706905Y-88130095D01*
X130183095Y-88844381D02*
X130754524Y-88844381D01*
X130468810Y-88844381D02*
X130468810Y-87844381D01*
X130564048Y-87987238D01*
X130659286Y-88082476D01*
X130754524Y-88130095D01*
X141104857Y-88749143D02*
X141152476Y-88796762D01*
X141295333Y-88844381D01*
X141390571Y-88844381D01*
X141533429Y-88796762D01*
X141628667Y-88701524D01*
X141676286Y-88606286D01*
X141723905Y-88415810D01*
X141723905Y-88272952D01*
X141676286Y-88082476D01*
X141628667Y-87987238D01*
X141533429Y-87892000D01*
X141390571Y-87844381D01*
X141295333Y-87844381D01*
X141152476Y-87892000D01*
X141104857Y-87939619D01*
X140723905Y-87939619D02*
X140676286Y-87892000D01*
X140581048Y-87844381D01*
X140342952Y-87844381D01*
X140247714Y-87892000D01*
X140200095Y-87939619D01*
X140152476Y-88034857D01*
X140152476Y-88130095D01*
X140200095Y-88272952D01*
X140771524Y-88844381D01*
X140152476Y-88844381D01*
X139533429Y-87844381D02*
X139438190Y-87844381D01*
X139342952Y-87892000D01*
X139295333Y-87939619D01*
X139247714Y-88034857D01*
X139200095Y-88225333D01*
X139200095Y-88463429D01*
X139247714Y-88653905D01*
X139295333Y-88749143D01*
X139342952Y-88796762D01*
X139438190Y-88844381D01*
X139533429Y-88844381D01*
X139628667Y-88796762D01*
X139676286Y-88749143D01*
X139723905Y-88653905D01*
X139771524Y-88463429D01*
X139771524Y-88225333D01*
X139723905Y-88034857D01*
X139676286Y-87939619D01*
X139628667Y-87892000D01*
X139533429Y-87844381D01*
X131579857Y-79097143D02*
X131627476Y-79144762D01*
X131770333Y-79192381D01*
X131865571Y-79192381D01*
X132008429Y-79144762D01*
X132103667Y-79049524D01*
X132151286Y-78954286D01*
X132198905Y-78763810D01*
X132198905Y-78620952D01*
X132151286Y-78430476D01*
X132103667Y-78335238D01*
X132008429Y-78240000D01*
X131865571Y-78192381D01*
X131770333Y-78192381D01*
X131627476Y-78240000D01*
X131579857Y-78287619D01*
X131198905Y-78287619D02*
X131151286Y-78240000D01*
X131056048Y-78192381D01*
X130817952Y-78192381D01*
X130722714Y-78240000D01*
X130675095Y-78287619D01*
X130627476Y-78382857D01*
X130627476Y-78478095D01*
X130675095Y-78620952D01*
X131246524Y-79192381D01*
X130627476Y-79192381D01*
X130151286Y-79192381D02*
X129960810Y-79192381D01*
X129865571Y-79144762D01*
X129817952Y-79097143D01*
X129722714Y-78954286D01*
X129675095Y-78763810D01*
X129675095Y-78382857D01*
X129722714Y-78287619D01*
X129770333Y-78240000D01*
X129865571Y-78192381D01*
X130056048Y-78192381D01*
X130151286Y-78240000D01*
X130198905Y-78287619D01*
X130246524Y-78382857D01*
X130246524Y-78620952D01*
X130198905Y-78716190D01*
X130151286Y-78763810D01*
X130056048Y-78811429D01*
X129865571Y-78811429D01*
X129770333Y-78763810D01*
X129722714Y-78716190D01*
X129675095Y-78620952D01*
M02*
