M48
;DRILL file {KiCad 4.0.7} date 06/27/18 11:47:59
;FORMAT={-:-/ absolute / metric / decimal}
FMAT,2
METRIC,TZ
T1C0.400
T2C0.762
T3C1.000
T4C1.300
%
G90
G05
M71
T1
X94.107Y-98.298
X96.393Y-95.377
X96.647Y-94.234
X98.425Y-97.409
X98.933Y-96.52
X101.031Y-91.227
X104.521Y-82.982
X105.283Y-104.369
X105.867Y-81.864
X106.197Y-93.167
X106.299Y-95.164
X106.655Y-105.588
X106.934Y-100.457
X107.188Y-83.21
X107.62Y-89.357
X107.671Y-87.122
X107.899Y-92.964
X107.899Y-85.674
X107.95Y-111.379
X108.204Y-108.712
X109.118Y-93.701
X109.22Y-95.504
X109.728Y-108.839
X110.617Y-98.425
X110.698Y-108.798
X111.252Y-112.649
X111.658Y-86.03
X112.751Y-90.272
X112.776Y-93.091
X112.903Y-91.313
X112.903Y-95.25
X113.792Y-101.6
X113.807Y-89.931
X114.173Y-83.947
X114.554Y-100.965
X114.681Y-90.297
X115.062Y-97.028
X115.138Y-85.192
X115.392Y-90.983
X115.499Y-82.413
X115.951Y-97.028
X116.078Y-93.599
X116.332Y-101.6
X116.459Y-84.709
X116.586Y-96.52
X116.586Y-106.299
X117.475Y-94.742
X117.475Y-108.458
X117.602Y-100.584
X117.729Y-84.074
X117.78Y-93.751
X117.983Y-103.835
X118.364Y-97.028
X118.364Y-102.87
X118.491Y-90.424
X119.024Y-102.032
X119.202Y-100.305
X119.507Y-88.9
X119.507Y-97.028
X119.837Y-94.056
X120.206Y-83.688
X120.396Y-85.344
X120.396Y-88.646
X120.904Y-92.837
X120.955Y-94.59
X121.031Y-89.687
X121.143Y-82.387
X121.285Y-103.124
X122.834Y-100.305
X123.063Y-107.442
X123.088Y-109.525
X123.215Y-111.43
X123.821Y-80.284
X123.901Y-84.684
X123.952Y-117.323
X124.028Y-105.461
X124.45Y-82.352
X124.46Y-85.806
X124.46Y-93.726
X124.516Y-91.379
X124.714Y-110.515
X124.77Y-75.804
X124.968Y-99.06
X124.968Y-100.33
X124.968Y-101.981
X124.968Y-103.632
X124.968Y-105.156
X124.968Y-107.569
X125.095Y-95.292
X125.39Y-88.219
X125.933Y-96.266
X125.959Y-115.799
X126.035Y-112.954
X126.238Y-101.854
X126.873Y-89.535
X126.975Y-107.874
X126.98Y-88.25
X127.Y-99.06
X127.076Y-114.275
X127.127Y-112.002
X127.152Y-116.916
X127.173Y-102.779
X127.356Y-81.062
X127.381Y-100.584
X127.508Y-95.758
X127.508Y-98.044
X127.813Y-109.245
X128.016Y-107.95
X128.27Y-100.584
X128.27Y-105.283
X128.27Y-115.951
X128.397Y-106.426
X128.549Y-109.576
X128.676Y-112.928
X129.032Y-86.309
X129.159Y-100.457
X129.286Y-102.616
X129.388Y-82.017
X129.388Y-83.871
X129.413Y-109.347
X129.413Y-110.49
X129.54Y-115.951
X129.642Y-78.994
X129.667Y-96.266
X129.667Y-97.409
X129.921Y-100.965
X130.175Y-108.585
X130.861Y-104.597
X130.978Y-106.269
X131.191Y-91.948
X131.572Y-81.026
X131.572Y-101.092
X131.572Y-107.823
X131.699Y-103.886
X131.745Y-84.064
X131.75Y-115.24
X131.826Y-106.553
X131.826Y-110.236
X132.055Y-117.323
X132.08Y-105.41
X132.207Y-111.76
X132.207Y-114.046
X132.415Y-86.07
X132.486Y-78.41
X132.639Y-89.383
X132.893Y-117.348
X133.35Y-102.108
X133.477Y-97.282
X133.655Y-75.565
X134.793Y-117.378
X134.874Y-90.043
X134.976Y-88.392
X135.001Y-91.186
X135.128Y-81.661
X135.382Y-92.71
X135.89Y-102.489
X136.652Y-112.903
X136.652Y-117.348
X138.024Y-90.119
X138.557Y-93.98
X140.589Y-94.107
X141.859Y-115.697
X142.621Y-88.138
X142.748Y-94.107
X143.612Y-85.979
X145.034Y-85.903
X146.914Y-84.887
X147.777Y-85.827
X150.343Y-85.75
X151.765Y-91.313
X151.943Y-86.385
T2
X133.001Y-79.756
X135.001Y-79.756
X149.225Y-79.629
X151.225Y-79.629
T3
X93.751Y-76.886
X93.751Y-79.426
X96.291Y-76.886
X96.291Y-79.426
X98.831Y-76.886
X98.831Y-79.426
X101.371Y-76.886
X101.371Y-79.426
X121.031Y-76.962
X123.571Y-76.962
X126.111Y-76.962
X128.651Y-76.962
X133.985Y-86.487
X136.525Y-86.487
X139.065Y-86.487
X144.653Y-87.503
X147.193Y-87.503
X149.733Y-87.503
T4
X139.613Y-79.756
X144.613Y-79.756
X148.463Y-102.148
X148.463Y-107.148
T0
M30
